<svg width="121" height="140" viewBox="0 0 121 140" fill="none" xmlns="http://www.w3.org/2000/svg">
<g clip-path="url(#clip0_7558_153685)">
<path d="M-0.0539551 109.778L60.446 139.5L120.946 109.778V0.5H-0.0539551V109.778Z" fill="white"/>
<path d="M-0.0539551 109.778L60.446 139.5L120.946 109.778V0.5H-0.0539551V109.778Z" fill="white"/>
<path d="M93.3264 0.5H120.946V28.0377H93.3264V0.5Z" fill="#FF492C"/>
<path fill-rule="evenodd" clip-rule="evenodd" d="M113.122 11.0456H110.762C110.826 10.6771 111.054 10.4713 111.517 10.2365L111.951 10.0175C112.73 9.62021 113.143 9.17305 113.143 8.44264C113.151 8.23171 113.107 8.02205 113.013 7.83252C112.92 7.64299 112.781 7.47954 112.609 7.35687C112.259 7.09461 111.832 6.96741 111.34 6.96741C110.946 6.96741 110.59 7.06576 110.263 7.27163C109.954 7.45369 109.706 7.7229 109.55 8.04531L110.234 8.7272C110.497 8.1948 110.883 7.93123 111.39 7.93123C111.817 7.93123 112.08 8.15153 112.08 8.45576C112.08 8.71146 111.953 8.92521 111.461 9.17305L111.182 9.30811C110.577 9.61234 110.156 9.95984 109.913 10.3572C109.671 10.7479 109.55 11.2515 109.55 11.8534V12.0173H113.122V11.0456ZM112.8 13.1437H108.9L106.948 16.5138H110.85L112.801 19.8826L114.751 16.5125L112.801 13.1424L112.8 13.1437Z" fill="white"/>
<path fill-rule="evenodd" clip-rule="evenodd" d="M107.28 18.7641C104.791 18.7641 102.768 16.7486 102.768 14.2702C102.768 11.7918 104.791 9.77629 107.28 9.77629L108.824 6.55568C107.679 6.32755 106.498 6.35549 105.365 6.63749C104.233 6.91949 103.177 7.44851 102.274 8.18644C101.371 8.92436 100.644 9.8528 100.144 10.9048C99.645 11.9569 99.3859 13.1063 99.3857 14.2702C99.3861 15.3034 99.5905 16.3265 99.9874 17.2809C100.384 18.2354 100.966 19.1025 101.699 19.8329C102.432 20.5632 103.302 21.1425 104.26 21.5376C105.217 21.9327 106.243 22.1358 107.28 22.1355C108.951 22.1383 110.579 21.6101 111.929 20.6275L110.219 17.6757C109.429 18.3536 108.402 18.7641 107.28 18.7641Z" fill="white"/>
<path fill-rule="evenodd" clip-rule="evenodd" d="M93.2568 27.4266V1.37463H94.6838V27.4266H93.2568Z" fill="black"/>
<path d="M-0.0539551 110.021V101.498L60.446 131.713L120.946 101.497V110.02L60.446 139.499L-0.0539551 110.021Z" fill="black"/>
<path d="M-0.0539551 102.213V93.689L60.446 123.906L120.946 93.689V102.213L60.446 131.691L-0.0539551 102.213Z" fill="#FF492C"/>
<path d="M-0.0539551 94.4299V85.9063L60.446 116.123L120.946 85.9076V94.4312L60.446 123.91L-0.0539551 94.4299Z" fill="#FFC800"/>
<path fill-rule="evenodd" clip-rule="evenodd" d="M60.446 137.913L119.519 108.892V1.92278H1.37306V108.892L60.446 137.913ZM-0.0539551 109.778L60.446 139.5L120.946 109.778V0.5H-0.0539551V109.778Z" fill="black"/>
<path fill-rule="evenodd" clip-rule="evenodd" d="M0.766846 26.7146H120.387V28.1374H0.768161L0.766846 26.7146Z" fill="black"/>
<path d="M7.18628 17.5288V11.3315H9.29063C9.71544 11.3315 10.089 11.3971 10.4086 11.5256C10.7282 11.6567 10.9767 11.8534 11.1543 12.1157C11.3318 12.3779 11.4213 12.7031 11.4213 13.0926C11.4229 13.3282 11.3592 13.5596 11.2371 13.7614C11.1175 13.9659 10.9478 14.1403 10.7282 14.2885C11.0175 14.4354 11.2411 14.6321 11.3989 14.8786C11.5554 15.1212 11.633 15.4163 11.633 15.7572C11.633 16.1349 11.5475 16.4561 11.3766 16.721C11.2043 16.9885 10.9649 17.1879 10.6571 17.3242C10.3494 17.4606 9.98769 17.5288 9.5734 17.5288H7.18628ZM8.37524 13.8545H9.31562C9.58261 13.8545 9.79304 13.7863 9.94692 13.6512C10.1008 13.5148 10.1771 13.3234 10.1771 13.0756C10.1829 12.9663 10.1625 12.8572 10.1177 12.7574C10.0729 12.6575 10.0049 12.5697 9.9193 12.5012C9.74832 12.3648 9.51421 12.2966 9.21829 12.2966H8.37655L8.37524 13.8545ZM8.37524 16.4561H9.45897C9.74832 16.4561 9.97585 16.3853 10.1429 16.2398C10.3099 16.0942 10.3901 15.9028 10.3901 15.6602C10.395 15.5459 10.3725 15.4322 10.3248 15.3283C10.277 15.2243 10.2052 15.1331 10.1153 15.0622C9.93114 14.918 9.68125 14.8458 9.36165 14.8458H8.37524V16.4561ZM13.5072 17.5288V11.3315H17.4397V12.4383H14.7225V13.8453H17.0662V14.9258H14.7225V16.4207H17.4752V17.5288H13.5059H13.5072ZM21.7089 17.6337C21.3959 17.6337 21.1026 17.5944 20.8303 17.5183C20.5581 17.4423 20.3161 17.3347 20.103 17.1957C19.89 17.0567 19.7137 16.902 19.5743 16.7315C19.4424 16.5754 19.3495 16.3902 19.3034 16.1913L20.4923 15.8372C20.5754 16.0454 20.7169 16.2253 20.9001 16.3552C21.116 16.5061 21.3742 16.585 21.6379 16.5807C21.9522 16.586 22.2074 16.5191 22.406 16.3775C22.4984 16.3183 22.5742 16.2367 22.6264 16.1404C22.6786 16.0441 22.7055 15.9362 22.7045 15.8267C22.705 15.7326 22.6839 15.6396 22.6428 15.5549C22.6018 15.4701 22.5419 15.3958 22.4678 15.3376C22.279 15.1888 22.0593 15.084 21.8246 15.0307L21.0171 14.8183C20.7323 14.7498 20.4617 14.6322 20.2175 14.4708C19.9858 14.3221 19.7964 14.1165 19.6675 13.8738C19.5385 13.631 19.4743 13.3593 19.4809 13.0847C19.4809 12.5012 19.6743 12.0449 20.0623 11.717C20.4502 11.3892 20.9987 11.2253 21.7089 11.2253C22.1061 11.2253 22.4533 11.283 22.7532 11.3984C23.0517 11.5138 23.3016 11.6764 23.5029 11.8888C23.7041 12.1012 23.858 12.3517 23.9645 12.6415L22.7834 13.0047C22.7079 12.7982 22.5718 12.6191 22.3928 12.4907C22.1828 12.3432 21.9301 12.2686 21.6734 12.2783C21.3775 12.2783 21.1447 12.3465 20.9763 12.4828C20.8921 12.5522 20.8254 12.6403 20.7815 12.7401C20.7377 12.8398 20.7179 12.9484 20.7238 13.0572C20.7238 13.2526 20.7896 13.406 20.9237 13.5175C21.0566 13.6302 21.2394 13.7155 21.4695 13.7745L22.2863 13.9791C22.819 14.1076 23.2332 14.341 23.5292 14.678C23.8251 15.0137 23.9724 15.3887 23.9724 15.8018C23.9724 16.169 23.8843 16.4889 23.7067 16.763C23.5174 17.0467 23.2491 17.2691 22.9347 17.4029C22.598 17.5563 22.189 17.6337 21.7089 17.6337ZM27.2131 17.5288V12.4383H25.3494V11.3315H30.2854V12.4383H28.4297V17.5288H27.2131ZM37.0588 17.6337C36.7458 17.6337 36.4512 17.5944 36.1802 17.5183C35.908 17.4423 35.6647 17.3347 35.4516 17.1957C35.2386 17.0567 35.0623 16.902 34.9242 16.7315C34.7923 16.5754 34.6994 16.3902 34.6533 16.1913L35.8422 15.8372C35.9253 16.0454 36.0668 16.2253 36.25 16.3552C36.4655 16.5058 36.7233 16.5848 36.9865 16.5807C37.3021 16.586 37.5573 16.5191 37.7546 16.3775C37.8469 16.3183 37.9228 16.2367 37.975 16.1404C38.0272 16.0441 38.0541 15.9362 38.0531 15.8267C38.0535 15.7326 38.0324 15.6396 37.9914 15.5549C37.9504 15.4701 37.8905 15.3958 37.8164 15.3376C37.628 15.189 37.4087 15.0842 37.1745 15.0307L36.3657 14.8183C36.0813 14.7497 35.8112 14.6321 35.5674 14.4708C35.3357 14.3221 35.1463 14.1165 35.0174 13.8738C34.8884 13.631 34.8242 13.3593 34.8308 13.0847C34.8308 12.5012 35.0242 12.0449 35.4122 11.717C35.7988 11.3892 36.3486 11.2253 37.0588 11.2253C37.456 11.2253 37.8032 11.283 38.1018 11.3984C38.4003 11.5138 38.6502 11.6764 38.8515 11.8888C39.0527 12.1012 39.2066 12.3517 39.3144 12.6415L38.1333 13.0047C38.0578 12.7982 37.9217 12.6191 37.7427 12.4907C37.5327 12.3432 37.28 12.2686 37.0233 12.2783C36.7274 12.2783 36.4946 12.3465 36.3262 12.4828C36.242 12.5522 36.1753 12.6403 36.1314 12.7401C36.0876 12.8398 36.0678 12.9484 36.0737 13.0572C36.0737 13.2526 36.1395 13.406 36.2736 13.5175C36.4051 13.6302 36.5893 13.7155 36.8194 13.7745L37.6349 13.9791C38.1689 14.1076 38.5818 14.341 38.8791 14.678C39.175 15.0137 39.3223 15.3887 39.3223 15.8018C39.3223 16.169 39.2342 16.4889 39.0566 16.763C38.8669 17.0469 38.5981 17.2694 38.2833 17.4029C37.9466 17.5563 37.5375 17.6337 37.0588 17.6337ZM44.09 17.6337C43.4613 17.6337 42.9063 17.4973 42.4249 17.222C41.9504 16.9554 41.559 16.5633 41.2938 16.089C41.015 15.5838 40.874 15.0145 40.8848 14.438C40.8848 13.8073 41.0216 13.2513 41.2925 12.77C41.5661 12.2901 41.9396 11.9124 42.4157 11.6423C42.9189 11.3639 43.487 11.2232 44.0623 11.2345C44.6897 11.2345 45.2421 11.3708 45.7195 11.6449C46.1969 11.919 46.5691 12.2979 46.8414 12.7792C47.1137 13.2605 47.2491 13.8138 47.2491 14.438C47.2491 15.0583 47.115 15.609 46.8467 16.089C46.5852 16.5621 46.1979 16.9541 45.7274 17.222C45.2513 17.4973 44.7068 17.6337 44.09 17.6337ZM44.09 16.527C44.4687 16.527 44.8002 16.4378 45.0895 16.2581C45.3771 16.0765 45.6098 15.8204 45.7629 15.5172C45.9247 15.2051 46.0062 14.8458 46.0062 14.438C46.0062 14.025 45.9247 13.6643 45.759 13.3496C45.6019 13.0466 45.3656 12.7915 45.0751 12.6113C44.7699 12.4276 44.4188 12.3339 44.0623 12.3412C43.7149 12.3366 43.3731 12.4287 43.0753 12.607C42.7775 12.7854 42.5354 13.043 42.3762 13.3509C42.2105 13.663 42.1263 14.025 42.1263 14.4393C42.1263 14.8458 42.2105 15.2051 42.3762 15.5172C42.542 15.8319 42.7734 16.0772 43.0694 16.2581C43.364 16.4378 43.7046 16.527 44.09 16.527ZM49.1233 17.5288V11.3315H53.1084V12.4383H50.3399V13.9253H52.6481V15.032H50.3399V17.5288H49.1233ZM56.2426 17.5288V12.4383H54.3789V11.3315H59.3149V12.4383H57.4591V17.5288H56.2426ZM62.236 17.5288L60.396 11.3315H61.6297L63.3974 17.5288H62.2334H62.236ZM62.3938 17.5288L64.0905 11.3315H65.1913L63.5039 17.5288H62.3938ZM65.866 17.5288L64.1983 11.3315H65.2978L67.03 17.5288H65.866ZM65.9818 17.5288L67.7652 11.3315H69.0002L67.1444 17.5288H65.9818ZM69.425 17.5288L71.8766 11.3315H73.0931L70.7152 17.5288H69.425ZM70.5798 16.165V15.0924H74.4767V16.165H70.5798ZM74.3347 17.5288L71.9555 11.3315H73.1734L75.6236 17.5288H74.3347ZM77.2558 17.5288V11.3315H79.5627C80.0007 11.3315 80.3886 11.4167 80.7267 11.5885C81.0647 11.7603 81.3277 11.9937 81.5158 12.2927C81.7039 12.5917 81.7999 12.9352 81.7999 13.3313C81.7999 13.722 81.7012 14.0682 81.504 14.3725C81.303 14.6781 81.0219 14.923 80.6911 15.0806C80.3479 15.2484 79.9573 15.3336 79.5193 15.3336H78.4711V17.5288H77.2545H77.2558ZM78.4711 14.2269H79.5719C79.756 14.2269 79.9204 14.1876 80.0651 14.1115C80.2098 14.0354 80.3255 13.9279 80.4123 13.7915C80.4979 13.6538 80.5421 13.4946 80.5399 13.3326C80.5437 13.2098 80.5196 13.0879 80.4695 12.9757C80.4194 12.8635 80.3446 12.7641 80.2505 12.6848C80.0422 12.5153 79.7788 12.4276 79.5101 12.4383H78.4711V14.2269ZM80.6727 17.5288L79.2352 15.0399L80.1664 14.3764L82.0498 17.5288H80.6727ZM83.8687 17.5288V11.3315H87.8012V12.4383H85.084V13.8453H87.429V14.9258H85.084V16.4207H87.8367V17.5288H83.8687ZM48.972 41.4591V40.5648C48.972 40.3943 49.0247 40.2055 49.1325 39.9983C49.2377 39.7911 49.3863 39.5852 49.5757 39.378C49.7651 39.1721 49.9861 38.9794 50.2412 38.8024L51.1829 38.131C51.3131 38.0418 51.4355 37.9408 51.5512 37.8294C51.6669 37.7166 51.7616 37.5946 51.8353 37.4622C51.9089 37.3297 51.9458 37.1999 51.9458 37.0767C51.9487 36.9296 51.9093 36.7849 51.8324 36.6594C51.7555 36.534 51.6443 36.433 51.5117 36.3685C51.3474 36.2931 51.1678 36.2567 50.987 36.2623C50.8293 36.2572 50.6728 36.2901 50.5306 36.3581C50.3885 36.4261 50.2648 36.5273 50.1702 36.6531C50.0835 36.7664 50.02 36.8956 49.9835 37.0334L48.7327 36.8209C48.7919 36.5246 48.9181 36.2505 49.1141 35.9974C49.3101 35.7444 49.5652 35.5385 49.8822 35.3811C50.1991 35.2238 50.5582 35.1464 50.9607 35.1464C51.421 35.1464 51.8182 35.2303 52.1496 35.3955C52.4811 35.5608 52.7375 35.7863 52.9177 36.0722C53.0992 36.3581 53.1886 36.6911 53.1886 37.0688C53.1886 37.4517 53.0834 37.7926 52.873 38.0916C52.6625 38.388 52.3745 38.6673 52.0076 38.9269L51.1658 39.538C50.9922 39.656 50.8449 39.7845 50.72 39.9275C50.5987 40.0656 50.5029 40.2241 50.4372 40.3956H53.2689V41.4578L48.972 41.4591ZM57.4223 41.5653C56.9199 41.5653 56.4754 41.4276 56.0913 41.1522C55.6935 40.8622 55.3807 40.4715 55.1851 40.0206C54.9574 39.4971 54.8453 38.9309 54.8563 38.3604C54.8563 37.7349 54.9668 37.1816 55.1851 36.7016C55.4048 36.2204 55.7046 35.8427 56.0861 35.5686C56.4688 35.2933 56.912 35.1556 57.4144 35.1556C57.9168 35.1556 58.3627 35.2946 58.7507 35.5686C59.1374 35.8427 59.4412 36.2204 59.6608 36.7016C59.8791 37.1816 59.9896 37.7349 59.9896 38.3604C59.9896 38.9859 59.8791 39.5393 59.6608 40.0206C59.4653 40.4715 59.1524 40.8622 58.7546 41.1522C58.3693 41.4276 57.9247 41.5653 57.4223 41.5653ZM57.4223 40.4677C57.6893 40.4677 57.9274 40.3759 58.1378 40.1976C58.3482 40.0166 58.5126 39.7701 58.631 39.4528C58.7494 39.1381 58.8086 38.7735 58.8086 38.3604C58.8086 37.9474 58.7494 37.5815 58.631 37.2629C58.5331 36.9759 58.3633 36.7187 58.1378 36.5154C57.9383 36.3396 57.6807 36.2434 57.4144 36.2453C57.1524 36.2436 56.8991 36.3394 56.7042 36.5141C56.4977 36.6951 56.3359 36.9442 56.2202 37.2616C56.0989 37.615 56.0402 37.9869 56.0466 38.3604C56.0466 38.7735 56.1045 39.1381 56.2202 39.4528C56.3359 39.7701 56.499 40.0166 56.7082 40.1976C56.9186 40.3773 57.1553 40.4677 57.4223 40.4677ZM61.6402 41.4591V40.5648C61.6402 40.3943 61.6928 40.2055 61.8007 39.9983C61.9201 39.7728 62.0692 39.5642 62.2439 39.378C62.4333 39.1721 62.6556 38.9794 62.9094 38.8024L63.8511 38.131C63.98 38.0418 64.1036 37.9408 64.2194 37.8294C64.3314 37.7214 64.4271 37.5977 64.5034 37.4622C64.5725 37.3451 64.6105 37.2124 64.6139 37.0767C64.6155 36.9307 64.5773 36.787 64.5034 36.661C64.4257 36.5348 64.3134 36.4334 64.1799 36.3685C64.0156 36.2932 63.8359 36.2569 63.6551 36.2623C63.4912 36.2594 63.3289 36.2953 63.1817 36.3672C63.0471 36.4349 62.93 36.5328 62.8397 36.6531C62.7527 36.7662 62.6892 36.8955 62.6529 37.0334L61.4009 36.8209C61.46 36.5246 61.5876 36.2505 61.7823 35.9974C61.9769 35.743 62.2334 35.5385 62.5504 35.3811C62.866 35.2264 63.2264 35.1464 63.6288 35.1464C64.0892 35.1464 64.4864 35.2303 64.8178 35.3955C65.1492 35.5608 65.4057 35.7863 65.5859 36.0722C65.7674 36.3581 65.8568 36.6911 65.8568 37.0688C65.8568 37.4517 65.7516 37.7926 65.5425 38.0916C65.332 38.388 65.0427 38.6673 64.6771 38.9269L63.8327 39.538C63.6617 39.656 63.5131 39.7845 63.3881 39.9275C63.2672 40.0659 63.1715 40.2243 63.1054 40.3956H65.937V41.4578L61.6402 41.4591ZM69.8156 41.5653C69.5184 41.5629 69.2234 41.5147 68.941 41.4224C68.6485 41.3311 68.3752 41.1871 68.1348 40.9975C67.8991 40.8155 67.7162 40.5743 67.6047 40.2986L68.7148 39.9721C68.8264 40.1423 68.9793 40.2818 69.1593 40.3776C69.3393 40.4734 69.5406 40.5225 69.7446 40.5202C70.0524 40.5202 70.3022 40.4284 70.4943 40.2409C70.6876 40.0547 70.7836 39.8068 70.7836 39.4934C70.7874 39.3602 70.7648 39.2275 70.7169 39.103C70.6691 38.9786 70.597 38.8648 70.5048 38.7683C70.409 38.6698 70.2934 38.5927 70.1655 38.5421C70.0376 38.4915 69.9004 38.4684 69.763 38.4745C69.5864 38.4733 69.4124 38.5161 69.2566 38.5991C69.1184 38.6697 68.9972 38.7695 68.9015 38.8915L67.8099 38.6529L68.1834 35.2618H71.699V36.3594H69.2198L69.0423 37.8477C69.2014 37.7599 69.3803 37.6864 69.5749 37.63C69.7799 37.5731 69.9923 37.5479 70.2049 37.5553C70.5429 37.5553 70.8507 37.6366 71.1282 37.7992C71.407 37.9605 71.6267 38.1821 71.7898 38.4627C71.9528 38.7433 72.0331 39.0699 72.0331 39.441C72.0331 39.8606 71.9384 40.2278 71.7503 40.5477C71.5622 40.8677 71.3005 41.1142 70.9691 41.2952C70.6131 41.4807 70.2172 41.5736 69.8156 41.5653ZM24.3038 71.2877V56.8107H18.9377V52.9292H33.8786V56.8107H28.5125V71.2877H24.3038ZM40.193 71.6024C38.8067 71.6024 37.5888 71.3087 36.5367 70.7238C35.5025 70.1553 34.6432 69.3166 34.0509 68.2979C33.4459 67.2659 33.1434 66.0778 33.1434 64.7311C33.1434 63.3844 33.4354 62.195 34.0246 61.1643C34.605 60.141 35.4616 59.3005 36.4972 58.7384C37.5573 58.1522 38.762 57.8598 40.1141 57.8598C41.4977 57.8598 42.7208 58.1522 43.7835 58.7384C44.8188 59.3008 45.6754 60.1412 46.2561 61.1643C46.8427 62.195 47.1373 63.3844 47.1373 64.7311C47.1373 66.0778 46.8427 67.2659 46.2561 68.2979C45.6783 69.3187 44.8266 70.1587 43.7967 70.7238C42.7445 71.3087 41.5424 71.6024 40.193 71.6024ZM40.193 67.8258C40.7177 67.8258 41.1873 67.6947 41.6003 67.4324C42.0106 67.1702 42.3368 66.8082 42.5735 66.344C42.8103 65.8811 42.9286 65.3435 42.9286 64.7311C42.9286 64.1187 42.8103 63.5811 42.5735 63.1182C42.3514 62.6718 42.01 62.2952 41.5871 62.0298C41.1662 61.7675 40.6822 61.6364 40.139 61.6364C39.5959 61.6364 39.1132 61.7675 38.6923 62.0298C38.2714 62.292 37.9426 62.6553 37.7059 63.1182C37.4692 63.5811 37.3508 64.1187 37.3508 64.7311C37.3508 65.3435 37.4692 65.8811 37.7059 66.344C37.9426 66.8082 38.2767 67.1702 38.7055 67.4324C39.1355 67.6947 39.6314 67.8258 40.193 67.8258ZM49.2667 76.533V58.1745H53.1334L53.3701 60.5873V76.533H49.2667ZM57.1054 71.6024C56.0177 71.6024 55.1062 71.327 54.3697 70.7763C53.6332 70.2255 53.0808 69.4348 52.7125 68.4028C52.3443 67.3721 52.1601 66.1473 52.1601 64.7311C52.1601 63.2965 52.3443 62.0691 52.7125 61.0463C53.0808 60.0235 53.6332 59.2367 54.3697 58.6859C55.1062 58.1352 56.0177 57.8598 57.1054 57.8598C58.3325 57.8598 59.3938 58.1352 60.2882 58.6859C61.1825 59.2367 61.8664 60.0235 62.3399 61.0463C62.8134 62.0691 63.0501 63.2965 63.0501 64.7311C63.0501 66.1473 62.8134 67.3721 62.3399 68.4028C61.8664 69.4348 61.1825 70.2255 60.2882 70.7763C59.3938 71.327 58.3325 71.6024 57.1054 71.6024ZM56.0532 67.8258C56.5793 67.8258 57.0435 67.6947 57.4473 67.4324C57.8498 67.1702 58.1746 66.8082 58.4206 66.344C58.6652 65.8811 58.7888 65.3435 58.7888 64.7311C58.7888 64.1187 58.6744 63.5811 58.4469 63.1182C58.2341 62.6737 57.9018 62.2969 57.4868 62.0298C57.0738 61.7675 56.6056 61.6364 56.0795 61.6364C55.5534 61.6364 55.0839 61.7675 54.6722 62.0298C54.2548 62.2992 53.922 62.6805 53.7121 63.13C53.4846 63.6034 53.3701 64.1371 53.3701 64.7298C53.3701 65.3422 53.4846 65.8811 53.7121 66.344C53.9396 66.8069 54.2553 67.1702 54.659 67.4324C55.0615 67.6947 55.5271 67.8258 56.0532 67.8258ZM77.6227 71.6024C76.71 71.6024 75.7893 71.4451 74.8595 71.1303C73.9548 70.8299 73.1124 70.3678 72.3737 69.7666C71.6607 69.1935 71.1268 68.4291 70.8349 67.5635L74.8332 66.6194C75.0962 67.0744 75.4513 67.4101 75.8985 67.6291C76.3457 67.8481 76.8231 67.9569 77.3321 67.9569C78.1041 67.9569 78.7302 67.7248 79.2128 67.2619C79.6955 66.7977 79.9362 66.1735 79.9362 65.3868C79.9362 64.6695 79.7047 64.0623 79.2392 63.564C78.7749 63.0657 78.1383 62.8166 77.3321 62.8166C76.8415 62.8166 76.4075 62.9307 76.03 63.1575C75.6525 63.3857 75.3764 63.6558 75.2014 63.9705L71.3873 63.1313L72.5973 52.9292H83.2769V56.7583H76.1747L75.6486 60.5086C76.1037 60.2464 76.6219 60.0418 77.2006 59.8923C77.7793 59.7441 78.4106 59.6694 79.0945 59.6694C80.0153 59.6844 80.9164 59.9376 81.7095 60.4042C82.5026 60.8709 83.1605 61.535 83.6188 62.3314C84.0923 63.1444 84.329 64.0846 84.329 65.1507C84.329 66.4266 84.0397 67.5504 83.461 68.5208C82.8823 69.4912 82.0932 70.2478 81.0936 70.7894C80.094 71.331 78.938 71.6024 77.6227 71.6024ZM93.7723 71.6024C92.2637 71.6024 90.9222 71.1959 89.7477 70.3829C88.5732 69.5699 87.6565 68.4513 86.9989 67.0259C86.3413 65.6018 86.0125 63.9627 86.0125 62.1085C86.0125 60.2556 86.3413 58.6164 86.9989 57.191C87.6565 55.7669 88.568 54.647 89.7346 53.834C90.8999 53.021 92.2374 52.6145 93.746 52.6145C95.2717 52.6145 96.6224 53.021 97.7969 53.834C98.9714 54.647 99.896 55.7669 100.572 57.191C101.248 58.6164 101.585 60.2556 101.585 62.1085C101.585 63.9627 101.251 65.6018 100.585 67.0259C99.9183 68.4513 98.9977 69.5699 97.8232 70.3829C96.6474 71.1959 95.298 71.6024 93.7723 71.6024ZM93.7986 67.7734C94.4996 67.7734 95.127 67.5281 95.6794 67.039C96.2318 66.5499 96.6658 65.8811 96.9814 65.0327C97.2971 64.1856 97.4549 63.21 97.4549 62.1085C97.4549 60.9886 97.2971 60.0025 96.9814 59.1449C96.6658 58.2886 96.2265 57.6146 95.6662 57.1254C95.1409 56.6496 94.4557 56.3875 93.746 56.3911C93.0437 56.3911 92.4216 56.635 91.8784 57.1254C91.3339 57.6146 90.9091 58.2886 90.6026 59.1449C90.2962 60.0012 90.1423 60.9886 90.1423 62.1085C90.1423 63.21 90.2949 64.1895 90.6026 65.0458C90.9104 65.9021 91.3391 66.5709 91.8915 67.0521C92.4439 67.5334 93.0792 67.7734 93.7986 67.7734ZM50.2018 88.1329C49.9479 88.1329 49.7086 88.1001 49.4876 88.0385C49.2773 87.981 49.0768 87.8922 48.8931 87.7749C48.7306 87.6715 48.5855 87.5432 48.4631 87.3947C48.3561 87.268 48.2809 87.1179 48.2434 86.9567L49.2127 86.6682C49.2745 86.8308 49.385 86.9724 49.5442 87.0904C49.7033 87.2084 49.9032 87.2688 50.1452 87.274C50.3661 87.2874 50.5853 87.2289 50.77 87.1075C50.8395 87.0627 50.8976 87.0022 50.9395 86.9309C50.9813 86.8597 51.0058 86.7796 51.0109 86.6972C51.016 86.6147 51.0016 86.5323 50.9689 86.4564C50.9362 86.3805 50.8861 86.3134 50.8226 86.2604C50.668 86.1393 50.4882 86.0542 50.2965 86.0112L49.6389 85.8381C49.4068 85.782 49.1865 85.6857 48.9878 85.5536C48.7994 85.4325 48.6452 85.2653 48.5402 85.0678C48.4352 84.8703 48.3828 84.6493 48.3881 84.4258C48.3881 83.9485 48.5459 83.5774 48.8616 83.3112C49.1772 83.0424 49.6244 82.9099 50.2031 82.9099C50.5266 82.9099 50.8081 82.9571 51.0527 83.0502C51.2974 83.1447 51.4999 83.2771 51.6643 83.4515C51.8287 83.6246 51.9536 83.8279 52.0405 84.0639L51.079 84.3589C51.0172 84.191 50.9057 84.0456 50.7594 83.9419C50.5889 83.8211 50.3832 83.7598 50.1742 83.7675C49.9322 83.7675 49.7441 83.8239 49.606 83.9341C49.4679 84.0442 49.4008 84.2003 49.4008 84.4035C49.4008 84.5609 49.4534 84.6868 49.5626 84.7786C49.6717 84.8704 49.8204 84.9399 50.0084 84.9871L50.6739 85.1536C51.108 85.2585 51.4447 85.4486 51.6867 85.7227C51.9273 85.9981 52.047 86.3023 52.047 86.6393C52.047 86.937 51.976 87.1966 51.8313 87.4209C51.6867 87.6451 51.4762 87.8195 51.2013 87.9441C50.8859 88.0772 50.5455 88.1412 50.2031 88.1316L50.2018 88.1329ZM53.1255 88.0451L55.122 82.9965H56.1124L54.1737 88.0451H53.1255ZM54.0646 86.9357V86.061H57.2408V86.9357H54.0646ZM57.1251 88.0451L55.1865 82.9965H56.1781L58.1746 88.0451H57.1251ZM59.5056 88.0451V82.9965H60.496V87.1442H62.724V88.0451H59.5056ZM64.1128 88.0451V82.9965H67.318V83.8987H65.1032V85.0448H67.0129V85.9233H65.1032V87.1429H67.3456V88.0451H64.1128ZM70.7981 88.1329C70.5403 88.1329 70.3022 88.1001 70.08 88.0385C69.8577 87.9756 69.6591 87.8877 69.4868 87.7749C69.3145 87.6622 69.1698 87.535 69.0567 87.3947C68.9499 87.2678 68.8742 87.1178 68.8358 86.9567L69.8051 86.6682C69.8682 86.8308 69.9787 86.9724 70.1378 87.0904C70.297 87.2084 70.4969 87.2688 70.7376 87.274C70.9593 87.2877 71.1794 87.2292 71.3649 87.1075C71.4341 87.0623 71.4918 87.0016 71.5332 86.9302C71.5746 86.8588 71.5988 86.7788 71.6036 86.6964C71.6085 86.6141 71.5939 86.5318 71.5612 86.4561C71.5284 86.3804 71.4783 86.3133 71.4149 86.2604C71.2607 86.1395 71.0814 86.0544 70.8901 86.0112L70.2325 85.8381C70.0001 85.7819 69.7794 85.6856 69.5802 85.5536C69.3917 85.4325 69.2376 85.2653 69.1326 85.0678C69.0275 84.8703 68.9752 84.6493 68.9805 84.4258C68.9805 83.9485 69.1383 83.5774 69.4539 83.3112C69.7696 83.0424 70.2168 82.9099 70.7968 82.9099C71.119 82.9099 71.4031 82.9571 71.6464 83.0502C71.8897 83.1447 72.0936 83.2771 72.2567 83.4515C72.4211 83.6246 72.546 83.8279 72.6341 84.0639L71.6714 84.3589C71.6135 84.1963 71.507 84.0573 71.3531 83.9419C71.1992 83.8265 71.0033 83.7675 70.7678 83.7675C70.5258 83.7675 70.3378 83.8239 70.1997 83.9341C70.0616 84.0442 69.9932 84.2003 69.9932 84.4035C69.9932 84.5609 70.0484 84.6868 70.1563 84.7786C70.2654 84.869 70.4127 84.9399 70.6008 84.9871L71.2676 85.1536C71.7016 85.2585 72.037 85.4486 72.2803 85.7227C72.5237 85.9968 72.6407 86.3023 72.6407 86.6393C72.6407 86.937 72.5684 87.1966 72.4237 87.4209C72.279 87.6451 72.0699 87.8195 71.795 87.9441C71.4796 88.0773 71.1392 88.1413 70.7968 88.1316L70.7981 88.1329ZM39.0961 96.7011V91.6525H40.9768C41.3333 91.6525 41.6489 91.7233 41.9238 91.8636C42.2 92.0066 42.4144 92.2033 42.5683 92.455C42.7221 92.7081 42.7997 93.0005 42.7997 93.3336C42.7997 93.6588 42.7248 93.9499 42.5761 94.2043C42.4275 94.4587 42.221 94.6607 41.9606 94.8075C41.6838 94.9581 41.3723 95.0336 41.0571 95.0265H40.0878V96.7011H39.0961ZM40.0878 94.1178H41.0347C41.136 94.1212 41.2368 94.1035 41.3308 94.0658C41.4248 94.0281 41.5099 93.9712 41.5805 93.8988C41.6523 93.8234 41.7083 93.7344 41.7451 93.6371C41.7819 93.5399 41.7988 93.4362 41.7949 93.3323C41.7949 93.1015 41.716 92.914 41.5582 92.7684C41.3927 92.622 41.1769 92.5449 40.9558 92.5534H40.0878V94.1178ZM44.1807 96.7011V91.6525H46.0615C46.4192 91.6525 46.7349 91.722 47.0084 91.8623C47.282 92.0026 47.499 92.1915 47.6529 92.4341C47.8081 92.6767 47.8844 92.9599 47.8844 93.2812C47.8844 93.5985 47.8041 93.8818 47.6424 94.1296C47.4806 94.3761 47.261 94.5689 46.9808 94.7066C46.6826 94.8474 46.3558 94.9174 46.026 94.9111H45.1711V96.7011H44.1807ZM45.1724 94.0103H46.0694C46.2193 94.0103 46.3521 93.9801 46.4705 93.9172C46.5889 93.8542 46.6823 93.7664 46.752 93.6575C46.8217 93.5487 46.8572 93.4215 46.8572 93.2812C46.8572 93.0648 46.7783 92.8904 46.6231 92.7553C46.4679 92.6203 46.264 92.5534 46.0181 92.5534H45.1724V94.0103ZM46.9663 96.7011L45.7945 94.6738L46.5534 94.1335L48.0869 96.7011H46.9663ZM51.8853 96.7863C51.3736 96.7863 50.9212 96.6749 50.5293 96.4506C50.1347 96.2277 49.8283 95.9209 49.606 95.5288C49.3793 95.1169 49.2646 94.6531 49.2732 94.1834C49.2732 93.668 49.385 93.2169 49.606 92.8248C49.8296 92.4314 50.1334 92.1246 50.5214 91.9043C50.9315 91.6781 51.3943 91.5637 51.8629 91.5725C52.3758 91.5725 52.8243 91.6853 53.2123 91.9082C53.6003 92.1311 53.9054 92.4393 54.1277 92.8314C54.35 93.2222 54.4605 93.6733 54.4605 94.1821C54.4605 94.6882 54.3513 95.1367 54.1316 95.5288C53.912 95.9209 53.6082 96.2277 53.2202 96.4506C52.8132 96.6793 52.3523 96.7952 51.8853 96.7863ZM51.8853 95.8855C52.1943 95.8855 52.464 95.812 52.6994 95.6665C52.9335 95.5183 53.1163 95.3176 53.2491 95.0633C53.3807 94.8075 53.4477 94.5151 53.4477 94.1834C53.4477 93.8464 53.3807 93.5513 53.2452 93.2956C53.1174 93.0487 52.9252 92.8408 52.6889 92.6937C52.4404 92.544 52.1545 92.4676 51.8642 92.4734C51.5811 92.4697 51.3026 92.5446 51.0599 92.6898C50.8171 92.8351 50.6197 93.0448 50.4898 93.2956C50.3543 93.5513 50.286 93.8464 50.286 94.1834C50.286 94.5151 50.3543 94.8075 50.4898 95.0619C50.624 95.3176 50.812 95.5183 51.0527 95.6651C51.2947 95.812 51.5709 95.8855 51.8853 95.8855ZM55.9861 96.7011V91.6525H57.6064C58.1233 91.6525 58.5797 91.76 58.9782 91.9764C59.3754 92.1928 59.6871 92.4904 59.912 92.8668C60.1356 93.2445 60.2474 93.6798 60.2474 94.1768C60.2474 94.6672 60.1356 95.1013 59.9107 95.4816C59.6858 95.8618 59.3754 96.1582 58.9769 96.3746C58.5797 96.5923 58.122 96.7011 57.6064 96.7011H55.9861ZM56.9778 95.7779H57.6064C57.8392 95.7779 58.0536 95.736 58.2509 95.6547C58.4482 95.5734 58.6205 95.4593 58.7678 95.315C58.9151 95.1708 59.0295 95.0003 59.1111 94.8062C59.1926 94.6122 59.2347 94.4023 59.2347 94.1768C59.2347 93.9499 59.1939 93.7401 59.1111 93.5447C59.0282 93.3494 58.9138 93.1802 58.7691 93.0373C58.4581 92.7367 58.0409 92.5704 57.6078 92.5744H56.9765L56.9778 95.7779ZM63.7564 96.8021C63.3355 96.8021 62.9725 96.7195 62.6648 96.5555C62.3637 96.4015 62.1152 96.1619 61.9506 95.8671C61.7777 95.5449 61.6915 95.1834 61.7007 94.818V91.6512H62.6924V94.818C62.6924 95.0344 62.7371 95.2232 62.8265 95.3845C62.916 95.5458 63.0409 95.6691 63.2027 95.7556C63.3645 95.8422 63.5526 95.8855 63.7696 95.8855C63.9866 95.8855 64.176 95.8422 64.3377 95.7556C64.4995 95.6691 64.6258 95.5458 64.7139 95.3845C64.8068 95.2104 64.853 95.0152 64.848 94.818V91.6512H65.8384V94.818C65.8384 95.2219 65.7529 95.5707 65.5819 95.8671C65.4109 96.1635 65.1703 96.3929 64.8586 96.5555C64.5166 96.7268 64.1376 96.8115 63.7551 96.8021H63.7564ZM69.8235 96.7863C69.3329 96.7863 68.8963 96.6749 68.5162 96.4506C68.1348 96.2277 67.8349 95.9209 67.6179 95.5288C67.4009 95.1367 67.293 94.6869 67.293 94.1768C67.293 93.6667 67.4009 93.2169 67.6179 92.8248C67.8349 92.4327 68.1334 92.1246 68.5109 91.9017C68.891 91.6774 69.325 91.566 69.8182 91.566C70.1655 91.566 70.489 91.6276 70.7862 91.7495C71.0848 91.8715 71.3465 92.042 71.5701 92.261C71.7963 92.4799 71.9686 92.7304 72.0896 93.015L71.169 93.3546C71.0897 93.1808 70.9792 93.023 70.8428 92.8891C70.7101 92.7572 70.5535 92.6517 70.3812 92.5783C70.2032 92.5031 70.0116 92.4652 69.8182 92.4668C69.5223 92.4668 69.2606 92.5403 69.0317 92.6871C68.8014 92.8353 68.6166 93.044 68.4978 93.2904C68.3689 93.5447 68.3057 93.8411 68.3057 94.1768C68.3057 94.5125 68.3715 94.8089 68.5004 95.0672C68.6201 95.3188 68.8101 95.5306 69.0476 95.6771C69.2852 95.8237 69.56 95.8987 69.8393 95.8933C70.0471 95.8933 70.2339 95.854 70.4062 95.774C70.5784 95.694 70.7297 95.5852 70.8638 95.4462C70.9954 95.3058 71.1032 95.1446 71.1848 94.961L72.1015 95.2954C71.9176 95.7445 71.6014 96.1276 71.1948 96.394C70.7881 96.6604 70.31 96.7963 69.8235 96.7863ZM74.628 96.7011V92.5534H73.1089V91.6512H77.1295V92.5534H75.6184V96.7011H74.628ZM80.2045 96.7863C79.948 96.7863 79.71 96.7562 79.4877 96.6932C79.2654 96.6303 79.0682 96.5437 78.8959 96.431C78.7209 96.3169 78.5776 96.191 78.4645 96.0507C78.3514 95.9104 78.279 95.7661 78.2435 95.6114L79.2128 95.3229C79.276 95.4868 79.3865 95.6271 79.5456 95.7451C79.7047 95.8632 79.906 95.9235 80.1453 95.9287C80.3669 95.9434 80.5872 95.8853 80.7727 95.7635C80.8474 95.7149 80.9087 95.6483 80.951 95.57C80.9932 95.4916 81.0151 95.404 81.0147 95.315C81.0155 95.2382 80.9986 95.1621 80.9653 95.0928C80.9321 95.0234 80.8832 94.9626 80.8227 94.9151C80.6691 94.7939 80.4902 94.7088 80.2992 94.6659L79.6403 94.4928C79.4083 94.4365 79.188 94.3402 78.9893 94.2083C78.8007 94.087 78.6465 93.9196 78.5415 93.7219C78.4365 93.5242 78.3841 93.3029 78.3895 93.0792C78.3895 92.6045 78.5473 92.2321 78.863 91.9646C79.1786 91.6984 79.6258 91.566 80.2045 91.566C80.5281 91.566 80.8108 91.6119 81.0541 91.7063C81.2975 91.7994 81.5013 91.9331 81.6657 92.1062C81.8301 92.278 81.9551 92.4839 82.0419 92.7186L81.0791 93.015C81.0226 92.8511 80.9147 92.7121 80.7608 92.5954C80.607 92.4786 80.4123 92.4236 80.1756 92.4236C79.9336 92.4236 79.7455 92.4786 79.6074 92.5901C79.5387 92.6466 79.4842 92.7184 79.4483 92.7997C79.4124 92.881 79.3962 92.9696 79.4009 93.0582C79.4009 93.2156 79.4562 93.3415 79.564 93.4333C79.6732 93.5251 79.8205 93.5946 80.0086 93.6431L80.6754 93.8083C81.1094 93.9132 81.4461 94.1034 81.6881 94.3774C81.9301 94.6515 82.0498 94.9584 82.0498 95.2954C82.0498 95.5917 81.9761 95.8527 81.8328 96.0769C81.6881 96.2998 81.4776 96.4742 81.2028 96.6001C80.8871 96.7323 80.5468 96.7958 80.2045 96.7863Z" fill="black"/>
</g>
<defs>
<clipPath id="clip0_7558_153685">
<rect width="121" height="139" fill="white" transform="translate(0 0.5)"/>
</clipPath>
</defs>
</svg>
