<svg width="122" height="139" viewBox="0 0 122 139" fill="none" xmlns="http://www.w3.org/2000/svg">
<g clip-path="url(#clip0_8607_28031)">
<path d="M0.732422 108.962L60.4894 138.406L120.246 108.962V0.705444H0.732422V108.962Z" fill="white"/>
<path d="M0.732422 108.962L60.4894 138.406L120.246 108.962V0.705444H0.732422V108.962Z" fill="white"/>
<path d="M17.354 17.3165C17.0335 17.3165 16.7347 17.2775 16.4576 17.1996C16.1718 17.1216 15.9207 17.0134 15.7042 16.8748C15.4876 16.7276 15.3101 16.5674 15.1715 16.3941C15.0243 16.2209 14.929 16.0347 14.8857 15.8356L16.1069 15.4718C16.1848 15.6797 16.3234 15.8572 16.5226 16.0044C16.7218 16.1517 16.9729 16.2296 17.276 16.2383C17.5965 16.2469 17.8606 16.1776 18.0685 16.0304C18.2676 15.8832 18.3672 15.697 18.3672 15.4718C18.3672 15.2726 18.2893 15.1037 18.1334 14.9652C17.9689 14.8266 17.748 14.7227 17.4709 14.6534L16.6395 14.4326C16.3364 14.3546 16.0636 14.2334 15.8211 14.0688C15.5872 13.9129 15.4054 13.7137 15.2755 13.4713C15.1369 13.2374 15.0676 12.9646 15.0676 12.6528C15.0676 12.0466 15.2668 11.5746 15.6652 11.2369C16.0636 10.9078 16.6265 10.7432 17.354 10.7432C17.761 10.7432 18.1161 10.7995 18.4192 10.9121C18.731 11.0333 18.9865 11.2022 19.1856 11.4187C19.3935 11.6352 19.5537 11.8951 19.6663 12.1982L18.4582 12.5619C18.3802 12.3541 18.246 12.1808 18.0555 12.0423C17.8563 11.8951 17.6094 11.8214 17.315 11.8214C17.0119 11.8214 16.7737 11.8907 16.6005 12.0293C16.4273 12.1679 16.3407 12.367 16.3407 12.6269C16.3407 12.8261 16.41 12.9819 16.5485 13.0945C16.6871 13.2071 16.8733 13.2937 17.1071 13.3543L17.9385 13.5622C18.4842 13.7008 18.9085 13.9432 19.2116 14.2897C19.5147 14.6361 19.6663 15.0215 19.6663 15.4458C19.6663 15.8182 19.5754 16.143 19.3935 16.4201C19.2116 16.7059 18.9518 16.9268 18.6141 17.0827C18.2676 17.2385 17.8476 17.3165 17.354 17.3165ZM21.6409 17.2126V10.8471H24.0052C24.4555 10.8471 24.8539 10.9381 25.2003 11.1199C25.5467 11.2932 25.8152 11.54 26.0057 11.8604C26.2049 12.1808 26.3045 12.5489 26.3045 12.9646C26.3045 13.3803 26.2093 13.7484 26.0187 14.0688C25.8282 14.3893 25.5727 14.6404 25.2523 14.8223C24.9232 15.0128 24.5421 15.1081 24.1091 15.1081H22.888V17.2126H21.6409ZM22.888 13.9519H24.0831C24.3603 13.9519 24.5898 13.861 24.7716 13.6791C24.9448 13.4972 25.0314 13.2591 25.0314 12.9646C25.0314 12.6788 24.9362 12.4407 24.7457 12.2501C24.5465 12.0769 24.291 11.9903 23.9792 11.9903H22.888V13.9519ZM28.0323 17.2126V10.8471H30.3966C30.8469 10.8471 31.2453 10.9337 31.5917 11.107C31.9381 11.2888 32.2066 11.5313 32.3971 11.8344C32.5963 12.1375 32.6959 12.4926 32.6959 12.8997C32.6959 13.298 32.592 13.6531 32.3842 13.9649C32.185 14.2767 31.9078 14.5192 31.5528 14.6924C31.2063 14.8656 30.808 14.9522 30.3576 14.9522H29.2794V17.2126H28.0323ZM31.5398 17.2126L30.0718 14.6534L31.0201 13.9779L32.9428 17.2126H31.5398ZM29.2794 13.822H30.4096C30.6001 13.822 30.769 13.783 30.9162 13.7051C31.0634 13.6271 31.1804 13.5189 31.267 13.3803C31.3536 13.2418 31.3969 13.0815 31.3969 12.8997C31.3969 12.6312 31.3016 12.4103 31.1111 12.2371C30.9119 12.0726 30.6564 11.9903 30.3446 11.9903H29.2794V13.822ZM34.8134 17.2126V10.8471H36.0605V17.2126H34.8134ZM38.3469 17.2126V10.8471H39.6459L42.7637 15.1211V10.8471H43.9978V17.2126H42.7637L39.594 12.8607V17.2126H38.3469ZM49.246 17.3165C48.5965 17.3165 48.0206 17.1779 47.5183 16.9008C47.016 16.615 46.6262 16.2253 46.3491 15.7316C46.0633 15.238 45.9204 14.6707 45.9204 14.0299C45.9204 13.389 46.0633 12.8217 46.3491 12.3281C46.6262 11.8344 47.016 11.4447 47.5183 11.1589C48.0206 10.8818 48.5965 10.7432 49.246 10.7432C49.6357 10.7432 49.9908 10.7995 50.3113 10.9121C50.6404 11.0247 50.9305 11.1849 51.1816 11.3927C51.4328 11.5919 51.645 11.8214 51.8182 12.0813L50.8049 12.7178C50.701 12.5532 50.5624 12.4103 50.3892 12.2891C50.2247 12.1592 50.0428 12.0596 49.8436 11.9903C49.6444 11.9124 49.4452 11.8734 49.246 11.8734C48.8476 11.8734 48.4926 11.9643 48.1808 12.1462C47.869 12.3367 47.6265 12.5922 47.4533 12.9127C47.2801 13.2331 47.1935 13.6055 47.1935 14.0299C47.1935 14.4456 47.2801 14.8179 47.4533 15.147C47.6265 15.4761 47.869 15.7316 48.1808 15.9135C48.4926 16.104 48.8563 16.1993 49.272 16.1993C49.5924 16.1993 49.8782 16.1343 50.1294 16.0044C50.3805 15.8745 50.5797 15.697 50.727 15.4718C50.8742 15.238 50.9478 14.9695 50.9478 14.6664L52.13 14.4845C52.13 15.0821 52.0044 15.5931 51.7532 16.0174C51.5107 16.4418 51.173 16.7665 50.74 16.9917C50.3069 17.2082 49.809 17.3165 49.246 17.3165ZM49.4539 14.7703V13.809H52.13V14.5755L51.4544 14.7703H49.4539ZM56.8066 17.2126V16.2902C56.8066 16.117 56.8586 15.9265 56.9625 15.7186C57.0751 15.5021 57.2266 15.2899 57.4171 15.0821C57.6163 14.8656 57.8458 14.6664 58.1057 14.4845L59.067 13.796C59.1969 13.7008 59.3224 13.5968 59.4437 13.4842C59.5649 13.3717 59.6602 13.2461 59.7295 13.1075C59.8074 12.9689 59.8464 12.839 59.8464 12.7178C59.8464 12.5532 59.8074 12.4103 59.7295 12.2891C59.6602 12.1592 59.5519 12.0596 59.4047 11.9903C59.2575 11.9124 59.0756 11.8734 58.8591 11.8734C58.6772 11.8734 58.517 11.9124 58.3785 11.9903C58.2399 12.0596 58.123 12.1549 58.0277 12.2761C57.9411 12.3974 57.8762 12.5273 57.8329 12.6658L56.5598 12.445C56.6204 12.1419 56.7503 11.8604 56.9495 11.6006C57.1487 11.3408 57.4085 11.1286 57.7289 10.9641C58.058 10.8082 58.4261 10.7302 58.8331 10.7302C59.3095 10.7302 59.7165 10.8168 60.0543 10.99C60.392 11.1546 60.6562 11.3841 60.8467 11.6785C61.0286 11.973 61.1195 12.3151 61.1195 12.7048C61.1195 13.0945 61.0112 13.4453 60.7947 13.757C60.5782 14.0602 60.2838 14.346 59.9114 14.6144L59.041 15.238C58.8678 15.3592 58.7162 15.4935 58.5863 15.6407C58.4651 15.7879 58.3698 15.9481 58.3005 16.1213H61.1974V17.2126H56.8066ZM65.4584 17.3165C64.9387 17.3165 64.4841 17.1779 64.0943 16.9008C63.696 16.615 63.3885 16.2253 63.172 15.7316C62.9468 15.238 62.8343 14.6707 62.8343 14.0299C62.8343 13.389 62.9468 12.8217 63.172 12.3281C63.3885 11.8344 63.696 11.4447 64.0943 11.1589C64.4841 10.8818 64.9344 10.7432 65.4454 10.7432C65.965 10.7432 66.424 10.8818 66.8224 11.1589C67.2121 11.4447 67.5195 11.8344 67.7447 12.3281C67.9699 12.8217 68.0825 13.389 68.0825 14.0299C68.0825 14.6707 67.9699 15.238 67.7447 15.7316C67.5195 16.2253 67.2121 16.615 66.8224 16.9008C66.424 17.1779 65.9693 17.3165 65.4584 17.3165ZM65.4584 16.1993C65.7268 16.1993 65.9693 16.104 66.1858 15.9135C66.4024 15.7316 66.5712 15.4761 66.6925 15.147C66.8137 14.8266 66.8743 14.4542 66.8743 14.0299C66.8743 13.6055 66.8137 13.2288 66.6925 12.8997C66.5712 12.5706 66.4024 12.3151 66.1858 12.1332C65.9693 11.9513 65.7225 11.8604 65.4454 11.8604C65.1769 11.8604 64.9344 11.9513 64.7179 12.1332C64.51 12.3151 64.3455 12.5706 64.2243 12.8997C64.103 13.2288 64.0424 13.6055 64.0424 14.0299C64.0424 14.4542 64.103 14.8266 64.2243 15.147C64.3455 15.4761 64.5144 15.7316 64.7309 15.9135C64.9387 16.104 65.1812 16.1993 65.4584 16.1993ZM69.7713 17.2126V16.2902C69.7713 16.117 69.8276 15.9265 69.9401 15.7186C70.0527 15.5021 70.2043 15.2899 70.3948 15.0821C70.5853 14.8656 70.8148 14.6664 71.0833 14.4845L72.0446 13.796C72.1745 13.7008 72.3001 13.5968 72.4214 13.4842C72.5339 13.3717 72.6292 13.2461 72.7071 13.1075C72.7851 12.9689 72.8241 12.839 72.8241 12.7178C72.8241 12.5532 72.7851 12.4103 72.7071 12.2891C72.6292 12.1592 72.521 12.0596 72.3824 11.9903C72.2352 11.9124 72.0533 11.8734 71.8368 11.8734C71.6549 11.8734 71.4947 11.9124 71.3561 11.9903C71.2089 12.0596 71.092 12.1549 71.0054 12.2761C70.9101 12.3974 70.8452 12.5273 70.8105 12.6658L69.5374 12.445C69.5981 12.1419 69.728 11.8604 69.9272 11.6006C70.1263 11.3408 70.3862 11.1286 70.7066 10.9641C71.0357 10.8082 71.4038 10.7302 71.8108 10.7302C72.2871 10.7302 72.6942 10.8168 73.0319 10.99C73.3697 11.1546 73.6338 11.3841 73.8243 11.6785C74.0062 11.973 74.0971 12.3151 74.0971 12.7048C74.0971 13.0945 73.9889 13.4453 73.7724 13.757C73.5559 14.0602 73.2614 14.346 72.889 14.6144L72.0186 15.238C71.8454 15.3592 71.6939 15.4935 71.564 15.6407C71.4427 15.7879 71.3475 15.9481 71.2782 16.1213H74.1751V17.2126H69.7713ZM78.1502 17.3165C77.8644 17.3165 77.5657 17.2689 77.2539 17.1736C76.9508 17.0783 76.678 16.9354 76.4355 16.7449C76.1843 16.5457 76.0024 16.3032 75.8899 16.0174L77.02 15.6797C77.1586 15.8789 77.3188 16.0217 77.5007 16.1084C77.6826 16.2036 77.8774 16.2513 78.0853 16.2513C78.3971 16.2513 78.6525 16.156 78.8517 15.9655C79.0423 15.7749 79.1375 15.5194 79.1375 15.199C79.1375 14.8959 79.0423 14.6447 78.8517 14.4456C78.6612 14.2464 78.41 14.1468 78.0983 14.1468C77.9077 14.1468 77.7345 14.1901 77.5786 14.2767C77.4228 14.3633 77.3015 14.4629 77.2149 14.5755L76.0977 14.3286L76.4744 10.8471H80.0858V11.9773H77.5397L77.3578 13.4972C77.5224 13.4106 77.7042 13.337 77.9034 13.2764C78.1026 13.2244 78.3191 13.1984 78.5529 13.1984C78.8994 13.1984 79.2155 13.2851 79.5013 13.4583C79.7871 13.6228 80.0122 13.848 80.1768 14.1338C80.3413 14.4196 80.4236 14.753 80.4236 15.1341C80.4236 15.5671 80.3283 15.9481 80.1378 16.2772C79.9386 16.6063 79.6701 16.8618 79.3324 17.0437C78.9946 17.2256 78.6006 17.3165 78.1502 17.3165Z" fill="black"/>
<path d="M45.362 61.3809V51.3781H47.8952L50.5453 55.3272L53.2214 51.3781H55.7545V61.3809H53.4422V54.9505L50.5583 59.1854L47.6614 54.9505V61.3809H45.362ZM60.9118 61.5497C60.1584 61.5497 59.4958 61.3895 58.9243 61.0691C58.3527 60.7573 57.9023 60.32 57.5732 59.757C57.2441 59.1941 57.0796 58.5446 57.0796 57.8084C57.0796 57.0723 57.2398 56.4228 57.5602 55.8598C57.8807 55.3056 58.3267 54.8682 58.8983 54.5478C59.4785 54.2273 60.1324 54.0671 60.8599 54.0671C61.6133 54.0671 62.2802 54.2273 62.8604 54.5478C63.432 54.8682 63.878 55.3056 64.1985 55.8598C64.5189 56.4228 64.6791 57.0723 64.6791 57.8084C64.6791 58.5446 64.5189 59.1941 64.1985 59.757C63.878 60.32 63.432 60.7573 62.8604 61.0691C62.2888 61.3895 61.6393 61.5497 60.9118 61.5497ZM60.9118 59.4972C61.1976 59.4972 61.4531 59.4236 61.6783 59.2764C61.8948 59.1378 62.068 58.9429 62.1979 58.6918C62.3278 58.4406 62.3928 58.1462 62.3928 57.8084C62.3928 57.4793 62.3278 57.1849 62.1979 56.9251C62.068 56.6739 61.8904 56.479 61.6653 56.3405C61.4401 56.1933 61.1803 56.1196 60.8858 56.1196C60.5827 56.1196 60.3186 56.1933 60.0934 56.3405C59.8682 56.479 59.6907 56.6739 59.5608 56.9251C59.4309 57.1849 59.3659 57.4793 59.3659 57.8084C59.3659 58.1462 59.4309 58.4406 59.5608 58.6918C59.6907 58.9429 59.8726 59.1378 60.1064 59.2764C60.3402 59.4236 60.6087 59.4972 60.9118 59.4972ZM68.4594 61.5497C67.9917 61.5497 67.5544 61.4805 67.1473 61.3419C66.7403 61.2033 66.3895 61.0085 66.0951 60.7573C65.8006 60.5062 65.5798 60.1987 65.4326 59.835L67.2642 59.0685C67.3942 59.311 67.5674 59.4929 67.7839 59.6141C68.0004 59.7354 68.2256 59.796 68.4594 59.796C68.6932 59.796 68.8751 59.757 69.005 59.6791C69.1436 59.5925 69.2128 59.4799 69.2128 59.3413C69.2128 59.1854 69.1436 59.0642 69.005 58.9776C68.8664 58.891 68.6672 58.8174 68.4074 58.7567L67.7969 58.6009C67.13 58.4276 66.619 58.1419 66.264 57.7435C65.9002 57.3451 65.7184 56.8861 65.7184 56.3665C65.7184 55.6303 65.9738 55.0631 66.4848 54.6647C66.9871 54.2663 67.6843 54.0671 68.5763 54.0671C69.0873 54.0671 69.5333 54.1321 69.9143 54.262C70.3041 54.4005 70.6288 54.5911 70.8886 54.8336C71.1485 55.0761 71.339 55.3575 71.4602 55.678L69.6805 56.4054C69.6112 56.2149 69.477 56.072 69.2778 55.9767C69.07 55.8728 68.8448 55.8209 68.6023 55.8209C68.3858 55.8209 68.2212 55.8685 68.1086 55.9638C67.9961 56.0504 67.9398 56.1716 67.9398 56.3275C67.9398 56.4401 68.009 56.5353 68.1476 56.6133C68.2862 56.6999 68.4897 56.7735 68.7582 56.8341L69.5116 57.029C69.962 57.1416 70.3387 57.3148 70.6418 57.5486C70.9449 57.7824 71.1744 58.0509 71.3303 58.354C71.4776 58.6658 71.5512 58.9992 71.5512 59.3543C71.5512 59.8047 71.4213 60.1901 71.1614 60.5105C70.9016 60.8396 70.5379 61.0951 70.0702 61.2769C69.6026 61.4588 69.0656 61.5497 68.4594 61.5497ZM75.6822 61.5497C74.8335 61.5497 74.2013 61.3462 73.7856 60.9392C73.3785 60.5408 73.175 59.9649 73.175 59.2114V52.0016H75.3964V58.6528C75.3964 58.9386 75.4484 59.1465 75.5523 59.2764C75.6562 59.4149 75.8208 59.4842 76.0459 59.4842C76.1325 59.4842 76.2321 59.4626 76.3447 59.4193C76.4573 59.376 76.5612 59.3197 76.6565 59.2504L77.4229 60.8872C77.1978 61.0777 76.925 61.2336 76.6045 61.3549C76.2841 61.4848 75.9766 61.5497 75.6822 61.5497ZM72.0578 56.1067V54.236H77.0332V56.1067H72.0578ZM12.2358 75.6706V65.6678H14.5352V75.6706H12.2358ZM16.237 75.6706V68.5257H18.3285L18.4194 69.4221C18.6446 69.0757 18.926 68.8115 19.2638 68.6296C19.6015 68.4478 19.9783 68.3568 20.394 68.3568C20.9829 68.3568 21.4679 68.4781 21.8489 68.7206C22.2386 68.9631 22.5244 69.3311 22.7063 69.8248C22.9228 69.3485 23.2216 68.9847 23.6027 68.7336C23.9837 68.4824 24.4124 68.3568 24.8887 68.3568C25.7461 68.3568 26.3913 68.6167 26.8243 69.1363C27.2574 69.6646 27.4695 70.4786 27.4609 71.5785V75.6706H25.2395V72.0072C25.2395 71.6262 25.1962 71.3274 25.1096 71.1109C25.0316 70.8857 24.9147 70.7211 24.7588 70.6172C24.6116 70.5133 24.4297 70.4527 24.2132 70.4353C23.8062 70.4267 23.4944 70.5436 23.2779 70.7861C23.07 71.0286 22.9661 71.401 22.9661 71.9033V75.6706H20.7317V72.0072C20.7317 71.6262 20.6928 71.3274 20.6148 71.1109C20.5282 70.8857 20.4113 70.7211 20.2641 70.6172C20.1082 70.5133 19.9263 70.4527 19.7185 70.4353C19.3114 70.4267 18.9996 70.5436 18.7831 70.7861C18.5666 71.0286 18.4584 71.401 18.4584 71.9033V75.6706H16.237ZM28.8899 78.5285V68.5257H30.9943L31.1243 69.8378V78.5285H28.8899ZM33.1508 75.8395C32.5619 75.8395 32.0682 75.6922 31.6699 75.3978C31.2628 75.0947 30.9597 74.6616 30.7605 74.0987C30.5613 73.5358 30.4617 72.8689 30.4617 72.0982C30.4617 71.3187 30.5613 70.6475 30.7605 70.0846C30.9597 69.5303 31.2628 69.1016 31.6699 68.7985C32.0682 68.5041 32.5619 68.3568 33.1508 68.3568C33.8176 68.3568 34.3936 68.5041 34.8785 68.7985C35.3635 69.1016 35.7359 69.5303 35.9957 70.0846C36.2556 70.6475 36.3855 71.3187 36.3855 72.0982C36.3855 72.8689 36.2556 73.5358 35.9957 74.0987C35.7359 74.6616 35.3635 75.0947 34.8785 75.3978C34.3936 75.6922 33.8176 75.8395 33.1508 75.8395ZM32.5792 73.7869C32.865 73.7869 33.1161 73.7133 33.3327 73.5661C33.5578 73.4275 33.7354 73.2327 33.8653 72.9815C33.9952 72.7304 34.0601 72.4359 34.0601 72.0982C34.0601 71.7691 33.9995 71.4746 33.8783 71.2148C33.757 70.9636 33.5838 70.7688 33.3586 70.6302C33.1335 70.483 32.878 70.4094 32.5922 70.4094C32.3064 70.4094 32.0509 70.483 31.8257 70.6302C31.6006 70.7688 31.4274 70.968 31.3061 71.2278C31.1849 71.4876 31.1243 71.7777 31.1243 72.0982C31.1243 72.4359 31.1849 72.7304 31.3061 72.9815C31.4274 73.2327 31.6006 73.4275 31.8257 73.5661C32.0423 73.7133 32.2934 73.7869 32.5792 73.7869ZM37.4637 75.6706V65.6678H39.6981V75.6706H37.4637ZM44.5826 75.8395C43.8378 75.8395 43.1796 75.6792 42.608 75.3588C42.0364 75.047 41.5904 74.6097 41.2699 74.0467C40.9409 73.4838 40.7763 72.8343 40.7763 72.0982C40.7763 71.3534 40.9409 70.6995 41.2699 70.1366C41.599 69.5736 42.0494 69.1363 42.621 68.8245C43.1926 68.5127 43.8551 68.3568 44.6086 68.3568C45.2841 68.3568 45.8946 68.5171 46.4402 68.8375C46.9858 69.1666 47.4189 69.6472 47.7393 70.2795C48.0511 70.9203 48.207 71.7171 48.207 72.6697H42.8418L43.0757 72.3969C43.0757 72.726 43.1449 73.0118 43.2835 73.2543C43.4134 73.5055 43.5996 73.696 43.8421 73.8259C44.0759 73.9472 44.3401 74.0078 44.6345 74.0078C44.9896 74.0078 45.2884 73.9298 45.5309 73.7739C45.7734 73.6181 45.9423 73.4232 46.0375 73.1894L48.0121 73.8519C47.8216 74.3022 47.5531 74.6746 47.2067 74.9691C46.8603 75.2635 46.4619 75.4844 46.0115 75.6316C45.5612 75.7702 45.0849 75.8395 44.5826 75.8395ZM43.1406 71.4746L42.9068 71.1888H46.1155L45.9076 71.4746C45.9076 71.1195 45.8383 70.8381 45.6998 70.6302C45.5525 70.4224 45.375 70.2708 45.1671 70.1755C44.9593 70.0889 44.7514 70.0456 44.5436 70.0456C44.3271 70.0456 44.1149 70.0889 43.9071 70.1755C43.6905 70.2708 43.5087 70.4224 43.3614 70.6302C43.2142 70.8381 43.1406 71.1195 43.1406 71.4746ZM49.1553 75.6706V68.5257H51.2598L51.3377 69.4221C51.5715 69.0757 51.8573 68.8115 52.1951 68.6296C52.5328 68.4478 52.9052 68.3568 53.3123 68.3568C53.9012 68.3568 54.3905 68.4781 54.7802 68.7206C55.1613 68.9631 55.4428 69.3311 55.6246 69.8248C55.8498 69.3485 56.1529 68.9847 56.534 68.7336C56.915 68.4824 57.3437 68.3568 57.82 68.3568C58.6774 68.3568 59.3226 68.6167 59.7557 69.1363C60.1887 69.6646 60.4009 70.4786 60.3922 71.5785V75.6706H58.1578V72.0072C58.1578 71.6262 58.1188 71.3274 58.0409 71.1109C57.9543 70.8857 57.8374 70.7211 57.6901 70.6172C57.5343 70.5133 57.3524 70.4527 57.1445 70.4353C56.7375 70.4267 56.4257 70.5436 56.2092 70.7861C55.9927 71.0286 55.8844 71.401 55.8844 71.9033V75.6706H53.65V72.0072C53.65 71.6262 53.6111 71.3274 53.5331 71.1109C53.4552 70.8857 53.3383 70.7211 53.1824 70.6172C53.0352 70.5133 52.8533 70.4527 52.6368 70.4353C52.2297 70.4267 51.918 70.5436 51.7014 70.7861C51.4936 71.0286 51.3897 71.401 51.3897 71.9033V75.6706H49.1553ZM65.1728 75.8395C64.428 75.8395 63.7698 75.6792 63.1982 75.3588C62.6266 75.047 62.1806 74.6097 61.8601 74.0467C61.531 73.4838 61.3665 72.8343 61.3665 72.0982C61.3665 71.3534 61.531 70.6995 61.8601 70.1366C62.1892 69.5736 62.6396 69.1363 63.2112 68.8245C63.7828 68.5127 64.4453 68.3568 65.1987 68.3568C65.8742 68.3568 66.4848 68.5171 67.0304 68.8375C67.576 69.1666 68.009 69.6472 68.3295 70.2795C68.6413 70.9203 68.7971 71.7171 68.7971 72.6697H63.432L63.6788 72.3969C63.6788 72.726 63.7438 73.0118 63.8737 73.2543C64.0036 73.5055 64.1898 73.696 64.4323 73.8259C64.6661 73.9472 64.9303 74.0078 65.2247 74.0078C65.5798 74.0078 65.8786 73.9298 66.1211 73.7739C66.3636 73.6181 66.5324 73.4232 66.6277 73.1894L68.6023 73.8519C68.4118 74.3022 68.1433 74.6746 67.7969 74.9691C67.4504 75.2635 67.0521 75.4844 66.6017 75.6316C66.1514 75.7702 65.6751 75.8395 65.1728 75.8395ZM63.7308 71.4746L63.497 71.1888H66.7057L66.4978 71.4746C66.4978 71.1195 66.4285 70.8381 66.29 70.6302C66.1427 70.4224 65.9652 70.2708 65.7573 70.1755C65.5495 70.0889 65.3416 70.0456 65.1338 70.0456C64.9259 70.0456 64.7137 70.0889 64.4972 70.1755C64.2807 70.2708 64.0989 70.4224 63.9516 70.6302C63.8044 70.8381 63.7308 71.1195 63.7308 71.4746ZM69.7455 75.6706V68.5257H71.8499L71.9799 69.8378V75.6706H69.7455ZM74.3442 75.6706V72.0072H76.5785V75.6706H74.3442ZM74.3442 72.0072C74.3442 71.6262 74.3008 71.3274 74.2142 71.1109C74.1276 70.8857 74.0064 70.7211 73.8505 70.6172C73.6946 70.5133 73.5041 70.4527 73.2789 70.4353C72.8459 70.4267 72.5211 70.5436 72.3046 70.7861C72.0881 71.0286 71.9799 71.401 71.9799 71.9033H71.3043C71.3043 71.1498 71.4169 70.509 71.6421 69.9807C71.8759 69.4524 72.1877 69.0497 72.5774 68.7725C72.9758 68.4954 73.4391 68.3568 73.9674 68.3568C74.539 68.3568 75.0197 68.4738 75.4094 68.7076C75.7991 68.9414 76.0892 69.2965 76.2798 69.7728C76.479 70.2491 76.5785 70.8597 76.5785 71.6045V72.0072H74.3442ZM81.0084 75.8395C80.1596 75.8395 79.5274 75.6359 79.1117 75.2289C78.696 74.8305 78.4882 74.2546 78.4882 73.5011V66.2913H80.7226V72.9425C80.7226 73.2283 80.7745 73.4362 80.8785 73.5661C80.9824 73.7047 81.1426 73.7739 81.3591 73.7739C81.4457 73.7739 81.5453 73.7523 81.6579 73.709C81.7791 73.6657 81.8874 73.6094 81.9827 73.5401L82.7491 75.1769C82.5239 75.3675 82.2511 75.5234 81.9307 75.6446C81.6103 75.7745 81.3028 75.8395 81.0084 75.8395ZM77.371 70.3964V68.5257H82.3464V70.3964H77.371ZM87.9194 75.6706L87.8674 74.1247V72.1111C87.8674 71.7301 87.8328 71.3967 87.7635 71.1109C87.6942 70.8251 87.5773 70.5999 87.4128 70.4353C87.2395 70.2795 86.9797 70.2015 86.6333 70.2015C86.3648 70.2015 86.131 70.2621 85.9318 70.3834C85.7326 70.5046 85.5638 70.6778 85.4252 70.903L83.4766 70.2535C83.6411 69.8984 83.862 69.578 84.1391 69.2922C84.4249 69.0064 84.7713 68.7812 85.1784 68.6167C85.5854 68.4434 86.0617 68.3568 86.6073 68.3568C87.3521 68.3568 87.98 68.4954 88.491 68.7725C89.0106 69.0497 89.396 69.4351 89.6471 69.9287C89.907 70.4224 90.0369 71.0069 90.0369 71.6824L90.0109 75.6706H87.9194ZM85.9838 75.8395C85.1351 75.8395 84.4769 75.6489 84.0092 75.2679C83.5415 74.8868 83.3077 74.3499 83.3077 73.657C83.3077 72.9036 83.5502 72.3406 84.0352 71.9682C84.5202 71.5958 85.2 71.4096 86.0747 71.4096H88.0363V72.8386H86.9191C86.4428 72.8386 86.1007 72.9079 85.8928 73.0465C85.685 73.1764 85.5811 73.3626 85.5811 73.6051C85.5811 73.7696 85.659 73.9039 85.8149 74.0078C85.9708 74.103 86.1873 74.1507 86.4644 74.1507C86.7416 74.1507 86.9841 74.0944 87.1919 73.9818C87.3998 73.8606 87.5643 73.7003 87.6856 73.5011C87.8068 73.302 87.8674 73.0811 87.8674 72.8386H88.426C88.426 73.7913 88.2268 74.5317 87.8285 75.06C87.4214 75.5796 86.8065 75.8395 85.9838 75.8395ZM91.4009 75.6706V65.6678H93.6223V74.3455L93.5054 75.6706H91.4009ZM95.6488 75.8395C95.0599 75.8395 94.5663 75.6922 94.1679 75.3978C93.7695 75.0947 93.4707 74.6616 93.2715 74.0987C93.0723 73.5358 92.9728 72.8689 92.9728 72.0982C92.9728 71.3187 93.0723 70.6475 93.2715 70.0846C93.4707 69.5303 93.7695 69.1016 94.1679 68.7985C94.5663 68.5041 95.0599 68.3568 95.6488 68.3568C96.3157 68.3568 96.8916 68.5041 97.3766 68.7985C97.8702 69.1016 98.2426 69.5303 98.4938 70.0846C98.7536 70.6475 98.8835 71.3187 98.8835 72.0982C98.8835 72.8689 98.7536 73.5358 98.4938 74.0987C98.2426 74.6616 97.8702 75.0947 97.3766 75.3978C96.8916 75.6922 96.3157 75.8395 95.6488 75.8395ZM95.0772 73.7869C95.363 73.7869 95.6185 73.7133 95.8437 73.5661C96.0602 73.4275 96.2334 73.2327 96.3633 72.9815C96.5019 72.7304 96.5712 72.4359 96.5712 72.0982C96.5712 71.7691 96.5062 71.4746 96.3763 71.2148C96.2551 70.9636 96.0818 70.7688 95.8567 70.6302C95.6315 70.483 95.376 70.4094 95.0902 70.4094C94.8044 70.4094 94.5533 70.483 94.3368 70.6302C94.1116 70.7688 93.9341 70.968 93.8042 71.2278C93.6829 71.4876 93.6223 71.7777 93.6223 72.0982C93.6223 72.4359 93.6829 72.7304 93.8042 72.9815C93.9341 73.2327 94.1073 73.4275 94.3238 73.5661C94.5403 73.7133 94.7915 73.7869 95.0772 73.7869ZM99.9747 75.6706V65.6678H102.196V75.6706H99.9747ZM107.081 75.8395C106.344 75.8395 105.691 75.6792 105.119 75.3588C104.547 75.047 104.097 74.6097 103.768 74.0467C103.448 73.4838 103.287 72.8343 103.287 72.0982C103.287 71.3534 103.452 70.6995 103.781 70.1366C104.11 69.5736 104.56 69.1363 105.132 68.8245C105.704 68.5127 106.366 68.3568 107.12 68.3568C107.795 68.3568 108.401 68.5171 108.938 68.8375C109.484 69.1666 109.917 69.6472 110.237 70.2795C110.558 70.9203 110.718 71.7171 110.718 72.6697H105.34L105.587 72.3969C105.587 72.726 105.652 73.0118 105.782 73.2543C105.92 73.5055 106.106 73.696 106.34 73.8259C106.583 73.9472 106.851 74.0078 107.146 74.0078C107.492 74.0078 107.791 73.9298 108.042 73.7739C108.284 73.6181 108.453 73.4232 108.549 73.1894L110.51 73.8519C110.32 74.3022 110.051 74.6746 109.705 74.9691C109.358 75.2635 108.96 75.4844 108.51 75.6316C108.068 75.7702 107.592 75.8395 107.081 75.8395ZM105.639 71.4746L105.418 71.1888H108.614L108.419 71.4746C108.419 71.1195 108.345 70.8381 108.198 70.6302C108.059 70.4224 107.882 70.2708 107.665 70.1755C107.457 70.0889 107.249 70.0456 107.042 70.0456C106.834 70.0456 106.622 70.0889 106.405 70.1755C106.189 70.2708 106.007 70.4224 105.859 70.6302C105.712 70.8381 105.639 71.1195 105.639 71.4746Z" fill="black"/>
<path d="M92.9663 0.705444H120.247V27.9858H92.9663V0.705444Z" fill="#FF492C"/>
<mask id="mask0_8607_28031" style="mask-type:luminance" maskUnits="userSpaceOnUse" x="92" y="0" width="29" height="28">
<path d="M92.9663 0.705444H120.247V27.9858H92.9663V0.705444Z" fill="white"/>
</mask>
<g mask="url(#mask0_8607_28031)">
<path fill-rule="evenodd" clip-rule="evenodd" d="M112.519 11.1525H110.188C110.252 10.7875 110.477 10.5835 110.934 10.3523L111.364 10.134C112.132 9.74042 112.541 9.29744 112.541 8.57516C112.549 8.36611 112.504 8.15837 112.412 7.97062C112.32 7.78287 112.182 7.62099 112.012 7.49954C111.667 7.23972 111.244 7.11241 110.758 7.11241C110.382 7.10842 110.013 7.21355 109.695 7.4151C109.389 7.59552 109.144 7.86219 108.99 8.18155L109.666 8.85576C109.927 8.32834 110.308 8.06853 110.808 8.06853C111.23 8.06853 111.491 8.28677 111.491 8.58815C111.491 8.84147 111.364 9.05192 110.878 9.29744L110.604 9.43125C110.005 9.73393 109.589 10.0782 109.35 10.4705C109.11 10.8576 108.99 11.3565 108.99 11.954V12.1151H112.519V11.1538V11.1525ZM112.2 13.231H108.347L106.421 16.5696H110.274L112.2 19.9082L114.128 16.5696L112.2 13.231Z" fill="white"/>
<path fill-rule="evenodd" clip-rule="evenodd" d="M106.748 18.8001C105.567 18.7991 104.435 18.3297 103.599 17.4948C102.764 16.66 102.294 15.5279 102.292 14.3469C102.294 13.1662 102.765 12.0344 103.6 11.1999C104.435 10.3653 105.567 9.89606 106.748 9.89503L108.273 6.70453C107.143 6.47853 105.976 6.50621 104.857 6.78557C103.738 7.06493 102.696 7.58901 101.804 8.32004C100.912 9.05107 100.194 9.97083 99.7005 11.013C99.2072 12.0552 98.9513 13.1939 98.9512 14.3469C98.9513 15.3706 99.1532 16.3842 99.5451 17.3299C99.937 18.2756 100.511 19.1348 101.235 19.8585C101.96 20.5821 102.819 21.1561 103.765 21.5476C104.711 21.939 105.724 22.1404 106.748 22.14C108.399 22.1427 110.007 21.6194 111.34 20.6461L109.652 17.7206C108.845 18.4174 107.814 18.8006 106.748 18.8001Z" fill="white"/>
<path d="M93.6016 1.5719V27.3817" stroke="black" stroke-width="1.085"/>
</g>
<path d="M0.732422 109.203V100.759L60.4894 130.692L120.246 100.759V109.203L60.4894 138.406L0.732422 109.203Z" fill="#288DFF"/>
<path d="M0.732422 101.469V93.0248L60.4894 122.958L120.246 93.0248V101.469L60.4894 130.672L0.732422 101.469Z" fill="white"/>
<path d="M0.732422 93.7587V85.3148L60.4894 115.249L120.246 85.3148V93.7587L60.4894 122.962L0.732422 93.7587Z" fill="white"/>
<path d="M119.695 27.3817H1.54451M119.541 108.524L60.4896 137.62L1.43799 108.524V1.41077H119.541V108.524Z" stroke="black" stroke-width="1.085"/>
</g>
<defs>
<clipPath id="clip0_8607_28031">
<rect width="120.813" height="139" fill="white" transform="translate(0.687012)"/>
</clipPath>
</defs>
</svg>
