<svg width="122" height="139" viewBox="0 0 122 139" fill="none" xmlns="http://www.w3.org/2000/svg">
<g clip-path="url(#clip0_8607_24163)">
<path d="M0.358887 108.962L60.1159 138.406L119.873 108.962V0.705444H0.358887V108.962Z" fill="white"/>
<path d="M0.358887 108.962L60.1159 138.406L119.873 108.962V0.705444H0.358887V108.962Z" fill="white"/>
<path d="M16.9804 17.3165C16.66 17.3165 16.3612 17.2775 16.0841 17.1996C15.7983 17.1216 15.5471 17.0134 15.3306 16.8748C15.1141 16.7276 14.9366 16.5674 14.798 16.3941C14.6508 16.2209 14.5555 16.0347 14.5122 15.8356L15.7333 15.4718C15.8113 15.6797 15.9498 15.8572 16.149 16.0044C16.3482 16.1517 16.5994 16.2296 16.9025 16.2383C17.2229 16.2469 17.4871 16.1776 17.6949 16.0304C17.8941 15.8832 17.9937 15.697 17.9937 15.4718C17.9937 15.2726 17.9158 15.1037 17.7599 14.9652C17.5953 14.8266 17.3745 14.7227 17.0973 14.6534L16.2659 14.4326C15.9628 14.3546 15.69 14.2334 15.4475 14.0688C15.2137 13.9129 15.0318 13.7137 14.9019 13.4713C14.7634 13.2374 14.6941 12.9646 14.6941 12.6528C14.6941 12.0466 14.8933 11.5746 15.2916 11.2369C15.69 10.9078 16.253 10.7432 16.9804 10.7432C17.3875 10.7432 17.7425 10.7995 18.0457 10.9121C18.3574 11.0333 18.6129 11.2022 18.8121 11.4187C19.02 11.6352 19.1802 11.8951 19.2928 12.1982L18.0846 12.5619C18.0067 12.3541 17.8725 12.1808 17.6819 12.0423C17.4827 11.8951 17.2359 11.8214 16.9415 11.8214C16.6383 11.8214 16.4002 11.8907 16.227 12.0293C16.0538 12.1679 15.9672 12.367 15.9672 12.6269C15.9672 12.8261 16.0364 12.9819 16.175 13.0945C16.3136 13.2071 16.4998 13.2937 16.7336 13.3543L17.565 13.5622C18.1106 13.7008 18.535 13.9432 18.8381 14.2897C19.1412 14.6361 19.2928 15.0215 19.2928 15.4458C19.2928 15.8182 19.2018 16.143 19.02 16.4201C18.8381 16.7059 18.5783 16.9268 18.2405 17.0827C17.8941 17.2385 17.4741 17.3165 16.9804 17.3165ZM21.2673 17.2126V10.8471H23.6316C24.082 10.8471 24.4804 10.9381 24.8268 11.1199C25.1732 11.2932 25.4417 11.54 25.6322 11.8604C25.8314 12.1808 25.931 12.5489 25.931 12.9646C25.931 13.3803 25.8357 13.7484 25.6452 14.0688C25.4547 14.3893 25.1992 14.6404 24.8787 14.8223C24.5497 15.0128 24.1686 15.1081 23.7356 15.1081H22.5144V17.2126H21.2673ZM22.5144 13.9519H23.7096C23.9867 13.9519 24.2162 13.861 24.3981 13.6791C24.5713 13.4972 24.6579 13.2591 24.6579 12.9646C24.6579 12.6788 24.5626 12.4407 24.3721 12.2501C24.1729 12.0769 23.9174 11.9903 23.6057 11.9903H22.5144V13.9519ZM27.6587 17.2126V10.8471H30.023C30.4734 10.8471 30.8718 10.9337 31.2182 11.107C31.5646 11.2888 31.8331 11.5313 32.0236 11.8344C32.2228 12.1375 32.3224 12.4926 32.3224 12.8997C32.3224 13.298 32.2185 13.6531 32.0106 13.9649C31.8114 14.2767 31.5343 14.5192 31.1792 14.6924C30.8328 14.8656 30.4344 14.9522 29.9841 14.9522H28.9059V17.2126H27.6587ZM31.1662 17.2126L29.6983 14.6534L30.6466 13.9779L32.5692 17.2126H31.1662ZM28.9059 13.822H30.036C30.2266 13.822 30.3954 13.783 30.5427 13.7051C30.6899 13.6271 30.8068 13.5189 30.8934 13.3803C30.98 13.2418 31.0233 13.0815 31.0233 12.8997C31.0233 12.6312 30.9281 12.4103 30.7375 12.2371C30.5383 12.0726 30.2829 11.9903 29.9711 11.9903H28.9059V13.822ZM34.4399 17.2126V10.8471H35.687V17.2126H34.4399ZM37.9733 17.2126V10.8471H39.2724L42.3901 15.1211V10.8471H43.6243V17.2126H42.3901L39.2204 12.8607V17.2126H37.9733ZM48.8725 17.3165C48.223 17.3165 47.647 17.1779 47.1447 16.9008C46.6424 16.615 46.2527 16.2253 45.9756 15.7316C45.6898 15.238 45.5469 14.6707 45.5469 14.0299C45.5469 13.389 45.6898 12.8217 45.9756 12.3281C46.2527 11.8344 46.6424 11.4447 47.1447 11.1589C47.647 10.8818 48.223 10.7432 48.8725 10.7432C49.2622 10.7432 49.6173 10.7995 49.9377 10.9121C50.2668 11.0247 50.5569 11.1849 50.8081 11.3927C51.0592 11.5919 51.2714 11.8214 51.4446 12.0813L50.4314 12.7178C50.3274 12.5532 50.1889 12.4103 50.0157 12.2891C49.8511 12.1592 49.6692 12.0596 49.4701 11.9903C49.2709 11.9124 49.0717 11.8734 48.8725 11.8734C48.4741 11.8734 48.119 11.9643 47.8073 12.1462C47.4955 12.3367 47.253 12.5922 47.0798 12.9127C46.9066 13.2331 46.82 13.6055 46.82 14.0299C46.82 14.4456 46.9066 14.8179 47.0798 15.147C47.253 15.4761 47.4955 15.7316 47.8073 15.9135C48.119 16.104 48.4828 16.1993 48.8985 16.1993C49.2189 16.1993 49.5047 16.1343 49.7559 16.0044C50.007 15.8745 50.2062 15.697 50.3534 15.4718C50.5006 15.238 50.5743 14.9695 50.5743 14.6664L51.7564 14.4845C51.7564 15.0821 51.6308 15.5931 51.3797 16.0174C51.1372 16.4418 50.7994 16.7665 50.3664 16.9917C49.9334 17.2082 49.4354 17.3165 48.8725 17.3165ZM49.0803 14.7703V13.809H51.7564V14.5755L51.0809 14.7703H49.0803ZM56.433 17.2126V16.2902C56.433 16.117 56.485 15.9265 56.5889 15.7186C56.7015 15.5021 56.8531 15.2899 57.0436 15.0821C57.2428 14.8656 57.4723 14.6664 57.7321 14.4845L58.6934 13.796C58.8233 13.7008 58.9489 13.5968 59.0701 13.4842C59.1914 13.3717 59.2867 13.2461 59.3559 13.1075C59.4339 12.9689 59.4729 12.839 59.4729 12.7178C59.4729 12.5532 59.4339 12.4103 59.3559 12.2891C59.2867 12.1592 59.1784 12.0596 59.0312 11.9903C58.8839 11.9124 58.7021 11.8734 58.4856 11.8734C58.3037 11.8734 58.1435 11.9124 58.0049 11.9903C57.8663 12.0596 57.7494 12.1549 57.6542 12.2761C57.5676 12.3974 57.5026 12.5273 57.4593 12.6658L56.1862 12.445C56.2468 12.1419 56.3768 11.8604 56.5759 11.6006C56.7751 11.3408 57.0349 11.1286 57.3554 10.9641C57.6845 10.8082 58.0525 10.7302 58.4596 10.7302C58.9359 10.7302 59.343 10.8168 59.6807 10.99C60.0185 11.1546 60.2826 11.3841 60.4731 11.6785C60.655 11.973 60.7459 12.3151 60.7459 12.7048C60.7459 13.0945 60.6377 13.4453 60.4212 13.757C60.2047 14.0602 59.9102 14.346 59.5378 14.6144L58.6674 15.238C58.4942 15.3592 58.3427 15.4935 58.2128 15.6407C58.0915 15.7879 57.9963 15.9481 57.927 16.1213H60.8239V17.2126H56.433ZM65.0848 17.3165C64.5652 17.3165 64.1105 17.1779 63.7208 16.9008C63.3224 16.615 63.015 16.2253 62.7985 15.7316C62.5733 15.238 62.4607 14.6707 62.4607 14.0299C62.4607 13.389 62.5733 12.8217 62.7985 12.3281C63.015 11.8344 63.3224 11.4447 63.7208 11.1589C64.1105 10.8818 64.5609 10.7432 65.0718 10.7432C65.5915 10.7432 66.0505 10.8818 66.4488 11.1589C66.8386 11.4447 67.146 11.8344 67.3712 12.3281C67.5963 12.8217 67.7089 13.389 67.7089 14.0299C67.7089 14.6707 67.5963 15.238 67.3712 15.7316C67.146 16.2253 66.8386 16.615 66.4488 16.9008C66.0505 17.1779 65.5958 17.3165 65.0848 17.3165ZM65.0848 16.1993C65.3533 16.1993 65.5958 16.104 65.8123 15.9135C66.0288 15.7316 66.1977 15.4761 66.3189 15.147C66.4402 14.8266 66.5008 14.4542 66.5008 14.0299C66.5008 13.6055 66.4402 13.2288 66.3189 12.8997C66.1977 12.5706 66.0288 12.3151 65.8123 12.1332C65.5958 11.9513 65.349 11.8604 65.0718 11.8604C64.8034 11.8604 64.5609 11.9513 64.3444 12.1332C64.1365 12.3151 63.972 12.5706 63.8507 12.8997C63.7295 13.2288 63.6688 13.6055 63.6688 14.0299C63.6688 14.4542 63.7295 14.8266 63.8507 15.147C63.972 15.4761 64.1408 15.7316 64.3573 15.9135C64.5652 16.104 64.8077 16.1993 65.0848 16.1993ZM69.3977 17.2126V16.2902C69.3977 16.117 69.454 15.9265 69.5666 15.7186C69.6792 15.5021 69.8307 15.2899 70.0213 15.0821C70.2118 14.8656 70.4413 14.6664 70.7098 14.4845L71.6711 13.796C71.801 13.7008 71.9266 13.5968 72.0478 13.4842C72.1604 13.3717 72.2557 13.2461 72.3336 13.1075C72.4115 12.9689 72.4505 12.839 72.4505 12.7178C72.4505 12.5532 72.4115 12.4103 72.3336 12.2891C72.2557 12.1592 72.1474 12.0596 72.0088 11.9903C71.8616 11.9124 71.6797 11.8734 71.4632 11.8734C71.2814 11.8734 71.1211 11.9124 70.9826 11.9903C70.8354 12.0596 70.7184 12.1549 70.6318 12.2761C70.5366 12.3974 70.4716 12.5273 70.437 12.6658L69.1639 12.445C69.2245 12.1419 69.3544 11.8604 69.5536 11.6006C69.7528 11.3408 70.0126 11.1286 70.333 10.9641C70.6621 10.8082 71.0302 10.7302 71.4373 10.7302C71.9136 10.7302 72.3206 10.8168 72.6584 10.99C72.9961 11.1546 73.2603 11.3841 73.4508 11.6785C73.6327 11.973 73.7236 12.3151 73.7236 12.7048C73.7236 13.0945 73.6153 13.4453 73.3988 13.757C73.1823 14.0602 72.8879 14.346 72.5155 14.6144L71.6451 15.238C71.4719 15.3592 71.3203 15.4935 71.1904 15.6407C71.0692 15.7879 70.9739 15.9481 70.9046 16.1213H73.8015V17.2126H69.3977ZM77.7767 17.3165C77.4909 17.3165 77.1921 17.2689 76.8803 17.1736C76.5772 17.0783 76.3044 16.9354 76.0619 16.7449C75.8108 16.5457 75.6289 16.3032 75.5163 16.0174L76.6465 15.6797C76.7851 15.8789 76.9453 16.0217 77.1272 16.1084C77.309 16.2036 77.5039 16.2513 77.7117 16.2513C78.0235 16.2513 78.279 16.156 78.4782 15.9655C78.6687 15.7749 78.764 15.5194 78.764 15.199C78.764 14.8959 78.6687 14.6447 78.4782 14.4456C78.2877 14.2464 78.0365 14.1468 77.7247 14.1468C77.5342 14.1468 77.361 14.1901 77.2051 14.2767C77.0492 14.3633 76.928 14.4629 76.8414 14.5755L75.7242 14.3286L76.1009 10.8471H79.7123V11.9773H77.1661L76.9843 13.4972C77.1488 13.4106 77.3307 13.337 77.5299 13.2764C77.7291 13.2244 77.9456 13.1984 78.1794 13.1984C78.5258 13.1984 78.8419 13.2851 79.1277 13.4583C79.4135 13.6228 79.6387 13.848 79.8032 14.1338C79.9678 14.4196 80.0501 14.753 80.0501 15.1341C80.0501 15.5671 79.9548 15.9481 79.7643 16.2772C79.5651 16.6063 79.2966 16.8618 78.9588 17.0437C78.6211 17.2256 78.227 17.3165 77.7767 17.3165Z" fill="black"/>
<path d="M45.677 61.0561V50.1439H49.4962C50.241 50.1439 50.8992 50.2565 51.4708 50.4817C52.0424 50.7155 52.4927 51.0663 52.8218 51.5339C53.1423 52.0016 53.3025 52.5948 53.3025 53.3136C53.3025 53.6947 53.1986 54.0541 52.9907 54.3919C52.7915 54.7296 52.5144 55.0327 52.1593 55.3012C52.6616 55.561 53.0427 55.9031 53.3025 56.3275C53.571 56.7432 53.7052 57.2585 53.7052 57.8734C53.7052 58.5575 53.5493 59.1378 53.2375 59.6141C52.9258 60.0904 52.4927 60.4498 51.9385 60.6923C51.3929 60.9348 50.752 61.0561 50.0159 61.0561H45.677ZM48.1192 58.8477H49.7301C50.1544 58.8477 50.4922 58.7351 50.7433 58.5099C50.9945 58.2847 51.1201 57.9946 51.1201 57.6395C51.1201 57.2671 50.9902 56.9727 50.7303 56.7562C50.4705 56.5483 50.1111 56.4444 49.6521 56.4444H48.1192V58.8477ZM48.1192 54.4308H49.4183C49.8167 54.4308 50.1328 54.3312 50.3666 54.1321C50.6091 53.9242 50.7303 53.6384 50.7303 53.2747C50.7303 52.9023 50.6004 52.6165 50.3406 52.4173C50.0895 52.2094 49.7517 52.1055 49.3274 52.1055H48.1192V54.4308ZM58.7066 61.2379C57.9012 61.2379 57.1867 61.0647 56.5631 60.7183C55.9396 60.3719 55.4503 59.8912 55.0952 59.2764C54.7401 58.6615 54.5626 57.9556 54.5626 57.1589C54.5626 56.3448 54.7401 55.6346 55.0952 55.0284C55.4589 54.4135 55.9526 53.9329 56.5761 53.5864C57.1997 53.2487 57.9228 53.0798 58.7456 53.0798C59.4817 53.0798 60.1442 53.253 60.7331 53.5994C61.3307 53.9545 61.8027 54.4828 62.1491 55.1843C62.4955 55.8771 62.6688 56.7432 62.6688 57.7824H56.81L57.0698 57.4836C57.0698 57.8387 57.1434 58.1505 57.2906 58.419C57.4379 58.6874 57.6414 58.8953 57.9012 59.0425C58.161 59.1811 58.4511 59.2504 58.7716 59.2504C59.1526 59.2504 59.4774 59.1638 59.7459 58.9906C60.0143 58.8173 60.2005 58.6008 60.3045 58.341L62.4479 59.0815C62.2401 59.5665 61.9456 59.9692 61.5646 60.2896C61.1922 60.6101 60.7591 60.8482 60.2655 61.0041C59.7805 61.16 59.2609 61.2379 58.7066 61.2379ZM57.1347 56.4704L56.8879 56.1586H60.3824L60.1616 56.4704C60.1616 56.0893 60.0836 55.7819 59.9277 55.548C59.7718 55.3229 59.577 55.1626 59.3431 55.0674C59.118 54.9635 58.8928 54.9115 58.6676 54.9115C58.4338 54.9115 58.2 54.9635 57.9661 55.0674C57.7323 55.1626 57.5374 55.3229 57.3816 55.548C57.217 55.7819 57.1347 56.0893 57.1347 56.4704ZM66.6309 61.2379C66.1199 61.2379 65.6436 61.1643 65.2019 61.0171C64.7603 60.8699 64.3792 60.6577 64.0588 60.3806C63.7383 60.1034 63.5002 59.7657 63.3443 59.3673L65.3318 58.5359C65.4704 58.8044 65.6566 59.0035 65.8904 59.1335C66.1329 59.2634 66.3798 59.3283 66.6309 59.3283C66.8907 59.3283 67.0942 59.285 67.2415 59.1984C67.38 59.1031 67.4493 58.9776 67.4493 58.8217C67.4493 58.6571 67.3757 58.5272 67.2285 58.432C67.0812 58.3454 66.8647 58.2631 66.5789 58.1851L65.9164 58.0163C65.1889 57.8257 64.6303 57.5183 64.2406 57.0939C63.8509 56.6609 63.656 56.1586 63.656 55.587C63.656 54.7816 63.9288 54.1624 64.4745 53.7293C65.0287 53.2963 65.7952 53.0798 66.7738 53.0798C67.3194 53.0798 67.8044 53.1491 68.2288 53.2877C68.6445 53.4349 68.9952 53.6427 69.281 53.9112C69.5668 54.171 69.7746 54.4785 69.9046 54.8335L67.9689 55.626C67.8997 55.4181 67.7524 55.2622 67.5273 55.1583C67.3021 55.0457 67.0553 54.9894 66.7868 54.9894C66.553 54.9894 66.3754 55.0414 66.2542 55.1453C66.1329 55.2406 66.0723 55.3705 66.0723 55.535C66.0723 55.665 66.1459 55.7732 66.2932 55.8598C66.4404 55.9464 66.6612 56.0244 66.9557 56.0936L67.7871 56.3015C68.2721 56.4227 68.6791 56.6133 69.0082 56.8731C69.346 57.1242 69.5971 57.4187 69.7617 57.7564C69.9262 58.0942 70.0085 58.4579 70.0085 58.8477C70.0085 59.3326 69.8656 59.7527 69.5798 60.1078C69.294 60.4715 68.8956 60.753 68.3846 60.9521C67.8823 61.1427 67.2978 61.2379 66.6309 61.2379ZM74.5162 61.2379C73.5896 61.2379 72.9011 61.0171 72.4507 60.5754C72.0004 60.1337 71.7752 59.5059 71.7752 58.6918V50.8324H74.2045V58.0812C74.2045 58.393 74.2607 58.6225 74.3733 58.7697C74.4859 58.9083 74.6635 58.9776 74.9059 58.9776C75.0012 58.9776 75.1095 58.9559 75.2307 58.9126C75.3606 58.8693 75.4775 58.8087 75.5815 58.7307L76.4129 60.5105C76.1704 60.7183 75.8716 60.8915 75.5165 61.0301C75.1701 61.1687 74.8367 61.2379 74.5162 61.2379ZM70.5541 55.3012V53.2617H75.9842V55.3012H70.5541ZM16.6299 76.6449V65.7327H20.9168C21.7136 65.7327 22.4151 65.8843 23.0213 66.1874C23.6362 66.4992 24.1168 66.9278 24.4632 67.4735C24.8183 68.0191 24.9959 68.6426 24.9959 69.3441C24.9959 70.0543 24.8183 70.6865 24.4632 71.2407C24.1082 71.7864 23.6232 72.215 23.0083 72.5268C22.3847 72.8299 21.6746 72.9815 20.8778 72.9815H19.1501V76.6449H16.6299ZM22.5536 76.6449L20.0984 72.306L21.982 70.929L25.4246 76.6449H22.5536ZM19.1501 70.6692H20.8389C21.1333 70.6692 21.3931 70.6129 21.6183 70.5003C21.8521 70.3877 22.034 70.2318 22.1639 70.0326C22.2938 69.8248 22.3588 69.5953 22.3588 69.3441C22.3588 68.9631 22.2159 68.6469 21.9301 68.3958C21.6443 68.1446 21.2675 68.0191 20.7999 68.0191H19.1501V70.6692ZM30.309 76.8267C29.495 76.8267 28.7761 76.6535 28.1526 76.3071C27.529 75.9607 27.0397 75.48 26.6846 74.8651C26.3382 74.2502 26.165 73.5444 26.165 72.7477C26.165 71.9336 26.3426 71.2234 26.6976 70.6172C27.0527 70.0023 27.542 69.5216 28.1656 69.1752C28.7891 68.8375 29.5123 68.6686 30.335 68.6686C31.0712 68.6686 31.738 68.8418 32.3356 69.1882C32.9245 69.5433 33.3922 70.0716 33.7386 70.7731C34.0937 71.4659 34.2712 72.332 34.2712 73.3712H28.3994L28.6722 73.0724C28.6722 73.4275 28.7458 73.7393 28.8931 74.0078C29.0316 74.2762 29.2308 74.4841 29.4906 74.6313C29.7504 74.7699 30.0449 74.8392 30.374 74.8392C30.7551 74.8392 31.0798 74.7526 31.3483 74.5793C31.6081 74.4061 31.79 74.1896 31.8939 73.9298L34.0503 74.6703C33.8425 75.1553 33.548 75.558 33.167 75.8784C32.7859 76.1988 32.3529 76.437 31.8679 76.5929C31.3743 76.7488 30.8546 76.8267 30.309 76.8267ZM28.7372 72.0592L28.4774 71.7474H31.9718L31.751 72.0592C31.751 71.6781 31.6731 71.3706 31.5172 71.1368C31.3613 70.9116 31.1708 70.7514 30.9456 70.6562C30.7204 70.5522 30.4909 70.5003 30.2571 70.5003C30.0319 70.5003 29.8024 70.5522 29.5686 70.6562C29.3347 70.7514 29.1356 70.9116 28.971 71.1368C28.8151 71.3706 28.7372 71.6781 28.7372 72.0592ZM35.2975 76.6449V65.7327H37.7267V76.6449H35.2975ZM43.9492 76.6449L43.8843 74.9561V72.7606C43.8843 72.3449 43.8496 71.9812 43.7803 71.6694C43.7024 71.3577 43.5725 71.1152 43.3906 70.942C43.2001 70.7601 42.9186 70.6692 42.5462 70.6692C42.2518 70.6692 41.9963 70.7384 41.7798 70.877C41.5633 71.0156 41.3771 71.2018 41.2212 71.4356L39.1037 70.7341C39.2769 70.3531 39.5151 70.0066 39.8182 69.6949C40.13 69.3831 40.5067 69.1319 40.9484 68.9414C41.3987 68.7595 41.9184 68.6686 42.5073 68.6686C43.3213 68.6686 44.0098 68.8158 44.5728 69.1103C45.1357 69.4134 45.5557 69.8378 45.8329 70.3834C46.11 70.9203 46.2486 71.5569 46.2486 72.293L46.2226 76.6449H43.9492ZM41.8317 76.8267C40.9051 76.8267 40.1863 76.6189 39.6753 76.2032C39.1643 75.7875 38.9088 75.2029 38.9088 74.4494C38.9088 73.6267 39.173 73.0118 39.7013 72.6048C40.2382 72.1977 40.983 71.9942 41.9357 71.9942H44.0661V73.5531H42.858C42.3384 73.5531 41.9617 73.6267 41.7278 73.7739C41.5027 73.9212 41.3901 74.1247 41.3901 74.3845C41.3901 74.575 41.4767 74.7222 41.6499 74.8262C41.8231 74.9387 42.0569 74.995 42.3514 74.995C42.6545 74.995 42.923 74.9301 43.1568 74.8002C43.382 74.6703 43.5595 74.4971 43.6894 74.2806C43.8193 74.0554 43.8843 73.8129 43.8843 73.5531H44.4948C44.4948 74.5923 44.274 75.3978 43.8323 75.9693C43.3993 76.5409 42.7324 76.8267 41.8317 76.8267ZM51.0811 76.8267C50.1631 76.8267 49.4746 76.6059 49.0156 76.1642C48.5652 75.7225 48.3401 75.0946 48.3401 74.2806V66.4212H50.7693V73.67C50.7693 73.9818 50.8299 74.2113 50.9512 74.3585C51.0638 74.4971 51.237 74.5664 51.4708 74.5664C51.5661 74.5664 51.6787 74.5447 51.8086 74.5014C51.9298 74.4581 52.0424 74.3975 52.1463 74.3195L52.9907 76.0993C52.7396 76.3071 52.4408 76.4803 52.0944 76.6189C51.7479 76.7574 51.4102 76.8267 51.0811 76.8267ZM47.1319 70.89V68.8505H52.549V70.89H47.1319ZM54.3288 76.6449V68.8505H56.758V76.6449H54.3288ZM55.5499 67.8502C55.1861 67.8502 54.8657 67.7116 54.5886 67.4345C54.3114 67.166 54.1729 66.8499 54.1729 66.4862C54.1729 66.0964 54.3114 65.7717 54.5886 65.5119C54.8657 65.2434 55.1861 65.1092 55.5499 65.1092C55.9223 65.1092 56.2427 65.2434 56.5112 65.5119C56.7797 65.7717 56.9139 66.0964 56.9139 66.4862C56.9139 66.8499 56.7797 67.166 56.5112 67.4345C56.2427 67.7116 55.9223 67.8502 55.5499 67.8502ZM62.266 76.8267C61.4433 76.8267 60.7202 76.6535 60.0966 76.3071C59.4731 75.9607 58.9837 75.48 58.6287 74.8651C58.2649 74.2502 58.0831 73.5444 58.0831 72.7477C58.0831 71.9509 58.2563 71.2451 58.6027 70.6302C58.9578 70.0153 59.4471 69.5346 60.0706 69.1882C60.7028 68.8418 61.4173 68.6686 62.2141 68.6686C63.0368 68.6686 63.7643 68.8418 64.3965 69.1882C65.0201 69.5346 65.5051 70.0153 65.8515 70.6302C66.2065 71.2451 66.3841 71.9509 66.3841 72.7477C66.3841 73.5444 66.2065 74.2502 65.8515 74.8651C65.5051 75.48 65.0201 75.9607 64.3965 76.3071C63.773 76.6535 63.0628 76.8267 62.266 76.8267ZM62.266 74.5923C62.5778 74.5923 62.855 74.5144 63.0975 74.3585C63.3399 74.2026 63.5305 73.9861 63.669 73.709C63.8163 73.4318 63.8899 73.1114 63.8899 72.7477C63.8899 72.3839 63.8163 72.0635 63.669 71.7864C63.5305 71.5092 63.3356 71.2927 63.0845 71.1368C62.842 70.9809 62.5562 70.903 62.2271 70.903C61.9066 70.903 61.6208 70.9809 61.3697 71.1368C61.1272 71.2927 60.9323 71.5092 60.7851 71.7864C60.6465 72.0635 60.5773 72.3839 60.5773 72.7477C60.5773 73.1114 60.6465 73.4318 60.7851 73.709C60.9323 73.9861 61.1315 74.2026 61.3827 74.3585C61.6338 74.5144 61.9283 74.5923 62.266 74.5923ZM67.5662 76.6449V68.8505H69.8526L69.9955 70.2794V76.6449H67.5662ZM72.5806 76.6449V72.6567H75.0099V76.6449H72.5806ZM72.5806 72.6567C72.5806 72.241 72.533 71.9119 72.4377 71.6694C72.3511 71.4183 72.2212 71.2364 72.048 71.1238C71.8748 71.0112 71.6626 70.9506 71.4115 70.942C70.9438 70.9333 70.5931 71.0589 70.3592 71.3187C70.1167 71.5872 69.9955 71.9899 69.9955 72.5268H69.268C69.268 71.7041 69.3893 71.0069 69.6317 70.4353C69.8829 69.8551 70.225 69.4134 70.658 69.1103C71.091 68.8158 71.5933 68.6686 72.1649 68.6686C72.7885 68.6686 73.3124 68.7942 73.7368 69.0453C74.1612 69.2965 74.4816 69.6819 74.6981 70.2015C74.9059 70.7211 75.0099 71.388 75.0099 72.2021V72.6567H72.5806ZM79.4267 76.8267C78.9157 76.8267 78.4394 76.7531 77.9977 76.6059C77.556 76.4587 77.175 76.2465 76.8545 75.9693C76.5341 75.6922 76.296 75.3545 76.1401 74.9561L78.1276 74.1247C78.2662 74.3931 78.4567 74.5923 78.6992 74.7222C78.9331 74.8521 79.1755 74.9171 79.4267 74.9171C79.6865 74.9171 79.89 74.8738 80.0373 74.7872C80.1845 74.6919 80.2581 74.5663 80.2581 74.4105C80.2581 74.2459 80.1802 74.116 80.0243 74.0207C79.877 73.9341 79.6605 73.8519 79.3747 73.7739L78.7122 73.605C77.9847 73.4145 77.4261 73.1071 77.0364 72.6827C76.6467 72.2497 76.4518 71.7474 76.4518 71.1758C76.4518 70.3704 76.7246 69.7512 77.2703 69.3181C77.8245 68.8851 78.591 68.6686 79.5696 68.6686C80.1152 68.6686 80.6002 68.7379 81.0246 68.8764C81.4489 69.0237 81.804 69.2315 82.0898 69.5C82.3756 69.7598 82.5791 70.0673 82.7003 70.4223L80.7647 71.2148C80.6955 71.0069 80.5482 70.851 80.3231 70.7471C80.0979 70.6345 79.8511 70.5782 79.5826 70.5782C79.3574 70.5782 79.1799 70.6302 79.05 70.7341C78.9287 70.8294 78.8681 70.9593 78.8681 71.1238C78.8681 71.2537 78.9417 71.362 79.0889 71.4486C79.2448 71.5352 79.4657 71.6131 79.7515 71.6824L80.5829 71.8903C81.0679 72.0115 81.4792 72.2021 81.817 72.4619C82.1461 72.713 82.3929 73.0075 82.5574 73.3452C82.722 73.683 82.8043 74.0467 82.8043 74.4364C82.8043 74.9214 82.6614 75.3415 82.3756 75.6965C82.0898 76.0603 81.6957 76.3417 81.1934 76.5409C80.6825 76.7315 80.0936 76.8267 79.4267 76.8267ZM83.9994 76.6449V65.7327H86.4287V76.6449H83.9994ZM89.0138 76.6449V72.6567H91.4431V76.6449H89.0138ZM89.0138 72.6567C89.0138 72.241 88.9662 71.9119 88.8709 71.6694C88.7756 71.4183 88.6414 71.2364 88.4682 71.1238C88.295 71.0112 88.0871 70.9506 87.8446 70.942C87.377 70.9333 87.0219 71.0589 86.7794 71.3187C86.5456 71.5872 86.4287 71.9899 86.4287 72.5268H85.6882C85.6882 71.7041 85.8138 71.0069 86.0649 70.4353C86.3161 69.8551 86.6582 69.4134 87.0912 69.1103C87.5242 68.8158 88.0179 68.6686 88.5721 68.6686C89.213 68.6686 89.7456 68.7942 90.17 69.0453C90.5943 69.2965 90.9148 69.6819 91.1313 70.2015C91.3391 70.7211 91.4431 71.388 91.4431 72.2021V72.6567H89.0138ZM93.0669 76.6449V68.8505H95.4961V76.6449H93.0669ZM94.288 67.8502C93.9243 67.8502 93.6038 67.7116 93.3267 67.4345C93.0496 67.166 92.911 66.8499 92.911 66.4862C92.911 66.0964 93.0496 65.7717 93.3267 65.5119C93.6038 65.2434 93.9243 65.1092 94.288 65.1092C94.6604 65.1092 94.9808 65.2434 95.2493 65.5119C95.5178 65.7717 95.652 66.0964 95.652 66.4862C95.652 66.8499 95.5178 67.166 95.2493 67.4345C94.9808 67.7116 94.6604 67.8502 94.288 67.8502ZM97.3018 79.7626V68.8505H99.6012L99.7441 70.2794V79.7626H97.3018ZM101.952 76.8267C101.312 76.8267 100.77 76.6665 100.329 76.3461C99.8956 76.017 99.5709 75.545 99.3544 74.9301C99.1292 74.3152 99.0166 73.5877 99.0166 72.7477C99.0166 71.8989 99.1292 71.1671 99.3544 70.5522C99.5709 69.946 99.8956 69.4783 100.329 69.1492C100.77 68.8288 101.312 68.6686 101.952 68.6686C102.68 68.6686 103.308 68.8288 103.836 69.1492C104.364 69.4783 104.771 69.946 105.057 70.5522C105.334 71.1671 105.473 71.8989 105.473 72.7477C105.473 73.5877 105.334 74.3152 105.057 74.9301C104.771 75.545 104.364 76.017 103.836 76.3461C103.308 76.6665 102.68 76.8267 101.952 76.8267ZM101.329 74.5923C101.641 74.5923 101.918 74.5144 102.16 74.3585C102.394 74.2026 102.585 73.9861 102.732 73.709C102.879 73.4318 102.953 73.1114 102.953 72.7477C102.953 72.3839 102.883 72.0635 102.745 71.7864C102.615 71.5092 102.424 71.2927 102.173 71.1368C101.931 70.9809 101.654 70.903 101.342 70.903C101.03 70.903 100.753 70.9809 100.511 71.1368C100.268 71.2927 100.078 71.5135 99.9389 71.7993C99.809 72.0765 99.7441 72.3926 99.7441 72.7477C99.7441 73.1114 99.809 73.4318 99.9389 73.709C100.078 73.9861 100.264 74.2026 100.498 74.3585C100.74 74.5144 101.017 74.5923 101.329 74.5923Z" fill="black"/>
<path d="M92.5928 0.705444H119.873V27.9858H92.5928V0.705444Z" fill="#FF492C"/>
<mask id="mask0_8607_24163" style="mask-type:luminance" maskUnits="userSpaceOnUse" x="92" y="0" width="28" height="28">
<path d="M92.5928 0.705444H119.873V27.9858H92.5928V0.705444Z" fill="white"/>
</mask>
<g mask="url(#mask0_8607_24163)">
<path fill-rule="evenodd" clip-rule="evenodd" d="M112.145 11.1525H109.815C109.878 10.7875 110.103 10.5835 110.56 10.3523L110.99 10.134C111.758 9.74042 112.167 9.29744 112.167 8.57516C112.175 8.36611 112.131 8.15837 112.039 7.97062C111.946 7.78287 111.809 7.62099 111.639 7.49954C111.293 7.23972 110.871 7.11241 110.385 7.11241C110.009 7.10842 109.639 7.21355 109.321 7.4151C109.016 7.59552 108.771 7.86219 108.617 8.18155L109.292 8.85576C109.554 8.32834 109.934 8.06853 110.434 8.06853C110.857 8.06853 111.118 8.28677 111.118 8.58815C111.118 8.84147 110.99 9.05192 110.504 9.29744L110.23 9.43125C109.631 9.73393 109.216 10.0782 108.977 10.4705C108.736 10.8576 108.617 11.3565 108.617 11.954V12.1151H112.145V11.1538V11.1525ZM111.827 13.231H107.974L106.047 16.5696H109.9L111.827 19.9082L113.755 16.5696L111.827 13.231Z" fill="white"/>
<path fill-rule="evenodd" clip-rule="evenodd" d="M106.375 18.8001C105.194 18.7991 104.061 18.3297 103.226 17.4948C102.391 16.66 101.921 15.5279 101.919 14.3469C101.921 13.1662 102.391 12.0344 103.226 11.1999C104.062 10.3653 105.194 9.89606 106.375 9.89503L107.9 6.70453C106.769 6.47853 105.602 6.50621 104.484 6.78557C103.365 7.06493 102.322 7.58901 101.43 8.32004C100.539 9.05107 99.8203 9.97083 99.327 11.013C98.8337 12.0552 98.5778 13.1939 98.5776 14.3469C98.5778 15.3706 98.7796 16.3842 99.1716 17.3299C99.5635 18.2756 100.138 19.1348 100.862 19.8585C101.586 20.5821 102.445 21.1561 103.391 21.5476C104.337 21.939 105.351 22.1404 106.375 22.14C108.025 22.1427 109.634 21.6194 110.967 20.6461L109.278 17.7206C108.471 18.4174 107.441 18.8006 106.375 18.8001Z" fill="white"/>
<path d="M93.228 1.5719V27.3817" stroke="black" stroke-width="1.085"/>
</g>
<path d="M0.358887 109.203V100.759L60.1159 130.692L119.873 100.759V109.203L60.1159 138.406L0.358887 109.203Z" fill="#27D3BC"/>
<path d="M0.358887 101.469V93.0248L60.1159 122.958L119.873 93.0248V101.469L60.1159 130.672L0.358887 101.469Z" fill="white"/>
<path d="M0.358887 93.7587V85.3148L60.1159 115.249L119.873 85.3148V93.7587L60.1159 122.962L0.358887 93.7587Z" fill="white"/>
<path d="M119.321 27.3817H1.17098M119.168 108.524L60.1161 137.62L1.06445 108.524V1.41077H119.168V108.524Z" stroke="black" stroke-width="1.085"/>
</g>
<defs>
<clipPath id="clip0_8607_24163">
<rect width="120.813" height="139" fill="white" transform="translate(0.313477)"/>
</clipPath>
</defs>
</svg>
