<svg width="121" height="140" viewBox="0 0 121 140" fill="none" xmlns="http://www.w3.org/2000/svg">
<g clip-path="url(#clip0_7558_153684)">
<path d="M-0.0539551 109.778L60.446 139.5L120.946 109.778V0.5H-0.0539551V109.778Z" fill="white"/>
<path d="M-0.0539551 109.778L60.446 139.5L120.946 109.778V0.5H-0.0539551V109.778Z" fill="white"/>
<path d="M93.3264 0.5H120.946V28.0377H93.3264V0.5Z" fill="#FF492C"/>
<path fill-rule="evenodd" clip-rule="evenodd" d="M113.122 11.0456H110.762C110.826 10.6771 111.054 10.4713 111.517 10.2365L111.951 10.0175C112.73 9.62021 113.143 9.17305 113.143 8.44264C113.151 8.23171 113.107 8.02205 113.013 7.83252C112.92 7.64299 112.781 7.47954 112.609 7.35687C112.259 7.09461 111.832 6.96741 111.34 6.96741C110.946 6.96741 110.59 7.06576 110.263 7.27163C109.954 7.45369 109.706 7.7229 109.55 8.04531L110.234 8.7272C110.497 8.1948 110.883 7.93123 111.39 7.93123C111.817 7.93123 112.08 8.15153 112.08 8.45576C112.08 8.71146 111.953 8.92521 111.461 9.17305L111.182 9.30811C110.577 9.61234 110.156 9.95984 109.913 10.3572C109.671 10.7479 109.55 11.2515 109.55 11.8534V12.0173H113.122V11.0456ZM112.8 13.1437H108.9L106.948 16.5138H110.85L112.801 19.8826L114.751 16.5125L112.801 13.1424L112.8 13.1437Z" fill="white"/>
<path fill-rule="evenodd" clip-rule="evenodd" d="M107.28 18.7641C104.791 18.7641 102.768 16.7486 102.768 14.2702C102.768 11.7918 104.791 9.77629 107.28 9.77629L108.824 6.55568C107.679 6.32755 106.498 6.35549 105.365 6.63749C104.233 6.91949 103.177 7.44851 102.274 8.18644C101.371 8.92436 100.644 9.8528 100.144 10.9048C99.645 11.9569 99.3859 13.1063 99.3857 14.2702C99.3861 15.3034 99.5905 16.3265 99.9874 17.2809C100.384 18.2354 100.966 19.1025 101.699 19.8329C102.432 20.5632 103.302 21.1425 104.26 21.5376C105.217 21.9327 106.243 22.1358 107.28 22.1355C108.951 22.1383 110.579 21.6101 111.929 20.6275L110.219 17.6757C109.429 18.3536 108.402 18.7641 107.28 18.7641Z" fill="white"/>
<path fill-rule="evenodd" clip-rule="evenodd" d="M93.2568 27.4266V1.37463H94.6838V27.4266H93.2568Z" fill="black"/>
<path d="M-0.0539551 110.021V101.498L60.446 131.713L120.946 101.497V110.02L60.446 139.499L-0.0539551 110.021Z" fill="black"/>
<path d="M-0.0539551 102.213V93.689L60.446 123.906L120.946 93.689V102.213L60.446 131.691L-0.0539551 102.213Z" fill="#FF492C"/>
<path d="M-0.0539551 94.4299V85.9063L60.446 116.123L120.946 85.9076V94.4312L60.446 123.91L-0.0539551 94.4299Z" fill="#FFC800"/>
<path fill-rule="evenodd" clip-rule="evenodd" d="M60.446 137.913L119.519 108.892V1.92278H1.37306V108.892L60.446 137.913ZM-0.0539551 109.778L60.446 139.5L120.946 109.778V0.5H-0.0539551V109.778Z" fill="black"/>
<path fill-rule="evenodd" clip-rule="evenodd" d="M0.766846 26.7146H120.387V28.1374H0.768161L0.766846 26.7146Z" fill="black"/>
<path d="M7.18628 17.5236V11.3276H9.29063C9.71544 11.3276 10.089 11.3932 10.4086 11.5217C10.7282 11.6528 10.9767 11.8495 11.1543 12.1118C11.3318 12.374 11.4213 12.7005 11.4213 13.0887C11.4213 13.3313 11.3595 13.5542 11.2371 13.7575C11.1148 13.9607 10.9478 14.1378 10.7282 14.2846C11.0175 14.4315 11.2411 14.6269 11.3989 14.8734C11.5554 15.1173 11.633 15.411 11.633 15.752C11.633 16.131 11.5475 16.4522 11.3766 16.7184C11.2043 16.9833 10.9649 17.1853 10.6571 17.3216C10.3494 17.458 9.98769 17.5236 9.5734 17.5236H7.18628ZM8.37524 13.8506H9.31562C9.58261 13.8506 9.79304 13.7824 9.94692 13.646C10.1008 13.5109 10.1771 13.3195 10.1771 13.0716C10.1771 12.8238 10.0916 12.6324 9.9193 12.496C9.74832 12.3609 9.51421 12.2927 9.21829 12.2927H8.37655L8.37524 13.8506ZM8.37524 16.4522H9.45897C9.74832 16.4522 9.97585 16.3801 10.1429 16.2359C10.3099 16.0916 10.3901 15.8975 10.3901 15.6563C10.3951 15.5422 10.3727 15.4286 10.3249 15.3249C10.2771 15.2211 10.2053 15.1302 10.1153 15.0596C9.93114 14.9154 9.68125 14.8419 9.36165 14.8419H8.37524V16.4522ZM13.5072 17.5236V11.3276H17.4397V12.433H14.7225V13.8401H17.0662V14.9206H14.7225V16.4155H17.4752V17.5223H13.5059L13.5072 17.5236ZM21.7089 17.6298C21.3959 17.6298 21.1026 17.5918 20.8303 17.5157C20.5729 17.4449 20.3277 17.3357 20.103 17.1918C19.9039 17.0652 19.7255 16.9086 19.5743 16.7276C19.4424 16.5715 19.3495 16.3863 19.3034 16.1873L20.4923 15.8333C20.5699 16.0339 20.7067 16.207 20.9001 16.3513C21.0934 16.4955 21.342 16.5716 21.6379 16.5768C21.9522 16.5834 22.2074 16.5152 22.406 16.3736C22.4913 16.3184 22.5625 16.2441 22.6137 16.1564C22.6649 16.0688 22.6947 15.9704 22.7007 15.8692C22.7067 15.768 22.6888 15.6668 22.6483 15.5737C22.6079 15.4807 22.546 15.3985 22.4678 15.3337C22.2792 15.1849 22.0594 15.0804 21.8246 15.0281L21.0171 14.8157C20.7321 14.7464 20.4615 14.6279 20.2175 14.4656C19.9941 14.3175 19.8089 14.1189 19.6769 13.886C19.5454 13.6552 19.4796 13.3877 19.4796 13.0808C19.4796 12.496 19.6743 12.0409 20.0623 11.7131C20.4502 11.3853 20.9987 11.2214 21.7089 11.2214C22.1061 11.2214 22.4533 11.2791 22.7532 11.3945C23.0517 11.5086 23.3016 11.6725 23.5029 11.8862C23.7041 12.0986 23.858 12.3491 23.9645 12.6376L22.7834 13.0008C22.7085 12.794 22.5722 12.6147 22.3928 12.4868C22.1831 12.3388 21.9302 12.2641 21.6734 12.2744C21.3775 12.2744 21.1447 12.3426 20.9763 12.4789C20.8921 12.5483 20.8254 12.6364 20.7815 12.7362C20.7377 12.8359 20.7179 12.9445 20.7238 13.0533C20.7238 13.2474 20.7896 13.4021 20.9237 13.5149C21.0566 13.6263 21.2394 13.7116 21.4695 13.7706L22.2863 13.9738C22.819 14.1037 23.2332 14.3371 23.5292 14.6728C23.8251 15.0085 23.9724 15.3848 23.9724 15.7979C23.9724 16.1651 23.8843 16.4837 23.7067 16.7578C23.5292 17.0331 23.2727 17.2456 22.9347 17.4003C22.5967 17.5551 22.189 17.6298 21.7089 17.6298ZM27.2131 17.5236V12.4343H25.3494V11.3276H30.2854V12.433H28.4297V17.5223H27.2131V17.5236ZM37.0588 17.6298C36.7458 17.6298 36.4512 17.5918 36.1802 17.5157C35.9224 17.4451 35.6767 17.3359 35.4516 17.1918C35.2529 17.0651 35.075 16.9085 34.9242 16.7276C34.7923 16.5715 34.6994 16.3863 34.6533 16.1873L35.8422 15.8333C35.9198 16.0339 36.0553 16.207 36.25 16.3513C36.4446 16.4955 36.6919 16.5716 36.9865 16.5768C37.3021 16.5834 37.5573 16.5152 37.7546 16.3736C37.84 16.3185 37.9113 16.2442 37.9626 16.1567C38.0139 16.0691 38.0439 15.9708 38.05 15.8695C38.0562 15.7683 38.0383 15.6671 37.998 15.574C37.9576 15.4809 37.8959 15.3986 37.8177 15.3337C37.6287 15.1847 37.4084 15.0802 37.1732 15.0281L36.3657 14.8157C36.0812 14.7462 35.811 14.6277 35.5674 14.4656C35.3435 14.3176 35.1578 14.119 35.0255 13.886C34.8953 13.6552 34.8295 13.3877 34.8295 13.0808C34.8295 12.496 35.0242 12.0409 35.4122 11.7131C35.7988 11.3853 36.3486 11.2214 37.0588 11.2214C37.456 11.2214 37.8032 11.2791 38.1018 11.3945C38.4003 11.5086 38.6502 11.6725 38.8515 11.8862C39.0527 12.0986 39.2066 12.3491 39.3144 12.6376L38.1333 13.0008C38.0584 12.794 37.9221 12.6147 37.7427 12.4868C37.533 12.3388 37.2801 12.2641 37.0233 12.2744C36.7274 12.2744 36.4946 12.3426 36.3262 12.4789C36.242 12.5483 36.1753 12.6364 36.1314 12.7362C36.0876 12.8359 36.0678 12.9445 36.0737 13.0533C36.0737 13.2474 36.1395 13.4021 36.2736 13.5149C36.4051 13.6263 36.5893 13.7116 36.8194 13.7706L37.6349 13.9738C38.1689 14.1037 38.5818 14.3371 38.8791 14.6728C39.1763 15.0085 39.3223 15.3848 39.3223 15.7979C39.3223 16.1651 39.2342 16.4837 39.0566 16.7578C38.8778 17.0331 38.6213 17.2456 38.2833 17.4003C37.9453 17.5551 37.5375 17.6298 37.0588 17.6298ZM44.09 17.6298C43.5082 17.6419 42.9336 17.4998 42.4249 17.218C41.9508 16.9515 41.5594 16.56 41.2938 16.0864C41.0151 15.5807 40.8741 15.011 40.8848 14.4341C40.8848 13.8021 41.0216 13.2474 41.2925 12.7661C41.5661 12.2849 41.9396 11.9085 42.4157 11.6384C42.9189 11.36 43.487 11.2193 44.0623 11.2306C44.6897 11.2306 45.2421 11.3669 45.7195 11.6423C46.1956 11.9177 46.5691 12.294 46.8414 12.774C47.1137 13.2565 47.2491 13.8099 47.2491 14.4341C47.2491 15.0544 47.115 15.6051 46.8467 16.0864C46.5847 16.5588 46.1975 16.9503 45.7274 17.218C45.2513 17.4934 44.7055 17.6311 44.0886 17.6311L44.09 17.6298ZM44.09 16.5244C44.4687 16.5244 44.8002 16.4326 45.0895 16.2542C45.3749 16.0733 45.5998 15.8267 45.7629 15.5146C45.926 15.2025 46.0062 14.8406 46.0062 14.4341C46.0062 14.021 45.9247 13.6604 45.759 13.3457C45.6017 13.0424 45.3655 12.787 45.0751 12.6061C44.7699 12.4223 44.4188 12.3287 44.0623 12.336C43.7149 12.3314 43.3731 12.4235 43.0753 12.6018C42.7775 12.7802 42.5354 13.0378 42.3762 13.3457C42.2105 13.6604 42.1263 14.021 42.1263 14.4341C42.1263 14.8406 42.2105 15.2025 42.3762 15.5146C42.542 15.8267 42.7734 16.0733 43.0694 16.2542C43.364 16.4326 43.7046 16.5244 44.09 16.5244ZM49.1233 17.5236V11.3276H53.1084V12.433H50.3399V13.9201H52.6481V15.0268H50.3399V17.5223H49.1233V17.5236ZM56.2426 17.5236V12.4343H54.3789V11.3276H59.3149V12.433H57.4591V17.5223H56.2426V17.5236ZM62.236 17.5236L60.3973 11.3276H61.631L63.3987 17.5236H62.236ZM62.3938 17.5236L64.0905 11.3276H65.1913L63.5039 17.5236H62.3938ZM65.866 17.5236L64.1983 11.3276H65.2978L67.03 17.5236H65.866ZM65.9818 17.5236L67.7652 11.3276H69.0002L67.1444 17.5236H65.9818ZM69.425 17.5236L71.8752 11.3276H73.0918L70.7139 17.5236H69.425ZM70.5798 16.1598V15.0898H74.4767V16.1598H70.5798ZM74.3347 17.5236L71.9542 11.3276H73.1721L75.6223 17.5236H74.3347ZM77.2558 17.5236V11.3276H79.5627C80.0007 11.3276 80.3886 11.4128 80.7267 11.5846C81.0647 11.7564 81.3277 11.9911 81.5158 12.2875C81.7052 12.5865 81.7999 12.9326 81.7999 13.3274C81.7999 13.7181 81.7012 14.0643 81.504 14.3685C81.3026 14.6738 81.0216 14.9187 80.6911 15.0767C80.3479 15.2445 79.9573 15.3284 79.5193 15.3284H78.4711V17.5236H77.2545H77.2558ZM78.4711 14.223H79.5719C79.756 14.223 79.9204 14.1836 80.0651 14.1076C80.2098 14.0315 80.3255 13.924 80.4123 13.7889C80.4981 13.6503 80.5423 13.4902 80.5399 13.3274C80.5399 13.0625 80.4439 12.8474 80.2505 12.6822C80.0572 12.517 79.8126 12.433 79.5101 12.433H78.4711V14.223ZM80.6727 17.5236L79.2352 15.036L80.1664 14.3725L82.0498 17.5236H80.6727ZM83.8687 17.5236V11.3276H87.8012V12.433H85.084V13.8401H87.429V14.9206H85.084V16.4155H87.8367V17.5223H83.8687V17.5236ZM48.972 41.4539V40.5609C48.972 40.3891 49.0247 40.2003 49.1325 39.9931C49.2377 39.7872 49.3863 39.5813 49.5757 39.3728C49.7651 39.1669 49.9861 38.9755 50.2412 38.7984L51.1829 38.1257C51.3131 38.0379 51.4355 37.9369 51.5512 37.8241C51.6669 37.7127 51.7616 37.5907 51.8353 37.457C51.9089 37.3232 51.9458 37.196 51.9458 37.0728C51.9487 36.9257 51.9093 36.781 51.8324 36.6555C51.7555 36.53 51.6443 36.4291 51.5117 36.3646C51.3475 36.2887 51.1679 36.2519 50.987 36.2571C50.8293 36.252 50.6728 36.2849 50.5306 36.3529C50.3885 36.4209 50.2648 36.5221 50.1702 36.6479C50.0835 36.7612 50.02 36.8904 49.9835 37.0282L48.7327 36.8157C48.7919 36.5207 48.9181 36.2466 49.1141 35.9922C49.3101 35.7378 49.5652 35.5333 49.8822 35.3772C50.1991 35.2212 50.5582 35.1412 50.9607 35.1412C51.421 35.1412 51.8182 35.2251 52.1496 35.3903C52.4811 35.5556 52.7375 35.7811 52.9177 36.0683C53.0992 36.3541 53.1886 36.6872 53.1886 37.0636C53.1886 37.4478 53.0834 37.7874 52.873 38.0864C52.6625 38.3841 52.3745 38.6634 52.0076 38.923L51.1658 39.5328C50.9922 39.6508 50.8449 39.7806 50.72 39.9223C50.5985 40.0608 50.5028 40.2197 50.4372 40.3917H53.2689V41.4539H48.972ZM57.4223 41.5614C56.9199 41.5614 56.4754 41.4237 56.0913 41.1483C55.6935 40.8583 55.3807 40.4676 55.1851 40.0167C54.9574 39.4932 54.8453 38.927 54.8563 38.3565C54.8563 37.731 54.9668 37.1763 55.1851 36.6977C55.4048 36.2151 55.7046 35.8375 56.0861 35.5634C56.4688 35.2894 56.912 35.1517 57.4144 35.1517C57.9168 35.1517 58.3627 35.2894 58.7507 35.5634C59.1374 35.8388 59.4412 36.2151 59.6608 36.6977C59.8791 37.1777 59.9896 37.731 59.9896 38.3565C59.9896 38.982 59.8791 39.5354 59.6608 40.0167C59.4653 40.4676 59.1524 40.8583 58.7546 41.1483C58.3693 41.4237 57.9247 41.5614 57.4223 41.5614ZM57.4223 40.4638C57.6893 40.4638 57.9274 40.372 58.1378 40.1937C58.3482 40.0127 58.5126 39.7649 58.631 39.4489C58.7494 39.1341 58.8086 38.7683 58.8086 38.3565C58.8086 37.9435 58.7494 37.5763 58.631 37.2576C58.5331 36.9707 58.3633 36.7134 58.1378 36.5102C57.9381 36.3349 57.6805 36.2392 57.4144 36.2414C57.1524 36.2397 56.8991 36.3355 56.7042 36.5102C56.4977 36.6912 56.3359 36.9403 56.2202 37.2576C56.0989 37.6111 56.0402 37.983 56.0466 38.3565C56.0466 38.7696 56.1045 39.1341 56.2202 39.4489C56.3359 39.7649 56.499 40.0127 56.7082 40.1924C56.9186 40.372 57.1553 40.4638 57.4223 40.4638ZM61.6402 41.4539V40.5609C61.6402 40.3891 61.6928 40.2003 61.8007 39.9931C61.9201 39.7676 62.0692 39.559 62.2439 39.3728C62.4333 39.1669 62.6556 38.9755 62.9094 38.7984L63.8511 38.1257C63.98 38.0379 64.1036 37.9369 64.2194 37.8241C64.3314 37.7162 64.4271 37.5925 64.5034 37.457C64.5723 37.3403 64.6103 37.2081 64.6139 37.0728C64.6157 36.9263 64.5775 36.7822 64.5034 36.6558C64.4257 36.5296 64.3134 36.4282 64.1799 36.3633C64.0154 36.2885 63.8358 36.2526 63.6551 36.2584C63.4912 36.2555 63.3289 36.2914 63.1817 36.3633C63.0472 36.4306 62.9302 36.528 62.8397 36.6479C62.7527 36.761 62.6892 36.8903 62.6529 37.0282L61.4009 36.8157C61.46 36.5207 61.5876 36.2466 61.7823 35.9922C61.9769 35.7391 62.2334 35.5333 62.5504 35.3772C62.866 35.2212 63.2264 35.1412 63.6288 35.1412C64.0892 35.1412 64.4864 35.2251 64.8178 35.3903C65.1492 35.5556 65.4057 35.7811 65.5859 36.0683C65.7674 36.3541 65.8568 36.6872 65.8568 37.0636C65.8568 37.4478 65.7516 37.7874 65.5425 38.0864C65.332 38.3841 65.0427 38.6634 64.6771 38.923L63.8327 39.5328C63.6617 39.6508 63.5131 39.7806 63.3881 39.9223C63.2671 40.0611 63.1714 40.2199 63.1054 40.3917H65.937V41.4539H61.6402ZM69.8156 41.5614C69.5184 41.559 69.2234 41.5108 68.941 41.4185C68.6485 41.3272 68.3752 41.1831 68.1348 40.9936C67.8991 40.8116 67.7162 40.5704 67.6047 40.2947L68.7148 39.9668C68.8262 40.1374 68.979 40.2771 69.1591 40.3732C69.3391 40.4692 69.5404 40.5184 69.7446 40.5163C70.0524 40.5163 70.3022 40.4245 70.4943 40.237C70.6876 40.0508 70.7836 39.8029 70.7836 39.4895C70.7874 39.3563 70.7648 39.2236 70.7169 39.0991C70.6691 38.9747 70.597 38.8609 70.5048 38.7644C70.409 38.6659 70.2934 38.5888 70.1655 38.5382C70.0376 38.4876 69.9004 38.4645 69.763 38.4706C69.5864 38.4694 69.4124 38.5122 69.2566 38.5952C69.1184 38.6658 68.9972 38.7656 68.9015 38.8876L67.8099 38.649L68.1834 35.2579H71.699V36.3555H69.2198L69.0423 37.8438C69.2014 37.7546 69.3803 37.6825 69.5749 37.6261C69.7799 37.5692 69.9923 37.544 70.2049 37.5514C70.5429 37.5514 70.8507 37.6327 71.1282 37.7953C71.407 37.9566 71.6267 38.1782 71.7898 38.4588C71.9528 38.7394 72.0331 39.066 72.0331 39.4371C72.0331 39.8554 71.9384 40.2239 71.7503 40.5425C71.5622 40.8612 71.3005 41.1103 70.9691 41.29C70.6132 41.4759 70.2173 41.5693 69.8156 41.5614ZM17.808 71.2825V56.8055H12.4393V52.924H27.3801V56.8055H22.014V71.2825H17.8053H17.808ZM33.6958 71.5985C32.3096 71.5985 31.0917 71.3048 30.0395 70.7199C29.005 70.1517 28.1456 69.313 27.5537 68.294C26.9487 67.262 26.6462 66.0739 26.6462 64.7272C26.6462 63.3805 26.9382 62.1924 27.5274 61.1604C28.1071 60.1365 28.964 59.2959 30 58.7345C31.0601 58.1483 32.2648 57.8559 33.6169 57.8559C35.0005 57.8559 36.2236 58.1483 37.2863 58.7345C38.3222 59.2962 39.179 60.1368 39.759 61.1604C40.3455 62.1924 40.6401 63.3805 40.6401 64.7272C40.6401 66.0739 40.3455 67.262 39.759 68.294C39.1815 69.3151 38.3298 70.1552 37.2995 70.7199C36.2473 71.3048 35.0452 71.5985 33.6958 71.5985ZM33.6958 67.8219C34.2206 67.8219 34.6901 67.6908 35.1031 67.4285C35.5134 67.1663 35.8396 66.8043 36.0763 66.3401C36.3131 65.8772 36.4315 65.3383 36.4315 64.7272C36.4315 64.1161 36.3131 63.5785 36.0763 63.1143C35.8396 62.6514 35.5108 62.2881 35.0899 62.0259C34.6691 61.7636 34.1851 61.6325 33.6419 61.6325C33.0987 61.6325 32.616 61.7636 32.1951 62.0259C31.7743 62.2881 31.4455 62.6514 31.2087 63.1143C30.972 63.5772 30.8536 64.1148 30.8536 64.7272C30.8536 65.3396 30.972 65.8772 31.2087 66.3401C31.4455 66.803 31.7782 67.1663 32.2083 67.4285C32.6384 67.6908 33.1329 67.8219 33.6945 67.8219H33.6958ZM42.7695 76.5278V58.1693H46.6362L46.873 60.5821V76.5278H42.7695ZM50.6082 71.5972C49.5205 71.5972 48.609 71.3218 47.8725 70.7711C47.136 70.2203 46.5836 69.4309 46.2154 68.3976C45.8471 67.3669 45.663 66.1421 45.663 64.7259C45.663 63.2939 45.8471 62.0652 46.2154 61.0424C46.5836 60.0196 47.136 59.2328 47.8725 58.682C48.609 58.1312 49.5205 57.8559 50.6082 57.8559C51.8353 57.8559 52.8967 58.1312 53.791 58.682C54.6854 59.2328 55.3693 60.0196 55.8427 61.0424C56.3162 62.0652 56.553 63.2939 56.553 64.7272C56.553 66.1434 56.3162 67.3669 55.8427 68.3989C55.3693 69.4309 54.6854 70.2216 53.791 70.7724C52.8967 71.3231 51.8353 71.5985 50.6082 71.5985V71.5972ZM49.556 67.8206C50.0821 67.8206 50.5464 67.6895 50.9501 67.4285C51.3526 67.1663 51.6775 66.8043 51.9234 66.3401C52.168 65.8772 52.2917 65.3383 52.2917 64.7272C52.2917 64.1161 52.1772 63.5785 51.9497 63.1143C51.7419 62.6648 51.4075 62.2854 50.9871 62.0223C50.5667 61.7591 50.0786 61.6237 49.5823 61.6325C49.0562 61.6325 48.5867 61.7636 48.175 62.0259C47.7621 62.2881 47.4424 62.6553 47.2149 63.1274C46.9874 63.5995 46.873 64.1319 46.873 64.7272C46.873 65.3383 46.9874 65.8759 47.2149 66.3401C47.4424 66.8043 47.7581 67.1663 48.1619 67.4285C48.5643 67.6908 49.0299 67.8206 49.556 67.8206ZM64.443 59.2183V55.3893C64.9164 55.426 65.4031 55.3211 65.9028 55.0759C66.4026 54.8307 66.8932 54.5041 67.3759 54.0924C67.8586 53.6819 68.2834 53.2754 68.6516 52.8729L71.3347 55.4693C70.6863 56.2036 69.9932 56.8724 69.258 57.4756C68.5214 58.0788 67.7586 58.5417 66.9695 58.8656C66.1804 59.1895 65.3386 59.3075 64.4443 59.2196L64.443 59.2183ZM68.2308 71.2825V55.1821L68.6516 52.9266H72.2553V71.2851H68.2308V71.2825ZM83.119 71.5985C81.6118 71.5985 80.269 71.192 79.0945 70.379C77.92 69.566 77.0033 68.4474 76.3457 67.022C75.6881 65.5979 75.3593 63.9588 75.3593 62.1046C75.3593 60.2517 75.6881 58.6125 76.3457 57.1871C77.0033 55.763 77.9147 54.6431 79.0813 53.8301C80.2479 53.0171 81.5842 52.6106 83.0927 52.6106C84.6184 52.6106 85.9691 53.0171 87.1436 53.8301C88.3181 54.6431 89.244 55.763 89.9187 57.1871C90.5947 58.6125 90.9314 60.2517 90.9314 62.1046C90.9314 63.9588 90.5987 65.5979 89.9319 67.022C89.265 68.4474 88.3444 69.566 87.1699 70.379C85.9954 71.192 84.6447 71.5985 83.119 71.5985ZM83.1453 67.7695C83.8464 67.7695 84.4737 67.5242 85.0261 67.0351C85.5785 66.5447 86.0125 65.8772 86.3282 65.0288C86.6438 64.1817 86.8017 63.2061 86.8017 62.1046C86.8017 60.986 86.6438 59.9973 86.3282 59.141C86.0125 58.2834 85.5732 57.6107 85.013 57.1215C84.4873 56.6462 83.8023 56.3843 83.0927 56.3872C82.3917 56.3872 81.7683 56.6324 81.2251 57.1215C80.6819 57.6107 80.2558 58.2834 79.9494 59.141C79.6429 59.9986 79.489 60.986 79.489 62.1046C79.489 63.2061 79.6429 64.1843 79.9494 65.0419C80.2558 65.8995 80.6859 66.567 81.2383 67.0482C81.7907 67.5282 82.4259 67.7695 83.1453 67.7695ZM100.268 71.5985C98.7609 71.5985 97.4181 71.192 96.2436 70.379C95.0691 69.566 94.1524 68.4474 93.4948 67.022C92.8372 65.5979 92.5084 63.9588 92.5084 62.1046C92.5084 60.2517 92.8372 58.6125 93.4948 57.1871C94.1524 55.763 95.0639 54.6431 96.2304 53.8301C97.397 53.0171 98.7333 52.6106 100.242 52.6106C101.768 52.6106 103.118 53.0171 104.293 53.8301C105.467 54.6431 106.393 55.763 107.068 57.1871C107.744 58.6125 108.081 60.2517 108.081 62.1046C108.081 63.9588 107.748 65.5979 107.081 67.022C106.414 68.4474 105.494 69.566 104.319 70.379C103.145 71.192 101.794 71.5985 100.268 71.5985ZM100.294 67.7695C100.995 67.7695 101.623 67.5242 102.175 67.0351C102.728 66.5447 103.162 65.8772 103.477 65.0288C103.793 64.1817 103.951 63.2061 103.951 62.1046C103.951 60.986 103.793 59.9973 103.477 59.141C103.162 58.2834 102.722 57.6107 102.162 57.1215C101.636 56.6462 100.951 56.3843 100.242 56.3872C99.5408 56.3872 98.9174 56.6324 98.3742 57.1215C97.8311 57.6107 97.4063 58.2834 97.0985 59.141C96.7907 59.9986 96.6382 60.986 96.6382 62.1046C96.6382 63.2061 96.792 64.1843 97.0985 65.0419C97.4049 65.8995 97.835 66.567 98.3874 67.0482C98.9398 67.5282 99.5751 67.7695 100.294 67.7695ZM11.7974 88.0425V82.986H12.7878V88.0425H11.7961H11.7974ZM12.534 85.9155V85.0055H15.601V85.9155H12.534ZM15.1315 88.0425V82.9939H16.1219V88.0425H15.1315ZM17.9448 88.0425V82.9939H18.9351V88.0425H17.9448ZM23.1096 88.129C22.594 88.129 22.1364 88.0176 21.7392 87.7933C21.342 87.5704 21.0289 87.2622 20.8027 86.8701C20.5765 86.4781 20.4621 86.0283 20.4621 85.5182C20.4621 85.0081 20.5752 84.5583 20.8027 84.1662C21.0303 83.7741 21.342 83.4673 21.7392 83.243C22.1377 83.0201 22.594 82.9073 23.1096 82.9073C23.4187 82.9073 23.7028 82.9532 23.9645 83.0437C24.4553 83.2124 24.8753 83.5402 25.1574 83.9748L24.3472 84.4796C24.2612 84.3461 24.1521 84.2289 24.025 84.1334C23.8922 84.0325 23.7462 83.9538 23.587 83.8961C23.4279 83.8384 23.2688 83.8082 23.1096 83.8082C22.8189 83.8001 22.5316 83.8726 22.2799 84.0178C22.0281 84.163 21.8218 84.3751 21.6839 84.6304C21.5445 84.8861 21.4748 85.1812 21.4748 85.5182C21.4748 85.8499 21.5432 86.1463 21.6813 86.4059C21.8194 86.6656 22.0127 86.8688 22.2639 87.0157C22.5138 87.1613 22.8032 87.2347 23.132 87.2347C23.3871 87.2347 23.6147 87.1849 23.8159 87.0839C24.0171 86.9829 24.1736 86.8413 24.2894 86.6577C24.4051 86.4741 24.463 86.2643 24.463 86.023L25.4034 85.8788C25.4034 86.3548 25.3047 86.7626 25.1101 87.0983C24.9141 87.434 24.6445 87.6897 24.2999 87.8654C23.9553 88.0412 23.5581 88.129 23.1096 88.129ZM23.2766 86.1096V85.3372H25.4034V85.9509L24.8681 86.1096H23.2766ZM26.8567 88.0425V82.986H27.847V88.0425H26.8567ZM27.5945 85.9155V85.0055H30.6616V85.9155H27.5945ZM30.1921 88.0425V82.9939H31.1824V88.0425H30.1921ZM33.0053 88.0425V82.9939H36.2105V83.8961H33.997V85.0422H35.9054V85.9208H33.9957V87.1403H36.2381V88.0425H33.0053ZM39.6892 88.129C39.4341 88.129 39.1947 88.0975 38.9725 88.0359C38.763 87.9782 38.5635 87.8893 38.3806 87.7723C38.2176 87.669 38.072 87.5407 37.9492 87.3921C37.8423 87.2654 37.767 87.1153 37.7296 86.9541L38.6976 86.6656C38.7607 86.8282 38.8712 86.9685 39.0303 87.0865C39.1895 87.2045 39.3894 87.2662 39.6314 87.2701C39.8521 87.2839 40.0713 87.2259 40.2561 87.1049C40.3259 87.06 40.384 86.9994 40.4259 86.928C40.4678 86.8565 40.4923 86.7762 40.4973 86.6936C40.5023 86.611 40.4877 86.5284 40.4547 86.4524C40.4217 86.3765 40.3712 86.3094 40.3074 86.2565C40.1536 86.1358 39.9748 86.0507 39.7839 86.0073L39.1263 85.8355C38.8937 85.7791 38.6729 85.6824 38.474 85.5497C38.2855 85.4286 38.1314 85.2614 38.0264 85.0639C37.9213 84.8664 37.869 84.6454 37.8742 84.4219C37.8742 83.9459 38.0321 83.5735 38.3477 83.3073C38.6634 83.0398 39.1105 82.9073 39.6892 82.9073C40.0115 82.9073 40.2942 82.9546 40.5389 83.0477C40.7822 83.1408 40.986 83.2745 41.1505 83.4489C41.3149 83.6207 41.4398 83.8253 41.5266 84.06L40.5639 84.3564C40.5023 84.1886 40.3914 84.0432 40.2456 83.9394C40.0751 83.8185 39.8693 83.7572 39.6603 83.7649C39.4183 83.7649 39.2302 83.8213 39.0921 83.9315C38.954 84.0416 38.887 84.1977 38.887 84.3996C38.887 84.5583 38.9396 84.6842 39.0487 84.7747C39.1579 84.8651 39.3052 84.936 39.4946 84.9845L40.1588 85.1497C40.5928 85.2546 40.9308 85.4461 41.1715 85.7201C41.4135 85.9955 41.5332 86.2997 41.5332 86.6354C41.5332 86.9344 41.4622 87.194 41.3175 87.4183C41.1728 87.6412 40.9624 87.8169 40.6875 87.9402C40.3722 88.0738 40.0317 88.1382 39.6892 88.129ZM44.1728 88.0425V83.8961H42.6551V82.9939H46.6757V83.8961H45.1632V88.0425H44.1728ZM52.1956 88.129C51.9405 88.129 51.7011 88.0975 51.4802 88.0359C51.2698 87.9784 51.0694 87.8896 50.8857 87.7723C50.7232 87.6689 50.578 87.5406 50.4556 87.3921C50.3487 87.2654 50.2734 87.1153 50.236 86.9541L51.2053 86.6656C51.2671 86.8282 51.3776 86.9685 51.538 87.0865C51.6985 87.2045 51.8958 87.2662 52.1378 87.2701C52.3589 87.2842 52.5786 87.2262 52.7638 87.1049C52.8335 87.0599 52.8916 86.9992 52.9333 86.9277C52.9751 86.8562 52.9994 86.7759 53.0043 86.6933C53.0092 86.6107 52.9944 86.5281 52.9613 86.4522C52.9283 86.3763 52.8777 86.3093 52.8138 86.2565C52.66 86.1358 52.4812 86.0507 52.2903 86.0073L51.6327 85.8355C51.4001 85.7791 51.1793 85.6824 50.9804 85.5497C50.7919 85.4286 50.6378 85.2614 50.5328 85.0639C50.4277 84.8664 50.3754 84.6454 50.3806 84.4219C50.3806 83.9459 50.5385 83.5735 50.8541 83.3073C51.1698 83.0398 51.617 82.9073 52.1956 82.9073C52.5192 82.9073 52.802 82.9546 53.0466 83.0477C53.2899 83.1408 53.4938 83.2745 53.6569 83.4489C53.8213 83.6207 53.9462 83.8253 54.033 84.06L53.0716 84.3564C53.0097 84.1884 52.8983 84.043 52.752 83.9394C52.5815 83.8185 52.3757 83.7572 52.1667 83.7649C51.926 83.7649 51.7366 83.8213 51.5999 83.9315C51.4631 84.0416 51.3934 84.1977 51.3934 84.3996C51.3934 84.5583 51.446 84.6842 51.5551 84.7747C51.6643 84.8651 51.8129 84.936 52.001 84.9845L52.6665 85.1497C53.1005 85.2546 53.4385 85.4461 53.6792 85.7201C53.9199 85.9955 54.0409 86.2997 54.0409 86.6354C54.0409 86.9344 53.9686 87.194 53.8239 87.4183C53.6792 87.6412 53.4688 87.8169 53.1939 87.9402C52.8786 88.0738 52.5381 88.1382 52.1956 88.129ZM55.1181 88.0425L57.1146 82.9939H58.1062L56.1676 88.0425H55.1181ZM56.0584 86.9318V86.0584H59.2347V86.9318H56.0584ZM59.119 88.0425L57.1803 82.9939H58.172L60.1672 88.0425H59.119ZM62.2215 88.0425V83.8961H60.7025V82.9939H64.7231V83.8961H63.2106V88.0425H62.2215ZM66.0975 88.0425V82.9939H67.0892V88.0425H66.0975ZM70.6113 88.129C70.3549 88.129 70.1168 88.0975 69.8958 88.0359C69.6855 87.9783 69.4851 87.8895 69.3014 87.7723C69.1388 87.6689 68.9937 87.5406 68.8713 87.3921C68.7643 87.2655 68.689 87.1154 68.6516 86.9541L69.621 86.6656C69.6828 86.8282 69.7933 86.9685 69.9524 87.0865C70.1115 87.2045 70.3128 87.2662 70.5535 87.2701C70.7746 87.2839 70.9942 87.2259 71.1795 87.1049C71.2489 87.0597 71.3068 86.999 71.3484 86.9275C71.39 86.856 71.4142 86.7757 71.4191 86.6932C71.4239 86.6107 71.4093 86.5282 71.3764 86.4524C71.3434 86.3765 71.2931 86.3094 71.2295 86.2565C71.0756 86.1358 70.8969 86.0507 70.706 86.0073L70.0471 85.8355C69.8154 85.779 69.5955 85.6822 69.3974 85.5497C69.2087 85.4288 69.0543 85.2616 68.949 85.0641C68.8438 84.8666 68.7912 84.6455 68.7963 84.4219C68.7963 83.9459 68.9541 83.5735 69.2698 83.3073C69.5854 83.0398 70.0326 82.9073 70.6113 82.9073C70.9349 82.9073 71.2189 82.9546 71.461 83.0477C71.7056 83.1408 71.9094 83.2745 72.0725 83.4489C72.2369 83.6207 72.3619 83.8253 72.4487 84.06L71.4873 84.3564C71.4294 84.1937 71.3229 84.0547 71.1677 83.9394C71.0125 83.824 70.8191 83.7649 70.5824 83.7649C70.3417 83.7649 70.1523 83.8213 70.0155 83.9315C69.8787 84.0416 69.8077 84.1977 69.8077 84.3996C69.8077 84.5583 69.863 84.6842 69.9708 84.7747C70.08 84.8665 70.2286 84.936 70.4154 84.9845L71.0822 85.1497C71.5162 85.2546 71.8529 85.4461 72.0949 85.7201C72.3369 85.9942 72.4566 86.2997 72.4566 86.6354C72.4566 86.9344 72.3829 87.194 72.2396 87.4183C72.0949 87.6412 71.8845 87.8169 71.6096 87.9402C71.2947 88.0737 70.9534 88.1381 70.6113 88.129ZM74.0256 88.0425V82.9939H77.2742V83.8961H75.0173V85.1064H76.8981V86.0086H75.0173V88.0412L74.0256 88.0425ZM78.2646 88.0425L80.2598 82.9939H81.2514L79.3141 88.0425H78.2646ZM79.2049 86.9318V86.0584H82.3812V86.9318H79.2049ZM82.2655 88.0425L80.3255 82.9939H81.3172L83.3137 88.0425H82.2655ZM86.6912 88.129C86.1993 88.129 85.7626 88.0176 85.3825 87.7933C85.0011 87.5704 84.7026 87.2622 84.4855 86.8701C84.2685 86.4781 84.1594 86.0283 84.1594 85.5182C84.1594 85.0081 84.2685 84.5583 84.4855 84.1662C84.7026 83.7741 84.9998 83.4673 85.3799 83.243C85.7574 83.0201 86.1927 82.9073 86.6846 82.9073C87.0318 82.9073 87.3554 82.969 87.6539 83.0909C87.9525 83.2142 88.2142 83.3847 88.4378 83.6037C88.6627 83.8226 88.835 84.0731 88.956 84.3564L88.038 84.696C87.8801 84.3495 87.5989 84.0738 87.2488 83.9223C87.0707 83.8456 86.8786 83.8067 86.6846 83.8082C86.3913 83.8082 86.1283 83.883 85.9007 84.0285C85.6706 84.1767 85.493 84.376 85.3654 84.6317C85.2365 84.8861 85.1734 85.1825 85.1734 85.5182C85.1734 85.8539 85.2378 86.1529 85.3681 86.4099C85.4983 86.6669 85.6798 86.8688 85.9099 87.0157C86.1414 87.1613 86.4071 87.2347 86.707 87.2347C86.8996 87.237 87.0905 87.1983 87.267 87.1212C87.4434 87.0441 87.6013 86.9303 87.7302 86.7875C87.8617 86.6472 87.9696 86.4872 88.0511 86.305L88.9704 86.6367C88.8511 86.9295 88.6745 87.1956 88.451 87.4196C88.2274 87.6436 87.9614 87.821 87.6684 87.9415C87.3586 88.0687 87.0262 88.1325 86.6912 88.129ZM91.4943 88.0425V83.8961H89.9753V82.9939H93.9972V83.8961H92.4847V88.0425H91.4943ZM95.3716 88.0425V82.9939H96.3633V88.0425H95.3716ZM100.501 88.129C99.9893 88.129 99.5382 88.0176 99.145 87.7933C98.7517 87.5691 98.4453 87.2622 98.223 86.8701C98.0007 86.4781 97.8903 86.0309 97.8903 85.526C97.8903 85.0107 98.0007 84.557 98.223 84.1662C98.4453 83.7754 98.7491 83.4673 99.1384 83.2457C99.5484 83.0192 100.011 82.9051 100.48 82.9152C100.99 82.9152 101.44 83.0267 101.829 83.2509C102.217 83.4738 102.521 83.782 102.743 84.1741C102.966 84.5662 103.076 85.0159 103.076 85.5247C103.076 86.0309 102.967 86.4781 102.747 86.8701C102.528 87.2622 102.225 87.5691 101.836 87.7933C101.448 88.0176 101.003 88.129 100.501 88.129ZM100.501 87.2281C100.783 87.2339 101.061 87.1597 101.302 87.0141C101.544 86.8686 101.739 86.6577 101.865 86.4059C101.996 86.1502 102.065 85.8578 102.065 85.526C102.065 85.189 101.996 84.8927 101.861 84.6383C101.725 84.3839 101.54 84.1819 101.305 84.0364C101.056 83.8858 100.769 83.8094 100.479 83.8161C100.196 83.8114 99.9168 83.886 99.6741 84.0313C99.4313 84.1766 99.2344 84.3869 99.1055 84.6383C98.97 84.8927 98.903 85.189 98.903 85.526C98.903 85.8578 98.97 86.1502 99.1055 86.4046C99.2374 86.6584 99.4382 86.8701 99.6849 87.0157C99.9316 87.1613 100.214 87.2349 100.501 87.2281ZM104.602 88.0425V82.9939H105.636L108.111 86.3837V82.9952H109.095V88.0438H108.111L105.593 84.5898V88.0438L104.602 88.0425ZM39.0961 96.6985V91.6486H40.9768C41.3333 91.6486 41.6489 91.7194 41.9238 91.861C42.2 92.0027 42.4144 92.2007 42.5683 92.4524C42.7221 92.7042 42.7997 92.998 42.7997 93.3297C42.7997 93.6562 42.7248 93.946 42.5761 94.2018C42.4275 94.4575 42.221 94.6581 41.9606 94.8036C41.684 94.9547 41.3724 95.0306 41.0571 95.0239H40.0878V96.6972L39.0961 96.6985ZM40.0878 94.1152H41.0347C41.136 94.1186 41.2368 94.1009 41.3308 94.0632C41.4248 94.0255 41.5099 93.9686 41.5805 93.8962C41.6523 93.8208 41.7083 93.7318 41.7451 93.6345C41.7819 93.5373 41.7988 93.4336 41.7949 93.3297C41.7949 93.0976 41.716 92.9101 41.5582 92.7659C41.3929 92.6189 41.1771 92.5414 40.9558 92.5495H40.0878V94.1152ZM44.1807 96.6985V91.6486H46.0615C46.4192 91.6486 46.7349 91.7181 47.0084 91.8584C47.282 91.9987 47.499 92.1889 47.6529 92.4302C47.8081 92.6741 47.8844 92.9573 47.8844 93.2786C47.8844 93.5959 47.8041 93.8792 47.6424 94.1257C47.4806 94.3735 47.261 94.5663 46.9808 94.7027C46.6828 94.8439 46.3559 94.9144 46.026 94.9086H45.1711V96.6972L44.1807 96.6985ZM45.1724 94.0077H46.0694C46.2193 94.0077 46.3521 93.9762 46.4705 93.9133C46.5889 93.8503 46.6823 93.7638 46.752 93.6536C46.8217 93.5435 46.8572 93.4176 46.8572 93.2786C46.8572 93.0622 46.7783 92.8865 46.6231 92.7527C46.4679 92.619 46.264 92.5495 46.0181 92.5495H45.1724V94.0077ZM46.9663 96.6972L45.7945 94.6699L46.5534 94.1296L48.0869 96.6972H46.9663ZM51.8853 96.7837C51.3736 96.7837 50.9212 96.6723 50.5293 96.448C50.1347 96.2251 49.8283 95.9183 49.606 95.5262C49.3791 95.1139 49.2644 94.6496 49.2732 94.1795C49.2732 93.6654 49.385 93.213 49.606 92.8209C49.8296 92.4288 50.1334 92.122 50.5214 91.9004C50.9315 91.6742 51.3943 91.5598 51.8629 91.5686C52.3758 91.5686 52.8243 91.6814 53.2123 91.9043C53.6003 92.1286 53.9054 92.4367 54.1277 92.8275C54.35 93.2209 54.4605 93.6707 54.4605 94.1795C54.4605 94.6843 54.3513 95.1341 54.1316 95.5262C53.912 95.9183 53.6082 96.2251 53.2202 96.448C52.8132 96.6767 52.3523 96.7926 51.8853 96.7837ZM51.8853 95.8815C52.1943 95.8815 52.464 95.8094 52.6994 95.6626C52.9335 95.5157 53.1163 95.3151 53.2491 95.0593C53.3807 94.805 53.4477 94.5112 53.4477 94.1808C53.4477 93.8438 53.3807 93.5487 53.2452 93.293C53.1176 93.0457 52.9254 92.8373 52.6889 92.6898C52.4403 92.5405 52.1543 92.4646 51.8642 92.4708C51.5811 92.4671 51.3026 92.542 51.0599 92.6873C50.8171 92.8325 50.6197 93.0422 50.4898 93.293C50.3543 93.5487 50.286 93.8438 50.286 94.1795C50.286 94.5112 50.3543 94.805 50.4898 95.0593C50.624 95.3151 50.812 95.5157 51.0527 95.6626C51.2947 95.8094 51.5709 95.8815 51.8853 95.8815ZM55.9861 96.6985V91.6486H57.6064C58.1233 91.6486 58.5797 91.7575 58.9782 91.9738C59.3754 92.1902 59.6871 92.4865 59.912 92.8629C60.1356 93.2419 60.2474 93.6785 60.2474 94.1742C60.2474 94.6633 60.1356 95.0987 59.9107 95.479C59.6858 95.8593 59.3754 96.1556 58.9769 96.372C58.5797 96.5883 58.122 96.6972 57.6064 96.6972L55.9861 96.6985ZM56.9778 95.774H57.6064C58.0397 95.7786 58.4571 95.6122 58.7678 95.3111C58.9151 95.1682 59.0295 94.9977 59.1111 94.8036C59.1926 94.6096 59.2347 94.3984 59.2347 94.1742C59.2347 93.9473 59.1939 93.7362 59.1111 93.5422C59.0314 93.351 58.9143 93.1776 58.7666 93.0321C58.6189 92.8867 58.4436 92.7721 58.2509 92.695C58.0464 92.6116 57.8274 92.5697 57.6064 92.5718H56.9778V95.774ZM63.7564 96.7982C63.3355 96.7982 62.9725 96.7169 62.6648 96.5529C62.3637 96.3989 62.1152 96.1593 61.9506 95.8645C61.7777 95.5423 61.6915 95.1808 61.7007 94.8155V91.6486H62.6924V94.8155C62.6924 95.0318 62.7371 95.2193 62.8265 95.3806C62.916 95.5419 63.0409 95.6652 63.2027 95.753C63.3645 95.8409 63.5526 95.8815 63.7696 95.8815C63.9866 95.8815 64.176 95.8396 64.3377 95.753C64.4995 95.6665 64.6258 95.5432 64.7139 95.3806C64.8066 95.2069 64.8528 95.0122 64.848 94.8155V91.6486H65.8384V94.8155C65.8384 95.218 65.7529 95.5681 65.5819 95.8645C65.4109 96.1609 65.1703 96.3903 64.8586 96.5529C64.5166 96.7242 64.1376 96.8089 63.7551 96.7995L63.7564 96.7982ZM69.8235 96.7837C69.3329 96.7837 68.8963 96.6723 68.5162 96.448C68.1348 96.2251 67.8349 95.9183 67.6179 95.5262C67.4009 95.1341 67.293 94.683 67.293 94.1742C67.293 93.6654 67.4009 93.213 67.6179 92.8209C67.8349 92.4288 68.1334 92.1207 68.5109 91.8978C68.891 91.6748 69.325 91.5621 69.8182 91.5621C70.1655 91.5621 70.489 91.6237 70.7862 91.7456C71.0848 91.8689 71.3465 92.0394 71.5701 92.2571C71.7963 92.4774 71.9686 92.7278 72.0896 93.0124L71.169 93.352C71.0899 93.1778 70.9793 93.0195 70.8428 92.8852C70.71 92.7537 70.5534 92.6487 70.3812 92.5757C70.2032 92.5005 70.0116 92.4626 69.8182 92.4642C69.5223 92.4642 69.2606 92.5377 69.0317 92.6846C68.8015 92.8323 68.6168 93.0406 68.4978 93.2865C68.3689 93.5408 68.3057 93.8372 68.3057 94.1742C68.3057 94.5099 68.3715 94.8063 68.5004 95.0633C68.6201 95.3149 68.8101 95.5267 69.0476 95.6732C69.2852 95.8198 69.56 95.8948 69.8393 95.8894C70.0471 95.8894 70.2339 95.8501 70.4062 95.7714C70.5784 95.6927 70.7297 95.5826 70.8638 95.4436C70.9954 95.3033 71.1032 95.142 71.1848 94.9584L72.1015 95.2915C71.9176 95.7406 71.6014 96.1237 71.1948 96.3901C70.7881 96.6565 70.31 96.7937 69.8235 96.7837ZM74.628 96.6985V92.5495H73.1089V91.6486H77.1295V92.5495H75.6184V96.6972L74.628 96.6985ZM80.2045 96.7837C79.948 96.7837 79.71 96.7523 79.4877 96.6906C79.2654 96.629 79.0682 96.5398 78.8959 96.4284C78.7209 96.313 78.5776 96.1884 78.4645 96.0481C78.3514 95.9078 78.279 95.7622 78.2435 95.6075L79.2128 95.319C79.276 95.4842 79.3865 95.6245 79.5456 95.7425C79.7047 95.8606 79.906 95.9209 80.1453 95.9261C80.3669 95.9408 80.5872 95.8827 80.7727 95.7609C80.8474 95.7123 80.9087 95.6457 80.951 95.5674C80.9932 95.4891 81.0151 95.4014 81.0147 95.3124C81.0155 95.2356 80.9986 95.1595 80.9653 95.0902C80.9321 95.0208 80.8832 94.9601 80.8227 94.9125C80.6691 94.7913 80.4902 94.7062 80.2992 94.6633L79.6403 94.4902C79.4083 94.4339 79.188 94.3376 78.9893 94.2057C78.8007 94.0845 78.6465 93.917 78.5415 93.7193C78.4365 93.5216 78.3841 93.3003 78.3895 93.0766C78.3895 92.6006 78.5473 92.2295 78.863 91.962C79.1786 91.6958 79.6258 91.5621 80.2045 91.5621C80.5281 91.5621 80.8108 91.608 81.0541 91.7037C81.2975 91.7955 81.5013 91.9305 81.6657 92.1023C81.8301 92.2754 81.9551 92.48 82.0419 92.716L81.0791 93.0124C81.0226 92.8485 80.9147 92.7081 80.7608 92.5928C80.607 92.4774 80.4123 92.421 80.1756 92.421C79.9336 92.421 79.7455 92.4761 79.6074 92.5875C79.5387 92.644 79.4842 92.7158 79.4483 92.7971C79.4124 92.8784 79.3962 92.967 79.4009 93.0557C79.4009 93.213 79.4562 93.3389 79.564 93.4294C79.6732 93.5212 79.8205 93.5907 80.0086 93.6392L80.6754 93.8044C81.1094 93.9106 81.4461 94.1008 81.6881 94.3748C81.9301 94.6489 82.0498 94.9544 82.0498 95.2928C82.0498 95.5891 81.9761 95.8501 81.8328 96.0743C81.6881 96.2972 81.4776 96.4716 81.2028 96.5962C80.8872 96.7288 80.5469 96.7927 80.2045 96.7837Z" fill="black"/>
</g>
<defs>
<clipPath id="clip0_7558_153684">
<rect width="121" height="139" fill="white" transform="translate(0 0.5)"/>
</clipPath>
</defs>
</svg>
