<svg width="121" height="140" viewBox="0 0 121 140" fill="none" xmlns="http://www.w3.org/2000/svg">
<g clip-path="url(#clip0_7558_153682)">
<path d="M-0.0539551 109.778L60.446 139.5L120.946 109.778V0.5H-0.0539551V109.778Z" fill="white"/>
<path d="M-0.0539551 109.778L60.446 139.5L120.946 109.778V0.5H-0.0539551V109.778Z" fill="white"/>
<path d="M93.3264 0.5H120.946V28.0377H93.3264V0.5Z" fill="#FF492C"/>
<path fill-rule="evenodd" clip-rule="evenodd" d="M113.122 11.0456H110.762C110.826 10.6771 111.054 10.4713 111.517 10.2365L111.951 10.0175C112.73 9.62021 113.143 9.17305 113.143 8.44264C113.151 8.23171 113.107 8.02205 113.013 7.83252C112.92 7.64299 112.781 7.47954 112.609 7.35687C112.259 7.09461 111.832 6.96741 111.34 6.96741C110.946 6.96741 110.59 7.06576 110.263 7.27163C109.954 7.45369 109.706 7.7229 109.55 8.04531L110.234 8.7272C110.497 8.1948 110.883 7.93123 111.39 7.93123C111.817 7.93123 112.08 8.15153 112.08 8.45576C112.08 8.71146 111.953 8.92521 111.461 9.17305L111.182 9.30811C110.577 9.61234 110.156 9.95984 109.913 10.3572C109.671 10.7479 109.55 11.2515 109.55 11.8534V12.0173H113.122V11.0456ZM112.8 13.1437H108.9L106.948 16.5138H110.85L112.801 19.8826L114.751 16.5125L112.801 13.1424L112.8 13.1437Z" fill="white"/>
<path fill-rule="evenodd" clip-rule="evenodd" d="M107.28 18.7641C104.791 18.7641 102.768 16.7486 102.768 14.2702C102.768 11.7918 104.791 9.77629 107.28 9.77629L108.824 6.55568C107.679 6.32755 106.498 6.35549 105.365 6.63749C104.233 6.91949 103.177 7.44851 102.274 8.18644C101.371 8.92436 100.644 9.8528 100.144 10.9048C99.645 11.9569 99.3859 13.1063 99.3857 14.2702C99.3861 15.3034 99.5905 16.3265 99.9874 17.2809C100.384 18.2354 100.966 19.1025 101.699 19.8329C102.432 20.5632 103.302 21.1425 104.26 21.5376C105.217 21.9327 106.243 22.1358 107.28 22.1355C108.951 22.1383 110.579 21.6101 111.929 20.6275L110.219 17.6757C109.429 18.3536 108.402 18.7641 107.28 18.7641Z" fill="white"/>
<path fill-rule="evenodd" clip-rule="evenodd" d="M93.2568 27.4266V1.37463H94.6838V27.4266H93.2568Z" fill="black"/>
<path d="M-0.0539551 110.021V101.498L60.446 131.713L120.946 101.497V110.02L60.446 139.499L-0.0539551 110.021Z" fill="black"/>
<path d="M-0.0539551 102.213V93.689L60.446 123.906L120.946 93.689V102.213L60.446 131.691L-0.0539551 102.213Z" fill="#FF492C"/>
<path d="M-0.0539551 94.4299V85.9063L60.446 116.123L120.946 85.9076V94.4312L60.446 123.91L-0.0539551 94.4299Z" fill="#FFC800"/>
<path fill-rule="evenodd" clip-rule="evenodd" d="M60.446 137.913L119.519 108.892V1.92278H1.37306V108.892L60.446 137.913ZM-0.0539551 109.778L60.446 139.5L120.946 109.778V0.5H-0.0539551V109.778Z" fill="black"/>
<path fill-rule="evenodd" clip-rule="evenodd" d="M0.766846 26.7146H120.387V28.1374H0.768161L0.766846 26.7146Z" fill="black"/>
<path d="M7.18628 17.5236V11.3276H9.29063C9.71544 11.3276 10.089 11.3932 10.4086 11.5217C10.7282 11.6528 10.9767 11.8495 11.1543 12.1118C11.3318 12.374 11.4213 12.7005 11.4213 13.0887C11.4213 13.3313 11.3595 13.5542 11.2371 13.7575C11.1148 13.9607 10.9478 14.1378 10.7282 14.2846C11.0175 14.4315 11.2411 14.6269 11.3989 14.8734C11.5554 15.1173 11.633 15.411 11.633 15.752C11.633 16.131 11.5475 16.4522 11.3766 16.7184C11.2043 16.9833 10.9649 17.1853 10.6571 17.3216C10.3494 17.458 9.98769 17.5236 9.5734 17.5236H7.18628ZM8.37524 13.8506H9.31562C9.58261 13.8506 9.79304 13.7824 9.94692 13.646C10.1008 13.5109 10.1771 13.3195 10.1771 13.0716C10.1771 12.8238 10.0916 12.6324 9.9193 12.496C9.74832 12.3609 9.51421 12.2927 9.21829 12.2927H8.37655L8.37524 13.8506ZM8.37524 16.4522H9.45897C9.74832 16.4522 9.97585 16.3801 10.1429 16.2359C10.3099 16.0916 10.3901 15.8975 10.3901 15.6563C10.3951 15.5422 10.3727 15.4286 10.3249 15.3249C10.2771 15.2211 10.2053 15.1302 10.1153 15.0596C9.93114 14.9154 9.68125 14.8419 9.36165 14.8419H8.37524V16.4522ZM13.5072 17.5236V11.3276H17.4397V12.433H14.7225V13.8401H17.0662V14.9206H14.7225V16.4155H17.4752V17.5223H13.5059L13.5072 17.5236ZM21.7089 17.6298C21.3959 17.6298 21.1026 17.5918 20.8303 17.5157C20.5729 17.4449 20.3277 17.3357 20.103 17.1918C19.9039 17.0652 19.7255 16.9086 19.5743 16.7276C19.4424 16.5715 19.3495 16.3863 19.3034 16.1873L20.4923 15.8333C20.5699 16.0339 20.7067 16.207 20.9001 16.3513C21.0934 16.4955 21.342 16.5716 21.6379 16.5768C21.9522 16.5834 22.2074 16.5152 22.406 16.3736C22.4913 16.3184 22.5625 16.2441 22.6137 16.1564C22.6649 16.0688 22.6947 15.9704 22.7007 15.8692C22.7067 15.768 22.6888 15.6668 22.6483 15.5737C22.6079 15.4807 22.546 15.3985 22.4678 15.3337C22.2792 15.1849 22.0594 15.0804 21.8246 15.0281L21.0171 14.8157C20.7321 14.7464 20.4615 14.6279 20.2175 14.4656C19.9941 14.3175 19.8089 14.1189 19.6769 13.886C19.5454 13.6552 19.4796 13.3877 19.4796 13.0808C19.4796 12.496 19.6743 12.0409 20.0623 11.7131C20.4502 11.3853 20.9987 11.2214 21.7089 11.2214C22.1061 11.2214 22.4533 11.2791 22.7532 11.3945C23.0517 11.5086 23.3016 11.6725 23.5029 11.8862C23.7041 12.0986 23.858 12.3491 23.9645 12.6376L22.7834 13.0008C22.7085 12.794 22.5722 12.6147 22.3928 12.4868C22.1831 12.3388 21.9302 12.2641 21.6734 12.2744C21.3775 12.2744 21.1447 12.3426 20.9763 12.4789C20.8921 12.5483 20.8254 12.6364 20.7815 12.7362C20.7377 12.8359 20.7179 12.9445 20.7238 13.0533C20.7238 13.2474 20.7896 13.4021 20.9237 13.5149C21.0566 13.6263 21.2394 13.7116 21.4695 13.7706L22.2863 13.9738C22.819 14.1037 23.2332 14.3371 23.5292 14.6728C23.8251 15.0085 23.9724 15.3848 23.9724 15.7979C23.9724 16.1651 23.8843 16.4837 23.7067 16.7578C23.5292 17.0331 23.2727 17.2456 22.9347 17.4003C22.5967 17.5551 22.189 17.6298 21.7089 17.6298ZM27.2131 17.5236V12.4343H25.3494V11.3276H30.2854V12.433H28.4297V17.5223H27.2131V17.5236ZM37.0588 17.6298C36.7458 17.6298 36.4512 17.5918 36.1802 17.5157C35.9224 17.4451 35.6767 17.3359 35.4516 17.1918C35.2529 17.0651 35.075 16.9085 34.9242 16.7276C34.7923 16.5715 34.6994 16.3863 34.6533 16.1873L35.8422 15.8333C35.9198 16.0339 36.0553 16.207 36.25 16.3513C36.4446 16.4955 36.6919 16.5716 36.9865 16.5768C37.3021 16.5834 37.5573 16.5152 37.7546 16.3736C37.84 16.3185 37.9113 16.2442 37.9626 16.1567C38.0139 16.0691 38.0439 15.9708 38.05 15.8695C38.0562 15.7683 38.0383 15.6671 37.998 15.574C37.9576 15.4809 37.8959 15.3986 37.8177 15.3337C37.6287 15.1847 37.4084 15.0802 37.1732 15.0281L36.3657 14.8157C36.0812 14.7462 35.811 14.6277 35.5674 14.4656C35.3435 14.3176 35.1578 14.119 35.0255 13.886C34.8953 13.6552 34.8295 13.3877 34.8295 13.0808C34.8295 12.496 35.0242 12.0409 35.4122 11.7131C35.7988 11.3853 36.3486 11.2214 37.0588 11.2214C37.456 11.2214 37.8032 11.2791 38.1018 11.3945C38.4003 11.5086 38.6502 11.6725 38.8515 11.8862C39.0527 12.0986 39.2066 12.3491 39.3144 12.6376L38.1333 13.0008C38.0584 12.794 37.9221 12.6147 37.7427 12.4868C37.533 12.3388 37.2801 12.2641 37.0233 12.2744C36.7274 12.2744 36.4946 12.3426 36.3262 12.4789C36.242 12.5483 36.1753 12.6364 36.1314 12.7362C36.0876 12.8359 36.0678 12.9445 36.0737 13.0533C36.0737 13.2474 36.1395 13.4021 36.2736 13.5149C36.4051 13.6263 36.5893 13.7116 36.8194 13.7706L37.6349 13.9738C38.1689 14.1037 38.5818 14.3371 38.8791 14.6728C39.1763 15.0085 39.3223 15.3848 39.3223 15.7979C39.3223 16.1651 39.2342 16.4837 39.0566 16.7578C38.8778 17.0331 38.6213 17.2456 38.2833 17.4003C37.9453 17.5551 37.5375 17.6298 37.0588 17.6298ZM44.09 17.6298C43.5082 17.6419 42.9336 17.4998 42.4249 17.218C41.9508 16.9515 41.5594 16.56 41.2938 16.0864C41.0151 15.5807 40.8741 15.011 40.8848 14.4341C40.8848 13.8021 41.0216 13.2474 41.2925 12.7661C41.5661 12.2849 41.9396 11.9085 42.4157 11.6384C42.9189 11.36 43.487 11.2193 44.0623 11.2306C44.6897 11.2306 45.2421 11.3669 45.7195 11.6423C46.1956 11.9177 46.5691 12.294 46.8414 12.774C47.1137 13.2565 47.2491 13.8099 47.2491 14.4341C47.2491 15.0544 47.115 15.6051 46.8467 16.0864C46.5847 16.5588 46.1975 16.9503 45.7274 17.218C45.2513 17.4934 44.7055 17.6311 44.0886 17.6311L44.09 17.6298ZM44.09 16.5244C44.4687 16.5244 44.8002 16.4326 45.0895 16.2542C45.3749 16.0733 45.5998 15.8267 45.7629 15.5146C45.926 15.2025 46.0062 14.8406 46.0062 14.4341C46.0062 14.021 45.9247 13.6604 45.759 13.3457C45.6017 13.0424 45.3655 12.787 45.0751 12.6061C44.7699 12.4223 44.4188 12.3287 44.0623 12.336C43.7149 12.3314 43.3731 12.4235 43.0753 12.6018C42.7775 12.7802 42.5354 13.0378 42.3762 13.3457C42.2105 13.6604 42.1263 14.021 42.1263 14.4341C42.1263 14.8406 42.2105 15.2025 42.3762 15.5146C42.542 15.8267 42.7734 16.0733 43.0694 16.2542C43.364 16.4326 43.7046 16.5244 44.09 16.5244ZM49.1233 17.5236V11.3276H53.1084V12.433H50.3399V13.9201H52.6481V15.0268H50.3399V17.5223H49.1233V17.5236ZM56.2426 17.5236V12.4343H54.3789V11.3276H59.3149V12.433H57.4591V17.5223H56.2426V17.5236ZM62.236 17.5236L60.3973 11.3276H61.631L63.3987 17.5236H62.236ZM62.3938 17.5236L64.0905 11.3276H65.1913L63.5039 17.5236H62.3938ZM65.866 17.5236L64.1983 11.3276H65.2978L67.03 17.5236H65.866ZM65.9818 17.5236L67.7652 11.3276H69.0002L67.1444 17.5236H65.9818ZM69.425 17.5236L71.8752 11.3276H73.0918L70.7139 17.5236H69.425ZM70.5798 16.1598V15.0898H74.4767V16.1598H70.5798ZM74.3347 17.5236L71.9542 11.3276H73.1721L75.6223 17.5236H74.3347ZM77.2558 17.5236V11.3276H79.5627C80.0007 11.3276 80.3886 11.4128 80.7267 11.5846C81.0647 11.7564 81.3277 11.9911 81.5158 12.2875C81.7052 12.5865 81.7999 12.9326 81.7999 13.3274C81.7999 13.7181 81.7012 14.0643 81.504 14.3685C81.3026 14.6738 81.0216 14.9187 80.6911 15.0767C80.3479 15.2445 79.9573 15.3284 79.5193 15.3284H78.4711V17.5236H77.2545H77.2558ZM78.4711 14.223H79.5719C79.756 14.223 79.9204 14.1836 80.0651 14.1076C80.2098 14.0315 80.3255 13.924 80.4123 13.7889C80.4981 13.6503 80.5423 13.4902 80.5399 13.3274C80.5399 13.0625 80.4439 12.8474 80.2505 12.6822C80.0572 12.517 79.8126 12.433 79.5101 12.433H78.4711V14.223ZM80.6727 17.5236L79.2352 15.036L80.1664 14.3725L82.0498 17.5236H80.6727ZM83.8687 17.5236V11.3276H87.8012V12.433H85.084V13.8401H87.429V14.9206H85.084V16.4155H87.8367V17.5223H83.8687V17.5236ZM48.972 41.4539V40.5609C48.972 40.3891 49.0247 40.2003 49.1325 39.9931C49.2377 39.7872 49.3863 39.5813 49.5757 39.3728C49.7651 39.1669 49.9861 38.9755 50.2412 38.7984L51.1829 38.1257C51.3131 38.0379 51.4355 37.9369 51.5512 37.8241C51.6669 37.7127 51.7616 37.5907 51.8353 37.457C51.9089 37.3232 51.9458 37.196 51.9458 37.0728C51.9487 36.9257 51.9093 36.781 51.8324 36.6555C51.7555 36.53 51.6443 36.4291 51.5117 36.3646C51.3475 36.2887 51.1679 36.2519 50.987 36.2571C50.8293 36.252 50.6728 36.2849 50.5306 36.3529C50.3885 36.4209 50.2648 36.5221 50.1702 36.6479C50.0835 36.7612 50.02 36.8904 49.9835 37.0282L48.7327 36.8157C48.7919 36.5207 48.9181 36.2466 49.1141 35.9922C49.3101 35.7378 49.5652 35.5333 49.8822 35.3772C50.1991 35.2212 50.5582 35.1412 50.9607 35.1412C51.421 35.1412 51.8182 35.2251 52.1496 35.3903C52.4811 35.5556 52.7375 35.7811 52.9177 36.0683C53.0992 36.3541 53.1886 36.6872 53.1886 37.0636C53.1886 37.4478 53.0834 37.7874 52.873 38.0864C52.6625 38.3841 52.3745 38.6634 52.0076 38.923L51.1658 39.5328C50.9922 39.6508 50.8449 39.7806 50.72 39.9223C50.5985 40.0608 50.5028 40.2197 50.4372 40.3917H53.2689V41.4539H48.972ZM57.4223 41.5614C56.9199 41.5614 56.4754 41.4237 56.0913 41.1483C55.6935 40.8583 55.3807 40.4676 55.1851 40.0167C54.9574 39.4932 54.8453 38.927 54.8563 38.3565C54.8563 37.731 54.9668 37.1763 55.1851 36.6977C55.4048 36.2151 55.7046 35.8375 56.0861 35.5634C56.4688 35.2894 56.912 35.1517 57.4144 35.1517C57.9168 35.1517 58.3627 35.2894 58.7507 35.5634C59.1374 35.8388 59.4412 36.2151 59.6608 36.6977C59.8791 37.1777 59.9896 37.731 59.9896 38.3565C59.9896 38.982 59.8791 39.5354 59.6608 40.0167C59.4653 40.4676 59.1524 40.8583 58.7546 41.1483C58.3693 41.4237 57.9247 41.5614 57.4223 41.5614ZM57.4223 40.4638C57.6893 40.4638 57.9274 40.372 58.1378 40.1937C58.3482 40.0127 58.5126 39.7649 58.631 39.4489C58.7494 39.1341 58.8086 38.7683 58.8086 38.3565C58.8086 37.9435 58.7494 37.5763 58.631 37.2576C58.5331 36.9707 58.3633 36.7134 58.1378 36.5102C57.9381 36.3349 57.6805 36.2392 57.4144 36.2414C57.1524 36.2397 56.8991 36.3355 56.7042 36.5102C56.4977 36.6912 56.3359 36.9403 56.2202 37.2576C56.0989 37.6111 56.0402 37.983 56.0466 38.3565C56.0466 38.7696 56.1045 39.1341 56.2202 39.4489C56.3359 39.7649 56.499 40.0127 56.7082 40.1924C56.9186 40.372 57.1553 40.4638 57.4223 40.4638ZM61.6402 41.4539V40.5609C61.6402 40.3891 61.6928 40.2003 61.8007 39.9931C61.9201 39.7676 62.0692 39.559 62.2439 39.3728C62.4333 39.1669 62.6556 38.9755 62.9094 38.7984L63.8511 38.1257C63.98 38.0379 64.1036 37.9369 64.2194 37.8241C64.3314 37.7162 64.4271 37.5925 64.5034 37.457C64.5723 37.3403 64.6103 37.2081 64.6139 37.0728C64.6157 36.9263 64.5775 36.7822 64.5034 36.6558C64.4257 36.5296 64.3134 36.4282 64.1799 36.3633C64.0154 36.2885 63.8358 36.2526 63.6551 36.2584C63.4912 36.2555 63.3289 36.2914 63.1817 36.3633C63.0472 36.4306 62.9302 36.528 62.8397 36.6479C62.7527 36.761 62.6892 36.8903 62.6529 37.0282L61.4009 36.8157C61.46 36.5207 61.5876 36.2466 61.7823 35.9922C61.9769 35.7391 62.2334 35.5333 62.5504 35.3772C62.866 35.2212 63.2264 35.1412 63.6288 35.1412C64.0892 35.1412 64.4864 35.2251 64.8178 35.3903C65.1492 35.5556 65.4057 35.7811 65.5859 36.0683C65.7674 36.3541 65.8568 36.6872 65.8568 37.0636C65.8568 37.4478 65.7516 37.7874 65.5425 38.0864C65.332 38.3841 65.0427 38.6634 64.6771 38.923L63.8327 39.5328C63.6617 39.6508 63.5131 39.7806 63.3881 39.9223C63.2671 40.0611 63.1714 40.2199 63.1054 40.3917H65.937V41.4539H61.6402ZM69.8156 41.5614C69.5184 41.559 69.2234 41.5108 68.941 41.4185C68.6485 41.3272 68.3752 41.1831 68.1348 40.9936C67.8991 40.8116 67.7162 40.5704 67.6047 40.2947L68.7148 39.9668C68.8262 40.1374 68.979 40.2771 69.1591 40.3732C69.3391 40.4692 69.5404 40.5184 69.7446 40.5163C70.0524 40.5163 70.3022 40.4245 70.4943 40.237C70.6876 40.0508 70.7836 39.8029 70.7836 39.4895C70.7874 39.3563 70.7648 39.2236 70.7169 39.0991C70.6691 38.9747 70.597 38.8609 70.5048 38.7644C70.409 38.6659 70.2934 38.5888 70.1655 38.5382C70.0376 38.4876 69.9004 38.4645 69.763 38.4706C69.5864 38.4694 69.4124 38.5122 69.2566 38.5952C69.1184 38.6658 68.9972 38.7656 68.9015 38.8876L67.8099 38.649L68.1834 35.2579H71.699V36.3555H69.2198L69.0423 37.8438C69.2014 37.7546 69.3803 37.6825 69.5749 37.6261C69.7799 37.5692 69.9923 37.544 70.2049 37.5514C70.5429 37.5514 70.8507 37.6327 71.1282 37.7953C71.407 37.9566 71.6267 38.1782 71.7898 38.4588C71.9528 38.7394 72.0331 39.066 72.0331 39.4371C72.0331 39.8554 71.9384 40.2239 71.7503 40.5425C71.5622 40.8612 71.3005 41.1103 70.9691 41.29C70.6132 41.4759 70.2173 41.5693 69.8156 41.5614ZM24.3038 71.2825V56.8055H18.9377V52.924H33.8786V56.8055H28.5125V71.2825H24.3038ZM40.193 71.5985C38.8067 71.5985 37.5888 71.3048 36.5367 70.7199C35.5022 70.1517 34.6428 69.313 34.0509 68.294C33.4459 67.262 33.1434 66.0739 33.1434 64.7272C33.1434 63.3805 33.4354 62.1924 34.0246 61.1604C34.6043 60.1365 35.4611 59.2959 36.4972 58.7345C37.5573 58.1483 38.762 57.8559 40.1141 57.8559C41.4977 57.8559 42.7208 58.1483 43.7835 58.7345C44.8194 59.2962 45.6761 60.1368 46.2561 61.1604C46.8427 62.1924 47.1373 63.3805 47.1373 64.7272C47.1373 66.0739 46.8427 67.262 46.2561 68.294C45.6787 69.3151 44.8269 70.1552 43.7967 70.7199C42.7445 71.3048 41.5424 71.5985 40.193 71.5985ZM40.193 67.8219C40.7177 67.8219 41.1873 67.6908 41.6003 67.4285C42.0106 67.1663 42.3368 66.8043 42.5735 66.3401C42.8103 65.8772 42.9286 65.3383 42.9286 64.7272C42.9286 64.1161 42.8103 63.5785 42.5735 63.1143C42.3368 62.6514 42.008 62.2881 41.5871 62.0259C41.1662 61.7636 40.6822 61.6325 40.139 61.6325C39.5959 61.6325 39.1132 61.7636 38.6923 62.0259C38.2714 62.2881 37.9426 62.6514 37.7059 63.1143C37.4692 63.5772 37.3508 64.1148 37.3508 64.7272C37.3508 65.3396 37.4692 65.8772 37.7059 66.3401C37.9426 66.803 38.2767 67.1663 38.7055 67.4285C39.1355 67.6908 39.6314 67.8219 40.193 67.8219ZM49.2667 76.5278V58.1693H53.1334L53.3701 60.5821V76.5278H49.2667ZM57.1054 71.5972C56.0177 71.5972 55.1062 71.3218 54.3697 70.7711C53.6332 70.2203 53.0808 69.4309 52.7125 68.3976C52.3443 67.3669 52.1601 66.1421 52.1601 64.7259C52.1601 63.2939 52.3443 62.0652 52.7125 61.0424C53.0808 60.0196 53.6332 59.2328 54.3697 58.682C55.1062 58.1312 56.0177 57.8559 57.1054 57.8559C58.3325 57.8559 59.3938 58.1312 60.2882 58.682C61.1825 59.2328 61.8664 60.0196 62.3399 61.0424C62.8134 62.0652 63.0501 63.2939 63.0501 64.7272C63.0501 66.1434 62.8134 67.3669 62.3399 68.3989C61.8664 69.4309 61.1825 70.2216 60.2882 70.7724C59.3938 71.3231 58.3325 71.5985 57.1054 71.5985V71.5972ZM56.0532 67.8206C56.5793 67.8206 57.0435 67.6895 57.4473 67.4285C57.8498 67.1663 58.1746 66.8043 58.4206 66.3401C58.6652 65.8772 58.7888 65.3383 58.7888 64.7272C58.7888 64.1161 58.6744 63.5785 58.4469 63.1143C58.2391 62.6648 57.9046 62.2854 57.4843 62.0223C57.0639 61.7591 56.5758 61.6237 56.0795 61.6325C55.5534 61.6325 55.0839 61.7636 54.6722 62.0259C54.2592 62.2881 53.9396 62.6553 53.7121 63.1274C53.4846 63.5995 53.3701 64.1319 53.3701 64.7272C53.3701 65.3383 53.4846 65.8759 53.7121 66.3401C53.9396 66.8043 54.2553 67.1663 54.659 67.4285C55.0615 67.6908 55.5271 67.8206 56.0532 67.8206ZM77.6227 71.5985C76.71 71.5985 75.7893 71.4412 74.8595 71.1264C73.9545 70.8265 73.1121 70.3644 72.3737 69.7627C71.6604 69.1898 71.1264 68.4254 70.8349 67.5596L74.8332 66.6155C75.0962 67.0705 75.4513 67.4075 75.8985 67.6252C76.3457 67.8442 76.8231 67.953 77.3321 67.953C78.1041 67.953 78.7302 67.7209 79.2128 67.258C79.6955 66.7951 79.9362 66.1696 79.9362 65.3829C79.9362 64.6669 79.7047 64.0584 79.2392 63.5601C78.7736 63.0618 78.1383 62.8127 77.3321 62.8127C76.8415 62.8127 76.4075 62.9268 76.03 63.1536C75.6525 63.3805 75.3764 63.6519 75.2014 63.9666L71.3873 63.1274L72.5973 52.9253H83.2769V56.7544H76.1747L75.6486 60.5047C76.1037 60.2425 76.6219 60.0366 77.2006 59.8884C77.7793 59.7402 78.4106 59.6655 79.0945 59.6655C80.0153 59.6805 80.9164 59.9337 81.7095 60.4003C82.5026 60.867 83.1605 61.5311 83.6188 62.3275C84.0923 63.1405 84.329 64.0807 84.329 65.1468C84.329 66.424 84.0397 67.5465 83.461 68.5169C82.8823 69.4873 82.0932 70.2439 81.0936 70.7855C80.094 71.3271 78.938 71.5985 77.6227 71.5985ZM93.7723 71.5985C92.2637 71.5985 90.9222 71.192 89.7477 70.379C88.5732 69.566 87.6565 68.4474 86.9989 67.022C86.3413 65.5979 86.0125 63.9588 86.0125 62.1046C86.0125 60.2517 86.3413 58.6125 86.9989 57.1871C87.6565 55.763 88.568 54.6431 89.7346 53.8301C90.9012 53.0171 92.2374 52.6106 93.746 52.6106C95.2717 52.6106 96.6224 53.0171 97.7969 53.8301C98.9714 54.6431 99.896 55.763 100.572 57.1871C101.248 58.6125 101.585 60.2517 101.585 62.1046C101.585 63.9588 101.251 65.5979 100.585 67.022C99.9183 68.4474 98.9977 69.566 97.8232 70.379C96.6474 71.192 95.298 71.5985 93.7723 71.5985ZM93.7986 67.7695C94.4996 67.7695 95.127 67.5242 95.6794 67.0351C96.2318 66.5447 96.6658 65.8772 96.9814 65.0288C97.2971 64.1817 97.4549 63.2061 97.4549 62.1046C97.4549 60.986 97.2971 59.9973 96.9814 59.141C96.6658 58.2834 96.2265 57.6107 95.6662 57.1215C95.1406 56.6462 94.4556 56.3843 93.746 56.3872C93.0437 56.3872 92.4216 56.6324 91.8784 57.1215C91.3352 57.6107 90.9091 58.2834 90.6026 59.141C90.2962 59.9986 90.1423 60.986 90.1423 62.1046C90.1423 63.2061 90.2949 64.1843 90.6026 65.0419C90.9104 65.8995 91.3391 66.567 91.8915 67.0482C92.4439 67.5282 93.0792 67.7695 93.7986 67.7695ZM28.0535 88.1277C27.7984 88.1277 27.559 88.0962 27.338 88.0346C27.1281 87.977 26.9282 87.8881 26.7449 87.771C26.5819 87.6677 26.4363 87.5394 26.3135 87.3907C26.2066 87.2641 26.1313 87.114 26.0938 86.9528L27.0632 86.6643C27.125 86.8269 27.2355 86.9672 27.3959 87.0852C27.5564 87.2032 27.755 87.2649 27.9956 87.2688C28.2168 87.2828 28.4365 87.2249 28.6217 87.1036C28.6914 87.0586 28.7494 86.9979 28.7912 86.9264C28.833 86.8549 28.8573 86.7746 28.8622 86.692C28.867 86.6094 28.8523 86.5268 28.8192 86.4509C28.7861 86.375 28.7356 86.3079 28.6717 86.2551C28.5178 86.1345 28.339 86.0494 28.1482 86.006L27.4906 85.8342C27.258 85.7778 27.0372 85.6811 26.8383 85.5483C26.6498 85.4273 26.4956 85.2601 26.3906 85.0626C26.2856 84.8651 26.2332 84.6441 26.2385 84.4206C26.2385 83.9446 26.3963 83.5722 26.712 83.306C27.0276 83.0385 27.4748 82.906 28.0535 82.906C28.3771 82.906 28.6598 82.9532 28.9045 83.0463C29.1478 83.1395 29.3516 83.2732 29.5147 83.4476C29.6791 83.6194 29.8041 83.824 29.8909 84.0587L28.9295 84.355C28.8679 84.1872 28.757 84.0419 28.6112 83.938C28.4403 83.8169 28.2341 83.7556 28.0246 83.7636C27.7839 83.7636 27.5945 83.82 27.4577 83.9302C27.3209 84.0403 27.2512 84.1964 27.2512 84.3983C27.2512 84.557 27.3052 84.6829 27.413 84.7734C27.5209 84.8638 27.6708 84.9346 27.8589 84.9832L28.5244 85.1497C28.9584 85.2546 29.2964 85.4447 29.5371 85.7188C29.7778 85.9942 29.8988 86.2984 29.8988 86.6341C29.8988 86.9331 29.8264 87.1927 29.6818 87.417C29.5371 87.6399 29.3266 87.8156 29.0531 87.9389C28.7374 88.0727 28.3964 88.1371 28.0535 88.1277ZM31.4678 88.0412V82.9926H32.5463L34.0207 85.1707L35.4963 82.9939H36.5669V88.0412H35.5831V84.536L34.0207 86.8295L32.4582 84.5439V88.0412H31.4678ZM37.8979 88.0412L39.8944 82.9926H40.8861L38.9475 88.0412H37.8979ZM38.8383 86.9305V86.0571H42.0145V86.9305H38.8383ZM41.8988 88.0412L39.9602 82.9926H40.9519L42.947 88.0412H41.8988ZM44.278 88.0412V82.9926H45.2684V87.139H47.4977V88.0412H44.278ZM48.8866 88.0412V82.9926H49.8769V87.139H52.1062V88.0412H48.8866ZM55.9388 88.0412V82.9926H57.6538C58.001 82.9926 58.3048 83.045 58.5652 83.1512C58.8257 83.2562 59.0282 83.4161 59.1729 83.6299C59.3176 83.8436 59.3899 84.1111 59.3899 84.4285C59.3899 84.6252 59.3399 84.8061 59.2413 84.9727C59.1426 85.1379 59.0045 85.2808 58.8257 85.4015C59.0624 85.5221 59.2439 85.6821 59.3715 85.8801C59.5034 86.0962 59.5697 86.3458 59.5622 86.5987C59.5622 86.9069 59.4925 87.1691 59.3531 87.3855C59.2112 87.6033 59.0074 87.7741 58.7678 87.8759C58.5179 87.9861 58.222 88.0412 57.8853 88.0412H55.9388ZM56.9081 85.0487H57.6748C57.8607 85.0591 58.0437 84.9997 58.1878 84.8822C58.2521 84.8227 58.3025 84.7498 58.3352 84.6686C58.368 84.5875 58.3823 84.5001 58.3772 84.4127C58.3816 84.3237 58.3649 84.2349 58.3283 84.1535C58.2917 84.0721 58.2364 84.0005 58.1667 83.9446C58.0273 83.8344 57.8366 83.7794 57.5959 83.7794H56.9081V85.0487ZM56.9081 87.1691H57.7906C58.0273 87.1691 58.2128 87.1101 58.3482 86.9921C58.4837 86.8741 58.5495 86.7167 58.5495 86.52C58.5495 86.3128 58.4758 86.1502 58.3259 86.0335C58.1759 85.9168 57.9708 85.8565 57.7117 85.8565H56.9081V87.1691ZM63.0712 88.1421C62.6529 88.1421 62.2873 88.0595 61.9795 87.8982C61.6718 87.733 61.4337 87.5048 61.268 87.2085C61.1023 86.9121 61.0181 86.5633 61.0181 86.1594V82.9926H62.0098V86.1581C62.0098 86.3745 62.0532 86.5646 62.1426 86.7246C62.2283 86.8828 62.3592 87.012 62.5188 87.0957C62.6792 87.1823 62.8699 87.2268 63.087 87.2268C63.304 87.2268 63.492 87.1823 63.6538 87.0957C63.8132 87.0117 63.944 86.8826 64.03 86.7246C64.1224 86.5503 64.1686 86.3553 64.1641 86.1581V82.9926H65.1545V86.1581C65.1545 86.5633 65.069 86.9121 64.8993 87.2085C64.727 87.5048 64.4864 87.733 64.1746 87.8969C63.8324 88.0673 63.4536 88.1515 63.0712 88.1421ZM68.6056 88.1277C68.3636 88.1292 68.1224 88.0979 67.8888 88.0346C67.679 87.9769 67.479 87.888 67.2957 87.771C67.1331 87.6676 66.988 87.5393 66.8656 87.3907C66.7586 87.2642 66.6833 87.114 66.6459 86.9528L67.6139 86.6643C67.6771 86.8269 67.7875 86.9672 67.9467 87.0852C68.1058 87.2032 68.3057 87.2649 68.5464 87.2688C68.768 87.2829 68.9881 87.225 69.1738 87.1036C69.2432 87.0584 69.3011 86.9977 69.3427 86.9262C69.3843 86.8547 69.4085 86.7744 69.4133 86.6919C69.4182 86.6094 69.4036 86.5269 69.3707 86.451C69.3377 86.3752 69.2874 86.3081 69.2238 86.2551C69.0697 86.1341 68.8904 86.0489 68.699 86.006L68.0414 85.8342C67.8092 85.7779 67.5888 85.6811 67.3904 85.5483C67.2016 85.4275 67.0472 85.2603 66.942 85.0628C66.8367 84.8653 66.7842 84.6442 66.7893 84.4206C66.7893 83.9446 66.9471 83.5722 67.2628 83.306C67.5797 83.0385 68.0256 82.906 68.6056 82.906C68.9278 82.906 69.2119 82.9532 69.4552 83.0463C69.6986 83.1395 69.9024 83.2732 70.0668 83.4476C70.2312 83.6194 70.3562 83.824 70.443 84.0587L69.4802 84.355C69.4224 84.1924 69.3158 84.0534 69.1619 83.938C69.0081 83.8226 68.8121 83.7636 68.5767 83.7636C68.3347 83.7636 68.1466 83.82 68.0085 83.9302C67.8704 84.0403 67.8033 84.1964 67.8033 84.3983C67.8033 84.557 67.8573 84.6829 67.9651 84.7734C68.0743 84.8651 68.2216 84.9346 68.411 84.9832L69.0765 85.1497C69.5105 85.2546 69.8472 85.4447 70.0892 85.7188C70.3312 85.9929 70.4509 86.2984 70.4509 86.6341C70.4509 86.9331 70.3772 87.1927 70.2339 87.417C70.0892 87.6399 69.8787 87.8156 69.6039 87.9389C69.2886 88.0726 68.9481 88.137 68.6056 88.1277ZM72.0199 88.0412V82.9926H73.0116V88.0412H72.0199ZM74.8332 88.0412V82.9926H75.8669L78.3422 86.3823V82.9926H79.326V88.0412H78.3422L75.8248 84.5871V88.0412H74.8332ZM81.1488 88.0412V82.9926H84.3527V83.8948H82.1392V85.0409H84.0476V85.9194H82.1405V87.139H84.3816V88.0412H81.1488ZM87.8315 88.1277C87.575 88.1277 87.3369 88.0962 87.1147 88.0346C86.8924 87.9717 86.6951 87.8838 86.5228 87.771C86.3505 87.6583 86.2045 87.5311 86.0914 87.3907C85.9846 87.2639 85.9089 87.1139 85.8705 86.9528L86.8398 86.6643C86.9029 86.8269 87.0134 86.9672 87.1725 87.0852C87.3317 87.2032 87.5329 87.2649 87.7723 87.2688C87.9938 87.2828 88.214 87.2249 88.3996 87.1036C88.4691 87.0584 88.5269 86.9977 88.5685 86.9262C88.6101 86.8547 88.6343 86.7744 88.6392 86.6919C88.6441 86.6094 88.6294 86.5269 88.5965 86.451C88.5636 86.3752 88.5133 86.3081 88.4496 86.2551C88.2958 86.1345 88.117 86.0494 87.9262 86.006L87.2672 85.8342C87.0352 85.7774 86.8149 85.6807 86.6162 85.5483C86.4277 85.4273 86.2736 85.2601 86.1686 85.0626C86.0636 84.8651 86.0112 84.6441 86.0165 84.4206C86.0165 83.9446 86.1743 83.5722 86.4899 83.306C86.8056 83.0385 87.2528 82.906 87.8315 82.906C88.1537 82.906 88.4378 82.9532 88.6811 83.0463C88.9244 83.1395 89.1283 83.2732 89.2927 83.4476C89.4571 83.6194 89.582 83.824 89.6688 84.0587L88.7061 84.355C88.6482 84.1924 88.5417 84.0534 88.3878 83.938C88.2339 83.8226 88.0393 83.7636 87.8025 83.7636C87.5605 83.7636 87.3725 83.82 87.2344 83.9302C87.0963 84.0403 87.0279 84.1964 87.0279 84.3983C87.0279 84.557 87.0831 84.6829 87.1909 84.7734C87.3001 84.8651 87.4474 84.9346 87.6355 84.9832L88.3023 85.1497C88.7363 85.2546 89.073 85.4447 89.315 85.7188C89.557 85.9929 89.6767 86.2984 89.6767 86.6341C89.6767 86.9331 89.6031 87.1927 89.4597 87.417C89.315 87.6399 89.1046 87.8156 88.8297 87.9389C88.5144 88.0726 88.174 88.137 87.8315 88.1277ZM92.9463 88.1277C92.6912 88.1277 92.4531 88.0962 92.2309 88.0346C92.0086 87.9717 91.81 87.8838 91.6377 87.771C91.4654 87.6583 91.3207 87.5311 91.2076 87.3907C91.1008 87.2639 91.0251 87.1139 90.9867 86.9528L91.956 86.6643C92.0191 86.8269 92.1296 86.9672 92.2887 87.0852C92.4479 87.2032 92.6478 87.2649 92.8885 87.2688C93.11 87.2828 93.3302 87.2249 93.5158 87.1036C93.5853 87.0584 93.6431 86.9977 93.6847 86.9262C93.7263 86.8547 93.7505 86.7744 93.7554 86.6919C93.7603 86.6094 93.7456 86.5269 93.7127 86.451C93.6798 86.3752 93.6295 86.3081 93.5658 86.2551C93.4116 86.1343 93.2323 86.0492 93.041 86.006L92.3834 85.8342C92.1509 85.7776 91.9302 85.6808 91.7311 85.5483C91.5426 85.4273 91.3885 85.2601 91.2835 85.0626C91.1784 84.8651 91.1261 84.6441 91.1313 84.4206C91.1313 83.9446 91.2892 83.5722 91.6048 83.306C91.9205 83.0385 92.3676 82.906 92.9477 82.906C93.2699 82.906 93.5527 82.9532 93.7973 83.0463C94.0406 83.1395 94.2445 83.2732 94.4076 83.4476C94.572 83.6194 94.6969 83.824 94.7837 84.0587L93.8223 84.355C93.7644 84.1924 93.6579 84.0534 93.504 83.938C93.3501 83.8226 93.1542 83.7636 92.9187 83.7636C92.6767 83.7636 92.4873 83.82 92.3506 83.9302C92.2138 84.0403 92.1441 84.1964 92.1441 84.3983C92.1441 84.557 92.1993 84.6829 92.3072 84.7734C92.4163 84.8651 92.5636 84.9346 92.7517 84.9832L93.4172 85.1497C93.8512 85.2546 94.1879 85.4447 94.4299 85.7188C94.6719 85.9929 94.7916 86.2984 94.7916 86.6341C94.7916 86.9331 94.7193 87.1927 94.5746 87.417C94.4299 87.6399 94.2195 87.8156 93.9459 87.9389C93.6306 88.0726 93.2888 88.137 92.9463 88.1277ZM39.0961 96.6959V91.6473H40.9768C41.3333 91.6473 41.6489 91.7194 41.9238 91.8597C42.2 92.0014 42.4144 92.1994 42.5683 92.4511C42.7221 92.7042 42.7997 92.9966 42.7997 93.3284C42.7997 93.6549 42.7248 93.9447 42.5761 94.2004C42.4275 94.4561 42.221 94.6568 41.9606 94.8023C41.684 94.9533 41.3724 95.0293 41.0571 95.0226H40.0878V96.6959H39.0961ZM40.0878 94.1126H41.0347C41.1359 94.1162 41.2367 94.0986 41.3307 94.0612C41.4246 94.0237 41.5098 93.9671 41.5805 93.8949C41.6523 93.8195 41.7083 93.7305 41.7451 93.6332C41.7819 93.5359 41.7988 93.4323 41.7949 93.3284C41.7949 93.0963 41.716 92.9088 41.5582 92.7645C41.3929 92.6176 41.1771 92.54 40.9558 92.5482H40.0878V94.1126ZM44.1807 96.6959V91.6473H46.0615C46.4192 91.6473 46.7349 91.7181 47.0084 91.8571C47.282 91.9961 47.499 92.1876 47.6529 92.4288C47.8081 92.6727 47.8844 92.956 47.8844 93.2773C47.8844 93.5946 47.8041 93.8779 47.6424 94.1244C47.4806 94.3722 47.261 94.565 46.9808 94.7014C46.6828 94.8426 46.3559 94.9131 46.026 94.9072H45.1711V96.6959H44.1807ZM45.1724 94.0064H46.0694C46.2193 94.0064 46.3521 93.9749 46.4705 93.9119C46.5889 93.849 46.6823 93.7625 46.752 93.6523C46.8217 93.5422 46.8572 93.4163 46.8572 93.2773C46.8572 93.0609 46.7783 92.8852 46.6231 92.7514C46.4679 92.6177 46.264 92.5482 46.0181 92.5482H45.1724V94.0064ZM46.9663 96.6959L45.7945 94.6686L46.5534 94.1283L48.0869 96.6959H46.9663ZM51.8853 96.7824C51.3736 96.7824 50.9212 96.671 50.5293 96.4467C50.1347 96.2238 49.8283 95.9169 49.606 95.5249C49.3791 95.1126 49.2644 94.6483 49.2732 94.1781C49.2732 93.6641 49.385 93.2117 49.606 92.8196C49.8296 92.4275 50.1334 92.1207 50.5214 91.8991C50.9315 91.6729 51.3943 91.5584 51.8629 91.5673C52.3758 91.5673 52.8243 91.6801 53.2123 91.903C53.6003 92.1272 53.9054 92.4341 54.1277 92.8262C54.35 93.2196 54.4605 93.6694 54.4605 94.1781C54.4605 94.683 54.3513 95.1328 54.1316 95.5249C53.912 95.9169 53.6082 96.2238 53.2202 96.4467C52.8132 96.6754 52.3523 96.7913 51.8853 96.7824ZM51.8853 95.8802C52.1943 95.8802 52.464 95.8081 52.6994 95.6612C52.9335 95.5144 53.1163 95.3138 53.2491 95.058C53.3807 94.8036 53.4477 94.5099 53.4477 94.1795C53.4477 93.8425 53.3807 93.5474 53.2452 93.2917C53.1176 93.0443 52.9254 92.836 52.6889 92.6885C52.4403 92.5392 52.1543 92.4633 51.8642 92.4695C51.5811 92.4658 51.3026 92.5407 51.0599 92.6859C50.8171 92.8312 50.6197 93.0409 50.4898 93.2917C50.3543 93.5474 50.286 93.8425 50.286 94.1781C50.286 94.5099 50.3543 94.8036 50.4898 95.058C50.624 95.3138 50.812 95.5144 51.0527 95.6612C51.2947 95.8081 51.5709 95.8802 51.8853 95.8802ZM55.9861 96.6959V91.6473H57.6064C58.1233 91.6473 58.5797 91.7561 58.9782 91.9725C59.3754 92.1889 59.6871 92.4852 59.912 92.8629C60.1356 93.2405 60.2474 93.6759 60.2474 94.1729C60.2474 94.6633 60.1356 95.0974 59.9107 95.4777C59.6858 95.8579 59.3754 96.1543 58.9769 96.3707C58.5797 96.587 58.122 96.6959 57.6064 96.6959H55.9861ZM56.9778 95.7727H57.6064C57.8212 95.7763 58.0344 95.7372 58.2338 95.6577C58.4332 95.5782 58.6147 95.46 58.7678 95.3098C58.9151 95.1669 59.0295 94.9964 59.1111 94.8023C59.1926 94.6083 59.2347 94.3971 59.2347 94.1729C59.2347 93.946 59.1939 93.7362 59.1111 93.5408C59.0282 93.3455 58.9138 93.1763 58.7691 93.0321C58.6205 92.8878 58.4482 92.775 58.2509 92.6937C58.0536 92.6124 57.8379 92.5705 57.6064 92.5705H56.9778V95.7727ZM63.7564 96.7982C63.3355 96.7982 62.9725 96.7155 62.6648 96.5516C62.3637 96.3975 62.1152 96.158 61.9506 95.8632C61.7777 95.541 61.6915 95.1795 61.7007 94.8141V91.6473H62.6924V94.8141C62.6924 95.0305 62.7371 95.218 62.8265 95.3793C62.916 95.5406 63.0409 95.6639 63.2027 95.7517C63.3645 95.8396 63.5526 95.8802 63.7696 95.8802C63.9866 95.8802 64.176 95.8383 64.3377 95.7517C64.4995 95.6652 64.6258 95.5419 64.7139 95.3793C64.8066 95.2055 64.8528 95.0109 64.848 94.8141V91.6473H65.8384V94.8141C65.8384 95.2167 65.7529 95.5668 65.5819 95.8632C65.4109 96.1595 65.1703 96.389 64.8586 96.5516C64.5166 96.7229 64.1376 96.8075 63.7551 96.7982H63.7564ZM69.8235 96.7824C69.3329 96.7824 68.8963 96.671 68.5162 96.4467C68.1348 96.2238 67.8349 95.9169 67.6179 95.5249C67.4009 95.1328 67.293 94.6817 67.293 94.1729C67.293 93.6641 67.4009 93.2117 67.6179 92.8196C67.8349 92.4275 68.1334 92.1194 68.5109 91.8964C68.891 91.6735 69.325 91.5608 69.8182 91.5608C70.1655 91.5608 70.489 91.6224 70.7862 91.7443C71.0848 91.8676 71.3465 92.0381 71.5701 92.2557C71.7963 92.4761 71.9686 92.7265 72.0896 93.0111L71.169 93.3507C71.0899 93.1765 70.9793 93.0182 70.8428 92.8839C70.71 92.7524 70.5534 92.6474 70.3812 92.5744C70.2032 92.4992 70.0116 92.4613 69.8182 92.4629C69.5223 92.4629 69.2606 92.5364 69.0317 92.6832C68.8015 92.831 68.6168 93.0393 68.4978 93.2851C68.3689 93.5395 68.3057 93.8359 68.3057 94.1729C68.3057 94.5086 68.3715 94.805 68.5004 95.062C68.6201 95.3136 68.8101 95.5254 69.0476 95.6719C69.2852 95.8185 69.56 95.8935 69.8393 95.8881C70.0471 95.8881 70.2339 95.8488 70.4062 95.7701C70.5784 95.6914 70.7297 95.5813 70.8638 95.4423C70.9954 95.3019 71.1032 95.1406 71.1848 94.9571L72.1015 95.2901C71.9176 95.7393 71.6014 96.1224 71.1948 96.3888C70.7881 96.6552 70.31 96.7924 69.8235 96.7824ZM74.628 96.6959V92.5482H73.1089V91.6473H77.1295V92.5482H75.6184V96.6959H74.628ZM80.2045 96.7824C79.948 96.7824 79.71 96.7509 79.4877 96.688C79.2654 96.6251 79.0682 96.5385 78.8959 96.4257C78.7209 96.3117 78.5776 96.1871 78.4645 96.0468C78.3514 95.9065 78.279 95.7609 78.2435 95.6062L79.2128 95.3177C79.276 95.4829 79.3865 95.6232 79.5456 95.7412C79.7047 95.8592 79.906 95.9196 80.1453 95.9248C80.3669 95.9394 80.5872 95.8814 80.7727 95.7596C80.8474 95.7109 80.9087 95.6444 80.951 95.5661C80.9932 95.4877 81.0151 95.4001 81.0147 95.3111C81.0155 95.2343 80.9986 95.1582 80.9653 95.0889C80.9321 95.0195 80.8832 94.9587 80.8227 94.9112C80.6691 94.79 80.4902 94.7049 80.2992 94.662L79.6403 94.4889C79.4083 94.4326 79.188 94.3363 78.9893 94.2044C78.8007 94.0831 78.6465 93.9157 78.5415 93.718C78.4365 93.5203 78.3841 93.299 78.3895 93.0753C78.3895 92.5993 78.5473 92.2282 78.863 91.9607C79.1786 91.6945 79.6258 91.5608 80.2045 91.5608C80.5281 91.5608 80.8108 91.6067 81.0541 91.7024C81.2975 91.7942 81.5013 91.9292 81.6657 92.101C81.8301 92.2741 81.9551 92.4787 82.0419 92.7147L81.0791 93.0111C81.0226 92.8472 80.9147 92.7068 80.7608 92.5914C80.607 92.476 80.4123 92.4197 80.1756 92.4197C79.9336 92.4197 79.7455 92.4747 79.6074 92.5862C79.5387 92.6427 79.4842 92.7145 79.4483 92.7958C79.4124 92.8771 79.3962 92.9656 79.4009 93.0543C79.4009 93.2117 79.4562 93.3376 79.564 93.4281C79.6732 93.5199 79.8205 93.5894 80.0086 93.6379L80.6754 93.8031C81.1094 93.9093 81.4461 94.0995 81.6881 94.3735C81.9301 94.6476 82.0498 94.9531 82.0498 95.2915C82.0498 95.5878 81.9761 95.8488 81.8328 96.073C81.6881 96.2959 81.4776 96.4703 81.2028 96.5949C80.8872 96.7275 80.5469 96.7914 80.2045 96.7824Z" fill="black"/>
</g>
<defs>
<clipPath id="clip0_7558_153682">
<rect width="121" height="139" fill="white" transform="translate(0 0.5)"/>
</clipPath>
</defs>
</svg>
