<svg width="121" height="140" viewBox="0 0 121 140" fill="none" xmlns="http://www.w3.org/2000/svg">
<g clip-path="url(#clip0_7558_153954)">
<path d="M-0.0539551 109.778L60.446 139.5L120.946 109.778V0.5H-0.0539551V109.778Z" fill="white"/>
<path d="M-0.0539551 109.778L60.446 139.5L120.946 109.778V0.5H-0.0539551V109.778Z" fill="white"/>
<path d="M93.3267 0.5H120.946V28.0377H93.3267V0.5Z" fill="#FF492C"/>
<path fill-rule="evenodd" clip-rule="evenodd" d="M113.122 11.0456H110.762C110.826 10.6771 111.054 10.4713 111.517 10.2365L111.951 10.0175C112.73 9.62021 113.143 9.17305 113.143 8.44264C113.151 8.23171 113.107 8.02205 113.013 7.83252C112.92 7.64299 112.781 7.47954 112.609 7.35687C112.259 7.09461 111.832 6.96741 111.34 6.96741C110.946 6.96741 110.59 7.06576 110.263 7.27163C109.954 7.45369 109.706 7.7229 109.55 8.04531L110.234 8.7272C110.497 8.1948 110.883 7.93123 111.39 7.93123C111.817 7.93123 112.08 8.15153 112.08 8.45576C112.08 8.71146 111.953 8.92521 111.461 9.17305L111.182 9.30811C110.577 9.61234 110.156 9.95984 109.913 10.3572C109.671 10.7479 109.55 11.2515 109.55 11.8534V12.0173H113.122V11.0456ZM112.8 13.1437H108.9L106.948 16.5138H110.85L112.801 19.8826L114.751 16.5125L112.801 13.1424L112.8 13.1437Z" fill="white"/>
<path fill-rule="evenodd" clip-rule="evenodd" d="M107.28 18.7641C104.791 18.7641 102.768 16.7486 102.768 14.2702C102.768 11.7918 104.791 9.77629 107.28 9.77629L108.824 6.55568C107.679 6.32755 106.498 6.35549 105.365 6.63749C104.233 6.91949 103.177 7.44851 102.274 8.18644C101.371 8.92436 100.644 9.8528 100.144 10.9048C99.645 11.9569 99.3859 13.1063 99.3857 14.2702C99.3861 15.3034 99.5905 16.3265 99.9874 17.2809C100.384 18.2354 100.966 19.1025 101.699 19.8329C102.432 20.5632 103.302 21.1425 104.26 21.5376C105.217 21.9327 106.243 22.1358 107.28 22.1355C108.951 22.1383 110.579 21.6101 111.929 20.6275L110.219 17.6757C109.429 18.3536 108.402 18.7641 107.28 18.7641Z" fill="white"/>
<path fill-rule="evenodd" clip-rule="evenodd" d="M93.2568 27.4266V1.37463H94.6838V27.4266H93.2568Z" fill="black"/>
<path d="M-0.0539551 110.021V101.498L60.446 131.713L120.946 101.497V110.02L60.446 139.499L-0.0539551 110.021Z" fill="black"/>
<path d="M-0.0539551 102.213V93.689L60.446 123.906L120.946 93.689V102.213L60.446 131.691L-0.0539551 102.213Z" fill="#FF492C"/>
<path d="M-0.0539551 94.4299V85.9063L60.446 116.123L120.946 85.9076V94.4312L60.446 123.91L-0.0539551 94.4299Z" fill="#FFC800"/>
<path fill-rule="evenodd" clip-rule="evenodd" d="M60.446 137.913L119.519 108.892V1.92278H1.37306V108.892L60.446 137.913ZM-0.0539551 109.778L60.446 139.5L120.946 109.778V0.5H-0.0539551V109.778Z" fill="black"/>
<path fill-rule="evenodd" clip-rule="evenodd" d="M0.766846 26.7146H120.387V28.1374H0.768161L0.766846 26.7146Z" fill="black"/>
<path d="M7.18628 17.5236V11.3289H9.29063C9.71544 11.3289 10.089 11.3944 10.4086 11.5229C10.7282 11.6528 10.9767 11.8508 11.1543 12.113C11.3318 12.3753 11.4213 12.7005 11.4213 13.0887C11.4213 13.3313 11.3595 13.5542 11.2371 13.7574C11.1148 13.9607 10.9478 14.1377 10.7282 14.2846C11.0175 14.4328 11.2411 14.6282 11.3989 14.8734C11.5567 15.1186 11.633 15.4123 11.633 15.7546C11.633 16.1322 11.5475 16.4535 11.3766 16.7184C11.2043 16.9846 10.9649 17.1852 10.6571 17.3216C10.3494 17.458 9.98769 17.5249 9.5734 17.5249L7.18628 17.5236ZM8.37524 13.8519H9.31562C9.58261 13.8519 9.79304 13.7837 9.94692 13.6473C10.1008 13.5122 10.1771 13.3195 10.1771 13.0729C10.1831 12.9633 10.1628 12.8537 10.118 12.7534C10.0732 12.6531 10.0051 12.5648 9.9193 12.4959C9.74832 12.3609 9.51421 12.2927 9.21829 12.2927H8.37655V13.8505L8.37524 13.8519ZM8.37524 16.4535H9.45897C9.74832 16.4535 9.97585 16.3814 10.1429 16.2371C10.3099 16.0929 10.3901 15.8988 10.3901 15.6575C10.3952 15.5433 10.3729 15.4295 10.3251 15.3255C10.2773 15.2215 10.2054 15.1304 10.1153 15.0596C9.93114 14.9153 9.68125 14.8432 9.36165 14.8432H8.37524V16.4535ZM13.5072 17.5236V11.3289H17.4397V12.4356H14.7225V13.8427H17.0662V14.9219H14.7225V16.4168H17.4752V17.5236H13.5059H13.5072ZM21.7089 17.6298C21.3959 17.6298 21.1026 17.5917 20.8303 17.5157C20.5581 17.4396 20.3161 17.3308 20.103 17.1918C19.89 17.0528 19.7137 16.8994 19.5743 16.7276C19.4424 16.5719 19.3495 16.3872 19.3034 16.1886L20.4923 15.8346C20.5749 16.0427 20.7166 16.2222 20.9001 16.3512C21.1158 16.5026 21.3741 16.582 21.6379 16.5781C21.9522 16.5833 22.2074 16.5151 22.406 16.3748C22.4982 16.3155 22.5739 16.2339 22.6261 16.1376C22.6783 16.0414 22.7053 15.9335 22.7045 15.8241C22.705 15.73 22.6839 15.637 22.6428 15.5522C22.6018 15.4675 22.5419 15.3932 22.4678 15.335C22.2793 15.1857 22.0595 15.0808 21.8246 15.0281L21.0171 14.8157C20.7321 14.7463 20.4615 14.6278 20.2175 14.4656C19.9941 14.3174 19.8089 14.1188 19.6769 13.8859C19.5454 13.6565 19.4796 13.3876 19.4796 13.0808C19.4796 12.4973 19.6743 12.0409 20.0623 11.7144C20.4502 11.3866 20.9987 11.2227 21.7089 11.2227C22.1061 11.2227 22.4533 11.2804 22.7532 11.3958C23.0517 11.5111 23.3016 11.6737 23.5029 11.8862C23.7041 12.0986 23.858 12.3491 23.9645 12.6389L22.7834 13.0008C22.7075 12.7948 22.5715 12.6163 22.3928 12.4881C22.1828 12.3406 21.9301 12.2659 21.6734 12.2756C21.3775 12.2756 21.1447 12.3425 20.9763 12.4789C20.8918 12.5486 20.825 12.6372 20.7811 12.7374C20.7372 12.8376 20.7176 12.9467 20.7238 13.0559C20.7238 13.25 20.7896 13.4034 20.9237 13.5148C21.0566 13.6276 21.2394 13.7129 21.4695 13.7719L22.2863 13.9764C22.819 14.1049 23.2332 14.3384 23.5292 14.6754C23.8251 15.0111 23.9724 15.3861 23.9724 15.7979C23.9724 16.165 23.8843 16.485 23.7067 16.7591C23.5178 17.0435 23.2494 17.2664 22.9347 17.4003C22.598 17.5537 22.189 17.6311 21.7089 17.6311V17.6298ZM27.2131 17.5236V12.4356H25.3494V11.3289H30.2854V12.4356H28.4297V17.5236H27.2131ZM37.0588 17.6298C36.7458 17.6298 36.4512 17.5917 36.1802 17.5157C35.908 17.4396 35.6647 17.3308 35.4516 17.1918C35.2386 17.0528 35.0623 16.8994 34.9242 16.7276C34.7923 16.5719 34.6994 16.3872 34.6533 16.1886L35.8422 15.8346C35.9248 16.0427 36.0665 16.2222 36.25 16.3512C36.4653 16.5024 36.7231 16.5818 36.9865 16.5781C37.3021 16.5833 37.5573 16.5151 37.7546 16.3748C37.8468 16.3155 37.9225 16.2339 37.9747 16.1376C38.0269 16.0414 38.0538 15.9335 38.0531 15.8241C38.0535 15.73 38.0324 15.637 37.9914 15.5522C37.9504 15.4675 37.8905 15.3932 37.8164 15.335C37.6283 15.1859 37.4089 15.081 37.1745 15.0281L36.3657 14.8157C36.0812 14.7462 35.811 14.6277 35.5674 14.4656C35.3435 14.3176 35.1578 14.119 35.0255 13.8859C34.8953 13.6565 34.8295 13.3876 34.8295 13.0808C34.8295 12.4973 35.0242 12.0409 35.4122 11.7144C35.7988 11.3866 36.3486 11.2227 37.0588 11.2227C37.456 11.2227 37.8032 11.2804 38.1018 11.3958C38.4003 11.5111 38.6502 11.6737 38.8515 11.8862C39.0527 12.0986 39.2066 12.3491 39.3144 12.6389L38.1333 13.0008C38.0574 12.7948 37.9214 12.6163 37.7427 12.4881C37.5327 12.3406 37.28 12.2659 37.0233 12.2756C36.7274 12.2756 36.4946 12.3425 36.3262 12.4789C36.2417 12.5486 36.1749 12.6372 36.131 12.7374C36.0871 12.8376 36.0675 12.9467 36.0737 13.0559C36.0737 13.25 36.1395 13.4034 36.2736 13.5148C36.4051 13.6276 36.5893 13.7129 36.8194 13.7719L37.6349 13.9764C38.1689 14.1049 38.5818 14.3384 38.8791 14.6754C39.175 15.0111 39.3223 15.3861 39.3223 15.7979C39.3223 16.165 39.2342 16.485 39.0566 16.7591C38.8674 17.0437 38.5985 17.2666 38.2833 17.4003C37.9466 17.5537 37.5375 17.6311 37.0588 17.6311V17.6298ZM44.09 17.6298C43.4613 17.6298 42.9063 17.4934 42.4249 17.2193C41.9435 16.9453 41.5661 16.5676 41.2938 16.0863C41.0148 15.5808 40.8737 15.011 40.8848 14.4341C40.8848 13.8046 41.0216 13.2486 41.2925 12.7661C41.5661 12.2861 41.9396 11.9098 42.4157 11.6383C42.919 11.3604 43.4871 11.2202 44.0623 11.2318C44.6897 11.2318 45.2421 11.3682 45.7195 11.6423C46.1969 11.9163 46.5691 12.294 46.8414 12.7753C47.1137 13.2565 47.2491 13.8112 47.2491 14.4354C47.2491 15.0556 47.115 15.6051 46.8467 16.0863C46.577 16.5676 46.2035 16.9453 45.7274 17.2193C45.2513 17.4934 44.7055 17.6311 44.0886 17.6311L44.09 17.6298ZM44.09 16.5243C44.4687 16.5243 44.8002 16.4338 45.0895 16.2542C45.3774 16.0734 45.6102 15.8177 45.7629 15.5146C45.9247 15.2025 46.0062 14.8419 46.0062 14.4354C46.0062 14.0223 45.9247 13.6591 45.759 13.347C45.5933 13.0349 45.3644 12.7871 45.0751 12.6074C44.7702 12.423 44.4188 12.3293 44.0623 12.3373C43.7147 12.3315 43.3724 12.423 43.0743 12.6015C42.7763 12.78 42.5344 13.0383 42.3762 13.347C42.2043 13.6837 42.1185 14.0576 42.1263 14.4354C42.1263 14.8419 42.2105 15.2025 42.3762 15.5146C42.5373 15.8269 42.7837 16.0874 43.0869 16.2661C43.3902 16.4447 43.7379 16.5343 44.09 16.5243ZM49.1233 17.5236V11.3289H53.1084V12.4356H50.3399V13.9214H52.6481V15.0281H50.3399V17.5236H49.1233ZM56.2426 17.5236V12.4356H54.3789V11.3289H59.3149V12.4356H57.4591V17.5236H56.2426ZM62.236 17.5236L60.3973 11.3289H61.631L63.3987 17.5236H62.236ZM62.3938 17.5236L64.0905 11.3289H65.1913L63.5039 17.5236H62.3938ZM65.866 17.5236L64.1983 11.3289H65.2978L67.03 17.5236H65.866ZM65.9818 17.5236L67.7652 11.3289H69.0002L67.1444 17.5236H65.9818ZM69.425 17.5236L71.8752 11.3289H73.0918L70.7139 17.5236H69.425ZM70.5798 16.1611V15.0897H74.4767V16.1611H70.5798ZM74.3347 17.5249L71.9542 11.3289H73.1721L75.6223 17.5236L74.3347 17.5249ZM77.2558 17.5236V11.3289H79.5627C80.0007 11.3289 80.3886 11.4141 80.7267 11.5846C81.0647 11.7564 81.3277 11.9911 81.5158 12.2888C81.7039 12.5864 81.7999 12.9326 81.7999 13.3286C81.7999 13.7181 81.7012 14.0656 81.504 14.3685C81.304 14.6741 81.0331 14.9088 80.6911 15.0766C80.3492 15.2445 79.9573 15.3297 79.5193 15.3297H78.4711V17.5236H77.2545H77.2558ZM78.4711 14.223H79.5719C79.756 14.223 79.9204 14.1836 80.0651 14.1076C80.2098 14.0315 80.3255 13.924 80.4123 13.7889C80.4979 13.6512 80.5421 13.4919 80.5399 13.3299C80.5399 13.0638 80.4439 12.8474 80.2505 12.6822C80.0572 12.5169 79.8126 12.4343 79.5101 12.4343H78.4711V14.223ZM80.6727 17.5236L79.2352 15.0373L80.1664 14.3738L82.0498 17.5236H80.6727ZM83.8687 17.5236V11.3289H87.8012V12.4356H85.084V13.8427H87.429V14.9219H85.084V16.4168H87.8367V17.5236H83.8687ZM48.972 41.4538V40.5608C48.972 40.3904 49.0247 40.2002 49.1325 39.9943C49.2404 39.7885 49.3863 39.5813 49.5757 39.3754C49.7651 39.1695 49.9861 38.9768 50.2412 38.7997L51.1829 38.1257C51.3131 38.0379 51.4355 37.9382 51.5512 37.8241C51.6669 37.714 51.7616 37.5907 51.8353 37.4569C51.907 37.3358 51.9448 37.1977 51.9448 37.057C51.9448 36.9163 51.907 36.7782 51.8353 36.657C51.7603 36.5325 51.6525 36.4354 51.5117 36.3646C51.371 36.2938 51.1948 36.2597 50.987 36.2597C50.8226 36.2566 50.6598 36.2925 50.5122 36.3646C50.3779 36.4316 50.2609 36.5285 50.1702 36.6479C50.0835 36.7611 50.02 36.8904 49.9835 37.0281L48.7327 36.8157C48.7919 36.522 48.9181 36.2479 49.1141 35.9935C49.3087 35.7391 49.5652 35.5345 49.8822 35.3772C50.1991 35.2198 50.5582 35.1438 50.9607 35.1438C51.421 35.1438 51.8182 35.2264 52.1496 35.3929C52.4811 35.5595 52.7375 35.7824 52.9177 36.0682C53.0992 36.3554 53.1886 36.6872 53.1886 37.0649C53.1886 37.4478 53.0834 37.7887 52.873 38.0864C52.6625 38.384 52.3745 38.6634 52.0076 38.923L51.1658 39.5328C50.9922 39.6521 50.8449 39.7819 50.72 39.9222C50.5982 40.061 50.5024 40.2204 50.4372 40.393H53.2689V41.4552L48.972 41.4538ZM57.4223 41.5614C56.9199 41.5614 56.4754 41.4237 56.0913 41.1496C55.7073 40.8756 55.4048 40.4979 55.1851 40.0166C54.9668 39.5354 54.8563 38.9833 54.8563 38.3565C54.8563 37.731 54.9668 37.1789 55.1851 36.6964C55.4048 36.2164 55.7046 35.8388 56.0861 35.5634C56.4688 35.2893 56.912 35.1529 57.4144 35.1529C57.9168 35.1529 58.3627 35.2893 58.7507 35.5634C59.1374 35.8388 59.4412 36.2164 59.6608 36.6964C59.8791 37.1789 59.9896 37.7323 59.9896 38.3565C59.9896 38.9833 59.8791 39.5367 59.6608 40.0166C59.4656 40.4682 59.1527 40.8594 58.7546 41.1496C58.3663 41.4247 57.8987 41.569 57.4223 41.5614ZM57.4223 40.4638C57.6861 40.4652 57.9411 40.3689 58.1378 40.1937C58.3631 39.9918 58.5329 39.7359 58.631 39.4501C58.7551 39.0991 58.8153 38.7287 58.8086 38.3565C58.8086 37.9447 58.7494 37.5776 58.631 37.2589C58.5126 36.9403 58.3482 36.6924 58.1378 36.5115C57.9274 36.3305 57.6867 36.2413 57.4144 36.2413C57.1521 36.2396 56.8987 36.336 56.7042 36.5115C56.4977 36.6924 56.3359 36.9403 56.2202 37.2589C56.1045 37.5776 56.0466 37.9447 56.0466 38.3565C56.0466 38.7696 56.1045 39.1341 56.2202 39.4501C56.3359 39.7649 56.499 40.014 56.7082 40.1924C56.9186 40.3733 57.1553 40.4638 57.4223 40.4638ZM61.6402 41.4538V40.5608C61.6402 40.3904 61.6928 40.2002 61.8007 39.9943C61.9059 39.7885 62.0545 39.5813 62.2439 39.3754C62.4333 39.1682 62.6556 38.9768 62.9094 38.7997L63.8511 38.1257C63.98 38.0379 64.1036 37.9382 64.2194 37.8241C64.3317 37.7164 64.4275 37.5926 64.5034 37.4569C64.5726 37.3404 64.6107 37.2081 64.6139 37.0727C64.6178 36.9255 64.5789 36.7803 64.5019 36.6547C64.4249 36.5291 64.3131 36.4283 64.1799 36.3646C64.0158 36.2899 63.8367 36.254 63.6565 36.2597C63.4789 36.2597 63.3198 36.2951 63.1803 36.3646C63.0409 36.4341 62.9278 36.5298 62.8384 36.6479C62.749 36.7659 62.6871 36.8931 62.6529 37.0281L61.4009 36.8157C61.46 36.522 61.5876 36.2479 61.7823 35.9935C61.9769 35.7391 62.2334 35.5345 62.5504 35.3772C62.866 35.2211 63.2264 35.1438 63.6288 35.1438C64.0892 35.1438 64.4864 35.2264 64.8178 35.3929C65.1492 35.5595 65.4057 35.7824 65.5859 36.0682C65.7674 36.3554 65.8568 36.6872 65.8568 37.0649C65.8568 37.4478 65.7516 37.7887 65.5425 38.0864C65.332 38.384 65.0427 38.6634 64.6771 38.923L63.8327 39.5328C63.6617 39.6521 63.5131 39.7819 63.3881 39.9222C63.2668 40.0613 63.1711 40.2207 63.1054 40.393H65.937V41.4552L61.6402 41.4538ZM69.8156 41.5614C69.5315 41.5614 69.2395 41.5129 68.941 41.4197C68.6487 41.3279 68.3755 41.1839 68.1348 40.9949C67.8996 40.8123 67.7168 40.5713 67.6047 40.2959L68.7148 39.9681C68.845 40.1569 69.0002 40.2959 69.1817 40.3838C69.3632 40.4717 69.5499 40.5176 69.7446 40.5176C70.0524 40.5176 70.3022 40.4231 70.4943 40.2382C70.6863 40.0534 70.7836 39.8029 70.7836 39.4908C70.7836 39.201 70.6915 38.9584 70.5048 38.7643C70.318 38.5702 70.0708 38.4719 69.763 38.4719C69.5864 38.4701 69.4122 38.5129 69.2566 38.5965C69.1178 38.6662 68.9965 38.7662 68.9015 38.8889L67.8099 38.6489L68.1834 35.2592H71.699V36.3567H69.2198L69.0423 37.8438C69.2014 37.7546 69.3803 37.6825 69.5749 37.6274C69.7696 37.5723 69.98 37.5461 70.2049 37.5514C70.5261 37.5488 70.8421 37.6315 71.1207 37.791C71.3992 37.9504 71.6301 38.1809 71.7898 38.4588C71.9528 38.7381 72.0331 39.0646 72.0331 39.4357C72.0331 39.8553 71.9384 40.2238 71.7503 40.5425C71.5622 40.8611 71.3005 41.1116 70.9691 41.2899C70.6134 41.4765 70.2174 41.5699 69.8156 41.5614ZM17.808 71.2851V56.8081H12.4393V52.9266H27.3801V56.8081H22.014V71.2851H17.8053H17.808ZM33.6958 71.5998C32.3096 71.5998 31.0917 71.3061 30.0395 70.7199C29.0048 70.1521 28.1453 69.3132 27.5537 68.294C26.9487 67.2633 26.6462 66.0739 26.6462 64.7272C26.6462 63.3804 26.9382 62.1924 27.5274 61.1604C28.1075 60.1368 28.9642 59.2962 30 58.7344C31.0601 58.1496 32.2648 57.8558 33.6169 57.8558C35.0005 57.8558 36.2236 58.1496 37.2863 58.7344C38.322 59.2965 39.1786 60.137 39.759 61.1604C40.3455 62.1924 40.6401 63.3817 40.6401 64.7272C40.6401 66.0726 40.3455 67.2633 39.759 68.294C39.1819 69.3153 38.3301 70.1556 37.2995 70.7199C36.2473 71.3061 35.0452 71.5998 33.6958 71.5998ZM33.6958 67.8219C34.2206 67.8219 34.6901 67.6907 35.1031 67.4285C35.5134 67.1662 35.8396 66.8043 36.0763 66.3401C36.3131 65.8785 36.4315 65.3396 36.4315 64.7272C36.4315 64.1148 36.3131 63.5784 36.0763 63.1142C35.8545 62.6677 35.5131 62.291 35.0899 62.0258C34.6691 61.7636 34.1851 61.6324 33.6419 61.6324C33.0987 61.6324 32.616 61.7636 32.1951 62.0258C31.7743 62.2881 31.4455 62.6513 31.2087 63.1142C30.972 63.5771 30.8536 64.1161 30.8536 64.7272C30.8536 65.3382 30.972 65.8785 31.2087 66.3401C31.4455 66.803 31.7782 67.1662 32.2083 67.4285C32.6384 67.6907 33.1329 67.8219 33.6945 67.8219H33.6958ZM42.7695 76.5304V58.1719H46.6362L46.873 60.5847V76.5304H42.7695ZM50.6082 71.5998C49.5205 71.5998 48.609 71.3231 47.8725 70.7724C47.136 70.2216 46.5836 69.4309 46.2154 68.3989C45.8471 67.3682 45.663 66.1434 45.663 64.7272C45.663 63.2939 45.8471 62.0652 46.2154 61.0423C46.5836 60.0195 47.136 59.2327 47.8725 58.682C48.609 58.1312 49.5205 57.8558 50.6082 57.8558C51.8353 57.8558 52.8967 58.1312 53.791 58.682C54.6854 59.2327 55.3693 60.0195 55.8427 61.0423C56.3162 62.0652 56.553 63.2939 56.553 64.7272C56.553 66.1434 56.3162 67.3682 55.8427 68.3989C55.3693 69.4309 54.6854 70.2216 53.791 70.7724C52.8967 71.3231 51.8353 71.5998 50.6082 71.5998ZM49.556 67.8219C50.0821 67.8219 50.5464 67.6907 50.9501 67.4285C51.3539 67.1662 51.6775 66.8043 51.9234 66.3401C52.168 65.8785 52.2917 65.3396 52.2917 64.7272C52.2917 64.1148 52.1772 63.5784 51.9497 63.1142C51.7374 62.6695 51.4049 62.2926 50.9896 62.0258C50.5779 61.7636 50.1084 61.6324 49.5823 61.6324C49.0562 61.6324 48.5867 61.7636 48.175 62.0258C47.7621 62.2881 47.4424 62.6553 47.2149 63.1273C46.9874 63.5994 46.873 64.1331 46.873 64.7272C46.873 65.3396 46.9874 65.8772 47.2149 66.3401C47.4424 66.803 47.7581 67.1662 48.1619 67.4285C48.5643 67.6907 49.0299 67.8219 49.556 67.8219ZM64.443 59.2209V55.3919C64.9164 55.426 65.4031 55.3211 65.9028 55.0772C66.4026 54.8332 66.8932 54.5041 67.3759 54.0937C67.8586 53.6819 68.2834 53.2754 68.6516 52.8741L71.3347 55.4692C70.6863 56.2036 69.9932 56.8724 69.258 57.4756C68.5214 58.0788 67.7586 58.543 66.9695 58.8656C66.1702 59.1904 65.3024 59.312 64.4443 59.2196L64.443 59.2209ZM68.2308 71.2851V55.1821L68.6516 52.9266H72.2553V71.2851H68.2308ZM83.119 71.5998C81.6118 71.5998 80.269 71.1933 79.0945 70.379C77.92 69.5659 77.0033 68.4474 76.3457 67.022C75.6881 65.5966 75.3593 63.9574 75.3593 62.1045C75.3593 60.2516 75.6881 58.6125 76.3457 57.1871C77.0033 55.7617 77.9147 54.6431 79.0813 53.8301C80.2479 53.0171 81.5842 52.6106 83.0927 52.6106C84.6184 52.6106 85.9691 53.0171 87.1436 53.8301C88.3181 54.6431 89.244 55.763 89.9187 57.1871C90.5934 58.6112 90.9314 60.2516 90.9314 62.1045C90.9314 63.9574 90.5987 65.5966 89.9319 67.022C89.265 68.4474 88.3444 69.5659 87.1699 70.379C85.9954 71.192 84.6447 71.5998 83.119 71.5998ZM83.1453 67.7694C83.8464 67.7694 84.4737 67.5242 85.0261 67.0351C85.5785 66.546 86.0125 65.8772 86.3282 65.0288C86.6438 64.1803 86.8017 63.206 86.8017 62.1045C86.8017 60.986 86.6438 59.9985 86.3282 59.1409C86.0125 58.2846 85.5732 57.6119 85.013 57.1215C84.4877 56.6456 83.8024 56.3836 83.0927 56.3872C82.3917 56.3872 81.7683 56.6324 81.2251 57.1215C80.6819 57.6119 80.2558 58.2846 79.9494 59.1409C79.6429 59.9972 79.489 60.986 79.489 62.1045C79.489 63.206 79.6429 64.1856 79.9494 65.0419C80.2558 65.8982 80.6859 66.5683 81.2383 67.0482C81.7907 67.5295 82.4259 67.7694 83.1453 67.7694ZM100.268 71.5998C98.7609 71.5998 97.4181 71.1933 96.2436 70.379C95.0691 69.5659 94.1524 68.4474 93.4948 67.022C92.8372 65.5966 92.5084 63.9574 92.5084 62.1045C92.5084 60.2516 92.8372 58.6125 93.4948 57.1871C94.1524 55.7617 95.0639 54.6431 96.2304 53.8301C97.397 53.0171 98.7333 52.6106 100.242 52.6106C101.768 52.6106 103.118 53.0171 104.293 53.8301C105.467 54.6431 106.393 55.763 107.068 57.1871C107.743 58.6112 108.081 60.2516 108.081 62.1045C108.081 63.9574 107.748 65.5966 107.081 67.022C106.414 68.4474 105.494 69.5659 104.319 70.379C103.145 71.192 101.794 71.5998 100.268 71.5998ZM100.294 67.7694C100.995 67.7694 101.623 67.5242 102.175 67.0351C102.728 66.546 103.162 65.8772 103.477 65.0288C103.793 64.1803 103.951 63.206 103.951 62.1045C103.951 60.986 103.793 59.9985 103.477 59.1409C103.162 58.2846 102.722 57.6119 102.162 57.1215C101.637 56.6456 100.952 56.3836 100.242 56.3872C99.5408 56.3872 98.9174 56.6324 98.3742 57.1215C97.8311 57.6119 97.4063 58.2846 97.0985 59.1409C96.7907 59.9972 96.6382 60.986 96.6382 62.1045C96.6382 63.206 96.792 64.1856 97.0985 65.0419C97.4049 65.8982 97.835 66.5683 98.3874 67.0482C98.9398 67.5295 99.5751 67.7694 100.294 67.7694ZM28.7519 88.1277C28.2363 88.1277 27.7786 88.0162 27.3814 87.792C26.9842 87.5691 26.6712 87.2609 26.445 86.8688C26.2188 86.4767 26.1044 86.0269 26.1044 85.5168C26.1044 85.0067 26.2175 84.557 26.445 84.1649C26.6725 83.7728 26.9842 83.4659 27.3814 83.2417C27.78 83.0188 28.2363 82.906 28.7519 82.906C29.061 82.906 29.3451 82.9519 29.6068 83.0424C30.0976 83.2111 30.5176 83.5389 30.7997 83.9734L29.9895 84.4783C29.9035 84.3448 29.7944 84.2275 29.6673 84.1321C29.5345 84.0311 29.3885 83.9524 29.2293 83.8947C29.0702 83.837 28.911 83.8069 28.7519 83.8069C28.4612 83.7987 28.1739 83.8713 27.9221 84.0165C27.6704 84.1617 27.4641 84.3737 27.3262 84.6291C27.1868 84.8848 27.1171 85.1798 27.1171 85.5168C27.1171 85.8486 27.1855 86.145 27.3236 86.4046C27.4617 86.6642 27.655 86.8675 27.9062 87.0144C28.1561 87.1599 28.4455 87.2334 28.7743 87.2334C29.0294 87.2334 29.2569 87.1835 29.4582 87.0826C29.6594 86.9816 29.8159 86.84 29.9316 86.6564C30.0474 86.4728 30.1053 86.263 30.1053 86.0217L31.0456 85.8774C31.0456 86.3535 30.947 86.7613 30.7523 87.097C30.5564 87.4327 30.2868 87.6884 29.9422 87.8641C29.5976 88.0398 29.2004 88.1277 28.7519 88.1277ZM28.9189 86.1082V85.3359H31.0456V85.9496L30.5103 86.1082H28.9189ZM32.499 88.0411V82.9926H33.4893V87.1389H35.7186V88.0411H32.499ZM39.321 88.1277C38.808 88.1277 38.3569 88.0162 37.965 87.792C37.5704 87.5691 37.264 87.2609 37.0417 86.8688C36.8151 86.4574 36.7003 85.994 36.709 85.5247C36.709 85.0094 36.8208 84.557 37.0417 84.1649C37.264 83.7715 37.5691 83.4672 37.9571 83.2456C38.3671 83.0189 38.8299 82.9044 39.2986 82.9139C39.8116 82.9139 40.2587 83.0253 40.648 83.2496C41.036 83.4725 41.3412 83.7806 41.5634 84.1727C41.7844 84.5635 41.8962 85.0146 41.8962 85.5234C41.8962 86.0296 41.7857 86.4767 41.5674 86.8688C41.349 87.2609 41.0439 87.5677 40.6559 87.792C40.249 88.0207 39.788 88.1366 39.321 88.1277ZM39.321 87.2268C39.6287 87.2268 39.8997 87.1534 40.1351 87.0065C40.3679 86.8596 40.552 86.659 40.6849 86.4033C40.8164 86.1489 40.8835 85.8565 40.8835 85.5247C40.8835 85.1877 40.8151 84.8913 40.6809 84.6369C40.5468 84.3825 40.36 84.1806 40.1233 84.035C39.8751 83.8847 39.5889 83.8083 39.2986 83.8148C39.0153 83.8097 38.7362 83.884 38.4932 84.0294C38.2502 84.1748 38.0531 84.3853 37.9242 84.6369C37.7888 84.8913 37.7217 85.1877 37.7217 85.5247C37.7217 85.8565 37.7888 86.1489 37.9242 86.4033C38.0558 86.6577 38.2566 86.8699 38.5037 87.0155C38.7508 87.1612 39.034 87.2344 39.321 87.2268ZM43.4218 88.0411V82.9926H45.1369C45.4828 82.9926 45.7866 83.045 46.0483 83.1512C46.3074 83.2561 46.5113 83.4161 46.6559 83.6299C46.8006 83.8436 46.873 84.1111 46.873 84.4284C46.873 84.6251 46.823 84.8061 46.7243 84.9726C46.6257 85.1379 46.4876 85.2808 46.3074 85.4014C46.5442 85.5221 46.727 85.6821 46.8545 85.8801C46.9865 86.0962 47.0528 86.3458 47.0453 86.5987C47.0453 86.9068 46.9756 87.1691 46.8361 87.3855C46.6939 87.6035 46.4897 87.7742 46.2495 87.8759C45.9997 87.9861 45.705 88.0411 45.3684 88.0411H43.4218ZM44.3911 85.0487H45.1579C45.3438 85.0591 45.5268 84.9997 45.6709 84.8822C45.7352 84.8227 45.7856 84.7498 45.8183 84.6686C45.8511 84.5874 45.8654 84.5 45.8602 84.4127C45.8647 84.3237 45.8479 84.2348 45.8114 84.1535C45.7748 84.0721 45.7194 84.0005 45.6498 83.9446C45.5104 83.8344 45.3197 83.7793 45.079 83.7793H44.3911V85.0487ZM44.3911 87.1691H45.2737C45.5104 87.1691 45.6958 87.1101 45.8313 86.9921C45.9668 86.8741 46.0325 86.7167 46.0325 86.52C46.0325 86.3128 45.9589 86.1502 45.809 86.0335C45.659 85.9168 45.4538 85.8565 45.1947 85.8565H44.3911V87.1691ZM48.0816 88.0411L50.0781 82.9926H51.0685L49.1299 88.0411H48.0816ZM49.022 86.9304V86.0571H52.197V86.9304H49.022ZM52.0812 88.0411L50.1426 82.9926H51.1343L53.1308 88.0411H52.0812ZM54.4605 88.0411V82.9926H55.4521V87.1389H57.6801V88.0411H54.4605ZM63.2132 88.1277C62.9716 88.1291 62.7309 88.0977 62.4977 88.0346C62.2874 87.977 62.087 87.8881 61.9033 87.771C61.7413 87.6673 61.5967 87.539 61.4745 87.3907C61.3671 87.2642 61.2914 87.1141 61.2536 86.9527L62.2215 86.6642C62.2847 86.8268 62.3952 86.9672 62.5543 87.0852C62.7134 87.2032 62.9147 87.2648 63.1554 87.2688C63.4118 87.274 63.6196 87.2189 63.7814 87.1035C63.8511 87.0586 63.9091 86.9979 63.9509 86.9264C63.9927 86.8549 64.017 86.7745 64.0219 86.6919C64.0267 86.6093 64.012 86.5267 63.9789 86.4509C63.9458 86.375 63.8953 86.3079 63.8314 86.2551C63.6777 86.1342 63.4988 86.0491 63.3079 86.006L62.6503 85.8342C62.4181 85.7779 62.1977 85.6811 61.9993 85.5483C61.8108 85.4273 61.6567 85.26 61.5516 85.0626C61.4466 84.8651 61.3942 84.644 61.3995 84.4206C61.3995 83.9446 61.5574 83.5722 61.8717 83.306C62.1874 83.0384 62.6345 82.906 63.2132 82.906C63.5368 82.906 63.8195 82.9532 64.0642 83.0463C64.3075 83.1394 64.5113 83.2732 64.6744 83.4476C64.8388 83.6194 64.9638 83.8239 65.0506 84.0586L64.0892 84.355C64.0275 84.1869 63.916 84.0415 63.7696 83.938C63.5991 83.8172 63.3933 83.7559 63.1843 83.7636C62.9436 83.7636 62.7542 83.82 62.6174 83.9301C62.4806 84.0403 62.4109 84.1963 62.4109 84.3983C62.4109 84.557 62.4649 84.6828 62.5727 84.7733C62.6819 84.8651 62.8305 84.9346 63.0199 84.9831L63.6841 85.1497C64.1181 85.2546 64.4561 85.4447 64.6968 85.7188C64.9375 85.9942 65.0585 86.2984 65.0585 86.6341C65.0585 86.9331 64.9861 87.1927 64.8415 87.4169C64.6968 87.6412 64.4864 87.8156 64.2115 87.9389C63.8966 88.0723 63.5553 88.1367 63.2132 88.1277ZM66.6288 88.0411V82.9926H69.8314V83.8947H67.6179V85.0408H69.5276V85.9194H67.6179V87.1389H69.8616V88.0411H66.6288ZM71.6109 88.0411V82.9926H72.6026V87.1389H74.8305V88.0411H71.6109ZM76.2181 88.0411V82.9926H77.2098V87.1389H79.4391V88.0411H76.2181ZM80.8253 88.0411V82.9926H84.0305V83.8947H81.817V85.0408H83.7254V85.9194H81.817V87.1389H84.0594V88.0411H80.8253ZM85.8087 88.0411V82.9926H87.6894C88.0458 82.9926 88.3628 83.062 88.6364 83.2024C88.9099 83.3427 89.127 83.5315 89.2808 83.7754C89.436 84.018 89.5136 84.2999 89.5136 84.6225C89.5136 84.9399 89.4321 85.2218 89.2703 85.4696C89.1085 85.7188 88.8889 85.9102 88.6088 86.0466C88.3106 86.1877 87.9839 86.2581 87.6539 86.2525H86.8003V88.0411H85.8087ZM86.8003 85.3516H87.6973C87.8368 85.3537 87.9746 85.3212 88.0984 85.2572C88.214 85.1975 88.3113 85.1078 88.3799 84.9976C88.4506 84.8853 88.4871 84.755 88.4851 84.6225C88.4883 84.523 88.4689 84.424 88.4283 84.3329C88.3878 84.2419 88.3272 84.1611 88.251 84.0967C88.0814 83.9569 87.8658 83.885 87.646 83.8947H86.8003V85.3516ZM88.593 88.0398L87.4224 86.0151L88.1813 85.4736L89.7149 88.0411L88.593 88.0398ZM92.9003 88.1277C92.6425 88.1277 92.4058 88.0962 92.1835 88.0346C91.9612 87.9716 91.7626 87.8838 91.5904 87.771C91.4181 87.6582 91.2734 87.531 91.1603 87.3907C91.0534 87.2639 90.9778 87.1139 90.9393 86.9527L91.9086 86.6642C91.9718 86.8268 92.0823 86.9672 92.2414 87.0852C92.4005 87.2032 92.6004 87.2648 92.8411 87.2688C93.0622 87.2825 93.2819 87.2246 93.4672 87.1035C93.5367 87.0585 93.5947 86.9978 93.6364 86.9264C93.6781 86.8549 93.7024 86.7747 93.7074 86.6922C93.7124 86.6097 93.6979 86.5272 93.6651 86.4513C93.6323 86.3753 93.5821 86.3082 93.5185 86.2551C93.3643 86.1343 93.185 86.0492 92.9937 86.006L92.3361 85.8342C92.1036 85.7775 91.8828 85.6808 91.6837 85.5483C91.4953 85.4273 91.3411 85.26 91.2361 85.0626C91.1311 84.8651 91.0787 84.644 91.084 84.4206C91.084 83.9446 91.2418 83.5722 91.5575 83.306C91.8731 83.0384 92.3203 82.906 92.899 82.906C93.2225 82.906 93.5066 82.9532 93.7486 83.0463C93.9933 83.1394 94.1971 83.2732 94.3602 83.4476C94.5246 83.6194 94.6496 83.8239 94.7364 84.0586L93.7749 84.355C93.7171 84.1924 93.6105 84.0534 93.4566 83.938C93.3028 83.8226 93.1068 83.7636 92.8701 83.7636C92.6294 83.7636 92.44 83.82 92.3032 83.9301C92.1664 84.0403 92.0967 84.1963 92.0967 84.3983C92.0967 84.557 92.152 84.6828 92.2598 84.7733C92.369 84.8651 92.5163 84.9346 92.7043 84.9831L93.3698 85.1497C93.8039 85.2546 94.1406 85.4447 94.3826 85.7188C94.6246 85.9928 94.7443 86.2984 94.7443 86.6341C94.7443 86.9331 94.6719 87.1927 94.5272 87.4169C94.3826 87.6399 94.1721 87.8156 93.8986 87.9389C93.5829 88.0727 93.2432 88.1371 92.9003 88.1277Z" fill="black"/>
</g>
<defs>
<clipPath id="clip0_7558_153954">
<rect width="121" height="139" fill="white" transform="translate(0 0.5)"/>
</clipPath>
</defs>
</svg>
