<svg width="122" height="139" viewBox="0 0 122 139" fill="none" xmlns="http://www.w3.org/2000/svg">
<g clip-path="url(#clip0_8607_24162)">
<path d="M0.54541 108.962L60.3024 138.406L120.059 108.962V0.705444H0.54541V108.962Z" fill="white"/>
<path d="M0.54541 108.962L60.3024 138.406L120.059 108.962V0.705444H0.54541V108.962Z" fill="white"/>
<path d="M17.167 17.3165C16.8465 17.3165 16.5477 17.2775 16.2706 17.1996C15.9848 17.1216 15.7337 17.0134 15.5171 16.8748C15.3006 16.7276 15.1231 16.5674 14.9845 16.3941C14.8373 16.2209 14.742 16.0347 14.6987 15.8356L15.9199 15.4718C15.9978 15.6797 16.1364 15.8572 16.3356 16.0044C16.5347 16.1517 16.7859 16.2296 17.089 16.2383C17.4094 16.2469 17.6736 16.1776 17.8814 16.0304C18.0806 15.8832 18.1802 15.697 18.1802 15.4718C18.1802 15.2726 18.1023 15.1037 17.9464 14.9652C17.7818 14.8266 17.561 14.7227 17.2839 14.6534L16.4525 14.4326C16.1494 14.3546 15.8765 14.2334 15.6341 14.0688C15.4002 13.9129 15.2184 13.7137 15.0884 13.4713C14.9499 13.2374 14.8806 12.9646 14.8806 12.6528C14.8806 12.0466 15.0798 11.5746 15.4782 11.2369C15.8765 10.9078 16.4395 10.7432 17.167 10.7432C17.574 10.7432 17.9291 10.7995 18.2322 10.9121C18.544 11.0333 18.7994 11.2022 18.9986 11.4187C19.2065 11.6352 19.3667 11.8951 19.4793 12.1982L18.2712 12.5619C18.1932 12.3541 18.059 12.1808 17.8684 12.0423C17.6693 11.8951 17.4224 11.8214 17.128 11.8214C16.8249 11.8214 16.5867 11.8907 16.4135 12.0293C16.2403 12.1679 16.1537 12.367 16.1537 12.6269C16.1537 12.8261 16.223 12.9819 16.3615 13.0945C16.5001 13.2071 16.6863 13.2937 16.9201 13.3543L17.7515 13.5622C18.2971 13.7008 18.7215 13.9432 19.0246 14.2897C19.3277 14.6361 19.4793 15.0215 19.4793 15.4458C19.4793 15.8182 19.3884 16.143 19.2065 16.4201C19.0246 16.7059 18.7648 16.9268 18.427 17.0827C18.0806 17.2385 17.6606 17.3165 17.167 17.3165ZM21.4539 17.2126V10.8471H23.8182C24.2685 10.8471 24.6669 10.9381 25.0133 11.1199C25.3597 11.2932 25.6282 11.54 25.8187 11.8604C26.0179 12.1808 26.1175 12.5489 26.1175 12.9646C26.1175 13.3803 26.0223 13.7484 25.8317 14.0688C25.6412 14.3893 25.3857 14.6404 25.0653 14.8223C24.7362 15.0128 24.3551 15.1081 23.9221 15.1081H22.701V17.2126H21.4539ZM22.701 13.9519H23.8961C24.1732 13.9519 24.4027 13.861 24.5846 13.6791C24.7578 13.4972 24.8444 13.2591 24.8444 12.9646C24.8444 12.6788 24.7492 12.4407 24.5586 12.2501C24.3594 12.0769 24.104 11.9903 23.7922 11.9903H22.701V13.9519ZM27.8453 17.2126V10.8471H30.2096C30.6599 10.8471 31.0583 10.9337 31.4047 11.107C31.7511 11.2888 32.0196 11.5313 32.2101 11.8344C32.4093 12.1375 32.5089 12.4926 32.5089 12.8997C32.5089 13.298 32.405 13.6531 32.1971 13.9649C31.9979 14.2767 31.7208 14.5192 31.3657 14.6924C31.0193 14.8656 30.6209 14.9522 30.1706 14.9522H29.0924V17.2126H27.8453ZM31.3527 17.2126L29.8848 14.6534L30.8331 13.9779L32.7557 17.2126H31.3527ZM29.0924 13.822H30.2226C30.4131 13.822 30.582 13.783 30.7292 13.7051C30.8764 13.6271 30.9933 13.5189 31.0799 13.3803C31.1665 13.2418 31.2099 13.0815 31.2099 12.8997C31.2099 12.6312 31.1146 12.4103 30.9241 12.2371C30.7249 12.0726 30.4694 11.9903 30.1576 11.9903H29.0924V13.822ZM34.6264 17.2126V10.8471H35.8735V17.2126H34.6264ZM38.1598 17.2126V10.8471H39.4589L42.5767 15.1211V10.8471H43.8108V17.2126H42.5767L39.407 12.8607V17.2126H38.1598ZM49.059 17.3165C48.4095 17.3165 47.8336 17.1779 47.3312 16.9008C46.8289 16.615 46.4392 16.2253 46.1621 15.7316C45.8763 15.238 45.7334 14.6707 45.7334 14.0299C45.7334 13.389 45.8763 12.8217 46.1621 12.3281C46.4392 11.8344 46.8289 11.4447 47.3312 11.1589C47.8336 10.8818 48.4095 10.7432 49.059 10.7432C49.4487 10.7432 49.8038 10.7995 50.1242 10.9121C50.4533 11.0247 50.7435 11.1849 50.9946 11.3927C51.2458 11.5919 51.458 11.8214 51.6312 12.0813L50.6179 12.7178C50.514 12.5532 50.3754 12.4103 50.2022 12.2891C50.0376 12.1592 49.8558 12.0596 49.6566 11.9903C49.4574 11.9124 49.2582 11.8734 49.059 11.8734C48.6606 11.8734 48.3056 11.9643 47.9938 12.1462C47.682 12.3367 47.4395 12.5922 47.2663 12.9127C47.0931 13.2331 47.0065 13.6055 47.0065 14.0299C47.0065 14.4456 47.0931 14.8179 47.2663 15.147C47.4395 15.4761 47.682 15.7316 47.9938 15.9135C48.3056 16.104 48.6693 16.1993 49.085 16.1993C49.4054 16.1993 49.6912 16.1343 49.9424 16.0044C50.1935 15.8745 50.3927 15.697 50.5399 15.4718C50.6872 15.238 50.7608 14.9695 50.7608 14.6664L51.9429 14.4845C51.9429 15.0821 51.8174 15.5931 51.5662 16.0174C51.3237 16.4418 50.986 16.7665 50.5529 16.9917C50.1199 17.2082 49.6219 17.3165 49.059 17.3165ZM49.2669 14.7703V13.809H51.9429V14.5755L51.2674 14.7703H49.2669ZM56.6196 17.2126V16.2902C56.6196 16.117 56.6715 15.9265 56.7755 15.7186C56.888 15.5021 57.0396 15.2899 57.2301 15.0821C57.4293 14.8656 57.6588 14.6664 57.9186 14.4845L58.8799 13.796C59.0098 13.7008 59.1354 13.5968 59.2567 13.4842C59.3779 13.3717 59.4732 13.2461 59.5425 13.1075C59.6204 12.9689 59.6594 12.839 59.6594 12.7178C59.6594 12.5532 59.6204 12.4103 59.5425 12.2891C59.4732 12.1592 59.3649 12.0596 59.2177 11.9903C59.0705 11.9124 58.8886 11.8734 58.6721 11.8734C58.4902 11.8734 58.33 11.9124 58.1914 11.9903C58.0529 12.0596 57.936 12.1549 57.8407 12.2761C57.7541 12.3974 57.6891 12.5273 57.6458 12.6658L56.3727 12.445C56.4334 12.1419 56.5633 11.8604 56.7625 11.6006C56.9617 11.3408 57.2215 11.1286 57.5419 10.9641C57.871 10.8082 58.2391 10.7302 58.6461 10.7302C59.1224 10.7302 59.5295 10.8168 59.8672 10.99C60.205 11.1546 60.4691 11.3841 60.6597 11.6785C60.8415 11.973 60.9325 12.3151 60.9325 12.7048C60.9325 13.0945 60.8242 13.4453 60.6077 13.757C60.3912 14.0602 60.0967 14.346 59.7243 14.6144L58.854 15.238C58.6808 15.3592 58.5292 15.4935 58.3993 15.6407C58.278 15.7879 58.1828 15.9481 58.1135 16.1213H61.0104V17.2126H56.6196ZM65.2713 17.3165C64.7517 17.3165 64.297 17.1779 63.9073 16.9008C63.5089 16.615 63.2015 16.2253 62.985 15.7316C62.7598 15.238 62.6472 14.6707 62.6472 14.0299C62.6472 13.389 62.7598 12.8217 62.985 12.3281C63.2015 11.8344 63.5089 11.4447 63.9073 11.1589C64.297 10.8818 64.7474 10.7432 65.2584 10.7432C65.778 10.7432 66.237 10.8818 66.6354 11.1589C67.0251 11.4447 67.3325 11.8344 67.5577 12.3281C67.7829 12.8217 67.8955 13.389 67.8955 14.0299C67.8955 14.6707 67.7829 15.238 67.5577 15.7316C67.3325 16.2253 67.0251 16.615 66.6354 16.9008C66.237 17.1779 65.7823 17.3165 65.2713 17.3165ZM65.2713 16.1993C65.5398 16.1993 65.7823 16.104 65.9988 15.9135C66.2153 15.7316 66.3842 15.4761 66.5055 15.147C66.6267 14.8266 66.6873 14.4542 66.6873 14.0299C66.6873 13.6055 66.6267 13.2288 66.5055 12.8997C66.3842 12.5706 66.2153 12.3151 65.9988 12.1332C65.7823 11.9513 65.5355 11.8604 65.2584 11.8604C64.9899 11.8604 64.7474 11.9513 64.5309 12.1332C64.323 12.3151 64.1585 12.5706 64.0372 12.8997C63.916 13.2288 63.8554 13.6055 63.8554 14.0299C63.8554 14.4542 63.916 14.8266 64.0372 15.147C64.1585 15.4761 64.3274 15.7316 64.5439 15.9135C64.7517 16.104 64.9942 16.1993 65.2713 16.1993ZM69.5842 17.2126V16.2902C69.5842 16.117 69.6405 15.9265 69.7531 15.7186C69.8657 15.5021 70.0173 15.2899 70.2078 15.0821C70.3983 14.8656 70.6278 14.6664 70.8963 14.4845L71.8576 13.796C71.9875 13.7008 72.1131 13.5968 72.2343 13.4842C72.3469 13.3717 72.4422 13.2461 72.5201 13.1075C72.5981 12.9689 72.637 12.839 72.637 12.7178C72.637 12.5532 72.5981 12.4103 72.5201 12.2891C72.4422 12.1592 72.3339 12.0596 72.1954 11.9903C72.0481 11.9124 71.8663 11.8734 71.6498 11.8734C71.4679 11.8734 71.3077 11.9124 71.1691 11.9903C71.0219 12.0596 70.905 12.1549 70.8184 12.2761C70.7231 12.3974 70.6581 12.5273 70.6235 12.6658L69.3504 12.445C69.411 12.1419 69.5409 11.8604 69.7401 11.6006C69.9393 11.3408 70.1991 11.1286 70.5196 10.9641C70.8487 10.8082 71.2167 10.7302 71.6238 10.7302C72.1001 10.7302 72.5071 10.8168 72.8449 10.99C73.1827 11.1546 73.4468 11.3841 73.6373 11.6785C73.8192 11.973 73.9101 12.3151 73.9101 12.7048C73.9101 13.0945 73.8019 13.4453 73.5854 13.757C73.3689 14.0602 73.0744 14.346 72.702 14.6144L71.8316 15.238C71.6584 15.3592 71.5069 15.4935 71.377 15.6407C71.2557 15.7879 71.1604 15.9481 71.0912 16.1213H73.9881V17.2126H69.5842ZM77.9632 17.3165C77.6774 17.3165 77.3786 17.2689 77.0669 17.1736C76.7637 17.0783 76.4909 16.9354 76.2484 16.7449C75.9973 16.5457 75.8154 16.3032 75.7028 16.0174L76.833 15.6797C76.9716 15.8789 77.1318 16.0217 77.3137 16.1084C77.4956 16.2036 77.6904 16.2513 77.8983 16.2513C78.21 16.2513 78.4655 16.156 78.6647 15.9655C78.8552 15.7749 78.9505 15.5194 78.9505 15.199C78.9505 14.8959 78.8552 14.6447 78.6647 14.4456C78.4742 14.2464 78.223 14.1468 77.9113 14.1468C77.7207 14.1468 77.5475 14.1901 77.3916 14.2767C77.2357 14.3633 77.1145 14.4629 77.0279 14.5755L75.9107 14.3286L76.2874 10.8471H79.8988V11.9773H77.3527L77.1708 13.4972C77.3353 13.4106 77.5172 13.337 77.7164 13.2764C77.9156 13.2244 78.1321 13.1984 78.3659 13.1984C78.7123 13.1984 79.0284 13.2851 79.3142 13.4583C79.6 13.6228 79.8252 13.848 79.9898 14.1338C80.1543 14.4196 80.2366 14.753 80.2366 15.1341C80.2366 15.5671 80.1413 15.9481 79.9508 16.2772C79.7516 16.6063 79.4831 16.8618 79.1454 17.0437C78.8076 17.2256 78.4136 17.3165 77.9632 17.3165Z" fill="black"/>
<path d="M40.8491 59.7571V45.2075H45.9415C46.9374 45.2075 47.8165 45.3591 48.5786 45.6622C49.3407 45.9653 49.9383 46.4286 50.3713 47.0522C50.7957 47.6757 51.0078 48.4682 51.0078 49.4295C51.0078 49.9404 50.8736 50.4211 50.6051 50.8714C50.3366 51.3218 49.9686 51.7288 49.5009 52.0926C50.1591 52.439 50.6657 52.8893 51.0208 53.4436C51.3759 54.0065 51.5534 54.6994 51.5534 55.5221C51.5534 56.4314 51.3456 57.2022 50.9299 57.8344C50.5142 58.4667 49.9383 58.943 49.2021 59.2634C48.466 59.5925 47.6086 59.7571 46.63 59.7571H40.8491ZM44.1098 56.8082H46.2533C46.8248 56.8082 47.2752 56.6566 47.6043 56.3535C47.9334 56.059 48.0979 55.678 48.0979 55.2103C48.0979 54.708 47.9247 54.314 47.5783 54.0282C47.2319 53.7424 46.7556 53.5995 46.1493 53.5995H44.1098V56.8082ZM44.1098 50.9234H45.8376C46.3658 50.9234 46.7902 50.7892 47.1106 50.5207C47.4224 50.2522 47.5783 49.8755 47.5783 49.3905C47.5783 48.8882 47.4094 48.5028 47.0717 48.2343C46.7339 47.9659 46.2792 47.8316 45.7076 47.8316H44.1098V50.9234ZM58.2306 60.0039C57.1481 60.0039 56.1911 59.7744 55.3597 59.3154C54.5283 58.8477 53.8744 58.2068 53.3981 57.3928C52.9305 56.57 52.6966 55.626 52.6966 54.5608C52.6966 53.4782 52.9348 52.5299 53.4111 51.7158C53.8874 50.8931 54.5413 50.2566 55.3727 49.8062C56.2041 49.3472 57.1697 49.1177 58.2696 49.1177C59.2482 49.1177 60.1359 49.3515 60.9327 49.8192C61.7208 50.2955 62.3443 50.997 62.8033 51.9237C63.271 52.8504 63.5048 54.0065 63.5048 55.3922H55.6845L56.0482 55.0025C56.0482 55.4701 56.1435 55.8858 56.334 56.2496C56.5245 56.6047 56.793 56.8775 57.1394 57.068C57.4858 57.2499 57.8756 57.3408 58.3086 57.3408C58.8195 57.3408 59.2526 57.2282 59.6076 57.003C59.9627 56.7779 60.2095 56.4921 60.3481 56.1457L63.219 57.12C62.9419 57.7695 62.5479 58.3108 62.0369 58.7438C61.5346 59.1681 60.9587 59.4843 60.3091 59.6921C59.651 59.9 58.9581 60.0039 58.2306 60.0039ZM56.1262 53.6514L55.7884 53.2357H60.452L60.1533 53.6514C60.1533 53.1318 60.0493 52.7204 59.8415 52.4173C59.6336 52.1142 59.3781 51.8977 59.075 51.7678C58.7719 51.6379 58.4688 51.5729 58.1657 51.5729C57.8626 51.5729 57.5551 51.6379 57.2433 51.7678C56.9316 51.8977 56.6674 52.1142 56.4509 52.4173C56.2344 52.7204 56.1262 53.1318 56.1262 53.6514ZM68.779 60.0039C68.1035 60.0039 67.4713 59.9043 66.8824 59.7051C66.2935 59.5059 65.7825 59.2201 65.3495 58.8477C64.9252 58.484 64.609 58.038 64.4012 57.5097L67.0643 56.3925C67.2375 56.7476 67.4843 57.0117 67.8048 57.1849C68.1252 57.3581 68.45 57.4447 68.779 57.4447C69.1255 57.4447 69.3983 57.3884 69.5975 57.2758C69.788 57.1546 69.8833 56.99 69.8833 56.7822C69.8833 56.5657 69.7837 56.3925 69.5845 56.2626C69.3853 56.1413 69.0995 56.0331 68.7271 55.9378L67.8307 55.704C66.8608 55.4528 66.116 55.0414 65.5963 54.4699C65.0767 53.8896 64.8169 53.2184 64.8169 52.4563C64.8169 51.3911 65.185 50.5683 65.9211 49.9881C66.6486 49.4078 67.6662 49.1177 68.9739 49.1177C69.71 49.1177 70.3552 49.213 70.9095 49.4035C71.4724 49.6027 71.9444 49.8755 72.3255 50.2219C72.7066 50.577 72.9794 50.9927 73.1439 51.469L70.5718 52.5213C70.4765 52.2441 70.2773 52.0319 69.9742 51.8847C69.6797 51.7461 69.3506 51.6769 68.9869 51.6769C68.6838 51.6769 68.45 51.7418 68.2854 51.8717C68.1209 52.0016 68.0386 52.1792 68.0386 52.4043C68.0386 52.5689 68.1382 52.7075 68.3374 52.82C68.5366 52.9413 68.831 53.0495 69.2207 53.1448L70.3249 53.4176C70.9745 53.5822 71.5201 53.8333 71.9618 54.1711C72.4034 54.5175 72.7369 54.9159 72.962 55.3662C73.1872 55.8166 73.2998 56.2972 73.2998 56.8082C73.2998 57.4577 73.1093 58.0206 72.7282 58.497C72.3471 58.9733 71.8145 59.3457 71.1304 59.6142C70.4548 59.874 69.6711 60.0039 68.779 60.0039ZM79.3015 60.0039C78.0717 60.0039 77.1537 59.7094 76.5475 59.1205C75.9412 58.5316 75.6381 57.6915 75.6381 56.6003V46.1169H78.8858V55.7819C78.8858 56.1976 78.9637 56.5051 79.1196 56.7043C79.2668 56.8948 79.5007 56.99 79.8211 56.99C79.9424 56.99 80.0896 56.9597 80.2628 56.8991C80.4273 56.8385 80.5789 56.7605 80.7175 56.6653L81.8347 59.0296C81.5056 59.3067 81.1072 59.5405 80.6395 59.7311C80.1805 59.9129 79.7345 60.0039 79.3015 60.0039ZM74.0273 52.0926V49.3645H81.2501V52.0926H74.0273ZM23.6235 80.5421V65.9926H33.0937V69.0714H26.9621V71.7344H32.0934V74.6963H26.9621V77.4633H33.1976V80.5421H23.6235ZM39.3682 80.7889C38.6927 80.7889 38.0605 80.6893 37.4716 80.4901C36.8827 80.291 36.3717 80.0052 35.9387 79.6328C35.5143 79.269 35.1982 78.823 34.9904 78.2947L37.6534 77.1775C37.8267 77.5326 38.0735 77.7967 38.3939 77.97C38.7143 78.1432 39.0391 78.2298 39.3682 78.2298C39.7146 78.2298 39.9874 78.1735 40.1866 78.0609C40.3771 77.9396 40.4724 77.7751 40.4724 77.5672C40.4724 77.3507 40.3728 77.1775 40.1736 77.0476C39.9744 76.9264 39.6886 76.8181 39.3162 76.7229L38.4199 76.489C37.4499 76.2379 36.7051 75.8265 36.1855 75.2549C35.6659 74.6747 35.4061 74.0035 35.4061 73.2414C35.4061 72.1761 35.7741 71.3534 36.5103 70.7731C37.2377 70.1929 38.2553 69.9028 39.5631 69.9028C40.2992 69.9028 40.9444 69.998 41.4987 70.1886C42.0616 70.3877 42.5336 70.6605 42.9147 71.007C43.2957 71.362 43.5685 71.7777 43.7331 72.2541L41.1609 73.3063C41.0657 73.0292 40.8665 72.817 40.5633 72.6698C40.2689 72.5312 39.9398 72.4619 39.5761 72.4619C39.2729 72.4619 39.0391 72.5269 38.8746 72.6568C38.71 72.7867 38.6277 72.9642 38.6277 73.1894C38.6277 73.3539 38.7273 73.4925 38.9265 73.6051C39.1257 73.7263 39.4202 73.8346 39.8099 73.9299L40.9141 74.2027C41.5636 74.3672 42.1092 74.6184 42.5509 74.9561C42.9926 75.3025 43.326 75.7009 43.5512 76.1513C43.7764 76.6016 43.889 77.0823 43.889 77.5932C43.889 78.2428 43.6984 78.8057 43.3174 79.282C42.9363 79.7583 42.4037 80.1307 41.7195 80.3992C41.044 80.659 40.2602 80.7889 39.3682 80.7889ZM49.8906 80.7889C48.6609 80.7889 47.7429 80.4945 47.1366 79.9056C46.5304 79.3167 46.2273 78.4766 46.2273 77.3854V66.9019H49.4749V76.567C49.4749 76.9827 49.5529 77.2901 49.7088 77.4893C49.856 77.6798 50.0898 77.7751 50.4103 77.7751C50.5315 77.7751 50.6787 77.7448 50.8519 77.6842C51.0165 77.6235 51.1681 77.5456 51.3066 77.4503L52.4238 79.8146C52.0947 80.0918 51.6963 80.3256 51.2287 80.5161C50.7697 80.698 50.3237 80.7889 49.8906 80.7889ZM44.6164 72.8776V70.1496H51.8392V72.8776H44.6164ZM55.7494 80.8539C55.2211 80.8539 54.7708 80.6677 54.3984 80.2953C54.026 79.9229 53.8398 79.4725 53.8398 78.9443C53.8398 78.4333 54.026 77.9873 54.3984 77.6062C54.7708 77.2338 55.2211 77.0476 55.7494 77.0476C56.2604 77.0476 56.7064 77.2338 57.0875 77.6062C57.4599 77.9873 57.6461 78.4333 57.6461 78.9443C57.6461 79.4725 57.4599 79.9229 57.0875 80.2953C56.7064 80.6677 56.2604 80.8539 55.7494 80.8539ZM64.7909 80.5421V65.9926H70.5068C71.5634 65.9926 72.4987 66.1961 73.3128 66.6031C74.1355 67.0102 74.7764 67.5774 75.2354 68.3049C75.7031 69.0324 75.9369 69.8681 75.9369 70.8121C75.9369 71.7561 75.6987 72.5962 75.2224 73.3323C74.7547 74.0684 74.1095 74.64 73.2868 75.0471C72.4641 75.4541 71.5157 75.6576 70.4419 75.6576H68.1425V80.5421H64.7909ZM72.6892 80.5421L69.4026 74.7613L71.9228 72.9166L76.5215 80.5421H72.6892ZM68.1425 72.5788H70.4029C70.7926 72.5788 71.139 72.5052 71.4421 72.358C71.7452 72.2021 71.9834 71.9899 72.1566 71.7214C72.3298 71.453 72.4164 71.1499 72.4164 70.8121C72.4164 70.3011 72.2259 69.8811 71.8448 69.552C71.4638 69.2143 70.9615 69.0454 70.3379 69.0454H68.1425V72.5788ZM85.2512 80.7889C83.7529 80.7889 82.4279 80.4685 81.2761 79.8276C80.1242 79.1781 79.2235 78.2904 78.574 77.1645C77.9245 76.0387 77.5997 74.7483 77.5997 73.2933C77.5997 71.821 77.9245 70.522 78.574 69.3961C79.2235 68.2616 80.1199 67.3739 81.2631 66.733C82.4062 66.0835 83.7183 65.7587 85.1992 65.7587C86.6888 65.7587 88.0052 66.0835 89.1484 66.733C90.2916 67.3739 91.1879 68.2616 91.8375 69.3961C92.487 70.522 92.8118 71.821 92.8118 73.2933C92.8118 74.7483 92.4913 76.0387 91.8504 77.1645C91.2009 78.2904 90.3089 79.1781 89.1744 79.8276C88.0399 80.4685 86.7321 80.7889 85.2512 80.7889ZM85.2512 77.7101C86.0653 77.7101 86.7841 77.5239 87.4076 77.1515C88.0312 76.7791 88.5162 76.2552 88.8626 75.5797C89.209 74.9128 89.3822 74.1507 89.3822 73.2933C89.3822 72.4186 89.2004 71.6435 88.8366 70.968C88.4815 70.3011 87.9922 69.7772 87.3687 69.3961C86.7451 69.0151 86.022 68.8245 85.1992 68.8245C84.3851 68.8245 83.6663 69.0151 83.0428 69.3961C82.4192 69.7772 81.9256 70.3011 81.5619 70.968C81.2068 71.6435 81.0292 72.4186 81.0292 73.2933C81.0292 74.1507 81.2068 74.9128 81.5619 75.5797C81.9256 76.2552 82.4279 76.7791 83.0688 77.1515C83.701 77.5239 84.4285 77.7101 85.2512 77.7101ZM94.8513 80.5421V65.9926H98.1899V80.5421H94.8513Z" fill="black"/>
<path d="M35.3408 94.0263V89.0249H36.4061L37.861 91.1814L39.316 89.0249H40.3812V94.0263H39.4069V90.5448L37.861 92.8182L36.3151 90.5578V94.0263H35.3408ZM42.1739 94.0263V89.0249H43.1612V94.0263H42.1739ZM44.9539 94.0263V89.0249H46.5518C47.0627 89.0249 47.5174 89.1288 47.9158 89.3367C48.3055 89.5532 48.6129 89.8476 48.8381 90.22C49.0546 90.5924 49.1629 91.0255 49.1629 91.5191C49.1629 92.0041 49.0546 92.4371 48.8381 92.8182C48.6129 93.1906 48.3055 93.485 47.9158 93.7015C47.5174 93.9181 47.0627 94.0263 46.5518 94.0263H44.9539ZM45.9282 93.104H46.5518C46.7856 93.104 46.9978 93.065 47.1883 92.9871C47.3875 92.9005 47.5607 92.7879 47.7079 92.6493C47.8465 92.5021 47.9591 92.3332 48.0457 92.1427C48.1236 91.9521 48.1626 91.7443 48.1626 91.5191C48.1626 91.2939 48.1236 91.0861 48.0457 90.8956C47.9591 90.705 47.8465 90.5362 47.7079 90.3889C47.5607 90.2504 47.3875 90.1378 47.1883 90.0512C46.9978 89.9732 46.7856 89.9343 46.5518 89.9343H45.9282V93.104ZM50.5139 92.2986V91.4931H52.6574V92.2986H50.5139ZM54.3072 94.0263V89.0249H55.3594L56.8274 91.1814L58.2823 89.0249H59.3346V94.0263H58.3603V90.5448L56.8274 92.8182L55.2815 90.5578V94.0263H54.3072ZM64.6088 94.0263L62.6861 89.0249H63.6734L65.635 94.0263H64.6088ZM60.6466 94.0263L62.6212 89.0249H63.6085L61.6859 94.0263H60.6466ZM61.5819 92.9221V92.0517H64.7127V92.9221H61.5819ZM66.9601 94.0263V89.0249H68.8177C69.1642 89.0249 69.4759 89.0899 69.7531 89.2198C70.0215 89.3583 70.2337 89.5489 70.3896 89.7914C70.5368 90.0338 70.6104 90.3153 70.6104 90.6357C70.6104 90.9475 70.5325 91.2247 70.3766 91.4672C70.2121 91.7183 69.9912 91.9088 69.7141 92.0387C69.4456 92.1773 69.1338 92.2466 68.7788 92.2466H67.9344V94.0263H66.9601ZM69.7011 94.0263L68.5449 92.0128L69.2984 91.4801L70.8183 94.0263H69.7011ZM67.9344 91.3502H68.8177C68.965 91.3502 69.0992 91.3199 69.2204 91.2593C69.333 91.1987 69.424 91.1121 69.4932 90.9995C69.5625 90.8956 69.5972 90.7743 69.5972 90.6357C69.5972 90.4192 69.5192 90.246 69.3633 90.1161C69.2075 89.9776 69.0083 89.9083 68.7658 89.9083H67.9344V91.3502ZM72.8578 92.7532L72.7539 91.5321L75.0922 89.0249H76.3523L72.8578 92.7532ZM72.2732 94.0263V89.0249H73.2475V94.0263H72.2732ZM75.2221 94.0263L73.2346 91.4801L73.936 90.8956L76.4303 94.0263H75.2221ZM77.7553 94.0263V89.0249H80.912V89.9083H78.7296V91.0514H80.6132V91.9218H78.7296V93.13H80.938V94.0263H77.7553ZM83.731 94.0263V89.9083H82.2241V89.0249H86.1992V89.9083H84.7053V94.0263H83.731Z" fill="black"/>
<path d="M92.7793 0.705444H120.06V27.9858H92.7793V0.705444Z" fill="#FF492C"/>
<mask id="mask0_8607_24162" style="mask-type:luminance" maskUnits="userSpaceOnUse" x="92" y="0" width="29" height="28">
<path d="M92.7793 0.705444H120.06V27.9858H92.7793V0.705444Z" fill="white"/>
</mask>
<g mask="url(#mask0_8607_24162)">
<path fill-rule="evenodd" clip-rule="evenodd" d="M112.332 11.1525H110.001C110.065 10.7875 110.29 10.5835 110.747 10.3523L111.177 10.134C111.945 9.74042 112.354 9.29744 112.354 8.57516C112.362 8.36611 112.317 8.15837 112.225 7.97062C112.133 7.78287 111.995 7.62099 111.825 7.49954C111.48 7.23972 111.057 7.11241 110.571 7.11241C110.195 7.10842 109.825 7.21355 109.508 7.4151C109.202 7.59552 108.957 7.86219 108.803 8.18155L109.479 8.85576C109.74 8.32834 110.121 8.06853 110.621 8.06853C111.043 8.06853 111.304 8.28677 111.304 8.58815C111.304 8.84147 111.177 9.05192 110.691 9.29744L110.417 9.43125C109.818 9.73393 109.402 10.0782 109.163 10.4705C108.923 10.8576 108.803 11.3565 108.803 11.954V12.1151H112.332V11.1538V11.1525ZM112.013 13.231H108.16L106.234 16.5696H110.087L112.013 19.9082L113.941 16.5696L112.013 13.231Z" fill="white"/>
<path fill-rule="evenodd" clip-rule="evenodd" d="M106.561 18.8001C105.38 18.7991 104.248 18.3297 103.412 17.4948C102.577 16.66 102.107 15.5279 102.105 14.3469C102.107 13.1662 102.578 12.0344 103.413 11.1999C104.248 10.3653 105.38 9.89606 106.561 9.89503L108.086 6.70453C106.956 6.47853 105.789 6.50621 104.67 6.78557C103.551 7.06493 102.509 7.58901 101.617 8.32004C100.725 9.05107 100.007 9.97083 99.5135 11.013C99.0202 12.0552 98.7643 13.1939 98.7642 14.3469C98.7643 15.3706 98.9661 16.3842 99.3581 17.3299C99.75 18.2756 100.324 19.1348 101.048 19.8585C101.773 20.5821 102.632 21.1561 103.578 21.5476C104.524 21.939 105.537 22.1404 106.561 22.14C108.212 22.1427 109.82 21.6194 111.153 20.6461L109.465 17.7206C108.658 18.4174 107.627 18.8006 106.561 18.8001Z" fill="white"/>
<path d="M93.4146 1.5719V27.3817" stroke="black" stroke-width="1.085"/>
</g>
<path d="M0.54541 109.203V100.759L60.3024 130.692L120.059 100.759V109.203L60.3024 138.406L0.54541 109.203Z" fill="#5746B2"/>
<path d="M0.54541 101.469V93.0248L60.3024 122.958L120.059 93.0248V101.469L60.3024 130.672L0.54541 101.469Z" fill="white"/>
<path d="M0.54541 93.7587V85.3148L60.3024 115.249L120.059 85.3148V93.7587L60.3024 122.962L0.54541 93.7587Z" fill="white"/>
<path d="M119.507 27.3817H1.3575M119.354 108.524L60.3026 137.62L1.25098 108.524V1.41077H119.354V108.524Z" stroke="black" stroke-width="1.085"/>
</g>
<defs>
<clipPath id="clip0_8607_24162">
<rect width="120.813" height="139" fill="white" transform="translate(0.5)"/>
</clipPath>
</defs>
</svg>

