<svg width="122" height="139" viewBox="0 0 122 139" fill="none" xmlns="http://www.w3.org/2000/svg">
<g clip-path="url(#clip0_8607_28030)">
<path d="M0.919434 108.962L60.6764 138.406L120.433 108.962V0.705444H0.919434V108.962Z" fill="white"/>
<path d="M0.919434 108.962L60.6764 138.406L120.433 108.962V0.705444H0.919434V108.962Z" fill="white"/>
<path d="M17.541 17.3165C17.2205 17.3165 16.9218 17.2775 16.6446 17.1996C16.3588 17.1216 16.1077 17.0134 15.8912 16.8748C15.6747 16.7276 15.4971 16.5674 15.3585 16.3941C15.2113 16.2209 15.1161 16.0347 15.0728 15.8356L16.2939 15.4718C16.3718 15.6797 16.5104 15.8572 16.7096 16.0044C16.9088 16.1517 17.1599 16.2296 17.463 16.2383C17.7835 16.2469 18.0476 16.1776 18.2555 16.0304C18.4547 15.8832 18.5542 15.697 18.5542 15.4718C18.5542 15.2726 18.4763 15.1037 18.3204 14.9652C18.1559 14.8266 17.935 14.7227 17.6579 14.6534L16.8265 14.4326C16.5234 14.3546 16.2506 14.2334 16.0081 14.0688C15.7742 13.9129 15.5924 13.7137 15.4625 13.4713C15.3239 13.2374 15.2546 12.9646 15.2546 12.6528C15.2546 12.0466 15.4538 11.5746 15.8522 11.2369C16.2506 10.9078 16.8135 10.7432 17.541 10.7432C17.948 10.7432 18.3031 10.7995 18.6062 10.9121C18.918 11.0333 19.1735 11.2022 19.3727 11.4187C19.5805 11.6352 19.7407 11.8951 19.8533 12.1982L18.6452 12.5619C18.5672 12.3541 18.433 12.1808 18.2425 12.0423C18.0433 11.8951 17.7965 11.8214 17.502 11.8214C17.1989 11.8214 16.9607 11.8907 16.7875 12.0293C16.6143 12.1679 16.5277 12.367 16.5277 12.6269C16.5277 12.8261 16.597 12.9819 16.7356 13.0945C16.8741 13.2071 17.0603 13.2937 17.2942 13.3543L18.1256 13.5622C18.6712 13.7008 19.0955 13.9432 19.3986 14.2897C19.7018 14.6361 19.8533 15.0215 19.8533 15.4458C19.8533 15.8182 19.7624 16.143 19.5805 16.4201C19.3986 16.7059 19.1388 16.9268 18.8011 17.0827C18.4547 17.2385 18.0346 17.3165 17.541 17.3165ZM21.8279 17.2126V10.8471H24.1922C24.6425 10.8471 25.0409 10.9381 25.3873 11.1199C25.7338 11.2932 26.0022 11.54 26.1928 11.8604C26.3919 12.1808 26.4915 12.5489 26.4915 12.9646C26.4915 13.3803 26.3963 13.7484 26.2057 14.0688C26.0152 14.3893 25.7597 14.6404 25.4393 14.8223C25.1102 15.0128 24.7291 15.1081 24.2961 15.1081H23.075V17.2126H21.8279ZM23.075 13.9519H24.2701C24.5473 13.9519 24.7768 13.861 24.9586 13.6791C25.1319 13.4972 25.2185 13.2591 25.2185 12.9646C25.2185 12.6788 25.1232 12.4407 24.9327 12.2501C24.7335 12.0769 24.478 11.9903 24.1662 11.9903H23.075V13.9519ZM28.2193 17.2126V10.8471H30.5836C31.0339 10.8471 31.4323 10.9337 31.7787 11.107C32.1252 11.2888 32.3936 11.5313 32.5842 11.8344C32.7833 12.1375 32.8829 12.4926 32.8829 12.8997C32.8829 13.298 32.779 13.6531 32.5712 13.9649C32.372 14.2767 32.0948 14.5192 31.7398 14.6924C31.3933 14.8656 30.995 14.9522 30.5446 14.9522H29.4664V17.2126H28.2193ZM31.7268 17.2126L30.2588 14.6534L31.2071 13.9779L33.1298 17.2126H31.7268ZM29.4664 13.822H30.5966C30.7871 13.822 30.956 13.783 31.1032 13.7051C31.2505 13.6271 31.3674 13.5189 31.454 13.3803C31.5406 13.2418 31.5839 13.0815 31.5839 12.8997C31.5839 12.6312 31.4886 12.4103 31.2981 12.2371C31.0989 12.0726 30.8434 11.9903 30.5316 11.9903H29.4664V13.822ZM35.0004 17.2126V10.8471H36.2475V17.2126H35.0004ZM38.5339 17.2126V10.8471H39.8329L42.9507 15.1211V10.8471H44.1848V17.2126H42.9507L39.781 12.8607V17.2126H38.5339ZM49.433 17.3165C48.7835 17.3165 48.2076 17.1779 47.7053 16.9008C47.203 16.615 46.8133 16.2253 46.5361 15.7316C46.2503 15.238 46.1074 14.6707 46.1074 14.0299C46.1074 13.389 46.2503 12.8217 46.5361 12.3281C46.8133 11.8344 47.203 11.4447 47.7053 11.1589C48.2076 10.8818 48.7835 10.7432 49.433 10.7432C49.8228 10.7432 50.1778 10.7995 50.4983 10.9121C50.8274 11.0247 51.1175 11.1849 51.3686 11.3927C51.6198 11.5919 51.832 11.8214 52.0052 12.0813L50.9919 12.7178C50.888 12.5532 50.7494 12.4103 50.5762 12.2891C50.4117 12.1592 50.2298 12.0596 50.0306 11.9903C49.8314 11.9124 49.6322 11.8734 49.433 11.8734C49.0347 11.8734 48.6796 11.9643 48.3678 12.1462C48.056 12.3367 47.8135 12.5922 47.6403 12.9127C47.4671 13.2331 47.3805 13.6055 47.3805 14.0299C47.3805 14.4456 47.4671 14.8179 47.6403 15.147C47.8135 15.4761 48.056 15.7316 48.3678 15.9135C48.6796 16.104 49.0433 16.1993 49.459 16.1993C49.7795 16.1993 50.0653 16.1343 50.3164 16.0044C50.5676 15.8745 50.7667 15.697 50.914 15.4718C51.0612 15.238 51.1348 14.9695 51.1348 14.6664L52.317 14.4845C52.317 15.0821 52.1914 15.5931 51.9402 16.0174C51.6977 16.4418 51.36 16.7665 50.927 16.9917C50.4939 17.2082 49.996 17.3165 49.433 17.3165ZM49.6409 14.7703V13.809H52.317V14.5755L51.6415 14.7703H49.6409ZM56.9936 17.2126V16.2902C56.9936 16.117 57.0456 15.9265 57.1495 15.7186C57.2621 15.5021 57.4136 15.2899 57.6042 15.0821C57.8033 14.8656 58.0329 14.6664 58.2927 14.4845L59.254 13.796C59.3839 13.7008 59.5095 13.5968 59.6307 13.4842C59.7519 13.3717 59.8472 13.2461 59.9165 13.1075C59.9944 12.9689 60.0334 12.839 60.0334 12.7178C60.0334 12.5532 59.9944 12.4103 59.9165 12.2891C59.8472 12.1592 59.739 12.0596 59.5917 11.9903C59.4445 11.9124 59.2626 11.8734 59.0461 11.8734C58.8643 11.8734 58.704 11.9124 58.5655 11.9903C58.4269 12.0596 58.31 12.1549 58.2147 12.2761C58.1281 12.3974 58.0632 12.5273 58.0199 12.6658L56.7468 12.445C56.8074 12.1419 56.9373 11.8604 57.1365 11.6006C57.3357 11.3408 57.5955 11.1286 57.9159 10.9641C58.245 10.8082 58.6131 10.7302 59.0201 10.7302C59.4965 10.7302 59.9035 10.8168 60.2413 10.99C60.579 11.1546 60.8432 11.3841 61.0337 11.6785C61.2156 11.973 61.3065 12.3151 61.3065 12.7048C61.3065 13.0945 61.1982 13.4453 60.9817 13.757C60.7652 14.0602 60.4708 14.346 60.0984 14.6144L59.228 15.238C59.0548 15.3592 58.9032 15.4935 58.7733 15.6407C58.6521 15.7879 58.5568 15.9481 58.4875 16.1213H61.3844V17.2126H56.9936ZM65.6454 17.3165C65.1258 17.3165 64.6711 17.1779 64.2814 16.9008C63.883 16.615 63.5755 16.2253 63.359 15.7316C63.1338 15.238 63.0213 14.6707 63.0213 14.0299C63.0213 13.389 63.1338 12.8217 63.359 12.3281C63.5755 11.8344 63.883 11.4447 64.2814 11.1589C64.6711 10.8818 65.1214 10.7432 65.6324 10.7432C66.152 10.7432 66.611 10.8818 67.0094 11.1589C67.3991 11.4447 67.7066 11.8344 67.9317 12.3281C68.1569 12.8217 68.2695 13.389 68.2695 14.0299C68.2695 14.6707 68.1569 15.238 67.9317 15.7316C67.7066 16.2253 67.3991 16.615 67.0094 16.9008C66.611 17.1779 66.1563 17.3165 65.6454 17.3165ZM65.6454 16.1993C65.9139 16.1993 66.1563 16.104 66.3729 15.9135C66.5894 15.7316 66.7582 15.4761 66.8795 15.147C67.0007 14.8266 67.0614 14.4542 67.0614 14.0299C67.0614 13.6055 67.0007 13.2288 66.8795 12.8997C66.7582 12.5706 66.5894 12.3151 66.3729 12.1332C66.1563 11.9513 65.9095 11.8604 65.6324 11.8604C65.3639 11.8604 65.1214 11.9513 64.9049 12.1332C64.6971 12.3151 64.5325 12.5706 64.4113 12.8997C64.29 13.2288 64.2294 13.6055 64.2294 14.0299C64.2294 14.4542 64.29 14.8266 64.4113 15.147C64.5325 15.4761 64.7014 15.7316 64.9179 15.9135C65.1258 16.104 65.3682 16.1993 65.6454 16.1993ZM69.9583 17.2126V16.2902C69.9583 16.117 70.0146 15.9265 70.1272 15.7186C70.2397 15.5021 70.3913 15.2899 70.5818 15.0821C70.7724 14.8656 71.0019 14.6664 71.2703 14.4845L72.2316 13.796C72.3615 13.7008 72.4871 13.5968 72.6084 13.4842C72.721 13.3717 72.8162 13.2461 72.8942 13.1075C72.9721 12.9689 73.0111 12.839 73.0111 12.7178C73.0111 12.5532 72.9721 12.4103 72.8942 12.2891C72.8162 12.1592 72.708 12.0596 72.5694 11.9903C72.4222 11.9124 72.2403 11.8734 72.0238 11.8734C71.8419 11.8734 71.6817 11.9124 71.5431 11.9903C71.3959 12.0596 71.279 12.1549 71.1924 12.2761C71.0971 12.3974 71.0322 12.5273 70.9975 12.6658L69.7244 12.445C69.7851 12.1419 69.915 11.8604 70.1142 11.6006C70.3134 11.3408 70.5732 11.1286 70.8936 10.9641C71.2227 10.8082 71.5908 10.7302 71.9978 10.7302C72.4741 10.7302 72.8812 10.8168 73.2189 10.99C73.5567 11.1546 73.8208 11.3841 74.0114 11.6785C74.1932 11.973 74.2842 12.3151 74.2842 12.7048C74.2842 13.0945 74.1759 13.4453 73.9594 13.757C73.7429 14.0602 73.4484 14.346 73.076 14.6144L72.2057 15.238C72.0324 15.3592 71.8809 15.4935 71.751 15.6407C71.6297 15.7879 71.5345 15.9481 71.4652 16.1213H74.3621V17.2126H69.9583ZM78.3372 17.3165C78.0515 17.3165 77.7527 17.2689 77.4409 17.1736C77.1378 17.0783 76.865 16.9354 76.6225 16.7449C76.3713 16.5457 76.1895 16.3032 76.0769 16.0174L77.2071 15.6797C77.3456 15.8789 77.5058 16.0217 77.6877 16.1084C77.8696 16.2036 78.0644 16.2513 78.2723 16.2513C78.5841 16.2513 78.8396 16.156 79.0387 15.9655C79.2293 15.7749 79.3245 15.5194 79.3245 15.199C79.3245 14.8959 79.2293 14.6447 79.0387 14.4456C78.8482 14.2464 78.5971 14.1468 78.2853 14.1468C78.0948 14.1468 77.9215 14.1901 77.7657 14.2767C77.6098 14.3633 77.4885 14.4629 77.4019 14.5755L76.2847 14.3286L76.6615 10.8471H80.2729V11.9773H77.7267L77.5448 13.4972C77.7094 13.4106 77.8912 13.337 78.0904 13.2764C78.2896 13.2244 78.5061 13.1984 78.74 13.1984C79.0864 13.1984 79.4025 13.2851 79.6883 13.4583C79.9741 13.6228 80.1992 13.848 80.3638 14.1338C80.5283 14.4196 80.6106 14.753 80.6106 15.1341C80.6106 15.5671 80.5154 15.9481 80.3248 16.2772C80.1256 16.6063 79.8572 16.8618 79.5194 17.0437C79.1816 17.2256 78.7876 17.3165 78.3372 17.3165Z" fill="black"/>
<path d="M10.708 60.0818V46.4417H14.1505L17.7749 51.8198L21.4253 46.4417H24.8678V60.0818H21.7371V51.3131L17.8009 57.081L13.8388 51.3131V60.0818H10.708ZM31.9088 60.3157C30.8782 60.3157 29.9731 60.0992 29.1937 59.6661C28.4143 59.2331 27.7994 58.6312 27.349 57.8604C26.9074 57.0983 26.6865 56.215 26.6865 55.2103C26.6865 54.2144 26.903 53.331 27.336 52.5602C27.7691 51.7981 28.3796 51.1962 29.1677 50.7545C29.9558 50.3215 30.8479 50.105 31.8438 50.105C32.8744 50.105 33.7837 50.3215 34.5718 50.7545C35.3513 51.1962 35.9618 51.7981 36.4035 52.5602C36.8365 53.331 37.0531 54.2144 37.0531 55.2103C37.0531 56.215 36.8365 57.0983 36.4035 57.8604C35.9618 58.6312 35.3513 59.2331 34.5718 59.6661C33.7924 60.0992 32.9047 60.3157 31.9088 60.3157ZM31.9088 57.5097C32.2985 57.5097 32.6449 57.4144 32.948 57.2239C33.2511 57.0247 33.4893 56.7519 33.6625 56.4055C33.8444 56.0677 33.9353 55.6693 33.9353 55.2103C33.9353 54.76 33.8444 54.3616 33.6625 54.0152C33.4893 53.6688 33.2468 53.4003 32.935 53.2098C32.6232 53.0106 32.2682 52.911 31.8698 52.911C31.4627 52.911 31.1033 53.0106 30.7916 53.2098C30.4798 53.4003 30.2373 53.6688 30.0641 54.0152C29.8909 54.3616 29.8043 54.76 29.8043 55.2103C29.8043 55.6693 29.8909 56.0677 30.0641 56.4055C30.2373 56.7519 30.4841 57.0247 30.8046 57.2239C31.125 57.4144 31.4931 57.5097 31.9088 57.5097ZM38.534 60.0818V50.3388H41.3919L41.5088 51.573C41.8206 51.088 42.206 50.7199 42.665 50.4688C43.1327 50.2263 43.6436 50.105 44.1979 50.105C45.0033 50.105 45.6702 50.2696 46.1985 50.5987C46.7268 50.9364 47.1121 51.4431 47.3546 52.1186C47.6578 51.469 48.0691 50.9711 48.5888 50.6246C49.1084 50.2782 49.693 50.105 50.3425 50.105C51.5117 50.105 52.3907 50.4601 52.9796 51.1702C53.5685 51.8891 53.8586 53.0019 53.85 54.5088V60.0818H50.8102V55.0934C50.8102 54.5738 50.7539 54.1624 50.6413 53.8593C50.5287 53.5562 50.3685 53.331 50.1606 53.1838C49.9528 53.0452 49.7059 52.9673 49.4202 52.95C48.8659 52.9326 48.4415 53.0929 48.1471 53.4306C47.8526 53.7597 47.7054 54.262 47.7054 54.9375V60.0818H44.6656V55.0934C44.6656 54.5738 44.6093 54.1624 44.4967 53.8593C44.3928 53.5562 44.2369 53.331 44.029 53.1838C43.8212 53.0452 43.5744 52.9673 43.2886 52.95C42.7256 52.9326 42.2969 53.0929 42.0025 53.4306C41.7167 53.7597 41.5738 54.262 41.5738 54.9375V60.0818H38.534ZM60.3713 60.3157C59.358 60.3157 58.4617 60.0992 57.6822 59.6661C56.9028 59.2331 56.2922 58.6312 55.8505 57.8604C55.4088 57.0983 55.188 56.215 55.188 55.2103C55.188 54.1971 55.4132 53.3094 55.8635 52.5473C56.3139 51.7765 56.9288 51.1789 57.7082 50.7545C58.4876 50.3215 59.3883 50.105 60.4103 50.105C61.3369 50.105 62.1683 50.3259 62.9045 50.7675C63.6493 51.2092 64.2382 51.8674 64.6712 52.7421C65.1042 53.6082 65.3207 54.6907 65.3207 55.9898H57.994L58.3317 55.626C58.3317 56.0677 58.4227 56.4574 58.6045 56.7952C58.7864 57.133 59.0376 57.3884 59.358 57.5617C59.6871 57.7349 60.0508 57.8215 60.4492 57.8215C60.9342 57.8215 61.3412 57.7132 61.6703 57.4967C61.9994 57.2888 62.2289 57.0204 62.3588 56.6913L65.0479 57.6136C64.7881 58.2198 64.4244 58.7265 63.9567 59.1335C63.4804 59.5319 62.9348 59.8307 62.3199 60.0299C61.7136 60.2204 61.0641 60.3157 60.3713 60.3157ZM58.4097 54.353L58.0979 53.9632H62.4628L62.19 54.353C62.19 53.8766 62.0904 53.4956 61.8912 53.2098C61.7007 52.924 61.4625 52.7161 61.1767 52.5862C60.8909 52.465 60.6051 52.4044 60.3193 52.4044C60.0335 52.4044 59.7434 52.465 59.4489 52.5862C59.1545 52.7161 58.9077 52.924 58.7085 53.2098C58.5093 53.4956 58.4097 53.8766 58.4097 54.353ZM66.6068 60.0818V50.3388H69.4777L69.6466 52.1316V60.0818H66.6068ZM72.8813 60.0818V55.0934H75.9211V60.0818H72.8813ZM72.8813 55.0934C72.8813 54.5738 72.825 54.1624 72.7124 53.8593C72.5912 53.5562 72.4266 53.331 72.2188 53.1838C72.0022 53.0452 71.7381 52.9673 71.4263 52.95C70.8374 52.9326 70.3957 53.0929 70.1013 53.4306C69.7982 53.7597 69.6466 54.262 69.6466 54.9375H68.7373C68.7373 53.9156 68.8931 53.0409 69.2049 52.3134C69.5167 51.5946 69.9411 51.0447 70.478 50.6636C71.015 50.2912 71.6428 50.105 72.3616 50.105C73.1411 50.105 73.795 50.2652 74.3232 50.5857C74.8602 50.9061 75.2629 51.3911 75.5314 52.0406C75.7912 52.6902 75.9211 53.5216 75.9211 54.5348V55.0934H72.8813ZM81.9617 60.3157C80.8099 60.3157 79.9525 60.0385 79.3896 59.4843C78.818 58.9387 78.5322 58.1506 78.5322 57.12V47.299H81.572V56.3665C81.572 56.7562 81.6456 57.042 81.7929 57.2239C81.9314 57.4058 82.1523 57.4967 82.4554 57.4967C82.568 57.4967 82.7022 57.4664 82.8581 57.4058C83.014 57.3451 83.1569 57.2715 83.2868 57.1849L84.339 59.4063C84.0273 59.6661 83.6549 59.8826 83.2218 60.0559C82.7888 60.2291 82.3688 60.3157 81.9617 60.3157ZM77.0123 52.898V50.3388H83.7934V52.885L77.0123 52.898ZM92.1594 60.0818L91.9775 58.2891V50.3388H95.0173V60.0818H92.1594ZM85.7031 55.3273V50.3388H88.7429V55.3273H85.7031ZM88.7429 55.3273C88.7429 55.8382 88.8035 56.2496 88.9247 56.5614C89.0373 56.8731 89.2062 57.0983 89.4314 57.2369C89.6479 57.3841 89.9077 57.4621 90.2108 57.4707C90.7911 57.4707 91.2327 57.3062 91.5359 56.9771C91.8303 56.648 91.9775 56.15 91.9775 55.4831H92.8999C92.8999 56.5137 92.744 57.3884 92.4322 58.1073C92.1204 58.8261 91.6961 59.376 91.1591 59.7571C90.6135 60.1295 89.9856 60.3157 89.2755 60.3157C88.496 60.3157 87.8378 60.1555 87.3009 59.835C86.7726 59.5232 86.3742 59.0426 86.1058 58.3931C85.8373 57.7435 85.7031 56.9121 85.7031 55.8988V55.3273H88.7429ZM97.0049 60.0818V50.3388H99.8759L99.9928 51.573C100.305 51.088 100.69 50.7199 101.149 50.4688C101.608 50.2263 102.119 50.105 102.682 50.105C103.487 50.105 104.154 50.2696 104.682 50.5987C105.202 50.9364 105.587 51.4431 105.839 52.1186C106.133 51.469 106.54 50.9711 107.06 50.6246C107.579 50.2782 108.164 50.105 108.813 50.105C109.983 50.105 110.866 50.4601 111.464 51.1702C112.052 51.8891 112.338 53.0019 112.321 54.5088V60.0818H109.281V55.0934C109.281 54.5738 109.229 54.1624 109.125 53.8593C109.013 53.5562 108.852 53.331 108.645 53.1838C108.437 53.0452 108.19 52.9673 107.904 52.95C107.341 52.9326 106.917 53.0929 106.631 53.4306C106.337 53.7597 106.189 54.262 106.189 54.9375V60.0818H103.15V55.0934C103.15 54.5738 103.093 54.1624 102.981 53.8593C102.868 53.5562 102.708 53.331 102.5 53.1838C102.292 53.0452 102.045 52.9673 101.76 52.95C101.205 52.9326 100.781 53.0929 100.486 53.4306C100.192 53.7597 100.045 54.262 100.045 54.9375V60.0818H97.0049ZM31.4021 79.5678V65.9276H34.5329V76.6839H40.3397V79.5678H31.4021ZM46.3674 79.8017C45.3541 79.8017 44.4577 79.5851 43.6783 79.1521C42.8988 78.7191 42.2883 78.1172 41.8466 77.3464C41.4049 76.5843 41.1841 75.7009 41.1841 74.6963C41.1841 73.6831 41.4049 72.7954 41.8466 72.0332C42.2969 71.2625 42.9118 70.6649 43.6913 70.2405C44.4707 69.8075 45.3757 69.591 46.4063 69.591C47.3243 69.591 48.1557 69.8118 48.9005 70.2535C49.6367 70.6952 50.2212 71.3534 50.6543 72.2281C51.096 73.0941 51.3168 74.1767 51.3168 75.4758H43.9901L44.3148 75.112C44.3148 75.5537 44.4058 75.9434 44.5876 76.2812C44.7695 76.6189 45.025 76.8744 45.3541 77.0476C45.6745 77.2208 46.0383 77.3074 46.4453 77.3074C46.9216 77.3074 47.3243 77.1992 47.6534 76.9827C47.9912 76.7748 48.225 76.5064 48.3549 76.1773L51.044 77.0996C50.7842 77.7058 50.4161 78.2125 49.9398 78.6195C49.4635 79.0179 48.9222 79.3167 48.316 79.5159C47.7011 79.7064 47.0515 79.8017 46.3674 79.8017ZM44.3928 73.8389L44.081 73.4492H48.4459L48.1731 73.8389C48.1731 73.3626 48.0778 72.9816 47.8873 72.6958C47.6881 72.41 47.4456 72.2021 47.1598 72.0722C46.874 71.951 46.5882 71.8903 46.3024 71.8903C46.0166 71.8903 45.7265 71.951 45.432 72.0722C45.1462 72.2021 44.9037 72.41 44.7046 72.6958C44.4967 72.9816 44.3928 73.3626 44.3928 73.8389ZM58.3837 79.5678L58.3058 77.4633V74.7223C58.3058 74.2027 58.2625 73.748 58.1759 73.3583C58.0806 72.9686 57.916 72.6611 57.6822 72.4359C57.4484 72.2194 57.0976 72.1112 56.63 72.1112C56.2662 72.1112 55.9501 72.1935 55.6816 72.358C55.4045 72.5312 55.1707 72.765 54.9802 73.0595L52.3301 72.1891C52.5466 71.7041 52.8454 71.2668 53.2264 70.8771C53.6161 70.4874 54.0881 70.1756 54.6424 69.9417C55.2053 69.7079 55.8549 69.591 56.591 69.591C57.6043 69.591 58.4617 69.7815 59.1631 70.1626C59.8646 70.535 60.3929 71.0589 60.748 71.7345C61.0944 72.41 61.2676 73.2111 61.2676 74.1377L61.2287 79.5678H58.3837ZM55.7336 79.8017C54.5818 79.8017 53.6854 79.5418 53.0445 79.0222C52.4123 78.5026 52.0962 77.7708 52.0962 76.8268C52.0962 75.7962 52.4253 75.0297 53.0835 74.5274C53.7504 74.0165 54.6814 73.761 55.8765 73.761H58.5396V75.7096H57.0197C56.3702 75.7096 55.9025 75.8005 55.6167 75.9824C55.3309 76.1643 55.188 76.4198 55.188 76.7488C55.188 76.9827 55.2963 77.1645 55.5128 77.2945C55.7293 77.433 56.0237 77.5023 56.3961 77.5023C56.7772 77.5023 57.1106 77.42 57.3964 77.2555C57.6822 77.0996 57.9031 76.8831 58.0589 76.606C58.2235 76.3375 58.3058 76.0387 58.3058 75.7096H59.0722C59.0722 77.0087 58.7994 78.0176 58.2538 78.7364C57.7082 79.4466 56.8681 79.8017 55.7336 79.8017ZM69.9194 79.5678L69.7895 77.7621V65.9276H72.8293V79.5678H69.9194ZM67.0225 79.8017C66.1131 79.8017 65.3294 79.5981 64.6712 79.1911C64.013 78.784 63.5064 78.1951 63.1513 77.4244C62.7962 76.6622 62.6187 75.7529 62.6187 74.6963C62.6187 73.6311 62.7962 72.7174 63.1513 71.9553C63.5064 71.2018 64.013 70.6173 64.6712 70.2016C65.3294 69.7945 66.1131 69.591 67.0225 69.591C67.8279 69.591 68.5034 69.7945 69.049 70.2016C69.6033 70.6173 70.019 71.2018 70.2961 71.9553C70.5646 72.7174 70.6988 73.6311 70.6988 74.6963C70.6988 75.7529 70.5646 76.6622 70.2961 77.4244C70.019 78.1951 69.6076 78.784 69.062 79.1911C68.5078 79.5981 67.8279 79.8017 67.0225 79.8017ZM67.8149 76.9957C68.196 76.9957 68.5337 76.9004 68.8282 76.7099C69.1313 76.5107 69.3651 76.2379 69.5297 75.8915C69.7029 75.5537 69.7895 75.1553 69.7895 74.6963C69.7895 74.246 69.7029 73.8476 69.5297 73.5012C69.3651 73.1548 69.1313 72.8863 68.8282 72.6958C68.5337 72.4966 68.1917 72.397 67.8019 72.397C67.4122 72.397 67.0658 72.4966 66.7627 72.6958C66.4682 72.8863 66.2344 73.1548 66.0612 73.5012C65.8793 73.8476 65.784 74.246 65.7754 74.6963C65.784 75.1553 65.8793 75.5537 66.0612 75.8915C66.2344 76.2379 66.4726 76.5107 66.7757 76.7099C67.0788 76.9004 67.4252 76.9957 67.8149 76.9957ZM79.4935 79.8017C78.4802 79.8017 77.5839 79.5851 76.8045 79.1521C76.025 78.7191 75.4145 78.1172 74.9728 77.3464C74.5311 76.5843 74.3102 75.7009 74.3102 74.6963C74.3102 73.6831 74.5311 72.7954 74.9728 72.0332C75.4231 71.2625 76.038 70.6649 76.8174 70.2405C77.5969 69.8075 78.5019 69.591 79.5325 69.591C80.4505 69.591 81.2819 69.8118 82.0267 70.2535C82.7628 70.6952 83.3517 71.3534 83.7934 72.2281C84.2264 73.0941 84.443 74.1767 84.443 75.4758H77.1162L77.441 75.112C77.441 75.5537 77.5319 75.9434 77.7138 76.2812C77.8957 76.6189 78.1512 76.8744 78.4802 77.0476C78.8007 77.2208 79.1644 77.3074 79.5715 77.3074C80.0478 77.3074 80.4505 77.1992 80.7796 76.9827C81.1173 76.7748 81.3512 76.5064 81.4811 76.1773L84.1702 77.0996C83.9103 77.7058 83.5423 78.2125 83.0659 78.6195C82.5896 79.0179 82.0483 79.3167 81.4421 79.5159C80.8272 79.7064 80.1777 79.8017 79.4935 79.8017ZM77.5189 73.8389L77.2072 73.4492H81.572L81.2992 73.8389C81.2992 73.3626 81.204 72.9816 81.0134 72.6958C80.8142 72.41 80.5717 72.2021 80.2859 72.0722C80.0002 71.951 79.7144 71.8903 79.4286 71.8903C79.1428 71.8903 78.8526 71.951 78.5582 72.0722C78.2724 72.2021 78.0299 72.41 77.8307 72.6958C77.6229 72.9816 77.5189 73.3626 77.5189 73.8389ZM87.9634 74.5274C87.9634 73.4709 88.1756 72.5918 88.6 71.8903C89.0243 71.1888 89.5569 70.6649 90.1978 70.3185C90.8387 69.9634 91.5099 69.7859 92.2114 69.7859V72.7477C91.6138 72.7477 91.0552 72.8127 90.5356 72.9426C90.0073 73.0725 89.5786 73.2717 89.2495 73.5402C88.9291 73.8086 88.7689 74.1507 88.7689 74.5664L87.9634 74.5274ZM85.729 79.5678V69.8248H88.7689V79.5678H85.729Z" fill="black"/>
<path d="M93.1533 0.705444H120.434V27.9858H93.1533V0.705444Z" fill="#FF492C"/>
<mask id="mask0_8607_28030" style="mask-type:luminance" maskUnits="userSpaceOnUse" x="93" y="0" width="28" height="28">
<path d="M93.1533 0.705444H120.434V27.9858H93.1533V0.705444Z" fill="white"/>
</mask>
<g mask="url(#mask0_8607_28030)">
<path fill-rule="evenodd" clip-rule="evenodd" d="M112.706 11.1525H110.375C110.439 10.7875 110.664 10.5835 111.121 10.3523L111.551 10.134C112.319 9.74042 112.728 9.29744 112.728 8.57516C112.736 8.36611 112.691 8.15837 112.599 7.97062C112.507 7.78287 112.369 7.62099 112.199 7.49954C111.854 7.23972 111.431 7.11241 110.945 7.11241C110.569 7.10842 110.2 7.21355 109.882 7.4151C109.576 7.59552 109.331 7.86219 109.177 8.18155L109.853 8.85576C110.114 8.32834 110.495 8.06853 110.995 8.06853C111.417 8.06853 111.678 8.28677 111.678 8.58815C111.678 8.84147 111.551 9.05192 111.065 9.29744L110.791 9.43125C110.192 9.73393 109.776 10.0782 109.537 10.4705C109.297 10.8576 109.177 11.3565 109.177 11.954V12.1151H112.706V11.1538V11.1525ZM112.387 13.231H108.534L106.608 16.5696H110.461L112.387 19.9082L114.315 16.5696L112.387 13.231Z" fill="white"/>
<path fill-rule="evenodd" clip-rule="evenodd" d="M106.935 18.8001C105.754 18.7991 104.622 18.3297 103.787 17.4948C102.951 16.66 102.481 15.5279 102.479 14.3469C102.481 13.1662 102.952 12.0344 103.787 11.1999C104.622 10.3653 105.754 9.89606 106.935 9.89503L108.46 6.70453C107.33 6.47853 106.163 6.50621 105.044 6.78557C103.925 7.06493 102.883 7.58901 101.991 8.32004C101.099 9.05107 100.381 9.97083 99.8876 11.013C99.3942 12.0552 99.1383 13.1939 99.1382 14.3469C99.1384 15.3706 99.3402 16.3842 99.7321 17.3299C100.124 18.2756 100.698 19.1348 101.422 19.8585C102.147 20.5821 103.006 21.1561 103.952 21.5476C104.898 21.939 105.911 22.1404 106.935 22.14C108.586 22.1427 110.194 21.6194 111.527 20.6461L109.839 17.7206C109.032 18.4174 108.001 18.8006 106.935 18.8001Z" fill="white"/>
<path d="M93.7886 1.5719V27.3817" stroke="black" stroke-width="1.085"/>
</g>
<path d="M0.919434 109.203V100.759L60.6764 130.692L120.433 100.759V109.203L60.6764 138.406L0.919434 109.203Z" fill="#FF492C"/>
<path d="M0.919434 101.469V93.0248L60.6764 122.958L120.433 93.0248V101.469L60.6764 130.672L0.919434 101.469Z" fill="#FFC800"/>
<path d="M0.919434 93.7587V85.3148L60.6764 115.249L120.433 85.3148V93.7587L60.6764 122.962L0.919434 93.7587Z" fill="white"/>
<path d="M119.882 27.3817H1.73152M119.728 108.524L60.6766 137.62L1.625 108.524V1.41077H119.728V108.524Z" stroke="black" stroke-width="1.085"/>
</g>
<defs>
<clipPath id="clip0_8607_28030">
<rect width="120.813" height="139" fill="white" transform="translate(0.874023)"/>
</clipPath>
</defs>
</svg>
