<svg width="121" height="139" viewBox="0 0 121 139" fill="none" xmlns="http://www.w3.org/2000/svg">
<g clip-path="url(#clip0_8607_27546)">
<path d="M0.171875 108.962L59.9289 138.406L119.686 108.962V0.705444H0.171875V108.962Z" fill="white"/>
<path d="M0.171875 108.962L59.9289 138.406L119.686 108.962V0.705444H0.171875V108.962Z" fill="white"/>
<path d="M16.7934 17.3165C16.473 17.3165 16.1742 17.2775 15.8971 17.1996C15.6113 17.1216 15.3601 17.0134 15.1436 16.8748C14.9271 16.7276 14.7496 16.5674 14.611 16.3941C14.4638 16.2209 14.3685 16.0347 14.3252 15.8356L15.5463 15.4718C15.6243 15.6797 15.7628 15.8572 15.962 16.0044C16.1612 16.1517 16.4124 16.2296 16.7155 16.2383C17.0359 16.2469 17.3001 16.1776 17.5079 16.0304C17.7071 15.8832 17.8067 15.697 17.8067 15.4718C17.8067 15.2726 17.7287 15.1037 17.5729 14.9652C17.4083 14.8266 17.1875 14.7227 16.9103 14.6534L16.0789 14.4326C15.7758 14.3546 15.503 14.2334 15.2605 14.0688C15.0267 13.9129 14.8448 13.7137 14.7149 13.4713C14.5763 13.2374 14.5071 12.9646 14.5071 12.6528C14.5071 12.0466 14.7063 11.5746 15.1046 11.2369C15.503 10.9078 16.0659 10.7432 16.7934 10.7432C17.2005 10.7432 17.5555 10.7995 17.8587 10.9121C18.1704 11.0333 18.4259 11.2022 18.6251 11.4187C18.833 11.6352 18.9932 11.8951 19.1058 12.1982L17.8976 12.5619C17.8197 12.3541 17.6854 12.1808 17.4949 12.0423C17.2957 11.8951 17.0489 11.8214 16.7544 11.8214C16.4513 11.8214 16.2132 11.8907 16.04 12.0293C15.8668 12.1679 15.7801 12.367 15.7801 12.6269C15.7801 12.8261 15.8494 12.9819 15.988 13.0945C16.1266 13.2071 16.3128 13.2937 16.5466 13.3543L17.378 13.5622C17.9236 13.7008 18.348 13.9432 18.6511 14.2897C18.9542 14.6361 19.1058 15.0215 19.1058 15.4458C19.1058 15.8182 19.0148 16.143 18.833 16.4201C18.6511 16.7059 18.3913 16.9268 18.0535 17.0827C17.7071 17.2385 17.2871 17.3165 16.7934 17.3165ZM21.0803 17.2126V10.8471H23.4446C23.895 10.8471 24.2934 10.9381 24.6398 11.1199C24.9862 11.2932 25.2547 11.54 25.4452 11.8604C25.6444 12.1808 25.744 12.5489 25.744 12.9646C25.744 13.3803 25.6487 13.7484 25.4582 14.0688C25.2677 14.3893 25.0122 14.6404 24.6917 14.8223C24.3626 15.0128 23.9816 15.1081 23.5486 15.1081H22.3274V17.2126H21.0803ZM22.3274 13.9519H23.5226C23.7997 13.9519 24.0292 13.861 24.2111 13.6791C24.3843 13.4972 24.4709 13.2591 24.4709 12.9646C24.4709 12.6788 24.3756 12.4407 24.1851 12.2501C23.9859 12.0769 23.7304 11.9903 23.4187 11.9903H22.3274V13.9519ZM27.4717 17.2126V10.8471H29.836C30.2864 10.8471 30.6848 10.9337 31.0312 11.107C31.3776 11.2888 31.6461 11.5313 31.8366 11.8344C32.0358 12.1375 32.1354 12.4926 32.1354 12.8997C32.1354 13.298 32.0315 13.6531 31.8236 13.9649C31.6244 14.2767 31.3473 14.5192 30.9922 14.6924C30.6458 14.8656 30.2474 14.9522 29.7971 14.9522H28.7188V17.2126H27.4717ZM30.9792 17.2126L29.5113 14.6534L30.4596 13.9779L32.3822 17.2126H30.9792ZM28.7188 13.822H29.849C30.0396 13.822 30.2084 13.783 30.3557 13.7051C30.5029 13.6271 30.6198 13.5189 30.7064 13.3803C30.793 13.2418 30.8363 13.0815 30.8363 12.8997C30.8363 12.6312 30.7411 12.4103 30.5505 12.2371C30.3513 12.0726 30.0958 11.9903 29.7841 11.9903H28.7188V13.822ZM34.2529 17.2126V10.8471H35.5V17.2126H34.2529ZM37.7863 17.2126V10.8471H39.0854L42.2031 15.1211V10.8471H43.4373V17.2126H42.2031L39.0334 12.8607V17.2126H37.7863ZM48.6855 17.3165C48.0359 17.3165 47.46 17.1779 46.9577 16.9008C46.4554 16.615 46.0657 16.2253 45.7886 15.7316C45.5028 15.238 45.3599 14.6707 45.3599 14.0299C45.3599 13.389 45.5028 12.8217 45.7886 12.3281C46.0657 11.8344 46.4554 11.4447 46.9577 11.1589C47.46 10.8818 48.0359 10.7432 48.6855 10.7432C49.0752 10.7432 49.4303 10.7995 49.7507 10.9121C50.0798 11.0247 50.3699 11.1849 50.6211 11.3927C50.8722 11.5919 51.0844 11.8214 51.2576 12.0813L50.2444 12.7178C50.1404 12.5532 50.0019 12.4103 49.8286 12.2891C49.6641 12.1592 49.4822 12.0596 49.283 11.9903C49.0839 11.9124 48.8847 11.8734 48.6855 11.8734C48.2871 11.8734 47.932 11.9643 47.6202 12.1462C47.3085 12.3367 47.066 12.5922 46.8928 12.9127C46.7196 13.2331 46.6329 13.6055 46.6329 14.0299C46.6329 14.4456 46.7196 14.8179 46.8928 15.147C47.066 15.4761 47.3085 15.7316 47.6202 15.9135C47.932 16.104 48.2958 16.1993 48.7115 16.1993C49.0319 16.1993 49.3177 16.1343 49.5688 16.0044C49.82 15.8745 50.0192 15.697 50.1664 15.4718C50.3136 15.238 50.3872 14.9695 50.3872 14.6664L51.5694 14.4845C51.5694 15.0821 51.4438 15.5931 51.1927 16.0174C50.9502 16.4418 50.6124 16.7665 50.1794 16.9917C49.7464 17.2082 49.2484 17.3165 48.6855 17.3165ZM48.8933 14.7703V13.809H51.5694V14.5755L50.8939 14.7703H48.8933ZM56.246 17.2126V16.2902C56.246 16.117 56.298 15.9265 56.4019 15.7186C56.5145 15.5021 56.6661 15.2899 56.8566 15.0821C57.0558 14.8656 57.2853 14.6664 57.5451 14.4845L58.5064 13.796C58.6363 13.7008 58.7619 13.5968 58.8831 13.4842C59.0044 13.3717 59.0996 13.2461 59.1689 13.1075C59.2469 12.9689 59.2858 12.839 59.2858 12.7178C59.2858 12.5532 59.2469 12.4103 59.1689 12.2891C59.0996 12.1592 58.9914 12.0596 58.8442 11.9903C58.6969 11.9124 58.5151 11.8734 58.2986 11.8734C58.1167 11.8734 57.9565 11.9124 57.8179 11.9903C57.6793 12.0596 57.5624 12.1549 57.4672 12.2761C57.3806 12.3974 57.3156 12.5273 57.2723 12.6658L55.9992 12.445C56.0598 12.1419 56.1897 11.8604 56.3889 11.6006C56.5881 11.3408 56.8479 11.1286 57.1684 10.9641C57.4975 10.8082 57.8655 10.7302 58.2726 10.7302C58.7489 10.7302 59.1559 10.8168 59.4937 10.99C59.8315 11.1546 60.0956 11.3841 60.2861 11.6785C60.468 11.973 60.5589 12.3151 60.5589 12.7048C60.5589 13.0945 60.4507 13.4453 60.2342 13.757C60.0177 14.0602 59.7232 14.346 59.3508 14.6144L58.4804 15.238C58.3072 15.3592 58.1557 15.4935 58.0258 15.6407C57.9045 15.7879 57.8092 15.9481 57.74 16.1213H60.6369V17.2126H56.246ZM64.8978 17.3165C64.3782 17.3165 63.9235 17.1779 63.5338 16.9008C63.1354 16.615 62.828 16.2253 62.6115 15.7316C62.3863 15.238 62.2737 14.6707 62.2737 14.0299C62.2737 13.389 62.3863 12.8217 62.6115 12.3281C62.828 11.8344 63.1354 11.4447 63.5338 11.1589C63.9235 10.8818 64.3739 10.7432 64.8848 10.7432C65.4044 10.7432 65.8634 10.8818 66.2618 11.1589C66.6515 11.4447 66.959 11.8344 67.1842 12.3281C67.4093 12.8217 67.5219 13.389 67.5219 14.0299C67.5219 14.6707 67.4093 15.238 67.1842 15.7316C66.959 16.2253 66.6515 16.615 66.2618 16.9008C65.8634 17.1779 65.4088 17.3165 64.8978 17.3165ZM64.8978 16.1993C65.1663 16.1993 65.4088 16.104 65.6253 15.9135C65.8418 15.7316 66.0107 15.4761 66.1319 15.147C66.2532 14.8266 66.3138 14.4542 66.3138 14.0299C66.3138 13.6055 66.2532 13.2288 66.1319 12.8997C66.0107 12.5706 65.8418 12.3151 65.6253 12.1332C65.4088 11.9513 65.1619 11.8604 64.8848 11.8604C64.6163 11.8604 64.3739 11.9513 64.1573 12.1332C63.9495 12.3151 63.7849 12.5706 63.6637 12.8997C63.5424 13.2288 63.4818 13.6055 63.4818 14.0299C63.4818 14.4542 63.5424 14.8266 63.6637 15.147C63.7849 15.4761 63.9538 15.7316 64.1703 15.9135C64.3782 16.104 64.6207 16.1993 64.8978 16.1993ZM69.2107 17.2126V16.2902C69.2107 16.117 69.267 15.9265 69.3796 15.7186C69.4922 15.5021 69.6437 15.2899 69.8343 15.0821C70.0248 14.8656 70.2543 14.6664 70.5228 14.4845L71.4841 13.796C71.614 13.7008 71.7396 13.5968 71.8608 13.4842C71.9734 13.3717 72.0686 13.2461 72.1466 13.1075C72.2245 12.9689 72.2635 12.839 72.2635 12.7178C72.2635 12.5532 72.2245 12.4103 72.1466 12.2891C72.0686 12.1592 71.9604 12.0596 71.8218 11.9903C71.6746 11.9124 71.4927 11.8734 71.2762 11.8734C71.0944 11.8734 70.9341 11.9124 70.7956 11.9903C70.6483 12.0596 70.5314 12.1549 70.4448 12.2761C70.3496 12.3974 70.2846 12.5273 70.25 12.6658L68.9769 12.445C69.0375 12.1419 69.1674 11.8604 69.3666 11.6006C69.5658 11.3408 69.8256 11.1286 70.146 10.9641C70.4751 10.8082 70.8432 10.7302 71.2502 10.7302C71.7266 10.7302 72.1336 10.8168 72.4714 10.99C72.8091 11.1546 73.0733 11.3841 73.2638 11.6785C73.4457 11.973 73.5366 12.3151 73.5366 12.7048C73.5366 13.0945 73.4283 13.4453 73.2118 13.757C72.9953 14.0602 72.7009 14.346 72.3285 14.6144L71.4581 15.238C71.2849 15.3592 71.1333 15.4935 71.0034 15.6407C70.8822 15.7879 70.7869 15.9481 70.7176 16.1213H73.6145V17.2126H69.2107ZM77.5897 17.3165C77.3039 17.3165 77.0051 17.2689 76.6933 17.1736C76.3902 17.0783 76.1174 16.9354 75.8749 16.7449C75.6238 16.5457 75.4419 16.3032 75.3293 16.0174L76.4595 15.6797C76.5981 15.8789 76.7583 16.0217 76.9401 16.1084C77.122 16.2036 77.3169 16.2513 77.5247 16.2513C77.8365 16.2513 78.092 16.156 78.2912 15.9655C78.4817 15.7749 78.577 15.5194 78.577 15.199C78.577 14.8959 78.4817 14.6447 78.2912 14.4456C78.1006 14.2464 77.8495 14.1468 77.5377 14.1468C77.3472 14.1468 77.174 14.1901 77.0181 14.2767C76.8622 14.3633 76.741 14.4629 76.6544 14.5755L75.5372 14.3286L75.9139 10.8471H79.5253V11.9773H76.9791L76.7972 13.4972C76.9618 13.4106 77.1437 13.337 77.3429 13.2764C77.542 13.2244 77.7586 13.1984 77.9924 13.1984C78.3388 13.1984 78.6549 13.2851 78.9407 13.4583C79.2265 13.6228 79.4517 13.848 79.6162 14.1338C79.7808 14.4196 79.863 14.753 79.863 15.1341C79.863 15.5671 79.7678 15.9481 79.5772 16.2772C79.3781 16.6063 79.1096 16.8618 78.7718 17.0437C78.4341 17.2256 78.04 17.3165 77.5897 17.3165Z" fill="black"/>
<path d="M40.4755 59.7571V45.2075H45.5679C46.5638 45.2075 47.4428 45.3591 48.205 45.6622C48.9671 45.9653 49.5646 46.4286 49.9977 47.0522C50.422 47.6757 50.6342 48.4682 50.6342 49.4295C50.6342 49.9404 50.5 50.4211 50.2315 50.8714C49.963 51.3218 49.595 51.7288 49.1273 52.0926C49.7855 52.439 50.2921 52.8893 50.6472 53.4436C51.0023 54.0065 51.1798 54.6994 51.1798 55.5221C51.1798 56.4314 50.972 57.2022 50.5563 57.8344C50.1406 58.4667 49.5646 58.943 48.8285 59.2634C48.0924 59.5925 47.235 59.7571 46.2564 59.7571H40.4755ZM43.7362 56.8082H45.8796C46.4512 56.8082 46.9016 56.6566 47.2307 56.3535C47.5597 56.059 47.7243 55.678 47.7243 55.2103C47.7243 54.708 47.5511 54.314 47.2047 54.0282C46.8583 53.7424 46.3819 53.5995 45.7757 53.5995H43.7362V56.8082ZM43.7362 50.9234H45.4639C45.9922 50.9234 46.4166 50.7892 46.737 50.5207C47.0488 50.2522 47.2047 49.8755 47.2047 49.3905C47.2047 48.8882 47.0358 48.5028 46.698 48.2343C46.3603 47.9659 45.9056 47.8316 45.334 47.8316H43.7362V50.9234ZM57.857 60.0039C56.7745 60.0039 55.8175 59.7744 54.9861 59.3154C54.1547 58.8477 53.5008 58.2068 53.0245 57.3928C52.5568 56.57 52.323 55.626 52.323 54.5608C52.323 53.4782 52.5612 52.5299 53.0375 51.7158C53.5138 50.8931 54.1677 50.2566 54.9991 49.8062C55.8305 49.3472 56.7961 49.1177 57.896 49.1177C58.8746 49.1177 59.7623 49.3515 60.5591 49.8192C61.3472 50.2955 61.9707 50.997 62.4297 51.9237C62.8974 52.8504 63.1312 54.0065 63.1312 55.3922H55.3108L55.6746 55.0025C55.6746 55.4701 55.7698 55.8858 55.9604 56.2496C56.1509 56.6047 56.4194 56.8775 56.7658 57.068C57.1122 57.2499 57.5019 57.3408 57.935 57.3408C58.4459 57.3408 58.8789 57.2282 59.234 57.003C59.5891 56.7779 59.8359 56.4921 59.9745 56.1457L62.8454 57.12C62.5683 57.7695 62.1742 58.3108 61.6633 58.7438C61.161 59.1681 60.585 59.4843 59.9355 59.6921C59.2773 59.9 58.5845 60.0039 57.857 60.0039ZM55.7525 53.6514L55.4148 53.2357H60.0784L59.7796 53.6514C59.7796 53.1318 59.6757 52.7204 59.4678 52.4173C59.26 52.1142 59.0045 51.8977 58.7014 51.7678C58.3983 51.6379 58.0952 51.5729 57.7921 51.5729C57.4889 51.5729 57.1815 51.6379 56.8697 51.7678C56.5579 51.8977 56.2938 52.1142 56.0773 52.4173C55.8608 52.7204 55.7525 53.1318 55.7525 53.6514ZM68.4054 60.0039C67.7299 60.0039 67.0977 59.9043 66.5088 59.7051C65.9199 59.5059 65.4089 59.2201 64.9759 58.8477C64.5515 58.484 64.2354 58.038 64.0276 57.5097L66.6907 56.3925C66.8639 56.7476 67.1107 57.0117 67.4311 57.1849C67.7516 57.3581 68.0763 57.4447 68.4054 57.4447C68.7518 57.4447 69.0246 57.3884 69.2238 57.2758C69.4144 57.1546 69.5096 56.99 69.5096 56.7822C69.5096 56.5657 69.41 56.3925 69.2108 56.2626C69.0117 56.1413 68.7259 56.0331 68.3535 55.9378L67.4571 55.704C66.4871 55.4528 65.7423 55.0414 65.2227 54.4699C64.7031 53.8896 64.4433 53.2184 64.4433 52.4563C64.4433 51.3911 64.8113 50.5683 65.5475 49.9881C66.275 49.4078 67.2926 49.1177 68.6003 49.1177C69.3364 49.1177 69.9816 49.213 70.5359 49.4035C71.0988 49.6027 71.5708 49.8755 71.9519 50.2219C72.3329 50.577 72.6057 50.9927 72.7703 51.469L70.1981 52.5213C70.1029 52.2441 69.9037 52.0319 69.6006 51.8847C69.3061 51.7461 68.977 51.6769 68.6133 51.6769C68.3102 51.6769 68.0763 51.7418 67.9118 51.8717C67.7472 52.0016 67.665 52.1792 67.665 52.4043C67.665 52.5689 67.7645 52.7075 67.9637 52.82C68.1629 52.9413 68.4574 53.0495 68.8471 53.1448L69.9513 53.4176C70.6008 53.5822 71.1464 53.8333 71.5881 54.1711C72.0298 54.5175 72.3632 54.9159 72.5884 55.3662C72.8136 55.8166 72.9262 56.2972 72.9262 56.8082C72.9262 57.4577 72.7356 58.0206 72.3546 58.497C71.9735 58.9733 71.4409 59.3457 70.7567 59.6142C70.0812 59.874 69.2974 60.0039 68.4054 60.0039ZM78.9278 60.0039C77.6981 60.0039 76.7801 59.7094 76.1738 59.1205C75.5676 58.5316 75.2645 57.6915 75.2645 56.6003V46.1169H78.5121V55.7819C78.5121 56.1976 78.5901 56.5051 78.746 56.7043C78.8932 56.8948 79.127 56.99 79.4475 56.99C79.5687 56.99 79.716 56.9597 79.8892 56.8991C80.0537 56.8385 80.2053 56.7605 80.3438 56.6653L81.461 59.0296C81.1319 59.3067 80.7335 59.5405 80.2659 59.7311C79.8069 59.9129 79.3609 60.0039 78.9278 60.0039ZM73.6536 52.0926V49.3645H80.8764V52.0926H73.6536ZM26.4326 80.5421V65.9926H32.1485C33.2051 65.9926 34.1404 66.1961 34.9545 66.6031C35.7772 67.0102 36.4181 67.5774 36.8771 68.3049C37.3448 69.0324 37.5786 69.8681 37.5786 70.8121C37.5786 71.7561 37.3404 72.5962 36.8641 73.3323C36.3964 74.0684 35.7512 74.64 34.9285 75.0471C34.1058 75.4541 33.1574 75.6576 32.0836 75.6576H29.7842V80.5421H26.4326ZM34.3309 80.5421L31.0443 74.7613L33.5645 72.9166L38.1632 80.5421H34.3309ZM29.7842 72.5788H32.0446C32.4343 72.5788 32.7807 72.5052 33.0838 72.358C33.3869 72.2021 33.6251 71.9899 33.7983 71.7214C33.9715 71.453 34.0581 71.1499 34.0581 70.8121C34.0581 70.3011 33.8676 69.8811 33.4865 69.552C33.1055 69.2143 32.6032 69.0454 31.9796 69.0454H29.7842V72.5788ZM44.6585 80.7889C43.5846 80.7889 42.632 80.5594 41.8006 80.1004C40.9692 79.6328 40.3153 78.9919 39.839 78.1778C39.3713 77.3551 39.1375 76.4111 39.1375 75.3458C39.1375 74.2633 39.3756 73.315 39.852 72.5009C40.3283 71.6781 40.9821 71.0416 41.8136 70.5913C42.645 70.1323 43.6106 69.9028 44.7105 69.9028C45.6891 69.9028 46.5725 70.1366 47.3606 70.6042C48.1573 71.0806 48.7852 71.7821 49.2442 72.7087C49.7119 73.6354 49.9457 74.7916 49.9457 76.1772H42.1253L42.4761 75.7875C42.4761 76.2552 42.5757 76.6709 42.7749 77.0346C42.9654 77.3897 43.2339 77.6625 43.5803 77.853C43.9267 78.0349 44.3164 78.1258 44.7494 78.1258C45.2604 78.1258 45.6934 78.0133 46.0485 77.7881C46.4036 77.5629 46.6504 77.2771 46.789 76.9307L49.6469 77.905C49.3698 78.5545 48.9801 79.0958 48.4778 79.5288C47.9755 79.9532 47.3952 80.2693 46.737 80.4772C46.0875 80.685 45.3946 80.7889 44.6585 80.7889ZM42.567 74.4365L42.2293 74.0208H46.8929L46.5941 74.4365C46.5941 73.9169 46.4902 73.5055 46.2823 73.2024C46.0745 72.8993 45.819 72.6828 45.5159 72.5528C45.2128 72.4229 44.9097 72.358 44.6065 72.358C44.2948 72.358 43.983 72.4229 43.6712 72.5528C43.3594 72.6828 43.0996 72.8993 42.8918 73.2024C42.6753 73.5055 42.567 73.9169 42.567 74.4365ZM55.2199 80.7889C54.5444 80.7889 53.9122 80.6893 53.3233 80.4901C52.7344 80.291 52.2234 80.0052 51.7904 79.6328C51.366 79.269 51.0499 78.823 50.8421 78.2947L53.4922 77.1775C53.674 77.5326 53.9252 77.7967 54.2456 77.97C54.566 78.1432 54.8908 78.2298 55.2199 78.2298C55.5663 78.2298 55.8391 78.1735 56.0383 78.0609C56.2288 77.9396 56.3241 77.7751 56.3241 77.5672C56.3241 77.3507 56.2245 77.1775 56.0253 77.0476C55.8261 76.9264 55.536 76.8181 55.155 76.7229L54.2716 76.489C53.3016 76.2379 52.5568 75.8265 52.0372 75.2549C51.5176 74.6747 51.2578 74.0035 51.2578 73.2414C51.2578 72.1761 51.6215 71.3534 52.349 70.7731C53.0851 70.1929 54.107 69.9028 55.4148 69.9028C56.1422 69.9028 56.7874 69.998 57.3504 70.1886C57.9133 70.3877 58.3853 70.6605 58.7664 71.007C59.1474 71.362 59.4202 71.7777 59.5848 72.2541L57.0126 73.3063C56.9174 73.0292 56.7182 72.817 56.415 72.6698C56.1206 72.5312 55.7915 72.4619 55.4278 72.4619C55.1246 72.4619 54.8908 72.5269 54.7263 72.6568C54.5617 72.7867 54.4794 72.9642 54.4794 73.1894C54.4794 73.3539 54.579 73.4925 54.7782 73.6051C54.9774 73.7263 55.2719 73.8346 55.6616 73.9299L56.7658 74.2027C57.4153 74.3672 57.9609 74.6184 58.4026 74.9561C58.8443 75.3025 59.1777 75.7009 59.4029 76.1513C59.6194 76.6016 59.7277 77.0823 59.7277 77.5932C59.7277 78.2428 59.5371 78.8057 59.1561 79.282C58.775 79.7583 58.2467 80.1307 57.5712 80.3992C56.8957 80.659 56.1119 80.7889 55.2199 80.7889ZM68.0027 80.5421L67.8208 78.6325V70.1496H71.0555V80.5421H68.0027ZM61.1307 75.4757V70.1496H64.3653V75.4757H61.1307ZM64.3653 75.4757C64.3653 76.0127 64.4303 76.4457 64.5602 76.7748C64.6814 77.1126 64.859 77.3551 65.0928 77.5023C65.3266 77.6582 65.6038 77.7448 65.9242 77.7621C66.5478 77.7621 67.0198 77.5846 67.3402 77.2295C67.6606 76.8744 67.8208 76.3418 67.8208 75.6316H68.7951C68.7951 76.7315 68.6306 77.6668 68.3015 78.4376C67.9637 79.1997 67.5091 79.7843 66.9375 80.1914C66.3572 80.5897 65.686 80.7889 64.9239 80.7889C64.0925 80.7889 63.3954 80.62 62.8324 80.2823C62.2608 79.9445 61.8321 79.4292 61.5464 78.7364C61.2692 78.0436 61.1307 77.1559 61.1307 76.0733V75.4757H64.3653ZM73.186 80.5421V65.9926H76.4207V80.5421H73.186ZM83.0069 80.7889C81.7771 80.7889 80.8591 80.4945 80.2529 79.9056C79.6553 79.3167 79.3565 78.4766 79.3565 77.3854V66.9019H82.5912V76.567C82.5912 76.9827 82.6692 77.2901 82.825 77.4893C82.9809 77.6798 83.2148 77.7751 83.5265 77.7751C83.6564 77.7751 83.8037 77.7448 83.9682 77.6842C84.1328 77.6235 84.2843 77.5456 84.4229 77.4503L85.5531 79.8146C85.2153 80.0918 84.8169 80.3256 84.3579 80.5161C83.8903 80.698 83.4399 80.7889 83.0069 80.7889ZM77.7327 72.8776V70.1496H84.9685V72.8776H77.7327ZM91.0611 80.7889C90.3769 80.7889 89.7404 80.6893 89.1515 80.4901C88.5626 80.291 88.0559 80.0052 87.6316 79.6328C87.1986 79.269 86.8781 78.823 86.6703 78.2947L89.3334 77.1775C89.5152 77.5326 89.7621 77.7967 90.0738 77.97C90.3943 78.1432 90.7234 78.2298 91.0611 78.2298C91.4075 78.2298 91.676 78.1735 91.8665 78.0609C92.0571 77.9396 92.1523 77.7751 92.1523 77.5672C92.1523 77.3507 92.0527 77.1775 91.8535 77.0476C91.6544 76.9264 91.3686 76.8181 90.9962 76.7229L90.0998 76.489C89.1298 76.2379 88.385 75.8265 87.8654 75.2549C87.3458 74.6747 87.086 74.0035 87.086 73.2414C87.086 72.1761 87.454 71.3534 88.1902 70.7731C88.9263 70.1929 89.9439 69.9028 91.243 69.9028C91.9791 69.9028 92.6287 69.998 93.1916 70.1886C93.7458 70.3877 94.2135 70.6605 94.5946 71.007C94.9756 71.362 95.2528 71.7777 95.426 72.2541L92.8408 73.3063C92.7456 73.0292 92.5507 72.817 92.2563 72.6698C91.9531 72.5312 91.6241 72.4619 91.269 72.4619C90.9572 72.4619 90.719 72.5269 90.5545 72.6568C90.3899 72.7867 90.3077 72.9642 90.3077 73.1894C90.3077 73.3539 90.4073 73.4925 90.6064 73.6051C90.8056 73.7263 91.1001 73.8346 91.4898 73.9299L92.594 74.2027C93.2435 74.3672 93.7892 74.6184 94.2308 74.9561C94.6812 75.3025 95.0146 75.7009 95.2311 76.1513C95.4563 76.6016 95.5689 77.0823 95.5689 77.5932C95.5689 78.2428 95.3783 78.8057 94.9973 79.282C94.6162 79.7583 94.0836 80.1307 93.3994 80.3992C92.7239 80.659 91.9445 80.7889 91.0611 80.7889Z" fill="black"/>
<path d="M92.4058 0.705444H119.686V27.9858H92.4058V0.705444Z" fill="#FF492C"/>
<mask id="mask0_8607_27546" style="mask-type:luminance" maskUnits="userSpaceOnUse" x="92" y="0" width="28" height="28">
<path d="M92.4058 0.705444H119.686V27.9858H92.4058V0.705444Z" fill="white"/>
</mask>
<g mask="url(#mask0_8607_27546)">
<path fill-rule="evenodd" clip-rule="evenodd" d="M111.958 11.1525H109.628C109.691 10.7875 109.916 10.5835 110.373 10.3523L110.803 10.134C111.571 9.74042 111.98 9.29744 111.98 8.57516C111.988 8.36611 111.944 8.15837 111.852 7.97062C111.759 7.78287 111.622 7.62099 111.452 7.49954C111.106 7.23972 110.684 7.11241 110.198 7.11241C109.821 7.10842 109.452 7.21355 109.134 7.4151C108.829 7.59552 108.584 7.86219 108.43 8.18155L109.105 8.85576C109.367 8.32834 109.747 8.06853 110.247 8.06853C110.669 8.06853 110.931 8.28677 110.931 8.58815C110.931 8.84147 110.803 9.05192 110.317 9.29744L110.043 9.43125C109.444 9.73393 109.029 10.0782 108.79 10.4705C108.549 10.8576 108.43 11.3565 108.43 11.954V12.1151H111.958V11.1538V11.1525ZM111.64 13.231H107.787L105.86 16.5696H109.713L111.64 19.9082L113.568 16.5696L111.64 13.231Z" fill="white"/>
<path fill-rule="evenodd" clip-rule="evenodd" d="M106.188 18.8001C105.007 18.7991 103.874 18.3297 103.039 17.4948C102.204 16.66 101.734 15.5279 101.732 14.3469C101.734 13.1662 102.204 12.0344 103.039 11.1999C103.875 10.3653 105.007 9.89606 106.188 9.89503L107.713 6.70453C106.582 6.47853 105.415 6.50621 104.297 6.78557C103.178 7.06493 102.135 7.58901 101.243 8.32004C100.352 9.05107 99.6333 9.97083 99.14 11.013C98.6467 12.0552 98.3907 13.1939 98.3906 14.3469C98.3908 15.3706 98.5926 16.3842 98.9846 17.3299C99.3765 18.2756 99.9509 19.1348 100.675 19.8585C101.399 20.5821 102.258 21.1561 103.204 21.5476C104.15 21.939 105.164 22.1404 106.188 22.14C107.838 22.1427 109.447 21.6194 110.78 20.6461L109.091 17.7206C108.284 18.4174 107.254 18.8006 106.188 18.8001Z" fill="white"/>
<path d="M93.041 1.5719V27.3817" stroke="black" stroke-width="1.085"/>
</g>
<path d="M0.171875 109.203V100.759L59.9289 130.692L119.686 100.759V109.203L59.9289 138.406L0.171875 109.203Z" fill="#5746B2"/>
<path d="M0.171875 101.469V93.0248L59.9289 122.958L119.686 93.0248V101.469L59.9289 130.672L0.171875 101.469Z" fill="white"/>
<path d="M0.171875 93.7587V85.3148L59.9289 115.249L119.686 85.3148V93.7587L59.9289 122.962L0.171875 93.7587Z" fill="white"/>
<path d="M119.134 27.3817H0.983965M118.981 108.524L59.9291 137.62L0.877441 108.524V1.41077H118.981V108.524Z" stroke="black" stroke-width="1.085"/>
</g>
<defs>
<clipPath id="clip0_8607_27546">
<rect width="120.813" height="139" fill="white" transform="translate(0.126465)"/>
</clipPath>
</defs>
</svg>
