<svg width="121" height="140" viewBox="0 0 121 140" fill="none" xmlns="http://www.w3.org/2000/svg">
<g clip-path="url(#clip0_7558_153683)">
<path d="M-0.0539551 109.778L60.446 139.5L120.946 109.778V0.5H-0.0539551V109.778Z" fill="white"/>
<path d="M-0.0539551 109.778L60.446 139.5L120.946 109.778V0.5H-0.0539551V109.778Z" fill="white"/>
<path d="M93.3264 0.5H120.946V28.0377H93.3264V0.5Z" fill="#FF492C"/>
<path fill-rule="evenodd" clip-rule="evenodd" d="M113.122 11.0456H110.762C110.826 10.6771 111.054 10.4713 111.517 10.2365L111.951 10.0175C112.73 9.62021 113.143 9.17305 113.143 8.44264C113.151 8.23171 113.107 8.02205 113.013 7.83252C112.92 7.64299 112.781 7.47954 112.609 7.35687C112.259 7.09461 111.832 6.96741 111.34 6.96741C110.946 6.96741 110.59 7.06576 110.263 7.27163C109.954 7.45369 109.706 7.7229 109.55 8.04531L110.234 8.7272C110.497 8.1948 110.883 7.93123 111.39 7.93123C111.817 7.93123 112.08 8.15153 112.08 8.45576C112.08 8.71146 111.953 8.92521 111.461 9.17305L111.182 9.30811C110.577 9.61234 110.156 9.95984 109.913 10.3572C109.671 10.7479 109.55 11.2515 109.55 11.8534V12.0173H113.122V11.0456ZM112.8 13.1437H108.9L106.948 16.5138H110.85L112.801 19.8826L114.751 16.5125L112.801 13.1424L112.8 13.1437Z" fill="white"/>
<path fill-rule="evenodd" clip-rule="evenodd" d="M107.28 18.7641C104.791 18.7641 102.768 16.7486 102.768 14.2702C102.768 11.7918 104.791 9.77629 107.28 9.77629L108.824 6.55568C107.679 6.32755 106.498 6.35549 105.365 6.63749C104.233 6.91949 103.177 7.44851 102.274 8.18644C101.371 8.92436 100.644 9.8528 100.144 10.9048C99.645 11.9569 99.3859 13.1063 99.3857 14.2702C99.3861 15.3034 99.5905 16.3265 99.9874 17.2809C100.384 18.2354 100.966 19.1025 101.699 19.8329C102.432 20.5632 103.302 21.1425 104.26 21.5376C105.217 21.9327 106.243 22.1358 107.28 22.1355C108.951 22.1383 110.579 21.6101 111.929 20.6275L110.219 17.6757C109.429 18.3536 108.402 18.7641 107.28 18.7641Z" fill="white"/>
<path fill-rule="evenodd" clip-rule="evenodd" d="M93.2568 27.4266V1.37463H94.6838V27.4266H93.2568Z" fill="black"/>
<path d="M-0.0539551 110.021V101.498L60.446 131.713L120.946 101.497V110.02L60.446 139.499L-0.0539551 110.021Z" fill="black"/>
<path d="M-0.0539551 102.213V93.689L60.446 123.906L120.946 93.689V102.213L60.446 131.691L-0.0539551 102.213Z" fill="#FF492C"/>
<path d="M-0.0539551 94.4299V85.9063L60.446 116.123L120.946 85.9076V94.4312L60.446 123.91L-0.0539551 94.4299Z" fill="#FFC800"/>
<path fill-rule="evenodd" clip-rule="evenodd" d="M60.446 137.913L119.519 108.892V1.92278H1.37306V108.892L60.446 137.913ZM-0.0539551 109.778L60.446 139.5L120.946 109.778V0.5H-0.0539551V109.778Z" fill="black"/>
<path fill-rule="evenodd" clip-rule="evenodd" d="M0.766846 26.7146H120.387V28.1374H0.768161L0.766846 26.7146Z" fill="black"/>
<path d="M7.18628 17.5236V11.3276H9.29063C9.71544 11.3276 10.089 11.3932 10.4086 11.523C10.7282 11.6528 10.9767 11.8495 11.1543 12.1118C11.3318 12.374 11.4213 12.7005 11.4213 13.09C11.4213 13.3313 11.3595 13.5542 11.2371 13.7588C11.1148 13.9633 10.9478 14.1364 10.7282 14.2833C11.0175 14.4328 11.2411 14.6282 11.3989 14.8734C11.5554 15.1173 11.633 15.411 11.633 15.7533C11.633 16.131 11.5475 16.4535 11.3766 16.7184C11.2043 16.9846 10.9649 17.1853 10.6571 17.3216C10.3494 17.458 9.98769 17.5236 9.5734 17.5236H7.18628ZM8.37524 13.8519H9.31562C9.58261 13.8519 9.79304 13.7824 9.94692 13.6473C10.1008 13.5109 10.1771 13.3195 10.1771 13.0716C10.183 12.9622 10.1627 12.8529 10.1179 12.7528C10.073 12.6527 10.005 12.5647 9.9193 12.496C9.74832 12.3609 9.51421 12.2927 9.21829 12.2927H8.37655V13.8506L8.37524 13.8519ZM8.37524 16.4522H9.45897C9.74832 16.4522 9.97585 16.3814 10.1429 16.2372C10.3099 16.0929 10.3901 15.8989 10.3901 15.6563C10.395 15.5422 10.3725 15.4287 10.3248 15.3249C10.277 15.2212 10.2052 15.1303 10.1153 15.0596C9.93114 14.9154 9.68125 14.8419 9.36165 14.8419H8.37524V16.4535V16.4522ZM13.5072 17.5236V11.3276H17.4397V12.4343H14.7225V13.8414H17.0662V14.9219H14.7225V16.4168H17.4752V17.5236H13.5059H13.5072ZM21.7089 17.6298C21.3959 17.6298 21.1026 17.5918 20.8303 17.5157C20.5728 17.4452 20.3275 17.336 20.103 17.1918C19.9036 17.0655 19.7252 16.9089 19.5743 16.7276C19.4423 16.5715 19.3494 16.3863 19.3034 16.1873L20.4923 15.8333C20.575 16.0417 20.7167 16.2216 20.9001 16.3513C21.0973 16.4955 21.342 16.5716 21.6379 16.5768C21.9522 16.5834 22.2074 16.5152 22.406 16.3736C22.498 16.3146 22.5736 16.2335 22.6258 16.1377C22.678 16.0419 22.7051 15.9345 22.7045 15.8254C22.7053 15.7309 22.6843 15.6374 22.6433 15.5522C22.6023 15.467 22.5422 15.3922 22.4678 15.3337C22.2792 15.1849 22.0594 15.0804 21.8246 15.0281L21.0171 14.8157C20.7321 14.7464 20.4615 14.6279 20.2175 14.4656C19.9941 14.3175 19.8089 14.1189 19.6769 13.886C19.5454 13.6565 19.4796 13.3877 19.4796 13.0808C19.4796 12.496 19.6743 12.0409 20.0623 11.7131C20.4502 11.3853 20.9987 11.2214 21.7089 11.2214C22.1061 11.2214 22.4533 11.2791 22.7532 11.3945C23.0517 11.5099 23.3016 11.6725 23.5029 11.8849C23.7041 12.0986 23.858 12.3491 23.9645 12.6376L22.7834 13.0008C22.7124 12.8002 22.5822 12.6284 22.3928 12.4868C22.2034 12.3452 21.9641 12.2744 21.6734 12.2744C21.3775 12.2744 21.1447 12.3426 20.9763 12.4789C20.892 12.5485 20.8252 12.6368 20.7814 12.7368C20.7375 12.8368 20.7178 12.9456 20.7238 13.0546C20.7238 13.2487 20.7896 13.4021 20.9237 13.5136C21.0566 13.6263 21.2394 13.7129 21.4695 13.7719L22.2863 13.9751C22.819 14.105 23.2332 14.3371 23.5292 14.6741C23.8251 15.0098 23.9724 15.3848 23.9724 15.7979C23.9724 16.1651 23.8843 16.4837 23.7067 16.7578C23.5292 17.0331 23.2727 17.2469 22.9347 17.4003C22.598 17.5537 22.189 17.6311 21.7089 17.6311V17.6298ZM27.2131 17.5236V12.4357H25.3494V11.3276H30.2854V12.4343H28.4297V17.5236H27.2131ZM37.0588 17.6298C36.7458 17.6298 36.4512 17.5918 36.1802 17.5157C35.9223 17.4453 35.6765 17.3361 35.4516 17.1918C35.2526 17.0654 35.0747 16.9088 34.9242 16.7276C34.7922 16.5715 34.6994 16.3863 34.6533 16.1873L35.8422 15.8333C35.9249 16.0417 36.0666 16.2216 36.25 16.3513C36.4459 16.4955 36.6919 16.5716 36.9865 16.5768C37.3021 16.5834 37.5573 16.5152 37.7546 16.3736C37.8466 16.3146 37.9222 16.2335 37.9744 16.1377C38.0266 16.0419 38.0536 15.9345 38.0531 15.8254C38.0539 15.7309 38.0329 15.6374 37.9919 15.5522C37.9508 15.467 37.8908 15.3922 37.8164 15.3337C37.6282 15.1851 37.4088 15.0806 37.1745 15.0281L36.3657 14.8157C36.0812 14.7462 35.811 14.6277 35.5674 14.4656C35.3435 14.3176 35.1578 14.119 35.0255 13.886C34.8953 13.6565 34.8295 13.3877 34.8295 13.0808C34.8295 12.496 35.0242 12.0409 35.4122 11.7131C35.7988 11.3853 36.3486 11.2214 37.0588 11.2214C37.456 11.2214 37.8032 11.2791 38.1018 11.3945C38.4003 11.5099 38.6502 11.6725 38.8515 11.8849C39.0527 12.0986 39.2066 12.3491 39.3144 12.6376L38.1333 13.0008C38.0623 12.8002 37.9321 12.6284 37.7427 12.4868C37.5533 12.3452 37.3126 12.2744 37.0233 12.2744C36.7274 12.2744 36.4946 12.3426 36.3262 12.4789C36.2419 12.5485 36.1751 12.6368 36.1313 12.7368C36.0874 12.8368 36.0677 12.9456 36.0737 13.0546C36.0737 13.2487 36.1395 13.4021 36.2736 13.5136C36.4051 13.6263 36.5893 13.7129 36.8194 13.7719L37.6349 13.9751C38.1689 14.105 38.5818 14.3371 38.8791 14.6741C39.175 15.0098 39.3223 15.3848 39.3223 15.7979C39.3223 16.1651 39.2342 16.4837 39.0566 16.7578C38.8778 17.0331 38.6213 17.2469 38.2833 17.4003C37.9466 17.5537 37.5375 17.6311 37.0588 17.6311V17.6298ZM44.09 17.6298C43.4613 17.6298 42.9063 17.4934 42.4249 17.218C41.9422 16.944 41.5661 16.5663 41.2938 16.0864C41.0216 15.6064 40.8848 15.0544 40.8848 14.4341C40.8848 13.8034 41.0216 13.2474 41.2925 12.7661C41.5634 12.2849 41.9396 11.9098 42.4157 11.6384C42.919 11.3604 43.4871 11.2202 44.0623 11.2319C44.6897 11.2319 45.2421 11.3682 45.7195 11.6423C46.1956 11.9177 46.5691 12.294 46.8414 12.7753C47.1137 13.2565 47.2491 13.8099 47.2491 14.4354C47.2491 15.0544 47.115 15.6051 46.8467 16.0864C46.585 16.5594 46.1978 16.9514 45.7274 17.2194C45.2513 17.4947 44.7055 17.6311 44.0886 17.6311L44.09 17.6298ZM44.09 16.5244C44.4687 16.5244 44.8002 16.4326 45.0895 16.2542C45.3749 16.0733 45.5998 15.828 45.7629 15.5146C45.9247 15.2025 46.0062 14.8419 46.0062 14.4341C46.0062 14.0224 45.9247 13.6604 45.759 13.3457C45.6017 13.0428 45.3654 12.7878 45.0751 12.6074C44.7701 12.4233 44.4188 12.3296 44.0623 12.3373C43.7148 12.3321 43.3728 12.4239 43.0748 12.6023C42.7769 12.7808 42.5349 13.0387 42.3762 13.347C42.2044 13.6838 42.1186 14.0577 42.1263 14.4354C42.1263 14.8419 42.2105 15.2025 42.3762 15.5146C42.5381 15.8263 42.7846 16.0863 43.0877 16.2649C43.3907 16.4434 43.7381 16.5334 44.09 16.5244ZM49.1233 17.5236V11.3276H53.1084V12.4343H50.3399V13.9214H52.6481V15.0281H50.3399V17.5236H49.1233ZM56.2426 17.5236V12.4357H54.3789V11.3276H59.3149V12.4343H57.4591V17.5236H56.2426ZM62.236 17.5236L60.3973 11.3276H61.631L63.3987 17.5236H62.236ZM62.3938 17.5236L64.0905 11.3276H65.1913L63.5039 17.5236H62.3938ZM65.866 17.5236L64.1983 11.3276H65.2978L67.03 17.5236H65.866ZM65.9818 17.5236L67.7652 11.3276H69.0002L67.1444 17.5236H65.9818ZM69.425 17.5236L71.8752 11.3276H73.0918L70.7139 17.5236H69.425ZM70.5798 16.1598V15.0898H74.4767V16.1611L70.5798 16.1598ZM74.3347 17.5236L71.9542 11.3276H73.1721L75.6223 17.5236H74.3347ZM77.2558 17.5236V11.3276H79.5627C80.0007 11.3276 80.3886 11.4141 80.7267 11.5846C81.0647 11.7564 81.3277 11.9911 81.5158 12.2888C81.7052 12.5865 81.7999 12.9326 81.7999 13.3287C81.7999 13.7181 81.7012 14.0643 81.504 14.3685C81.303 14.6742 81.0219 14.9191 80.6911 15.0767C80.3479 15.2445 79.9573 15.3297 79.5193 15.3297H78.4711V17.5236H77.2545H77.2558ZM78.4711 14.223H79.5719C79.756 14.223 79.9204 14.1836 80.0651 14.1076C80.2098 14.0315 80.3255 13.924 80.4123 13.7889C80.498 13.6508 80.5422 13.4911 80.5399 13.3287C80.5399 13.0638 80.4439 12.8474 80.2505 12.6822C80.0572 12.517 79.8126 12.433 79.5101 12.433H78.4711V14.223ZM80.6727 17.5236L79.2352 15.036L80.1664 14.3725L82.0498 17.5236H80.6727ZM83.8687 17.5236V11.3276H87.8012V12.4343H85.084V13.8414H87.429V14.9219H85.084V16.4168H87.8367V17.5236H83.8687ZM48.972 41.4539V40.5609C48.972 40.3904 49.0247 40.2003 49.1325 39.9944C49.2377 39.7885 49.3863 39.5813 49.5757 39.3741C49.7651 39.1682 49.9861 38.9755 50.2412 38.7998L51.1829 38.1257C51.3131 38.0379 51.4355 37.9369 51.5512 37.8241C51.6669 37.7114 51.7616 37.5907 51.8353 37.457C51.9045 37.3404 51.9425 37.2081 51.9458 37.0728C51.9496 36.9256 51.9107 36.7804 51.8337 36.6547C51.7567 36.5291 51.6449 36.4283 51.5117 36.3646C51.3474 36.2892 51.1678 36.2528 50.987 36.2584C50.8294 36.2531 50.673 36.2857 50.5308 36.3535C50.3886 36.4213 50.2649 36.5223 50.1702 36.6479C50.0835 36.7612 50.02 36.8904 49.9835 37.0282L48.7327 36.8157C48.7919 36.5207 48.9181 36.2466 49.1141 35.9935C49.3087 35.7391 49.5652 35.5346 49.8822 35.3772C50.1991 35.2199 50.5582 35.1425 50.9607 35.1425C51.421 35.1425 51.8182 35.2264 52.1496 35.3916C52.4811 35.5569 52.7375 35.7824 52.9177 36.0683C53.0979 36.3541 53.1886 36.6872 53.1886 37.0649C53.1886 37.4478 53.0834 37.7887 52.873 38.0864C52.6625 38.3841 52.3745 38.6634 52.0076 38.923L51.1658 39.5328C50.9922 39.6508 50.8449 39.7819 50.72 39.9223C50.5984 40.0607 50.5027 40.2197 50.4372 40.3917H53.2689V41.4539H48.972ZM57.4223 41.5614C56.9199 41.5614 56.4754 41.4237 56.0913 41.1496C55.706 40.8743 55.4048 40.4966 55.1851 40.0167C54.9655 39.5367 54.8563 38.982 54.8563 38.3565C54.8563 37.731 54.9668 37.1777 55.1851 36.6964C55.4035 36.2151 55.7046 35.8388 56.0861 35.5634C56.4688 35.2894 56.912 35.1517 57.4144 35.1517C57.9168 35.1517 58.3627 35.2894 58.7507 35.5634C59.1374 35.8388 59.4412 36.2165 59.6608 36.6964C59.8791 37.1777 59.9896 37.7323 59.9896 38.3565C59.9896 38.9807 59.8791 39.5354 59.6608 40.0167C59.4653 40.4677 59.1525 40.8584 58.7546 41.1483C58.3693 41.4237 57.926 41.5601 57.4236 41.5601L57.4223 41.5614ZM57.4223 40.4638C57.6893 40.4638 57.9274 40.372 58.1378 40.1937C58.3482 40.0154 58.5126 39.7649 58.631 39.4502C58.7494 39.1355 58.8086 38.7696 58.8086 38.3565C58.8086 37.9435 58.7494 37.5776 58.631 37.259C58.5332 36.9719 58.3635 36.7146 58.1378 36.5115C57.9384 36.3355 57.6807 36.2393 57.4144 36.2414C57.1524 36.2395 56.899 36.3354 56.7042 36.5102C56.4817 36.7142 56.3151 36.9715 56.2202 37.2576C56.1045 37.5776 56.0466 37.9435 56.0466 38.3565C56.0466 38.7696 56.1045 39.1341 56.2202 39.4502C56.3359 39.7662 56.499 40.014 56.7082 40.1937C56.9173 40.3733 57.1553 40.4638 57.4223 40.4638ZM61.6402 41.4539V40.5609C61.6402 40.3904 61.6928 40.2003 61.8007 39.9944C61.92 39.7688 62.0691 39.5602 62.2439 39.3741C62.4333 39.1682 62.6556 38.9755 62.9094 38.7998L63.8511 38.1257C63.98 38.0379 64.1036 37.9369 64.2194 37.8241C64.3351 37.7114 64.4298 37.5907 64.5034 37.457C64.5724 37.3403 64.6104 37.2081 64.6139 37.0728C64.6155 36.9268 64.5773 36.7831 64.5034 36.6571C64.426 36.5306 64.3137 36.4291 64.1799 36.3646C64.0156 36.2893 63.8359 36.253 63.6551 36.2584C63.4912 36.2555 63.3289 36.2914 63.1817 36.3633C63.0471 36.4305 62.9301 36.528 62.8397 36.6479C62.7527 36.761 62.6892 36.8903 62.6529 37.0282L61.4009 36.8157C61.46 36.5207 61.5876 36.2466 61.7823 35.9935C61.9769 35.7391 62.2334 35.5346 62.5504 35.3772C62.866 35.2212 63.2264 35.1425 63.6288 35.1425C64.0892 35.1425 64.4864 35.2264 64.8178 35.3916C65.1492 35.5569 65.4057 35.7824 65.5859 36.0683C65.7674 36.3541 65.8568 36.6872 65.8568 37.0649C65.8568 37.4478 65.7516 37.7887 65.5425 38.0864C65.332 38.3841 65.0427 38.6634 64.6771 38.923L63.8327 39.5328C63.6617 39.6508 63.5131 39.7819 63.3881 39.9223C63.267 40.061 63.1713 40.2199 63.1054 40.3917H65.937V41.4539H61.6402ZM69.8156 41.5614C69.5315 41.5614 69.2395 41.5129 68.941 41.4198C68.6485 41.3278 68.3753 41.1834 68.1348 40.9936C67.8994 40.8113 67.7165 40.5702 67.6047 40.2947L68.7148 39.9668C68.831 40.1443 68.992 40.2881 69.1817 40.3838C69.3619 40.4717 69.5499 40.5163 69.7446 40.5163C70.0524 40.5163 70.3022 40.4245 70.4943 40.237C70.6876 40.0521 70.7836 39.8029 70.7836 39.4895C70.7874 39.3563 70.7648 39.2236 70.7169 39.0991C70.6691 38.9747 70.597 38.8609 70.5048 38.7644C70.4088 38.6663 70.2931 38.5895 70.1652 38.5391C70.0374 38.4887 69.9003 38.4658 69.763 38.4719C69.5789 38.4719 69.4105 38.5126 69.2566 38.5952C69.1028 38.6778 68.9844 38.7762 68.9015 38.8876L67.8099 38.649L68.1834 35.2592H71.699V36.3555H69.2198L69.0423 37.8438C69.2014 37.7546 69.3803 37.6825 69.5749 37.6261C69.7799 37.5692 69.9923 37.544 70.2049 37.5514C70.5262 37.548 70.8426 37.6303 71.1213 37.7899C71.3999 37.9495 71.6307 38.1804 71.7898 38.4588C71.9528 38.7381 72.0331 39.0646 72.0331 39.4371C72.0331 39.8567 71.9384 40.2239 71.7503 40.5425C71.5622 40.8612 71.3005 41.1103 70.9691 41.29C70.6376 41.4696 70.2536 41.5614 69.8156 41.5614ZM17.808 71.2838V56.8068H12.4393V52.9253H27.3801V56.8068H22.014V71.2838H17.8053H17.808ZM33.6958 71.5985C32.3096 71.5985 31.0917 71.3061 30.0395 70.7199C28.986 70.1351 28.1587 69.326 27.5537 68.294C26.9487 67.262 26.6462 66.0739 26.6462 64.7272C26.6462 63.3805 26.9382 62.1924 27.5274 61.1604C28.114 60.1297 28.9373 59.3206 30 58.7345C31.0627 58.1483 32.2648 57.8559 33.6169 57.8559C35.0005 57.8559 36.2236 58.1496 37.2863 58.7345C38.349 59.3193 39.1697 60.1297 39.759 61.1604C40.3455 62.1924 40.6401 63.3818 40.6401 64.7272C40.6401 66.0726 40.3455 67.2633 39.759 68.294C39.1817 69.3152 38.3299 70.1554 37.2995 70.7199C36.2473 71.3061 35.0452 71.5985 33.6958 71.5985ZM33.6958 67.8219C34.2206 67.8219 34.6901 67.6908 35.1031 67.4285C35.5134 67.1663 35.8396 66.8043 36.0763 66.3401C36.3131 65.8772 36.4315 65.3396 36.4315 64.7272C36.4315 64.1148 36.3131 63.5785 36.0763 63.1143C35.8396 62.6514 35.5108 62.2881 35.0899 62.0259C34.6691 61.7636 34.1851 61.6325 33.6419 61.6325C33.0987 61.6325 32.616 61.7636 32.1951 62.0259C31.7743 62.2881 31.4455 62.6514 31.2087 63.1143C30.972 63.5785 30.8536 64.1148 30.8536 64.7272C30.8536 65.3396 30.972 65.8772 31.2087 66.3401C31.4455 66.803 31.7782 67.1663 32.2083 67.4285C32.6384 67.6908 33.1329 67.8219 33.6945 67.8219H33.6958ZM42.7695 76.5278V58.1719H46.6362L46.873 60.5847V76.5304H42.7695V76.5278ZM50.6082 71.5972C49.5205 71.5972 48.609 71.3218 47.8725 70.7711C47.136 70.2203 46.5836 69.4309 46.2154 68.3976C45.8471 67.3682 45.663 66.1434 45.663 64.7272C45.663 63.2939 45.8471 62.0652 46.2154 61.0424C46.5836 60.0196 47.136 59.2328 47.8725 58.682C48.609 58.1312 49.5205 57.8559 50.6082 57.8559C51.8353 57.8559 52.8967 58.1312 53.791 58.682C54.6854 59.2328 55.3693 60.0196 55.8427 61.0424C56.3162 62.0652 56.553 63.2939 56.553 64.7272C56.553 66.1434 56.3162 67.3682 55.8427 68.3989C55.3693 69.4309 54.6854 70.2216 53.791 70.7724C52.8967 71.3231 51.8353 71.5985 50.6082 71.5985V71.5972ZM49.556 67.8206C50.0821 67.8206 50.5464 67.6895 50.9501 67.4285C51.3526 67.1663 51.6775 66.8043 51.9234 66.3401C52.168 65.8772 52.2917 65.3396 52.2917 64.7272C52.2917 64.1148 52.1772 63.5785 51.9497 63.1143C51.7376 62.6694 51.405 62.2925 50.9896 62.0259C50.5779 61.7636 50.1084 61.6325 49.5823 61.6325C49.0562 61.6325 48.5867 61.7636 48.175 62.0259C47.7569 62.2951 47.424 62.677 47.2149 63.1274C46.9809 63.6279 46.8639 64.175 46.873 64.7272C46.873 65.3396 46.9874 65.8772 47.2149 66.3401C47.4424 66.803 47.7581 67.1663 48.1619 67.4285C48.5643 67.6908 49.0299 67.8206 49.556 67.8206ZM64.443 59.2196V55.3906C64.9164 55.426 65.4031 55.3211 65.9028 55.0759C66.4026 54.8307 66.8932 54.5041 67.3759 54.0924C67.8586 53.6819 68.2834 53.2754 68.6516 52.8729L71.3347 55.4693C70.6863 56.2036 69.9932 56.8724 69.258 57.4756C68.5214 58.0788 67.7586 58.5417 66.9695 58.8656C66.1804 59.1895 65.3373 59.3075 64.443 59.2196ZM68.2308 71.2838V55.1808L68.6516 52.9253H72.2553V71.2838H68.2308ZM83.119 71.5985C81.6118 71.5985 80.269 71.192 79.0945 70.379C77.92 69.566 77.0033 68.4474 76.3457 67.022C75.6881 65.5979 75.3593 63.9588 75.3593 62.1046C75.3593 60.2503 75.6881 58.6125 76.3457 57.1871C77.0033 55.763 77.9147 54.6431 79.0813 53.8301C80.2479 53.0171 81.5842 52.6106 83.0927 52.6106C84.6184 52.6106 85.9691 53.0171 87.1436 53.8301C88.3181 54.6431 89.244 55.763 89.9187 57.1871C90.5947 58.6125 90.9314 60.2517 90.9314 62.1046C90.9314 63.9574 90.5987 65.5979 89.9319 67.022C89.265 68.4474 88.3444 69.566 87.1699 70.379C85.9954 71.192 84.6447 71.5985 83.119 71.5985ZM83.1453 67.7695C83.8464 67.7695 84.4737 67.5242 85.0261 67.0351C85.5785 66.546 86.0125 65.8772 86.3282 65.0288C86.6438 64.1804 86.8017 63.2061 86.8017 62.1046C86.8017 60.986 86.6438 59.9986 86.3282 59.141C86.0125 58.2847 85.5732 57.6107 85.013 57.1215C84.4875 56.6459 83.8024 56.3839 83.0927 56.3872C82.3917 56.3872 81.7683 56.6324 81.2251 57.1215C80.6819 57.6107 80.2558 58.2847 79.9494 59.141C79.6429 59.9973 79.489 60.986 79.489 62.1046C79.489 63.2061 79.6429 64.1856 79.9494 65.0419C80.2558 65.8982 80.6859 66.567 81.2383 67.0482C81.7907 67.5295 82.4259 67.7695 83.1453 67.7695ZM100.268 71.5985C98.7609 71.5985 97.4181 71.192 96.2436 70.379C95.0691 69.566 94.1524 68.4474 93.4948 67.022C92.8372 65.5979 92.5084 63.9588 92.5084 62.1046C92.5084 60.2503 92.8372 58.6125 93.4948 57.1871C94.1524 55.763 95.0639 54.6431 96.2304 53.8301C97.397 53.0171 98.7333 52.6106 100.242 52.6106C101.768 52.6106 103.118 53.0171 104.293 53.8301C105.467 54.6431 106.393 55.763 107.068 57.1871C107.744 58.6125 108.081 60.2517 108.081 62.1046C108.081 63.9574 107.748 65.5979 107.081 67.022C106.414 68.4474 105.494 69.566 104.319 70.379C103.145 71.192 101.794 71.5985 100.268 71.5985ZM100.294 67.7695C100.995 67.7695 101.623 67.5242 102.175 67.0351C102.728 66.546 103.162 65.8772 103.477 65.0288C103.793 64.1804 103.951 63.2061 103.951 62.1046C103.951 60.986 103.793 59.9986 103.477 59.141C103.162 58.2847 102.722 57.6107 102.162 57.1215C101.637 56.6459 100.952 56.3839 100.242 56.3872C99.5408 56.3872 98.9174 56.6324 98.3742 57.1215C97.8311 57.6107 97.4063 58.2847 97.0985 59.141C96.7907 59.9973 96.6382 60.986 96.6382 62.1046C96.6382 63.2061 96.792 64.1856 97.0985 65.0419C97.4049 65.8982 97.835 66.567 98.3874 67.0482C98.9398 67.5295 99.5751 67.7695 100.294 67.7695ZM27.6234 88.0425V82.9939H29.3385C29.6844 82.9939 29.9882 83.0463 30.2499 83.1512C30.509 83.2575 30.7129 83.4174 30.8562 83.6312C30.9996 83.8449 31.0733 84.1111 31.0733 84.4285C31.0733 84.6252 31.0246 84.8074 30.926 84.9727C30.826 85.1392 30.6879 85.2822 30.509 85.4015C30.7458 85.5221 30.9286 85.6821 31.0562 85.8814C31.1837 86.0807 31.2469 86.3207 31.2469 86.5987C31.2469 86.9082 31.1772 87.1691 31.0377 87.3855C30.8958 87.6038 30.6915 87.7746 30.4512 87.8759C30.2013 87.9874 29.9067 88.0425 29.57 88.0425H27.6234ZM28.5928 85.0487H29.3595C29.5765 85.0487 29.7475 84.9937 29.8725 84.8835C29.9974 84.7734 30.0605 84.6173 30.0605 84.4141C30.0605 84.2108 29.9908 84.0561 29.8501 83.9459C29.7107 83.8344 29.5213 83.7794 29.2806 83.7794H28.5928V85.0487ZM28.5928 87.1691H29.4753C29.712 87.1691 29.8961 87.1101 30.0316 86.9921C30.1671 86.8741 30.2341 86.7167 30.2341 86.52C30.2341 86.3128 30.1605 86.1502 30.0106 86.0335C29.8606 85.9168 29.6555 85.8565 29.395 85.8565H28.5928V87.1691ZM32.7738 88.0425V82.9939H35.9777V83.8948H33.7642V85.0422H35.6739V85.9208H33.7642V87.1403H36.0066V88.0425H32.7738ZM39.4578 88.1277C39.2026 88.1277 38.9632 88.0975 38.7423 88.0346C38.532 87.9775 38.3316 87.8891 38.1478 87.7723C37.9755 87.6583 37.8322 87.5324 37.7177 87.3921C37.6033 87.2517 37.531 87.1075 37.4981 86.9528L38.4674 86.6643C38.5292 86.8282 38.6397 86.9685 38.7988 87.0865C38.958 87.2045 39.1579 87.2649 39.3999 87.2701C39.6211 87.2848 39.841 87.2268 40.0259 87.1049C40.1007 87.0563 40.1621 86.9898 40.2044 86.9115C40.2467 86.8331 40.2685 86.7454 40.2679 86.6564C40.2686 86.5796 40.2516 86.5036 40.2183 86.4343C40.1851 86.365 40.1363 86.3042 40.0759 86.2565C39.9224 86.1353 39.7435 86.0501 39.5525 86.0073L38.8949 85.8342C38.6623 85.7782 38.4415 85.6819 38.2425 85.5497C38.0539 85.4284 37.8997 85.2609 37.7947 85.0632C37.6897 84.8655 37.6374 84.6443 37.6428 84.4206C37.6428 83.9459 37.8006 83.5735 38.1162 83.306C38.4319 83.0398 38.8791 82.9073 39.4578 82.9073C39.7813 82.9073 40.0641 82.9532 40.3087 83.0477C40.552 83.1408 40.7559 83.2745 40.919 83.4476C41.0834 83.6194 41.2083 83.8253 41.2951 84.06L40.3337 84.3564C40.2724 84.1873 40.1609 84.041 40.0141 83.9367C39.8433 83.8168 39.6376 83.7565 39.4288 83.7649C39.1881 83.7649 38.9988 83.82 38.862 83.9315C38.7931 83.9879 38.7386 84.0597 38.7027 84.141C38.6669 84.2223 38.6507 84.3109 38.6555 84.3996C38.6555 84.557 38.7081 84.6829 38.8173 84.7747C38.9264 84.8665 39.075 84.936 39.2631 84.9845L39.9286 85.1497C40.3626 85.2546 40.7006 85.4447 40.9413 85.7188C41.182 85.9942 41.303 86.2997 41.303 86.6367C41.303 86.9331 41.2307 87.194 41.086 87.4183C40.9413 87.6412 40.7309 87.8156 40.456 87.9415C40.1403 88.0735 39.8 88.137 39.4578 88.1277ZM43.9413 88.0425V83.8948H42.4236V82.9926H46.4442V83.8948H44.933V88.0425H43.9413ZM51.9642 88.1277C51.709 88.1277 51.4696 88.0975 51.2487 88.0346C51.0389 87.9774 50.8389 87.8889 50.6555 87.7723C50.4819 87.6583 50.3372 87.5324 50.2255 87.3921C50.1137 87.2517 50.0374 87.1075 50.0045 86.9528L50.9738 86.6643C51.0356 86.8282 51.1474 86.9685 51.3066 87.0865C51.4657 87.2045 51.6656 87.2649 51.9063 87.2701C52.1275 87.2848 52.3474 87.2268 52.5323 87.1049C52.6071 87.0563 52.6685 86.9898 52.7108 86.9115C52.7531 86.8331 52.7749 86.7454 52.7743 86.6564C52.7751 86.5797 52.7584 86.5038 52.7253 86.4345C52.6923 86.3652 52.6438 86.3043 52.5836 86.2565C52.4297 86.1351 52.2504 86.05 52.0589 86.0073L51.4013 85.8342C51.1687 85.7782 50.9479 85.6819 50.7489 85.5497C50.5603 85.4284 50.4061 85.2609 50.3011 85.0632C50.1961 84.8655 50.1438 84.6443 50.1492 84.4206C50.1492 83.9459 50.307 83.5735 50.6227 83.306C50.9383 83.0398 51.3855 82.9073 51.9642 82.9073C52.2877 82.9073 52.5705 82.9532 52.8151 83.0477C53.0584 83.1408 53.2623 83.2745 53.4254 83.4476C53.5898 83.6194 53.7147 83.8253 53.8015 84.06L52.8401 84.3564C52.7792 84.1875 52.6682 84.0411 52.5218 83.9367C52.351 83.8168 52.1453 83.7565 51.9365 83.7649C51.6945 83.7649 51.5052 83.82 51.3684 83.9315C51.2995 83.9879 51.245 84.0597 51.2091 84.141C51.1733 84.2223 51.1571 84.3109 51.1619 84.3996C51.1619 84.557 51.2158 84.6829 51.325 84.7747C51.4328 84.8665 51.5814 84.936 51.7695 84.9845L52.435 85.1497C52.869 85.2546 53.2071 85.4447 53.4477 85.7188C53.6897 85.9942 53.8094 86.2997 53.8094 86.6367C53.8094 86.9331 53.7371 87.194 53.5924 87.4183C53.4477 87.6412 53.2373 87.8156 52.9637 87.9415C52.6476 88.0737 52.3068 88.1372 51.9642 88.1277ZM57.6933 88.1277C57.1816 88.1277 56.7292 88.0163 56.3373 87.792C55.9427 87.5691 55.6363 87.2622 55.414 86.8701C55.1873 86.4583 55.0726 85.9945 55.0812 85.5247C55.0812 85.0094 55.193 84.5583 55.414 84.1662C55.6376 83.7728 55.9414 83.4673 56.3294 83.2457C56.7395 83.0195 57.2023 82.905 57.6709 82.9139C58.1838 82.9139 58.6323 83.0267 59.0203 83.2496C59.4083 83.4725 59.7134 83.7807 59.9357 84.1728C60.158 84.5648 60.2685 85.0146 60.2685 85.5234C60.2685 86.0296 60.1593 86.4781 59.9396 86.8701C59.72 87.2622 59.4162 87.5704 59.0282 87.792C58.6212 88.0207 58.1603 88.1366 57.6933 88.1277ZM57.6933 87.2268C58.0023 87.2268 58.272 87.1534 58.5074 87.0078C58.7415 86.8597 58.9243 86.659 59.0571 86.4046C59.1887 86.1489 59.2557 85.8565 59.2557 85.5247C59.2557 85.1877 59.1873 84.8927 59.0532 84.637C58.9254 84.3901 58.7332 84.1822 58.4969 84.0351C58.2484 83.8854 57.9625 83.809 57.6722 83.8148C57.3891 83.8111 57.1106 83.886 56.8679 84.0312C56.6251 84.1765 56.4277 84.3862 56.2978 84.637C56.1623 84.8927 56.094 85.1877 56.094 85.5247C56.094 85.8565 56.1623 86.1489 56.2978 86.4033C56.432 86.659 56.62 86.8597 56.8607 87.0065C57.1027 87.1534 57.3789 87.2268 57.6933 87.2268ZM61.7954 88.0425V82.9939H65.044V83.8948H62.7858V85.1064H64.6665V86.0086H62.7858V88.0412L61.7954 88.0425ZM67.5955 88.0425V83.8948H66.0765V82.9926H70.0984V83.8948H68.5859V88.0425H67.5955ZM72.4776 88.0425L70.9809 82.9939H71.9857L73.4259 88.0425H72.4789H72.4776ZM72.6091 88.0425L73.9901 82.9939H74.8871L73.5127 88.0425H72.6091ZM75.4369 88.0425L74.0769 82.9939H74.9739L76.3838 88.0425H75.4369ZM75.5315 88.0425L76.9849 82.9939H77.9897L76.4772 88.0425H75.5315ZM78.3382 88.0425L80.3334 82.9939H81.3251L79.3865 88.0425H78.3382ZM79.2773 86.9305V86.0584H82.4535V86.9305H79.2773ZM82.3391 88.0425L80.3992 82.9939H81.3908L83.386 88.0425H82.3391ZM84.717 88.0425V82.9939H86.5978C86.9542 82.9939 87.2699 83.0634 87.5447 83.2037C87.8196 83.344 88.0353 83.5328 88.1892 83.7754C88.3444 84.018 88.422 84.3013 88.422 84.6226C88.422 84.9412 88.3404 85.2231 88.1787 85.471C88.0169 85.7188 87.796 85.9103 87.5171 86.048C87.2185 86.1888 86.8912 86.2588 86.561 86.2525H85.7087V88.0425H84.717ZM85.7087 85.3516H86.6057C86.7543 85.3516 86.8885 85.3215 87.0068 85.2585C87.1252 85.1956 87.2186 85.1077 87.2883 84.9989C87.3594 84.8864 87.396 84.7555 87.3935 84.6226C87.3935 84.4062 87.3146 84.2318 87.1594 84.0967C87.0042 83.9616 86.8003 83.8948 86.5544 83.8948H85.7087V85.3516ZM87.5013 88.0425L86.3308 86.0152L87.0897 85.4749L88.6232 88.0425H87.5013ZM90.1055 88.0425V82.9939H93.3107V83.8948H91.0985V85.0422H93.0055V85.9208H91.0985V87.1403H93.3409V88.0425H90.1055ZM39.0961 96.6959V91.6473H40.9768C41.3333 91.6473 41.6489 91.7194 41.9238 91.861C42.1987 92.0027 42.4144 92.2007 42.5683 92.4524C42.7221 92.7055 42.7997 92.9966 42.7997 93.3284C42.7997 93.6562 42.7248 93.9473 42.5761 94.2018C42.4275 94.4561 42.221 94.6568 41.9606 94.805C41.6836 94.9549 41.3722 95.0304 41.0571 95.0239H40.0878V96.6972L39.0961 96.6959ZM40.0878 94.1152H41.0347C41.1361 94.1187 41.2371 94.1009 41.3311 94.0629C41.4252 94.025 41.5101 93.9677 41.5805 93.8949C41.7239 93.748 41.7949 93.5592 41.7949 93.3284C41.7949 93.0976 41.716 92.9088 41.5582 92.7659C41.3932 92.6184 41.1772 92.5408 40.9558 92.5495H40.0878V94.1152ZM44.1807 96.6959V91.6473H46.0615C46.4192 91.6473 46.7349 91.7181 47.0084 91.8571C47.282 91.9961 47.499 92.1876 47.6529 92.4315C47.8081 92.6741 47.8844 92.956 47.8844 93.2786C47.8844 93.5946 47.8041 93.8779 47.6424 94.1257C47.4806 94.3735 47.261 94.565 46.9808 94.7027C46.6828 94.8439 46.3559 94.9144 46.026 94.9086H45.1711V96.6959H44.1807ZM45.1724 94.0077H46.0694C46.209 94.0095 46.3469 93.9766 46.4705 93.9119C46.5857 93.8524 46.6829 93.7632 46.752 93.6536C46.8224 93.5412 46.8589 93.4111 46.8572 93.2786C46.8605 93.1788 46.8412 93.0796 46.8007 92.9883C46.7601 92.897 46.6994 92.816 46.6231 92.7514C46.4535 92.6117 46.2379 92.5397 46.0181 92.5495H45.1724V94.0077ZM46.9663 96.6959L45.7945 94.6699L46.5534 94.1283L48.0869 96.6959H46.9663ZM51.8853 96.7837C51.3736 96.7837 50.9212 96.6723 50.5293 96.448C50.1347 96.2238 49.8283 95.9169 49.606 95.5249C49.3791 95.1131 49.2644 94.6492 49.2732 94.1795C49.2732 93.6654 49.385 93.2117 49.606 92.8196C49.8296 92.4288 50.1334 92.122 50.5214 91.9017C50.9312 91.6745 51.3941 91.5596 51.8629 91.5686C52.3758 91.5686 52.8243 91.6801 53.2123 91.9043C53.6003 92.1272 53.9054 92.4354 54.1277 92.8275C54.35 93.2196 54.4605 93.6707 54.4605 94.1795C54.4605 94.6843 54.3513 95.1328 54.1316 95.5249C53.912 95.9169 53.6082 96.2238 53.2202 96.448C52.8132 96.6767 52.3523 96.7926 51.8853 96.7837ZM51.8853 95.8815C52.1943 95.8815 52.464 95.8094 52.6994 95.6612C52.9335 95.5157 53.1163 95.3151 53.2491 95.0593C53.3807 94.805 53.4477 94.5112 53.4477 94.1808C53.4477 93.8438 53.3807 93.5474 53.2452 93.293C53.1097 93.0386 52.9243 92.8367 52.6889 92.6898C52.4405 92.5399 52.1544 92.464 51.8642 92.4708C51.5809 92.4657 51.3018 92.5401 51.0588 92.6855C50.8158 92.8308 50.6186 93.0413 50.4898 93.293C50.3543 93.5474 50.286 93.8438 50.286 94.1795C50.286 94.5112 50.3543 94.805 50.4898 95.0593C50.6214 95.3133 50.8222 95.5251 51.069 95.6705C51.3158 95.8159 51.5987 95.8891 51.8853 95.8815ZM55.9861 96.6959V91.6473H57.6064C58.1233 91.6473 58.5797 91.7561 58.9782 91.9725C59.3754 92.1889 59.6871 92.4865 59.912 92.8642C60.1369 93.2419 60.2474 93.6772 60.2474 94.1729C60.2474 94.6633 60.1356 95.0987 59.9107 95.4777C59.6871 95.8579 59.3754 96.1556 58.9769 96.372C58.5797 96.5883 58.122 96.6959 57.6064 96.6959H55.9861ZM56.9778 95.7727H57.6064C57.8212 95.7773 58.0346 95.7388 58.2341 95.6595C58.4337 95.5802 58.6151 95.4618 58.7678 95.3111C58.9151 95.1669 59.0295 94.9977 59.1111 94.8036C59.1926 94.6096 59.2347 94.3984 59.2347 94.1729C59.2347 93.9473 59.1939 93.7362 59.1111 93.5408C59.0314 93.3497 58.9143 93.1763 58.7666 93.0308C58.6189 92.8854 58.4436 92.7708 58.2509 92.6937C58.0462 92.6114 57.8272 92.5699 57.6064 92.5718H56.9778V95.7727ZM63.7564 96.7982C63.3778 96.8072 63.0029 96.723 62.6648 96.5529C62.364 96.3985 62.1156 96.159 61.9506 95.8645C61.7774 95.5419 61.6913 95.1799 61.7007 94.8141V91.6486H62.6924V94.8141C62.6924 95.0305 62.7371 95.2206 62.8265 95.3793C62.9123 95.5377 63.0432 95.6673 63.2027 95.7517C63.3645 95.8383 63.5526 95.8829 63.7696 95.8829C63.9866 95.8829 64.176 95.8383 64.3377 95.7517C64.4975 95.6677 64.6285 95.538 64.7139 95.3793C64.8068 95.2056 64.853 95.0109 64.848 94.8141V91.6486H65.8384V94.8141C65.8384 95.218 65.7529 95.5681 65.5819 95.8632C65.4109 96.1582 65.1703 96.389 64.8586 96.5529C64.5163 96.7231 64.1375 96.8073 63.7551 96.7982H63.7564ZM69.8235 96.7837C69.3329 96.7837 68.8963 96.6723 68.5162 96.448C68.1348 96.2238 67.8349 95.9169 67.6179 95.5249C67.4009 95.1328 67.293 94.6817 67.293 94.1729C67.293 93.6641 67.4009 93.2117 67.6179 92.8196C67.8349 92.4275 68.1334 92.1207 68.5109 91.8964C68.891 91.6735 69.325 91.5608 69.8182 91.5608C70.1655 91.5608 70.489 91.6224 70.7862 91.7456C71.0835 91.8689 71.3465 92.0394 71.5701 92.2571C71.7963 92.4774 71.9686 92.7278 72.0896 93.0111L71.169 93.3507C71.0114 93.0037 70.7302 92.7275 70.3798 92.5757C70.2025 92.4996 70.0113 92.4612 69.8182 92.4629C69.5223 92.4629 69.2606 92.5377 69.0317 92.6832C68.8042 92.8301 68.624 93.0307 68.4978 93.2851C68.3689 93.5395 68.3057 93.8359 68.3057 94.1729C68.3057 94.5099 68.3715 94.8063 68.5004 95.0646C68.6319 95.3216 68.8108 95.5222 69.0423 95.6691C69.2751 95.816 69.5394 95.8881 69.8393 95.8881C70.0471 95.8881 70.2339 95.8488 70.4062 95.7701C70.5784 95.6914 70.7297 95.5813 70.8638 95.4423C70.9954 95.3019 71.1032 95.142 71.1848 94.9584L72.1015 95.2901C71.9836 95.5816 71.8083 95.8464 71.5859 96.0691C71.3623 96.2959 71.0993 96.4716 70.802 96.5949C70.4918 96.7225 70.1591 96.7867 69.8235 96.7837ZM74.628 96.6959V92.5495H73.1089V91.6486H77.1295V92.5495H75.6184V96.6959H74.628ZM80.2045 96.7837C79.948 96.7837 79.71 96.7509 79.4877 96.6906C79.2668 96.6277 79.0682 96.5385 78.8959 96.4257C78.7236 96.313 78.5776 96.1871 78.4645 96.0468C78.3574 95.9195 78.2818 95.7691 78.2435 95.6075L79.2128 95.319C79.276 95.4829 79.3865 95.6232 79.5456 95.7412C79.7047 95.8592 79.906 95.9209 80.1453 95.9248C80.367 95.9385 80.5872 95.88 80.7727 95.7583C80.8419 95.7131 80.8995 95.6524 80.9409 95.581C80.9824 95.5096 81.0065 95.4296 81.0114 95.3473C81.0162 95.2649 81.0017 95.1826 80.9689 95.1069C80.9361 95.0312 80.8861 94.9641 80.8227 94.9112C80.6688 94.7905 80.4901 94.7054 80.2992 94.662L79.6403 94.4902C79.4082 94.4334 79.1879 94.3367 78.9893 94.2044C78.8008 94.0834 78.6466 93.9161 78.5416 93.7186C78.4366 93.5211 78.3842 93.3001 78.3895 93.0766C78.3895 92.5993 78.5473 92.2282 78.863 91.962C79.1786 91.6945 79.6258 91.5608 80.2045 91.5608C80.5281 91.5608 80.8108 91.608 81.0541 91.7024C81.2975 91.7942 81.5013 91.9279 81.6657 92.1023C81.8301 92.2754 81.9551 92.4787 82.0419 92.7147L81.0791 93.0111C81.0226 92.8485 80.9147 92.7095 80.7608 92.5928C80.607 92.476 80.4123 92.4184 80.1756 92.4184C79.9336 92.4184 79.7455 92.4747 79.6074 92.5849C79.4693 92.695 79.4009 92.8524 79.4009 93.0543C79.4009 93.2117 79.4562 93.3389 79.564 93.4294C79.6732 93.5212 79.8205 93.5907 80.0086 93.6392L80.6754 93.8044C81.1094 93.9093 81.4461 94.1008 81.6881 94.3748C81.9301 94.6489 82.0498 94.9531 82.0498 95.2901C82.0498 95.5878 81.9761 95.8488 81.8328 96.073C81.6881 96.2959 81.4776 96.4703 81.2028 96.5949C80.8875 96.7286 80.547 96.793 80.2045 96.7837Z" fill="black"/>
</g>
<defs>
<clipPath id="clip0_7558_153683">
<rect width="121" height="139" fill="white" transform="translate(0 0.5)"/>
</clipPath>
</defs>
</svg>
