<svg width="121" height="139" viewBox="0 0 121 139" fill="none" xmlns="http://www.w3.org/2000/svg">
<g clip-path="url(#clip0_8607_28029)">
<path d="M0.105957 108.962L59.863 138.406L119.62 108.962V0.705444H0.105957V108.962Z" fill="white"/>
<path d="M0.105957 108.962L59.863 138.406L119.62 108.962V0.705444H0.105957V108.962Z" fill="white"/>
<path d="M16.7275 17.3165C16.4071 17.3165 16.1083 17.2775 15.8311 17.1996C15.5454 17.1216 15.2942 17.0134 15.0777 16.8748C14.8612 16.7276 14.6836 16.5674 14.5451 16.3941C14.3978 16.2209 14.3026 16.0347 14.2593 15.8356L15.4804 15.4718C15.5583 15.6797 15.6969 15.8572 15.8961 16.0044C16.0953 16.1517 16.3464 16.2296 16.6496 16.2383C16.97 16.2469 17.2341 16.1776 17.442 16.0304C17.6412 15.8832 17.7408 15.697 17.7408 15.4718C17.7408 15.2726 17.6628 15.1037 17.5069 14.9652C17.3424 14.8266 17.1216 14.7227 16.8444 14.6534L16.013 14.4326C15.7099 14.3546 15.4371 14.2334 15.1946 14.0688C14.9608 13.9129 14.7789 13.7137 14.649 13.4713C14.5104 13.2374 14.4411 12.9646 14.4411 12.6528C14.4411 12.0466 14.6403 11.5746 15.0387 11.2369C15.4371 10.9078 16 10.7432 16.7275 10.7432C17.1345 10.7432 17.4896 10.7995 17.7927 10.9121C18.1045 11.0333 18.36 11.2022 18.5592 11.4187C18.767 11.6352 18.9273 11.8951 19.0398 12.1982L17.8317 12.5619C17.7538 12.3541 17.6195 12.1808 17.429 12.0423C17.2298 11.8951 16.983 11.8214 16.6885 11.8214C16.3854 11.8214 16.1473 11.8907 15.974 12.0293C15.8008 12.1679 15.7142 12.367 15.7142 12.6269C15.7142 12.8261 15.7835 12.9819 15.9221 13.0945C16.0606 13.2071 16.2468 13.2937 16.4807 13.3543L17.3121 13.5622C17.8577 13.7008 18.2821 13.9432 18.5852 14.2897C18.8883 14.6361 19.0398 15.0215 19.0398 15.4458C19.0398 15.8182 18.9489 16.143 18.767 16.4201C18.5852 16.7059 18.3254 16.9268 17.9876 17.0827C17.6412 17.2385 17.2211 17.3165 16.7275 17.3165ZM21.0144 17.2126V10.8471H23.3787C23.8291 10.8471 24.2274 10.9381 24.5739 11.1199C24.9203 11.2932 25.1887 11.54 25.3793 11.8604C25.5785 12.1808 25.6781 12.5489 25.6781 12.9646C25.6781 13.3803 25.5828 13.7484 25.3923 14.0688C25.2017 14.3893 24.9463 14.6404 24.6258 14.8223C24.2967 15.0128 23.9157 15.1081 23.4826 15.1081H22.2615V17.2126H21.0144ZM22.2615 13.9519H23.4567C23.7338 13.9519 23.9633 13.861 24.1452 13.6791C24.3184 13.4972 24.405 13.2591 24.405 12.9646C24.405 12.6788 24.3097 12.4407 24.1192 12.2501C23.92 12.0769 23.6645 11.9903 23.3527 11.9903H22.2615V13.9519ZM27.4058 17.2126V10.8471H29.7701C30.2205 10.8471 30.6188 10.9337 30.9653 11.107C31.3117 11.2888 31.5802 11.5313 31.7707 11.8344C31.9699 12.1375 32.0695 12.4926 32.0695 12.8997C32.0695 13.298 31.9655 13.6531 31.7577 13.9649C31.5585 14.2767 31.2814 14.5192 30.9263 14.6924C30.5799 14.8656 30.1815 14.9522 29.7311 14.9522H28.6529V17.2126H27.4058ZM30.9133 17.2126L29.4454 14.6534L30.3937 13.9779L32.3163 17.2126H30.9133ZM28.6529 13.822H29.7831C29.9736 13.822 30.1425 13.783 30.2897 13.7051C30.437 13.6271 30.5539 13.5189 30.6405 13.3803C30.7271 13.2418 30.7704 13.0815 30.7704 12.8997C30.7704 12.6312 30.6751 12.4103 30.4846 12.2371C30.2854 12.0726 30.0299 11.9903 29.7182 11.9903H28.6529V13.822ZM34.1869 17.2126V10.8471H35.434V17.2126H34.1869ZM37.7204 17.2126V10.8471H39.0195L42.1372 15.1211V10.8471H43.3713V17.2126H42.1372L38.9675 12.8607V17.2126H37.7204ZM48.6196 17.3165C47.97 17.3165 47.3941 17.1779 46.8918 16.9008C46.3895 16.615 45.9998 16.2253 45.7226 15.7316C45.4369 15.238 45.294 14.6707 45.294 14.0299C45.294 13.389 45.4369 12.8217 45.7226 12.3281C45.9998 11.8344 46.3895 11.4447 46.8918 11.1589C47.3941 10.8818 47.97 10.7432 48.6196 10.7432C49.0093 10.7432 49.3644 10.7995 49.6848 10.9121C50.0139 11.0247 50.304 11.1849 50.5552 11.3927C50.8063 11.5919 51.0185 11.8214 51.1917 12.0813L50.1784 12.7178C50.0745 12.5532 49.9359 12.4103 49.7627 12.2891C49.5982 12.1592 49.4163 12.0596 49.2171 11.9903C49.0179 11.9124 48.8188 11.8734 48.6196 11.8734C48.2212 11.8734 47.8661 11.9643 47.5543 12.1462C47.2426 12.3367 47.0001 12.5922 46.8269 12.9127C46.6536 13.2331 46.567 13.6055 46.567 14.0299C46.567 14.4456 46.6536 14.8179 46.8269 15.147C47.0001 15.4761 47.2426 15.7316 47.5543 15.9135C47.8661 16.104 48.2298 16.1993 48.6455 16.1993C48.966 16.1993 49.2518 16.1343 49.5029 16.0044C49.7541 15.8745 49.9533 15.697 50.1005 15.4718C50.2477 15.238 50.3213 14.9695 50.3213 14.6664L51.5035 14.4845C51.5035 15.0821 51.3779 15.5931 51.1268 16.0174C50.8843 16.4418 50.5465 16.7665 50.1135 16.9917C49.6805 17.2082 49.1825 17.3165 48.6196 17.3165ZM48.8274 14.7703V13.809H51.5035V14.5755L50.828 14.7703H48.8274ZM56.1801 17.2126V16.2902C56.1801 16.117 56.2321 15.9265 56.336 15.7186C56.4486 15.5021 56.6002 15.2899 56.7907 15.0821C56.9899 14.8656 57.2194 14.6664 57.4792 14.4845L58.4405 13.796C58.5704 13.7008 58.696 13.5968 58.8172 13.4842C58.9385 13.3717 59.0337 13.2461 59.103 13.1075C59.181 12.9689 59.2199 12.839 59.2199 12.7178C59.2199 12.5532 59.181 12.4103 59.103 12.2891C59.0337 12.1592 58.9255 12.0596 58.7783 11.9903C58.631 11.9124 58.4492 11.8734 58.2326 11.8734C58.0508 11.8734 57.8906 11.9124 57.752 11.9903C57.6134 12.0596 57.4965 12.1549 57.4012 12.2761C57.3146 12.3974 57.2497 12.5273 57.2064 12.6658L55.9333 12.445C55.9939 12.1419 56.1238 11.8604 56.323 11.6006C56.5222 11.3408 56.782 11.1286 57.1025 10.9641C57.4316 10.8082 57.7996 10.7302 58.2067 10.7302C58.683 10.7302 59.09 10.8168 59.4278 10.99C59.7655 11.1546 60.0297 11.3841 60.2202 11.6785C60.4021 11.973 60.493 12.3151 60.493 12.7048C60.493 13.0945 60.3848 13.4453 60.1683 13.757C59.9517 14.0602 59.6573 14.346 59.2849 14.6144L58.4145 15.238C58.2413 15.3592 58.0897 15.4935 57.9598 15.6407C57.8386 15.7879 57.7433 15.9481 57.674 16.1213H60.571V17.2126H56.1801ZM64.8319 17.3165C64.3123 17.3165 63.8576 17.1779 63.4679 16.9008C63.0695 16.615 62.7621 16.2253 62.5455 15.7316C62.3204 15.238 62.2078 14.6707 62.2078 14.0299C62.2078 13.389 62.3204 12.8217 62.5455 12.3281C62.7621 11.8344 63.0695 11.4447 63.4679 11.1589C63.8576 10.8818 64.3079 10.7432 64.8189 10.7432C65.3385 10.7432 65.7975 10.8818 66.1959 11.1589C66.5856 11.4447 66.8931 11.8344 67.1183 12.3281C67.3434 12.8217 67.456 13.389 67.456 14.0299C67.456 14.6707 67.3434 15.238 67.1183 15.7316C66.8931 16.2253 66.5856 16.615 66.1959 16.9008C65.7975 17.1779 65.3429 17.3165 64.8319 17.3165ZM64.8319 16.1993C65.1004 16.1993 65.3429 16.104 65.5594 15.9135C65.7759 15.7316 65.9448 15.4761 66.066 15.147C66.1873 14.8266 66.2479 14.4542 66.2479 14.0299C66.2479 13.6055 66.1873 13.2288 66.066 12.8997C65.9448 12.5706 65.7759 12.3151 65.5594 12.1332C65.3429 11.9513 65.096 11.8604 64.8189 11.8604C64.5504 11.8604 64.3079 11.9513 64.0914 12.1332C63.8836 12.3151 63.719 12.5706 63.5978 12.8997C63.4765 13.2288 63.4159 13.6055 63.4159 14.0299C63.4159 14.4542 63.4765 14.8266 63.5978 15.147C63.719 15.4761 63.8879 15.7316 64.1044 15.9135C64.3123 16.104 64.5548 16.1993 64.8319 16.1993ZM69.1448 17.2126V16.2902C69.1448 16.117 69.2011 15.9265 69.3137 15.7186C69.4263 15.5021 69.5778 15.2899 69.7683 15.0821C69.9589 14.8656 70.1884 14.6664 70.4569 14.4845L71.4182 13.796C71.5481 13.7008 71.6736 13.5968 71.7949 13.4842C71.9075 13.3717 72.0027 13.2461 72.0807 13.1075C72.1586 12.9689 72.1976 12.839 72.1976 12.7178C72.1976 12.5532 72.1586 12.4103 72.0807 12.2891C72.0027 12.1592 71.8945 12.0596 71.7559 11.9903C71.6087 11.9124 71.4268 11.8734 71.2103 11.8734C71.0284 11.8734 70.8682 11.9124 70.7297 11.9903C70.5824 12.0596 70.4655 12.1549 70.3789 12.2761C70.2836 12.3974 70.2187 12.5273 70.1841 12.6658L68.911 12.445C68.9716 12.1419 69.1015 11.8604 69.3007 11.6006C69.4999 11.3408 69.7597 11.1286 70.0801 10.9641C70.4092 10.8082 70.7773 10.7302 71.1843 10.7302C71.6607 10.7302 72.0677 10.8168 72.4055 10.99C72.7432 11.1546 73.0074 11.3841 73.1979 11.6785C73.3797 11.973 73.4707 12.3151 73.4707 12.7048C73.4707 13.0945 73.3624 13.4453 73.1459 13.757C72.9294 14.0602 72.635 14.346 72.2626 14.6144L71.3922 15.238C71.219 15.3592 71.0674 15.4935 70.9375 15.6407C70.8163 15.7879 70.721 15.9481 70.6517 16.1213H73.5486V17.2126H69.1448ZM77.5238 17.3165C77.238 17.3165 76.9392 17.2689 76.6274 17.1736C76.3243 17.0783 76.0515 16.9354 75.809 16.7449C75.5579 16.5457 75.376 16.3032 75.2634 16.0174L76.3936 15.6797C76.5322 15.8789 76.6924 16.0217 76.8742 16.1084C77.0561 16.2036 77.251 16.2513 77.4588 16.2513C77.7706 16.2513 78.0261 16.156 78.2253 15.9655C78.4158 15.7749 78.5111 15.5194 78.5111 15.199C78.5111 14.8959 78.4158 14.6447 78.2253 14.4456C78.0347 14.2464 77.7836 14.1468 77.4718 14.1468C77.2813 14.1468 77.1081 14.1901 76.9522 14.2767C76.7963 14.3633 76.675 14.4629 76.5884 14.5755L75.4712 14.3286L75.848 10.8471H79.4594V11.9773H76.9132L76.7313 13.4972C76.8959 13.4106 77.0778 13.337 77.2769 13.2764C77.4761 13.2244 77.6926 13.1984 77.9265 13.1984C78.2729 13.1984 78.589 13.2851 78.8748 13.4583C79.1606 13.6228 79.3858 13.848 79.5503 14.1338C79.7149 14.4196 79.7971 14.753 79.7971 15.1341C79.7971 15.5671 79.7019 15.9481 79.5113 16.2772C79.3121 16.6063 79.0437 16.8618 78.7059 17.0437C78.3682 17.2256 77.9741 17.3165 77.5238 17.3165Z" fill="black"/>
<path d="M49.0874 60.0817V46.4415H52.2182L52.2312 60.0817H49.0874ZM40.2798 60.0817V46.4286H43.4235V60.0817H40.2798ZM42.5012 54.5737V51.6768H50.7632V54.5737H42.5012ZM54.7254 60.0817V50.3387H57.7652V60.0817H54.7254ZM56.2453 49.0916C55.7863 49.0916 55.3836 48.9184 55.0371 48.572C54.6994 48.2343 54.5305 47.8359 54.5305 47.3769C54.5305 46.9006 54.6994 46.4935 55.0371 46.1558C55.3836 45.8267 55.7863 45.6621 56.2453 45.6621C56.7129 45.6621 57.1156 45.8267 57.4534 46.1558C57.7912 46.4935 57.96 46.9006 57.96 47.3769C57.96 47.8359 57.7912 48.2343 57.4534 48.572C57.1156 48.9184 56.7129 49.0916 56.2453 49.0916ZM64.5203 64.2517C63.7322 64.2517 63.0394 64.1998 62.4418 64.0958C61.8529 63.9919 61.3506 63.8577 60.9349 63.6931C60.5192 63.5199 60.1771 63.3294 59.9086 63.1215L61.0908 60.7053L61.8312 61.043C62.117 61.1816 62.4678 61.3029 62.8835 61.4068C63.2992 61.5107 63.8015 61.5627 64.3904 61.5627C64.8408 61.5627 65.2435 61.4761 65.5985 61.3029C65.9536 61.1296 66.2351 60.8568 66.4429 60.4844C66.6421 60.112 66.7417 59.6487 66.7417 59.0944V50.3387H69.7815V58.9775C69.7815 60.0687 69.5737 61.0084 69.158 61.7965C68.7423 62.5933 68.1447 63.1995 67.3653 63.6152C66.5858 64.0396 65.6375 64.2517 64.5203 64.2517ZM63.8188 59.718C62.9095 59.718 62.1257 59.5318 61.4675 59.1594C60.818 58.787 60.3113 58.2587 59.9476 57.5745C59.5925 56.8817 59.415 56.0633 59.415 55.1193C59.415 54.0801 59.5925 53.188 59.9476 52.4432C60.3027 51.7071 60.8093 51.1312 61.4675 50.7155C62.1257 50.3084 62.9095 50.1049 63.8188 50.1049C64.5723 50.1049 65.2261 50.3084 65.7804 50.7155C66.326 51.1312 66.7504 51.7158 67.0535 52.4692C67.3566 53.2227 67.5082 54.1234 67.5082 55.1713C67.5082 56.1066 67.3566 56.912 67.0535 57.5875C66.7504 58.263 66.326 58.787 65.7804 59.1594C65.2261 59.5318 64.5723 59.718 63.8188 59.718ZM64.7152 57.1848C65.1049 57.1848 65.4383 57.0896 65.7155 56.899C65.9926 56.7085 66.2091 56.453 66.365 56.1326C66.5122 55.8035 66.5858 55.4311 66.5858 55.0154C66.5858 54.5737 66.5079 54.1926 66.352 53.8722C66.1961 53.5431 65.9796 53.2876 65.7025 53.1058C65.4253 52.9239 65.0919 52.8329 64.7022 52.8329C64.3211 52.8329 63.9834 52.9239 63.6889 53.1058C63.4031 53.2876 63.1779 53.5431 63.0134 53.8722C62.8489 54.1926 62.7622 54.5737 62.7536 55.0154C62.7622 55.4311 62.8489 55.8035 63.0134 56.1326C63.1779 56.453 63.4075 56.7085 63.7019 56.899C63.9964 57.0896 64.3341 57.1848 64.7152 57.1848ZM71.8081 60.0817V46.4415H74.8479V60.0817H71.8081ZM78.0826 60.0817V55.0933H81.1224V60.0817H78.0826ZM78.0826 55.0933C78.0826 54.5737 78.0263 54.1623 77.9137 53.8592C77.7924 53.5561 77.6236 53.3309 77.407 53.1837C77.1819 53.0451 76.9221 52.9672 76.6276 52.9499C76.0387 52.9325 75.597 53.0928 75.3026 53.4305C74.9994 53.7596 74.8479 54.2619 74.8479 54.9374H73.9385C73.9385 53.9155 74.0944 53.0408 74.4062 52.3133C74.718 51.5945 75.1423 51.0446 75.6793 50.6635C76.2162 50.2911 76.8355 50.1049 77.537 50.1049C78.3337 50.1049 78.9962 50.2651 79.5245 50.5856C80.0615 50.906 80.4598 51.391 80.7197 52.0405C80.9881 52.6901 81.1224 53.5215 81.1224 54.5347V55.0933H78.0826ZM15.3247 79.5677V65.9275H20.6898C21.6771 65.9275 22.5518 66.1267 23.314 66.5251C24.0847 66.9235 24.6866 67.4691 25.1197 68.1619C25.5527 68.8548 25.7692 69.6645 25.7692 70.5912C25.7692 71.4832 25.557 72.2843 25.1327 72.9944C24.7169 73.7046 24.1324 74.2589 23.3789 74.6572C22.6255 75.0643 21.7594 75.2678 20.7808 75.2678H18.4684V79.5677H15.3247ZM18.4684 72.3839H20.7028C21.2658 72.3839 21.7161 72.215 22.0539 71.8772C22.3916 71.5482 22.5605 71.1195 22.5605 70.5912C22.5605 70.0542 22.3786 69.6212 22.0149 69.2921C21.6598 68.963 21.1922 68.7985 20.6119 68.7985H18.4684V72.3839ZM31.4461 79.8015C30.4328 79.8015 29.5365 79.585 28.757 79.152C27.9776 78.719 27.367 78.1171 26.9254 77.3463C26.4837 76.5842 26.2628 75.7008 26.2628 74.6962C26.2628 73.6829 26.4837 72.7953 26.9254 72.0331C27.3757 71.2624 27.9906 70.6648 28.77 70.2404C29.5495 69.8074 30.4545 69.5909 31.4851 69.5909C32.4031 69.5909 33.2345 69.8117 33.9793 70.2534C34.7154 70.6951 35.3 71.3533 35.733 72.228C36.1747 73.094 36.3955 74.1766 36.3955 75.4757H29.0688L29.3936 75.1119C29.3936 75.5536 29.4845 75.9433 29.6664 76.2811C29.8483 76.6188 30.1037 76.8743 30.4328 77.0475C30.7533 77.2207 31.117 77.3073 31.5241 77.3073C32.0004 77.3073 32.4031 77.1991 32.7322 76.9826C33.0699 76.7747 33.3038 76.5062 33.4337 76.1772L36.1227 77.0995C35.8629 77.7057 35.4949 78.2124 35.0185 78.6194C34.5422 79.0178 34.0009 79.3166 33.3947 79.5158C32.7798 79.7063 32.1303 79.8015 31.4461 79.8015ZM29.4715 73.8388L29.1598 73.4491H33.5246L33.2518 73.8388C33.2518 73.3625 33.1565 72.9815 32.966 72.6957C32.7668 72.4099 32.5243 72.202 32.2385 72.0721C31.9527 71.9509 31.667 71.8902 31.3812 71.8902C31.0954 71.8902 30.8052 71.9509 30.5108 72.0721C30.225 72.202 29.9782 72.4099 29.7703 72.6957C29.5711 72.9815 29.4715 73.3625 29.4715 73.8388ZM39.916 74.5273C39.916 73.4708 40.1282 72.5917 40.5526 71.8902C40.9769 71.1887 41.5095 70.6648 42.1504 70.3184C42.7913 69.9633 43.4625 69.7858 44.164 69.7858V72.7476C43.5664 72.7476 43.0035 72.8126 42.4752 72.9425C41.9556 73.0724 41.5312 73.2716 41.2021 73.5401C40.8817 73.8085 40.7214 74.1506 40.7214 74.5663L39.916 74.5273ZM37.6816 79.5677V69.8247H40.7214V79.5677H37.6816ZM46.4113 79.5677V68.9284C46.4113 67.8631 46.6885 67.0274 47.2427 66.4212C47.8057 65.8063 48.6631 65.4988 49.8149 65.4988C50.2479 65.4988 50.6983 65.5724 51.1659 65.7197C51.6336 65.8756 52.0363 66.0488 52.3741 66.2393L51.2439 68.3828C51.088 68.2788 50.9321 68.2052 50.7762 68.1619C50.6203 68.1186 50.4774 68.097 50.3475 68.097C50.0357 68.097 49.8062 68.2009 49.659 68.4087C49.5204 68.6253 49.4512 68.9803 49.4512 69.474V79.5677H46.4113ZM44.8655 72.228V69.8247H51.6466V72.228H44.8655ZM57.7132 79.8015C56.6826 79.8015 55.7776 79.585 54.9982 79.152C54.2187 78.719 53.6038 78.1171 53.1535 77.3463C52.7118 76.5842 52.491 75.7008 52.491 74.6962C52.491 73.7003 52.7075 72.8169 53.1405 72.0461C53.5735 71.284 54.1841 70.6821 54.9722 70.2404C55.7603 69.8074 56.6523 69.5909 57.6483 69.5909C58.6789 69.5909 59.5882 69.8074 60.3763 70.2404C61.1557 70.6821 61.762 71.284 62.195 72.0461C62.6367 72.8169 62.8575 73.7003 62.8575 74.6962C62.8575 75.7008 62.6367 76.5842 62.195 77.3463C61.762 78.1171 61.1557 78.719 60.3763 79.152C59.5969 79.585 58.7092 79.8015 57.7132 79.8015ZM57.7132 76.9956C58.1029 76.9956 58.4494 76.9003 58.7525 76.7098C59.0556 76.5106 59.2937 76.2378 59.4669 75.8914C59.6488 75.5536 59.7398 75.1552 59.7398 74.6962C59.7398 74.2459 59.6488 73.8475 59.4669 73.5011C59.2937 73.1547 59.0512 72.8862 58.7395 72.6957C58.4277 72.4965 58.0726 72.3969 57.6742 72.3969C57.2672 72.3969 56.9078 72.4965 56.596 72.6957C56.2842 72.8862 56.0417 73.1547 55.8685 73.5011C55.6953 73.8475 55.6087 74.2459 55.6087 74.6962C55.6087 75.1552 55.6953 75.5536 55.8685 75.8914C56.0417 76.2378 56.2886 76.5106 56.609 76.7098C56.9294 76.9003 57.2975 76.9956 57.7132 76.9956ZM66.5728 74.5273C66.5728 73.4708 66.785 72.5917 67.2094 71.8902C67.6337 71.1887 68.1664 70.6648 68.8072 70.3184C69.4481 69.9633 70.1193 69.7858 70.8208 69.7858V72.7476C70.2232 72.7476 69.6646 72.8126 69.145 72.9425C68.6167 73.0724 68.188 73.2716 67.8589 73.5401C67.5385 73.8085 67.3783 74.1506 67.3783 74.5663L66.5728 74.5273ZM64.3384 79.5677V69.8247H67.3783V79.5677H64.3384ZM72.0939 79.5677V69.8247H74.9518L75.0687 71.0588C75.3805 70.5739 75.7702 70.2101 76.2379 69.9676C76.6969 69.7165 77.2035 69.5909 77.7578 69.5909C78.5632 69.5909 79.2301 69.7554 79.7584 70.0845C80.2866 70.4223 80.672 70.9289 80.9145 71.6044C81.2176 70.9549 81.629 70.4569 82.1486 70.1105C82.6683 69.7641 83.2528 69.5909 83.9024 69.5909C85.0715 69.5909 85.9506 69.9503 86.5395 70.6691C87.1284 71.3793 87.4185 72.4878 87.4098 73.9947V79.5677H84.37V74.5793C84.37 74.0597 84.3137 73.6483 84.2012 73.3452C84.0886 73.0421 83.9284 72.8169 83.7205 72.6697C83.5127 72.5311 83.2658 72.4532 82.98 72.4358C82.4258 72.4272 82.0014 72.5874 81.7069 72.9165C81.4125 73.2456 81.2653 73.7479 81.2653 74.4234V79.5677H78.2255V74.5793C78.2255 74.0597 78.1692 73.6483 78.0566 73.3452C77.9527 73.0421 77.7968 72.8169 77.5889 72.6697C77.3811 72.5311 77.1342 72.4532 76.8484 72.4358C76.2855 72.4272 75.8612 72.5874 75.5754 72.9165C75.2809 73.2456 75.1337 73.7479 75.1337 74.4234V79.5677H72.0939ZM93.9312 79.8015C92.9179 79.8015 92.0215 79.585 91.2421 79.152C90.4627 78.719 89.8521 78.1171 89.4104 77.3463C88.9687 76.5842 88.7479 75.7008 88.7479 74.6962C88.7479 73.6829 88.9731 72.7953 89.4234 72.0331C89.8737 71.2624 90.4886 70.6648 91.2681 70.2404C92.0475 69.8074 92.9482 69.5909 93.9701 69.5909C94.8968 69.5909 95.7282 69.8117 96.4643 70.2534C97.2091 70.6951 97.798 71.3533 98.2311 72.228C98.6641 73.094 98.8806 74.1766 98.8806 75.4757H91.5539L91.8916 75.1119C91.8916 75.5536 91.9826 75.9433 92.1644 76.2811C92.3463 76.6188 92.5975 76.8743 92.9179 77.0475C93.247 77.2207 93.6107 77.3073 94.0091 77.3073C94.4941 77.3073 94.9011 77.1991 95.2302 76.9826C95.5593 76.7747 95.7888 76.5062 95.9187 76.1772L98.6078 77.0995C98.348 77.7057 97.9842 78.2124 97.5166 78.6194C97.0403 79.0178 96.4947 79.3166 95.8798 79.5158C95.2735 79.7063 94.624 79.8015 93.9312 79.8015ZM91.9696 73.8388L91.6578 73.4491H96.0227L95.7499 73.8388C95.7499 73.3625 95.6503 72.9815 95.4511 72.6957C95.2605 72.4099 95.0224 72.202 94.7366 72.0721C94.4508 71.9509 94.165 71.8902 93.8792 71.8902C93.5934 71.8902 93.3033 71.9509 93.0088 72.0721C92.7144 72.202 92.4676 72.4099 92.2684 72.6957C92.0692 72.9815 91.9696 73.3625 91.9696 73.8388ZM102.414 74.5273C102.414 73.4708 102.626 72.5917 103.051 71.8902C103.466 71.1887 103.999 70.6648 104.648 70.3184C105.289 69.9633 105.961 69.7858 106.662 69.7858V72.7476C106.064 72.7476 105.502 72.8126 104.973 72.9425C104.445 73.0724 104.021 73.2716 103.7 73.5401C103.371 73.8085 103.206 74.1506 103.206 74.5663L102.414 74.5273ZM100.167 79.5677V69.8247H103.206V79.5677H100.167Z" fill="black"/>
<path d="M92.3398 0.705444H119.62V27.9858H92.3398V0.705444Z" fill="#FF492C"/>
<mask id="mask0_8607_28029" style="mask-type:luminance" maskUnits="userSpaceOnUse" x="92" y="0" width="28" height="28">
<path d="M92.3398 0.705444H119.62V27.9858H92.3398V0.705444Z" fill="white"/>
</mask>
<g mask="url(#mask0_8607_28029)">
<path fill-rule="evenodd" clip-rule="evenodd" d="M111.892 11.1525H109.562C109.625 10.7875 109.85 10.5835 110.307 10.3523L110.737 10.134C111.505 9.74042 111.914 9.29744 111.914 8.57516C111.922 8.36611 111.878 8.15837 111.786 7.97062C111.693 7.78287 111.556 7.62099 111.386 7.49954C111.04 7.23972 110.618 7.11241 110.132 7.11241C109.756 7.10842 109.386 7.21355 109.068 7.4151C108.763 7.59552 108.518 7.86219 108.364 8.18155L109.039 8.85576C109.301 8.32834 109.681 8.06853 110.181 8.06853C110.604 8.06853 110.865 8.28677 110.865 8.58815C110.865 8.84147 110.737 9.05192 110.252 9.29744L109.977 9.43125C109.379 9.73393 108.963 10.0782 108.724 10.4705C108.484 10.8576 108.364 11.3565 108.364 11.954V12.1151H111.892V11.1538V11.1525ZM111.574 13.231H107.721L105.794 16.5696H109.647L111.574 19.9082L113.502 16.5696L111.574 13.231Z" fill="white"/>
<path fill-rule="evenodd" clip-rule="evenodd" d="M106.122 18.8001C104.941 18.7991 103.808 18.3297 102.973 17.4948C102.138 16.66 101.668 15.5279 101.666 14.3469C101.668 13.1662 102.138 12.0344 102.973 11.1999C103.809 10.3653 104.941 9.89606 106.122 9.89503L107.647 6.70453C106.516 6.47853 105.349 6.50621 104.231 6.78557C103.112 7.06493 102.069 7.58901 101.178 8.32004C100.286 9.05107 99.5674 9.97083 99.0741 11.013C98.5808 12.0552 98.3248 13.1939 98.3247 14.3469C98.3249 15.3706 98.5267 16.3842 98.9186 17.3299C99.3106 18.2756 99.885 19.1348 100.609 19.8585C101.333 20.5821 102.193 21.1561 103.138 21.5476C104.084 21.939 105.098 22.1404 106.122 22.14C107.772 22.1427 109.381 21.6194 110.714 20.6461L109.025 17.7206C108.218 18.4174 107.188 18.8006 106.122 18.8001Z" fill="white"/>
<path d="M92.9751 1.5719V27.3817" stroke="black" stroke-width="1.085"/>
</g>
<path d="M0.105957 109.203V100.759L59.863 130.692L119.62 100.759V109.203L59.863 138.406L0.105957 109.203Z" fill="#FF492C"/>
<path d="M0.105957 101.469V93.0248L59.863 122.958L119.62 93.0248V101.469L59.863 130.672L0.105957 101.469Z" fill="#FFC800"/>
<path d="M0.105957 93.7587V85.3148L59.863 115.249L119.62 85.3148V93.7587L59.863 122.962L0.105957 93.7587Z" fill="white"/>
<path d="M119.068 27.3817H0.918047M118.915 108.524L59.8631 137.62L0.811523 108.524V1.41077H118.915V108.524Z" stroke="black" stroke-width="1.085"/>
</g>
<defs>
<clipPath id="clip0_8607_28029">
<rect width="120.813" height="139" fill="white" transform="translate(0.0605469)"/>
</clipPath>
</defs>
</svg>
