<svg width="412" height="235" viewBox="0 0 412 235" fill="none" xmlns="http://www.w3.org/2000/svg">
<g clip-path="url(#clip0_3216_93860)">
<path d="M0.379062 130.88C0.229062 132.39 1.29906 133.93 3.60906 135.09L198.249 232.41C202.589 234.58 209.619 234.58 213.959 232.41L408.649 135.07C411.149 133.82 411.819 132.2 411.819 130.5V103.3H376.179L214.009 22.2C209.669 20.03 202.639 20.03 198.299 22.2L36.1191 103.29H0.379062" fill="#E5E3E1"/>
<path d="M399.111 111.93L239.471 191.75L222.311 200.3C221.771 200.57 221.251 200.88 220.741 201.2L215.221 203.95C209.341 206.88 205.731 213 206.011 219.57C206.341 227.21 214.441 231.97 221.281 228.54L243.301 217.5L401.871 138.22C402.291 138.01 402.651 137.79 402.961 137.56L408.961 134.56C411.691 133.19 412.011 131.41 412.011 130.19V120.08C412.011 113.43 405.081 109.09 399.121 111.92L399.111 111.93Z" fill="#CCC9C6"/>
<path d="M198.12 204.37L3.47961 107.05C-0.860391 104.88 -0.860391 101.36 3.47961 99.1902L198.17 1.85016C202.51 -0.319844 209.54 -0.319844 213.88 1.85016L408.52 99.1702C412.86 101.34 412.86 104.86 408.52 107.03L213.83 204.37C209.49 206.54 202.46 206.54 198.12 204.37Z" fill="white"/>
<path d="M38.6498 105.83L37.9798 105.5L40.1998 104.39L33.8998 101.24L31.6798 102.35L31.0098 102.02L36.2298 99.4099L36.8998 99.7399L34.6798 100.85L40.9798 104L43.1998 102.89L43.8698 103.22L38.6498 105.83Z" fill="#94918E"/>
<path d="M50.7402 98.4602L44.4302 95.3002L45.1602 94.9402L52.7902 98.7602L52.1402 99.0902L41.4202 97.8502L48.0202 101.15L47.2902 101.51L39.6602 97.6902L40.5602 97.2402L50.7502 98.4602H50.7402Z" fill="#94918E"/>
<path d="M58.3992 95.9498L51.4292 92.4698L48.6192 93.8798L47.9492 93.5498L54.3992 90.3298L55.0692 90.6598L52.2192 92.0798L59.1892 95.5598L58.3992 95.9498Z" fill="#94918E"/>
<path d="M70.1898 90.0598L65.3898 92.4598L57.7598 88.6398L62.4498 86.2898L63.1198 86.6198L59.1898 88.5798L61.8398 89.9098L64.6398 88.5098L65.3198 88.8498L62.5198 90.2498L65.4898 91.7298L69.5298 89.7098L70.1998 90.0398L70.1898 90.0598Z" fill="#94918E"/>
<path d="M69.5203 86.5796C67.1703 85.3996 66.9303 83.9096 68.7403 83.0096C70.0403 82.3596 71.6503 82.2796 73.2603 82.6596L73.0703 83.2696C71.7103 82.8696 70.3803 82.8596 69.3603 83.3696C68.0803 84.0096 68.2803 85.1596 70.3303 86.1796C72.3803 87.1996 74.6303 87.3196 75.8703 86.7096C77.1903 86.0496 76.8803 85.1496 75.4503 84.3796L73.1703 85.5196L72.5303 85.1996L75.4103 83.7596L79.1203 85.6096L78.6003 85.8696L76.9903 85.1696C77.7803 85.8196 77.5803 86.5196 76.5403 87.0396C74.8103 87.9096 71.8703 87.7596 69.5203 86.5896V86.5796Z" fill="#94918E"/>
<path d="M87.4495 81.4299C87.0395 81.5499 86.1695 81.2799 85.3195 80.9299C83.9395 80.3499 82.9195 80.1999 81.7295 80.7999L79.6895 81.8199L83.1795 83.5599L82.3995 83.9499L74.7695 80.1299L77.4595 78.7799C79.3695 77.8199 81.0595 77.7999 82.3095 78.4299C83.2595 78.8999 83.1195 79.6699 82.2495 80.1899C83.2895 79.7999 84.4295 79.9599 85.4695 80.3499C86.9695 80.9099 87.6495 80.9999 88.3295 80.8999L88.4095 80.9399L87.4395 81.4199L87.4495 81.4299ZM79.0395 81.4899L80.8595 80.5799C82.2695 79.8799 82.4695 79.3299 81.4995 78.8399C80.5995 78.3899 79.5395 78.4199 78.1295 79.1199L76.2195 80.0799L79.0395 81.4899Z" fill="#94918E"/>
<path d="M92.9186 76.2601L89.9886 77.7301L91.6286 79.3501L90.8386 79.7401L85.8086 74.6201L86.7586 74.1501L96.9986 76.6601L96.1786 77.0701L92.9286 76.2601H92.9186ZM89.5386 77.2801L92.0186 76.0401L87.1386 74.8201L87.0886 74.8401L89.5386 77.2801Z" fill="#94918E"/>
<path d="M102.27 74.0201L95.3003 70.5401L92.4903 71.9501L91.8203 71.6201L98.2703 68.4001L98.9403 68.7301L96.0903 70.1501L103.06 73.6301L102.27 74.0201Z" fill="#94918E"/>
<path d="M108.839 70.7298L108.169 70.3998L110.389 69.2898L104.089 66.1398L101.869 67.2498L101.199 66.9198L106.419 64.3098L107.089 64.6398L104.869 65.7498L111.169 68.8998L113.389 67.7898L114.059 68.1198L108.839 70.7298Z" fill="#94918E"/>
<path d="M120.38 65.1102C118.57 66.0102 115.67 65.8502 113.32 64.6802C110.97 63.5002 110.65 62.0502 112.46 61.1502C114.27 60.2502 117.17 60.4002 119.52 61.5802C121.87 62.7602 122.19 64.2102 120.38 65.1102ZM113.12 61.4802C111.74 62.1702 112.1 63.2602 114.13 64.2702C116.15 65.2802 118.33 65.4602 119.72 64.7702C121.1 64.0802 120.74 62.9902 118.71 61.9802C116.69 60.9702 114.51 60.7902 113.12 61.4802Z" fill="#94918E"/>
<path d="M129.709 58.98L123.399 55.82L124.129 55.46L131.759 59.28L131.109 59.61L120.389 58.37L126.989 61.67L126.259 62.03L118.629 58.21L119.529 57.76L129.719 58.98H129.709Z" fill="#94918E"/>
<path d="M132.959 56.3499C134.599 56.7299 136.289 56.4999 137.379 55.9599C138.479 55.4099 138.859 54.7199 137.849 54.2199C137.089 53.8399 136.249 53.9199 135.069 54.2699L133.199 54.8399C131.999 55.2099 130.639 55.3399 129.469 54.7599C128.229 54.1399 128.359 53.1999 129.789 52.4799C131.159 51.7999 132.779 51.6499 134.059 51.8699L134.119 52.4299C132.929 52.1599 131.489 52.2799 130.449 52.7999C129.409 53.3199 129.249 53.9099 130.209 54.3899C131.019 54.7999 131.879 54.6399 133.019 54.2899L134.609 53.7999C135.869 53.4099 137.249 53.1899 138.569 53.8499C139.919 54.5199 139.559 55.5099 138.039 56.2699C136.679 56.9499 134.649 57.2599 133.069 56.8999L132.959 56.3399V56.3499Z" fill="#94918E"/>
<path d="M408.62 98.9701L213.98 1.65007C209.59 -0.539932 202.45 -0.539932 198.07 1.65007L3.38 98.9901C1.2 100.08 0 101.55 0 103.12C0 103.38 0.1 130.86 0.1 130.86C0.1 132.71 1.15 134.14 3.45 135.29L198.09 232.61C200.28 233.71 203.17 234.26 206.05 234.26C208.93 234.26 211.81 233.71 214.01 232.61L408.7 135.27C410.95 134.15 412 132.63 412 130.49V103.35C412 103.27 412.01 103.18 412.01 103.1C412.01 101.53 410.81 100.06 408.63 98.9701H408.62ZM411.51 103.52C411.31 104.76 410.23 105.92 408.42 106.83L212.87 204.6C209.54 206.24 202.46 206.24 199.08 204.6L3.58 106.84C1.91 106 0.86 104.95 0.55 103.82C0.49 103.59 0.45 103.35 0.45 103.11C0.45 103.09 0.45 103.07 0.45 103.06C0.48 101.69 1.59 100.38 3.58 99.3901L198.27 2.05007C202.55 -0.0899317 209.5 -0.0899317 213.78 2.05007L408.42 99.3701C410.42 100.37 411.53 101.68 411.55 103.06C411.55 103.07 411.55 103.08 411.55 103.09C411.55 103.23 411.54 103.37 411.51 103.51V103.52ZM411.54 130.49C411.54 131.71 411.22 133.5 408.49 134.86L213.8 232.2C209.52 234.34 202.57 234.34 198.29 232.2L3.65 134.88C1.53 133.82 0.4 132.37 0.55 130.87V111.67C0.55 108.98 3.38 107.24 5.78 108.44L198.02 204.57C200.21 205.67 203.1 206.22 205.98 206.22C208.86 206.22 211.74 205.67 213.94 204.57L398.79 112.14C404.65 109.21 411.54 113.47 411.54 120.02V130.49Z" fill="#94918E"/>
<path d="M186.75 126.44V117.35C179.08 121.19 176.94 126.74 180.32 131.53C181.63 129.67 183.77 127.92 186.75 126.44Z" fill="#CCC9C6"/>
<path d="M225.301 126.44C228.281 127.93 230.421 129.67 231.731 131.53C235.111 126.73 232.971 121.18 225.301 117.35V126.44Z" fill="#E5E3E1"/>
<path d="M186.75 126.44L206.02 136.08H206.04V126.99H206.02L186.75 117.35V126.44Z" fill="#E5E3E1"/>
<path d="M225.299 126.44V117.35L206.039 126.99V136.08L225.299 126.44Z" fill="#CCC9C6"/>
<path d="M225.3 126.44L206.04 136.07H206.03L186.75 126.44C183.77 127.93 181.63 129.67 180.32 131.53C181.63 133.39 183.77 135.14 186.75 136.62C192.08 139.28 199.06 140.61 206.04 140.61C213.01 140.61 219.98 139.28 225.3 136.62C228.28 135.13 230.42 133.39 231.73 131.53C230.42 129.67 228.28 127.92 225.3 126.44Z" fill="#736F6C"/>
<path d="M243.119 100.53L251.029 104.49L243.119 100.53Z" fill="#736F6C"/>
<path d="M270.309 103.94C264.989 101.28 258.009 99.95 251.029 99.95C248.359 99.95 245.689 100.14 243.119 100.53L251.029 104.49V113.58L243.119 117.54C245.689 117.93 248.359 118.12 251.029 118.12C258.009 118.12 264.989 116.79 270.309 114.13C273.289 112.64 275.429 110.9 276.739 109.04C275.429 107.18 273.279 105.43 270.309 103.95V103.94Z" fill="#736F6C"/>
<path d="M241.94 109.03L231.76 114.12C235.05 115.76 238.96 116.9 243.12 117.53L251.03 113.57V104.48L241.94 109.02V109.03Z" fill="#CCC9C6"/>
<path d="M247.71 95.4001C247.71 93.1401 249.34 91.2601 251.48 90.8601C251.33 90.8601 251.18 90.8601 251.03 90.8601C244.05 90.8601 237.07 92.1901 231.75 94.8501L243.11 100.53C245.68 100.14 248.35 99.9501 251.02 99.9501C251.2 99.9501 251.37 99.9501 251.55 99.9501C249.36 99.5801 247.7 97.6901 247.7 95.4001H247.71Z" fill="#CCC9C6"/>
<path d="M270.311 94.8501C265.591 92.4901 259.571 91.1801 253.401 90.9101C252.761 90.8801 252.121 90.8701 251.481 90.8601C249.331 91.2601 247.711 93.1401 247.711 95.4001C247.711 97.6601 249.381 99.5901 251.561 99.9501C252.011 99.9501 252.461 99.9601 252.901 99.9801C259.241 100.2 265.461 101.51 270.311 103.93C273.291 105.42 275.431 107.16 276.741 109.02C280.121 104.22 277.981 98.6701 270.311 94.8401V94.8501Z" fill="#E5E3E1"/>
<path d="M225.33 81.4499C221.14 79.3599 215.93 78.0899 210.5 77.6399C210.48 77.6399 210.47 77.6399 210.45 77.6399C210.21 77.6399 209.97 77.6199 209.74 77.5799C201.59 77.0299 193.04 78.3099 186.77 81.4499C183.79 82.9399 181.65 84.6799 180.34 86.5399C181.65 88.3999 183.79 90.1499 186.77 91.6299L206.05 81.9899L225.33 91.6299C228.31 90.1399 230.45 88.3999 231.76 86.5399C230.45 84.6799 228.31 82.9299 225.33 81.4499Z" fill="#736F6C"/>
<path d="M186.771 81.45C193.031 78.32 201.591 77.03 209.741 77.58C207.551 77.24 205.871 75.35 205.871 73.06C205.871 70.77 207.651 68.76 209.941 68.51C201.731 67.92 193.091 69.21 186.781 72.36C179.111 76.2 176.971 81.75 180.351 86.54C181.661 84.68 183.801 82.93 186.781 81.45H186.771Z" fill="#CCC9C6"/>
<path d="M225.329 72.36C221.469 70.43 216.749 69.21 211.779 68.67C211.169 68.6 210.549 68.55 209.929 68.5C207.639 68.75 205.859 70.7 205.859 73.05C205.859 75.4 207.539 77.23 209.729 77.57C209.979 77.59 210.239 77.61 210.489 77.63C215.919 78.08 221.129 79.34 225.319 81.44C228.299 82.93 230.439 84.67 231.749 86.53C235.129 81.73 232.989 76.18 225.319 72.35L225.329 72.36Z" fill="#E5E3E1"/>
<path d="M168.959 100.54L161.039 104.5L168.949 100.54H168.959Z" fill="#736F6C"/>
<path d="M141.76 103.95C147.08 101.29 154.06 99.96 161.04 99.96C163.71 99.96 166.38 100.15 168.95 100.54L161.04 104.5V113.59L168.95 117.55C166.38 117.94 163.71 118.13 161.04 118.13C154.06 118.13 147.08 116.8 141.76 114.14C138.78 112.65 136.64 110.91 135.33 109.05C136.64 107.19 138.79 105.44 141.76 103.96V103.95Z" fill="#736F6C"/>
<path d="M170.129 109.04L180.309 114.13C177.019 115.77 173.109 116.91 168.949 117.54L161.039 113.58V104.49L170.129 109.03V109.04Z" fill="#E5E3E1"/>
<path d="M164.36 95.4199C164.36 93.1599 162.73 91.2799 160.59 90.8799C160.74 90.8799 160.89 90.8799 161.04 90.8799C168.02 90.8799 175 92.2099 180.32 94.8699L168.96 100.55C166.39 100.16 163.72 99.9699 161.05 99.9699C160.87 99.9699 160.7 99.9699 160.52 99.9699C162.71 99.5999 164.37 97.7099 164.37 95.4199H164.36Z" fill="#E5E3E1"/>
<path d="M160.589 90.8799C159.949 90.8799 159.309 90.8999 158.669 90.9299C152.499 91.1999 146.479 92.5099 141.759 94.8699C134.089 98.6999 131.949 104.25 135.329 109.05C136.639 107.19 138.789 105.44 141.759 103.96C146.609 101.54 152.829 100.22 159.169 100.01C159.619 99.9899 160.059 99.9799 160.509 99.9799C162.699 99.6099 164.359 97.7199 164.359 95.4299C164.359 93.1399 162.729 91.2899 160.589 90.8899V90.8799Z" fill="#CCC9C6"/>
<path d="M225.3 117.35C232.97 121.19 235.11 126.74 231.73 131.53C230.42 133.39 228.28 135.14 225.3 136.62C219.98 139.28 213.01 140.61 206.04 140.61H206.03C199.05 140.61 192.08 139.28 186.75 136.62C183.77 135.13 181.63 133.39 180.32 131.53C176.94 126.73 179.08 121.18 186.75 117.35L206.03 126.99H206.04L225.3 117.35ZM225.3 116.85L225.1 116.95L208.85 125.07C207.07 125.96 204.97 125.96 203.19 125.07L186.94 116.95L186.74 116.85L186.54 116.95C182.1 119.17 179.33 122.02 178.53 125.17C177.97 127.4 178.46 129.69 179.94 131.8C181.34 133.79 183.56 135.55 186.54 137.04C191.75 139.65 198.67 141.08 206.02 141.08C213.38 141.08 220.29 139.64 225.5 137.04C228.47 135.55 230.69 133.79 232.1 131.8C233.58 129.7 234.07 127.41 233.51 125.17C232.72 122.01 229.95 119.17 225.5 116.95L225.3 116.85Z" fill="#94918E"/>
<path d="M251.03 90.8599C251.18 90.8599 251.33 90.8599 251.48 90.8599C252.12 90.8599 252.76 90.8799 253.4 90.9099C259.57 91.1799 265.59 92.4899 270.31 94.8499C277.98 98.6799 280.12 104.23 276.74 109.03C275.43 110.89 273.28 112.64 270.31 114.12C264.99 116.78 258.01 118.11 251.03 118.11C248.36 118.11 245.69 117.92 243.12 117.53C238.96 116.9 235.04 115.76 231.76 114.12L241.94 109.03L251.03 104.49L243.12 100.53L231.76 94.8499C237.08 92.1899 244.06 90.8599 251.04 90.8599M251.03 90.4099C243.68 90.4099 236.76 91.8399 231.55 94.4499L230.74 94.8499L231.55 95.2499L242.91 100.93L246.78 102.87C248.11 103.54 248.11 105.44 246.78 106.1L241.73 108.62L231.55 113.71L230.74 114.11L231.55 114.51C234.8 116.14 238.67 117.3 243.05 117.96C245.64 118.35 248.32 118.55 251.03 118.55C258.38 118.55 265.3 117.12 270.51 114.51C273.49 113.02 275.71 111.26 277.11 109.27C278.59 107.17 279.08 104.88 278.52 102.65C277.73 99.4899 274.96 96.6499 270.51 94.4299C265.92 92.1399 259.85 90.7199 253.42 90.4399C252.8 90.4099 252.15 90.3999 251.49 90.3899H251.3C251.21 90.3899 251.12 90.3899 251.03 90.3899V90.4099Z" fill="#94918E"/>
<path d="M161.039 90.8602C168.019 90.8602 174.999 92.1902 180.319 94.8502L168.959 100.53L161.049 104.49L170.139 109.03L180.319 114.12C177.029 115.76 173.119 116.9 168.959 117.53C166.389 117.92 163.719 118.11 161.049 118.11C154.069 118.11 147.089 116.78 141.769 114.12C138.789 112.63 136.649 110.89 135.339 109.03C131.959 104.23 134.099 98.6802 141.769 94.8502C146.489 92.4902 152.509 91.1802 158.679 90.9102C159.319 90.8802 159.959 90.8702 160.599 90.8602C160.749 90.8602 160.899 90.8602 161.049 90.8602M161.039 90.4102C160.949 90.4102 160.859 90.4102 160.769 90.4102H160.579C159.919 90.4102 159.269 90.4302 158.649 90.4602C152.209 90.7402 146.139 92.1501 141.559 94.4501C137.119 96.6701 134.349 99.5102 133.549 102.67C132.989 104.9 133.479 107.19 134.959 109.3C136.359 111.29 138.579 113.05 141.559 114.54C146.769 117.15 153.689 118.58 161.039 118.58C163.749 118.58 166.429 118.38 169.019 117.99C173.399 117.32 177.269 116.16 180.519 114.54L181.329 114.14L180.519 113.74L170.339 108.65L165.289 106.13C163.959 105.46 163.959 103.56 165.289 102.9L169.159 100.96L180.519 95.2802L181.329 94.8801L180.519 94.4802C175.309 91.8702 168.389 90.4402 161.039 90.4402V90.4102Z" fill="#94918E"/>
<path d="M206.049 68.3699C207.349 68.3699 208.649 68.4199 209.939 68.5099C210.559 68.5499 211.169 68.6099 211.789 68.6799C216.749 69.2099 221.479 70.4399 225.339 72.3699C233.009 76.2099 235.149 81.7599 231.769 86.5499C230.459 88.4099 228.319 90.1599 225.339 91.6399L206.059 81.9999L186.779 91.6399C183.799 90.1499 181.659 88.4099 180.349 86.5499C176.969 81.7499 179.109 76.1999 186.779 72.3699C192.099 69.7099 199.079 68.3799 206.059 68.3799M206.049 67.9099C198.699 67.9099 191.779 69.3399 186.569 71.9499C182.129 74.1699 179.359 77.0199 178.559 80.1699C177.999 82.3999 178.489 84.6899 179.969 86.7999C181.369 88.7899 183.589 90.5499 186.569 92.0399L186.769 92.1399L186.969 92.0399L203.219 83.9199C204.999 83.0299 207.099 83.0299 208.879 83.9199L225.129 92.0399L225.329 92.1399L225.529 92.0399C228.499 90.5499 230.719 88.7899 232.129 86.7999C233.609 84.6999 234.099 82.4099 233.539 80.1699C232.749 77.0099 229.979 74.1699 225.529 71.9499C221.759 70.0699 217.019 68.7799 211.829 68.2199C211.139 68.1499 210.529 68.0899 209.969 68.0499C208.679 67.9599 207.359 67.9099 206.049 67.9099Z" fill="#94918E"/>
</g>
<defs>
<clipPath id="clip0_3216_93860">
<rect width="412" height="234.25" fill="white"/>
</clipPath>
</defs>
</svg>
