<svg width="414" height="236" viewBox="0 0 414 236" fill="none" xmlns="http://www.w3.org/2000/svg">
<g clip-path="url(#clip0_3216_93993)">
<path d="M206.466 74.8191C206.205 68.8593 208.995 63.2506 213.741 59.8392C211.704 60.6419 209.246 61.0432 206.777 61.0432C203.888 61.0432 200.998 60.4914 198.791 59.3877L149.346 34.6654C147.931 33.963 146.938 33.0901 146.406 32.137V59.4981C146.406 60.8927 147.52 62.2272 149.547 63.2406L198.991 87.9629C203.286 90.1101 210.269 90.1101 214.553 87.9629L220.222 85.1335C213.62 86.789 206.767 82.0231 206.456 74.8292L206.466 74.8191Z" fill="#E5E3E1"/>
<path d="M264.208 34.6556L214.764 59.3779C214.433 59.5385 214.091 59.689 213.74 59.8294C208.994 63.2408 206.205 68.8495 206.466 74.8093C206.777 82.0133 213.63 86.7692 220.232 85.1136L264.008 63.2308C266.034 62.2174 267.148 60.893 267.148 59.4883V32.7693L266.356 33.1706C265.814 33.7124 265.091 34.2141 264.218 34.6556H264.208Z" fill="#CCC9C6"/>
<path d="M267.128 30.2908C267.017 28.9764 265.924 27.7323 264.007 26.7791L214.563 2.05676C212.416 0.983187 209.596 0.451416 206.777 0.451416C203.957 0.451416 201.138 0.983187 198.991 2.05676L149.546 26.7791C147.64 27.7323 146.546 28.9764 146.436 30.2908C146.436 30.361 146.426 30.4413 146.426 30.5216C146.426 30.6018 146.426 30.6721 146.436 30.7523C146.546 32.0667 147.64 33.3109 149.546 34.264L198.991 58.9864C203.285 61.1335 210.268 61.1335 214.553 58.9864L242.757 44.8794L263.987 34.264C265.894 33.3109 266.987 32.0667 267.098 30.7523V30.6721C267.098 30.6721 267.108 30.5717 267.108 30.5316C267.108 30.4513 267.108 30.3811 267.098 30.3008L267.128 30.2908Z" fill="white"/>
<path d="M267.58 30.2909C267.47 28.796 266.286 27.4113 264.209 26.3679L214.774 1.65556C210.369 -0.541761 203.206 -0.541761 198.801 1.65556L149.356 26.3779C147.279 27.4113 146.095 28.796 145.985 30.301L145.965 32.1873V59.5083C145.965 61.0835 147.169 62.5584 149.356 63.6521L198.801 88.3744C200.998 89.4781 203.898 90.0299 206.787 90.0299C209.677 90.0299 212.567 89.4781 214.774 88.3744L264.219 63.6521C266.406 62.5584 267.61 61.0835 267.61 59.5083V31.816L267.59 30.301L267.58 30.2909ZM267.149 59.4982C267.149 60.8929 266.035 62.2273 264.008 63.2407L220.232 85.1236L214.563 87.953C210.269 90.1002 203.286 90.1002 199.002 87.953L149.557 63.2307C147.53 62.2173 146.416 60.8929 146.416 59.4882V36.3812C146.416 34.8963 147.982 33.9632 149.316 34.6354C149.326 34.6354 149.346 34.6454 149.356 34.6555L198.801 59.3778C200.998 60.4815 203.898 61.0333 206.787 61.0333C209.246 61.0333 211.714 60.632 213.751 59.8293C214.102 59.6889 214.453 59.5384 214.774 59.3778L264.219 34.6555L264.279 34.6254C265.603 33.9632 267.159 34.9163 267.159 36.4013V59.4882L267.149 59.4982ZM146.436 30.5117C146.436 30.4314 146.436 30.3612 146.446 30.2809C146.557 28.9665 147.65 27.7224 149.557 26.7692L199.002 2.05689C201.149 0.983318 203.968 0.451547 206.787 0.451547C209.607 0.451547 212.426 0.983318 214.573 2.05689L264.018 26.7792C265.924 27.7324 267.018 28.9766 267.138 30.2909C267.138 30.3612 267.149 30.4414 267.149 30.5217C267.149 30.5217 267.149 30.622 267.149 30.6622V30.7424C267.028 32.0568 265.934 33.301 264.028 34.2541L242.797 44.8695L214.593 58.9765C210.299 61.1236 203.316 61.1236 199.032 58.9765L149.587 34.2541C147.681 33.301 146.587 32.0568 146.477 30.7424C146.477 30.6722 146.467 30.5919 146.467 30.5117H146.436Z" fill="#94918E"/>
<path d="M158.146 66.5216L133.775 54.3411L36.4511 102.993H0.230469V131.97C0.230469 133.394 1.31408 134.819 3.49133 135.913L52.936 160.635C57.2905 162.812 64.344 162.812 68.6985 160.635L190.976 99.5216C192.541 98.739 193.534 97.1336 193.534 95.3778V66.5216H158.146Z" fill="#E5E3E1"/>
<path d="M193.536 95.9895V67.0129L95.7508 117.973L77.6806 126.983C77.1087 127.274 76.5568 127.595 76.0351 127.936L70.2258 130.836C64.0251 133.926 60.2325 140.377 60.5234 147.29C60.8545 155.006 68.7107 159.932 75.704 157.143L190.276 99.9426C192.453 98.859 193.536 97.4242 193.536 95.9995V95.9895Z" fill="#CCC9C6"/>
<path d="M193.705 66.3008C193.484 64.8158 192.571 63.5315 191.197 62.8493L141.752 38.1269C136.756 35.6286 130.786 35.6286 125.779 38.1269L73.1637 64.4345C73.1637 64.4345 73.0834 64.4345 73.0533 64.4546L3.38126 99.3107C1.21404 100.394 0.0200668 101.859 0 103.434V131.969C0 133.545 1.20401 135.02 3.3913 136.113L52.836 160.836C55.0333 161.939 57.933 162.491 60.8226 162.491C63.7122 162.491 66.6018 161.939 68.8092 160.836L75.7624 157.364H75.7925L190.374 100.143C190.745 99.9629 191.086 99.7522 191.468 99.5013C191.588 99.4211 191.709 99.3508 191.819 99.2605L191.879 99.2104C192.01 99.11 192.14 98.9997 192.26 98.8893C193.244 98.0064 193.765 97.0131 193.765 95.9997V68.4078L193.705 66.3008ZM3.58193 99.712L73.1737 64.8961C73.1737 64.8961 73.254 64.8961 73.2841 64.876L125.98 38.5283C130.856 36.0901 136.675 36.0901 141.541 38.5283L190.986 63.2506C192.22 63.8727 193.033 64.9764 193.234 66.3008C193.254 66.4513 193.274 66.6018 193.274 66.7523C193.274 66.8325 193.294 66.9128 193.294 66.983C193.294 68.5984 192.431 70.0031 190.986 70.7255L133.735 99.3508C133.735 99.3508 133.665 99.3508 133.625 99.3709L68.5784 131.909C64.2841 134.056 57.3009 134.056 53.0166 131.909L3.58193 107.187C1.56521 106.184 0.451504 104.849 0.451504 103.444C0.451504 103.444 0.451504 103.424 0.451504 103.414C0.451504 103.344 0.451504 103.274 0.461537 103.204C0.581938 101.889 1.67558 100.655 3.5719 99.702L3.58193 99.712ZM193.314 95.9896C193.314 96.8726 192.842 97.7555 191.949 98.5482C191.839 98.6485 191.719 98.7488 191.598 98.8391L191.739 99.0197L191.548 98.8893C191.448 98.9696 191.337 99.0398 191.217 99.11C190.856 99.3609 190.515 99.5515 190.173 99.7321L75.6119 156.933L68.6085 160.434C64.3142 162.581 57.331 162.581 53.0467 160.434L3.59196 135.712C1.56521 134.699 0.451504 133.374 0.451504 131.969V109.475C0.451504 107.939 2.07692 106.936 3.4515 107.628L4.34447 108.08L52.826 132.321C55.0233 133.424 57.9229 133.976 60.8126 133.976C63.7022 133.976 66.5918 133.424 68.7992 132.321L133.766 99.8224C133.766 99.8224 133.836 99.8224 133.876 99.8024L190.725 71.3777C190.725 71.3777 190.745 71.3777 190.755 71.3676C191.929 70.7757 193.314 71.5783 193.314 72.8927V96.0097V95.9896Z" fill="#94918E"/>
<path d="M191.096 63.0398L141.652 38.3174C136.685 35.8392 130.846 35.8392 125.889 38.3174L73.1935 64.6652L73.1634 64.6451L3.4813 99.5113C-0.853141 101.678 -0.853141 105.23 3.4813 107.398L52.926 132.12C57.2604 134.287 64.3541 134.287 68.6885 132.12L133.735 99.5815L133.765 99.6016L191.086 70.9361C194.337 69.3107 194.337 64.6752 191.086 63.0498L191.096 63.0398Z" fill="white"/>
<path d="M60.8126 133.966C57.9229 133.966 55.0333 133.414 52.826 132.311L3.38126 107.598C1.20401 106.505 0 105.04 0 103.455C0 101.869 1.20401 100.394 3.38126 99.3107L73.1537 64.4044L73.1838 64.4245L125.779 38.1269C130.776 35.6286 136.745 35.6286 141.752 38.1269L191.197 62.8493C192.772 63.6419 193.755 65.2272 193.755 66.9931C193.755 68.7589 192.772 70.3442 191.197 71.1369L133.766 99.8525L133.735 99.8325L68.7891 132.321C66.5918 133.424 63.6922 133.976 60.8025 133.976L60.8126 133.966ZM73.1637 64.9061L3.58193 99.712C1.56521 100.715 0.451504 102.05 0.451504 103.455C0.451504 104.859 1.56521 106.184 3.58193 107.197L53.0266 131.919C57.3209 134.066 64.3042 134.066 68.5885 131.919L133.735 99.3308L133.766 99.3508L190.986 70.7355C192.431 70.0131 193.294 68.6185 193.294 66.9931C193.294 65.3676 192.431 63.973 190.986 63.2506L141.541 38.5283C136.665 36.0901 130.846 36.0901 125.98 38.5283L73.1838 64.9262L73.1537 64.9061H73.1637Z" fill="#94918E"/>
<path d="M279.64 99.8426C279.64 99.8426 279.57 99.8426 279.54 99.8226L214.664 67.3845V95.8594L279.64 128.348V99.8426Z" fill="#E5E3E1"/>
<path d="M279.641 99.8426V128.348L344.617 95.8594V67.3845L279.741 99.8226C279.741 99.8226 279.671 99.8426 279.641 99.8426Z" fill="#CCC9C6"/>
<path d="M343.883 66.7823L279.639 34.6653L215.385 66.7823L214.934 67.013L215.385 67.2438L279.639 99.3608L343.883 67.2438L344.335 67.013L343.883 66.7823Z" fill="white"/>
<path d="M345.069 67.013C345.069 66.9227 345.019 66.8525 344.948 66.8123L279.641 34.1536L214.383 66.7822L214.213 66.8725V96.13L279.651 128.849L345.089 96.13V67.0532C345.089 67.0532 345.089 67.0331 345.089 67.0231C345.089 67.0231 345.089 67.013 345.089 67.003L345.069 67.013ZM341.718 97.3039L281.387 127.464C280.283 128.016 278.989 128.016 277.885 127.464L217.323 97.1835C215.688 96.3608 214.654 94.6952 214.654 92.8591V70.304C214.654 68.9595 216.069 68.0766 217.273 68.6786L279.53 99.8022C279.53 99.8022 279.601 99.8223 279.631 99.8223C279.631 99.8223 279.701 99.8223 279.731 99.8022L341.989 68.6786C343.193 68.0766 344.607 68.9495 344.607 70.304V92.5982C344.607 94.5849 343.483 96.4009 341.708 97.2939L341.718 97.3039ZM218.176 65.3876L277.002 35.9796C278.658 35.1469 280.614 35.1469 282.27 35.9796L341.096 65.3876C342.43 66.0598 342.43 67.9662 341.096 68.6284L282.41 97.9762C280.664 98.8491 278.617 98.8491 276.872 97.9762L218.186 68.6284C216.852 67.9562 216.852 66.0498 218.186 65.3876H218.176Z" fill="#94918E"/>
<path d="M352.013 147.712C351.752 141.752 354.542 136.143 359.287 132.732C357.251 133.535 354.792 133.936 352.324 133.936C349.435 133.936 346.545 133.384 344.338 132.281L294.893 107.558C293.478 106.856 292.485 105.983 291.953 105.03V132.391C291.953 133.786 293.067 135.12 295.094 136.133L344.538 160.856C348.833 163.003 355.816 163.003 360.1 160.856L365.769 158.026C359.167 159.682 352.314 154.916 352.003 147.722L352.013 147.712Z" fill="#E5E3E1"/>
<path d="M409.755 107.558L360.311 132.281C359.979 132.441 359.638 132.592 359.287 132.732C354.541 136.143 351.752 141.752 352.013 147.712C352.324 154.916 359.177 159.672 365.779 158.016L409.555 136.133C411.581 135.12 412.695 133.796 412.695 132.391V105.672L411.902 106.073C411.361 106.615 410.638 107.117 409.765 107.558H409.755Z" fill="#CCC9C6"/>
<path d="M412.663 103.193C412.553 101.879 411.459 100.635 409.543 99.6817L360.098 74.9593C357.951 73.8858 355.131 73.354 352.312 73.354C349.493 73.354 346.673 73.8858 344.526 74.9593L295.081 99.6817C293.175 100.635 292.081 101.879 291.971 103.193C291.971 103.264 291.961 103.344 291.961 103.424C291.961 103.504 291.961 103.575 291.971 103.655C292.081 104.969 293.175 106.213 295.081 107.167L344.526 131.889C348.82 134.036 355.804 134.036 360.088 131.889L388.292 117.782L409.523 107.167C411.429 106.213 412.523 104.969 412.633 103.655V103.575C412.633 103.575 412.643 103.474 412.643 103.434C412.643 103.354 412.643 103.284 412.633 103.203L412.663 103.193Z" fill="white"/>
<path d="M413.115 103.193C413.005 101.698 411.821 100.314 409.744 99.2702L360.299 74.5479C355.895 72.3506 348.731 72.3506 344.326 74.5479L294.882 99.2702C292.805 100.304 291.621 101.688 291.51 103.193L291.49 105.08V132.401C291.49 133.976 292.694 135.451 294.882 136.544L344.326 161.267C346.524 162.37 349.423 162.922 352.313 162.922C355.202 162.922 358.092 162.37 360.299 161.267L409.744 136.544C411.931 135.451 413.135 133.976 413.135 132.401V104.708L413.115 103.193ZM412.684 132.401C412.684 133.795 411.57 135.13 409.543 136.143L365.768 158.026L360.099 160.855C355.804 163.003 348.821 163.003 344.537 160.855L295.092 136.133C293.065 135.12 291.952 133.795 291.952 132.391V109.284C291.952 107.799 293.517 106.866 294.851 107.538C294.861 107.538 294.882 107.548 294.892 107.558L344.336 132.28C346.534 133.384 349.433 133.936 352.323 133.936C354.781 133.936 357.249 133.534 359.286 132.732C359.637 132.591 359.988 132.441 360.309 132.28L409.754 107.558L409.814 107.528C411.139 106.866 412.694 107.819 412.694 109.304V132.391L412.684 132.401ZM291.972 103.414C291.972 103.334 291.972 103.264 291.982 103.183C292.092 101.869 293.186 100.625 295.092 99.6716L344.537 74.9492C346.684 73.8756 349.503 73.3439 352.323 73.3439C355.142 73.3439 357.962 73.8756 360.109 74.9492L409.554 99.6716C411.46 100.625 412.553 101.869 412.674 103.183C412.674 103.253 412.684 103.334 412.684 103.414C412.684 103.414 412.684 103.514 412.684 103.555V103.635C412.564 104.949 411.47 106.193 409.564 107.146L388.333 117.762L360.129 131.869C355.835 134.016 348.851 134.016 344.567 131.869L295.122 107.146C293.216 106.193 292.122 104.949 292.012 103.635C292.012 103.565 292.002 103.484 292.002 103.404L291.972 103.414Z" fill="#94918E"/>
<path d="M239.464 87.11C221.535 78.1401 192.187 78.1401 174.257 87.11C165.287 91.5949 160.812 97.5046 160.812 103.414C160.812 109.324 165.297 115.234 174.257 119.719C185.936 125.558 202.441 127.585 217.501 125.829C218.434 125.719 219.368 125.598 220.291 125.458C227.324 124.394 233.936 122.488 239.464 119.729C248.434 115.244 252.909 109.334 252.909 103.424C252.909 97.5146 248.424 91.605 239.464 87.12V87.11Z" fill="#FFFF42"/>
<path d="M206.336 139.906C206.336 133.053 211.102 127.314 217.493 125.819C202.443 127.585 185.928 125.548 174.249 119.708C165.279 115.223 160.804 109.314 160.804 103.404H160.744V132.381C160.744 138.28 165.249 144.18 174.249 148.685C186.811 154.966 204.811 156.862 220.664 154.374C212.727 154.304 206.326 147.852 206.326 139.896L206.336 139.906Z" fill="#E5E3E1"/>
<path d="M252.941 131.648V125.427C252.971 124.946 252.971 124.474 252.941 123.993V103.414H252.911C252.911 109.324 248.426 115.233 239.466 119.718C233.938 122.488 227.316 124.394 220.292 125.447C219.369 125.588 218.436 125.708 217.503 125.819C211.102 127.314 206.346 133.053 206.346 139.906C206.346 147.852 212.757 154.304 220.683 154.384C222.61 154.083 224.506 153.722 226.352 153.29C231.108 152.187 235.553 150.651 239.476 148.695C248.857 143.999 253.352 137.789 252.951 131.648H252.941Z" fill="#CCC9C6"/>
<path d="M239.464 87.11C221.535 78.1401 192.187 78.1401 174.257 87.11C165.287 91.5949 160.812 97.5046 160.812 103.414C160.812 109.324 165.297 115.234 174.257 119.719C185.936 125.558 202.441 127.585 217.501 125.829C218.434 125.719 219.368 125.598 220.291 125.458C227.324 124.394 233.936 122.488 239.464 119.729C248.434 115.244 252.909 109.334 252.909 103.424C252.909 97.5146 248.424 91.605 239.464 87.12V87.11Z" fill="white"/>
<path d="M253.172 131.638V125.438C253.202 124.936 253.202 124.444 253.172 123.993V103.414L253.141 103.184C253.031 97.0029 248.225 91.2337 239.576 86.9093C221.546 77.8893 192.198 77.8893 174.168 86.9093C165.52 91.2337 160.714 97.0029 160.603 103.184L160.543 107.036V132.391C160.543 138.642 165.379 144.501 174.168 148.896C182.998 153.31 194.757 155.678 206.827 155.678C211.463 155.678 216.148 155.327 220.723 154.615C222.71 154.304 224.616 153.933 226.402 153.521C231.299 152.377 235.723 150.832 239.576 148.906C248.767 144.311 253.593 138.18 253.182 131.648L253.172 131.638ZM174.359 87.3107C183.319 82.8257 195.088 80.5883 206.857 80.5883C218.626 80.5883 230.396 82.8257 239.355 87.3107C247.944 91.605 252.68 97.324 252.68 103.414C252.68 109.505 247.944 115.214 239.355 119.518C234.048 122.167 227.446 124.143 220.242 125.227C219.339 125.367 218.396 125.488 217.463 125.598C202.262 127.384 186.66 125.297 175.423 120.03C175.061 119.859 174.7 119.689 174.349 119.508C165.76 115.214 161.025 109.495 161.025 103.404C161.025 97.314 165.76 91.605 174.349 87.3006L174.359 87.3107ZM239.366 148.494C235.553 150.401 231.148 151.946 226.292 153.08C224.516 153.491 222.62 153.862 220.643 154.163C204.228 156.732 186.499 154.565 174.359 148.494C165.73 144.18 160.974 138.461 160.974 132.391V110.337C160.974 109.906 161.326 109.565 161.747 109.565C161.998 109.565 162.209 109.685 162.349 109.866C162.269 109.715 162.188 109.565 162.108 109.424C162.249 109.695 162.399 109.976 162.56 110.247C162.72 110.518 162.901 110.789 163.081 111.05C163.112 111.1 163.152 111.15 163.182 111.2C163.362 111.461 163.553 111.712 163.744 111.963C163.784 112.013 163.824 112.063 163.864 112.113C164.075 112.374 164.285 112.635 164.506 112.886C164.506 112.886 164.506 112.886 164.506 112.896C164.737 113.157 164.968 113.408 165.219 113.658C165.269 113.709 165.309 113.759 165.359 113.799C165.6 114.04 165.851 114.28 166.112 114.521C166.162 114.571 166.212 114.612 166.262 114.662C166.533 114.913 166.804 115.153 167.095 115.394H167.105C167.396 115.645 167.697 115.886 167.998 116.117C168.058 116.157 168.118 116.207 168.168 116.247C168.469 116.478 168.78 116.699 169.091 116.929C169.152 116.969 169.212 117.02 169.282 117.06C169.613 117.291 169.954 117.521 170.305 117.742C170.657 117.963 171.018 118.183 171.389 118.404C171.459 118.444 171.53 118.484 171.6 118.525C171.961 118.735 172.322 118.946 172.703 119.147C172.774 119.187 172.854 119.227 172.924 119.267C173.316 119.478 173.717 119.688 174.128 119.889C174.62 120.13 175.122 120.371 175.623 120.602C175.744 120.652 175.864 120.712 175.984 120.762C176.486 120.983 176.998 121.214 177.52 121.424C177.58 121.444 177.64 121.474 177.7 121.495C178.182 121.685 178.663 121.876 179.155 122.056C179.275 122.107 179.406 122.147 179.526 122.197C180.058 122.387 180.6 122.578 181.142 122.769C181.242 122.799 181.342 122.829 181.433 122.869C181.914 123.03 182.406 123.18 182.897 123.331C183.018 123.371 183.138 123.401 183.269 123.441C183.831 123.612 184.392 123.772 184.964 123.923C185.095 123.953 185.215 123.993 185.346 124.023C185.847 124.153 186.359 124.284 186.871 124.404C186.981 124.434 187.091 124.454 187.212 124.484C187.804 124.625 188.396 124.755 188.988 124.876C189.128 124.906 189.279 124.936 189.419 124.966C189.961 125.076 190.513 125.187 191.065 125.277C191.145 125.287 191.235 125.307 191.315 125.327C191.928 125.438 192.55 125.538 193.172 125.628C193.322 125.648 193.483 125.678 193.633 125.699C194.245 125.789 194.867 125.879 195.489 125.949C195.509 125.949 195.53 125.949 195.56 125.949C196.202 126.03 196.844 126.1 197.496 126.17C197.657 126.19 197.807 126.2 197.968 126.22C198.61 126.28 199.262 126.341 199.914 126.391C199.974 126.391 200.035 126.391 200.095 126.401C200.707 126.441 201.319 126.481 201.931 126.511C202.081 126.511 202.232 126.531 202.382 126.531C203.035 126.561 203.697 126.591 204.359 126.602C204.459 126.602 204.56 126.602 204.66 126.602C205.252 126.612 205.854 126.622 206.446 126.622C206.536 126.622 206.616 126.622 206.707 126.622C206.747 126.622 206.797 126.622 206.837 126.622C207.62 126.622 208.402 126.612 209.195 126.591C209.325 126.591 209.456 126.591 209.586 126.581C210.369 126.561 211.152 126.521 211.944 126.481C212.065 126.481 212.195 126.471 212.315 126.461C213.118 126.411 213.921 126.361 214.723 126.29C214.814 126.29 214.904 126.27 214.984 126.27C215.827 126.2 216.67 126.11 217.503 126.01C218.446 125.899 219.389 125.769 220.302 125.638C227.546 124.545 234.198 122.558 239.546 119.879C239.957 119.678 240.349 119.468 240.74 119.257C240.81 119.217 240.891 119.177 240.961 119.137C241.332 118.936 241.693 118.725 242.054 118.515C242.125 118.474 242.195 118.434 242.255 118.394C242.606 118.183 242.957 117.973 243.299 117.752C243.309 117.752 243.329 117.732 243.339 117.722C243.68 117.501 244.021 117.27 244.342 117.05C244.412 117 244.473 116.959 244.543 116.909C244.854 116.689 245.165 116.468 245.466 116.237C245.526 116.197 245.576 116.157 245.626 116.107C245.917 115.886 246.198 115.655 246.469 115.434C246.489 115.414 246.519 115.394 246.539 115.374C246.82 115.133 247.091 114.893 247.362 114.652C247.422 114.602 247.473 114.551 247.523 114.501C247.784 114.26 248.034 114.02 248.265 113.779C248.305 113.739 248.345 113.689 248.396 113.648C248.626 113.418 248.847 113.177 249.058 112.946C249.078 112.916 249.108 112.896 249.128 112.866C249.349 112.615 249.559 112.364 249.76 112.103C249.8 112.053 249.85 111.993 249.891 111.943C250.091 111.692 250.282 111.441 250.462 111.18C250.493 111.14 250.523 111.09 250.553 111.05C250.723 110.809 250.884 110.558 251.034 110.317C251.054 110.287 251.075 110.247 251.095 110.217C251.205 110.026 251.225 109.986 251.335 109.796C251.305 109.846 251.365 109.745 251.335 109.796C251.476 109.615 251.626 109.495 251.937 109.495C252.299 109.495 252.69 109.735 252.69 110.087V123.933C252.72 124.384 252.72 124.856 252.69 125.357V131.578C253.091 137.849 248.225 143.979 239.335 148.424L239.366 148.494Z" fill="#94918E"/>
<path d="M133.766 172.726C133.766 172.726 133.695 172.726 133.665 172.706L68.7891 140.268V168.742L133.766 201.231V172.726Z" fill="#E5E3E1"/>
<path d="M133.766 172.726V201.231L198.742 168.742V140.268L133.866 172.706C133.866 172.706 133.796 172.726 133.766 172.726Z" fill="#CCC9C6"/>
<path d="M198.01 139.666L133.766 107.549L69.512 139.666L69.0605 139.896L69.512 140.117L133.766 172.244L198.01 140.117L198.462 139.896L198.01 139.666Z" fill="white"/>
<path d="M199.194 139.896C199.194 139.806 199.144 139.736 199.073 139.696L133.766 107.037L68.5085 139.666L68.3379 139.756V169.013L133.776 201.732L199.214 169.013V139.936C199.214 139.936 199.214 139.916 199.214 139.906C199.214 139.906 199.214 139.896 199.214 139.886L199.194 139.896ZM195.843 170.187L135.512 200.348C134.408 200.9 133.114 200.9 132.01 200.348L71.4482 170.067C69.8128 169.244 68.7794 167.579 68.7794 165.742V143.187C68.7794 141.843 70.1941 140.96 71.3981 141.562L133.655 172.686C133.655 172.686 133.726 172.706 133.756 172.706C133.756 172.706 133.826 172.706 133.856 172.686L196.114 141.562C197.318 140.96 198.732 141.833 198.732 143.187V165.482C198.732 167.468 197.608 169.284 195.833 170.177L195.843 170.187ZM72.3011 138.271L131.127 108.863C132.783 108.03 134.739 108.03 136.395 108.863L195.221 138.271C196.555 138.943 196.555 140.849 195.221 141.512L136.535 170.859C134.789 171.732 132.742 171.732 130.997 170.859L72.3111 141.512C70.9767 140.839 70.9767 138.933 72.3111 138.271H72.3011Z" fill="#94918E"/>
<path d="M279.642 172.726C279.642 172.726 279.572 172.726 279.542 172.706L214.666 140.268V168.742L279.642 201.231V172.726Z" fill="#E5E3E1"/>
<path d="M279.643 172.726V201.231L344.619 168.742V140.268L279.743 172.706C279.743 172.706 279.673 172.726 279.643 172.726Z" fill="#CCC9C6"/>
<path d="M343.887 139.666L279.643 107.549L215.389 139.666L214.938 139.896L215.389 140.117L279.643 172.244L343.887 140.117L344.339 139.896L343.887 139.666Z" fill="white"/>
<path d="M345.071 139.896C345.071 139.806 345.021 139.736 344.95 139.696L279.643 107.037L214.385 139.666L214.215 139.756V169.013L279.653 201.732L345.091 169.013V139.936C345.091 139.936 345.091 139.916 345.091 139.906C345.091 139.906 345.091 139.896 345.091 139.886L345.071 139.896ZM341.72 170.187L281.389 200.348C280.285 200.9 278.991 200.9 277.887 200.348L217.325 170.067C215.69 169.244 214.656 167.579 214.656 165.742V143.187C214.656 141.843 216.071 140.96 217.275 141.562L279.532 172.686C279.532 172.686 279.603 172.706 279.633 172.706C279.633 172.706 279.703 172.706 279.733 172.686L341.99 141.562C343.194 140.96 344.609 141.833 344.609 143.187V165.482C344.609 167.468 343.485 169.284 341.71 170.177L341.72 170.187ZM218.178 138.271L277.004 108.863C278.659 108.03 280.616 108.03 282.272 108.863L341.097 138.271C342.432 138.943 342.432 140.849 341.097 141.512L282.412 170.859C280.666 171.732 278.619 171.732 276.874 170.859L218.188 141.512C216.854 140.839 216.854 138.933 218.188 138.271H218.178Z" fill="#94918E"/>
<path d="M206.468 220.574C206.207 214.615 208.997 209.006 213.742 205.595C211.706 206.397 209.248 206.799 206.779 206.799C203.89 206.799 201 206.247 198.793 205.143L149.348 180.421C147.933 179.718 146.94 178.846 146.408 177.892V205.253C146.408 206.648 147.522 207.983 149.549 208.996L198.993 233.718C203.288 235.865 210.271 235.865 214.555 233.718L220.224 230.889C213.622 232.544 206.769 227.779 206.458 220.585L206.468 220.574Z" fill="#E5E3E1"/>
<path d="M264.21 180.421L214.766 205.143C214.435 205.304 214.093 205.454 213.742 205.595C208.996 209.006 206.207 214.615 206.468 220.574C206.779 227.778 213.632 232.534 220.234 230.879L264.01 208.996C266.036 207.983 267.15 206.658 267.15 205.253V178.534L266.357 178.936C265.816 179.478 265.093 179.979 264.22 180.421H264.21Z" fill="#CCC9C6"/>
<path d="M267.132 176.046C267.021 174.732 265.928 173.488 264.011 172.534L214.567 147.812C212.419 146.739 209.6 146.207 206.781 146.207C203.961 146.207 201.142 146.739 198.995 147.812L149.55 172.534C147.644 173.488 146.55 174.732 146.44 176.046C146.44 176.116 146.43 176.197 146.43 176.277C146.43 176.357 146.43 176.427 146.44 176.508C146.55 177.822 147.644 179.066 149.55 180.019L198.995 204.742C203.289 206.889 210.272 206.889 214.557 204.742L242.761 190.635L263.991 180.019C265.898 179.066 266.991 177.822 267.102 176.508V176.427C267.102 176.427 267.112 176.327 267.112 176.287C267.112 176.207 267.112 176.136 267.102 176.056L267.132 176.046Z" fill="white"/>
<path d="M267.582 176.046C267.472 174.551 266.288 173.166 264.211 172.123L214.766 147.401C210.362 145.203 203.198 145.203 198.793 147.401L149.348 172.123C147.271 173.156 146.087 174.541 145.977 176.046L145.957 177.932V205.253C145.957 206.829 147.161 208.304 149.348 209.397L198.793 234.12C200.99 235.223 203.89 235.775 206.78 235.775C209.669 235.775 212.559 235.223 214.766 234.12L264.211 209.397C266.398 208.304 267.602 206.829 267.602 205.253V177.561L267.582 176.046ZM267.151 205.253C267.151 206.648 266.037 207.982 264.01 208.996L220.234 230.879L214.566 233.708C210.271 235.855 203.288 235.855 199.004 233.708L149.559 208.986C147.532 207.972 146.419 206.648 146.419 205.243V182.136C146.419 180.651 147.984 179.718 149.318 180.391C149.328 180.391 149.348 180.401 149.358 180.411L198.803 205.133C201 206.237 203.9 206.788 206.79 206.788C209.248 206.788 211.716 206.387 213.753 205.584C214.104 205.444 214.455 205.294 214.776 205.133L264.221 180.411L264.281 180.381C265.606 179.718 267.161 180.671 267.161 182.156V205.243L267.151 205.253ZM146.439 176.277C146.439 176.197 146.439 176.126 146.449 176.046C146.559 174.732 147.653 173.488 149.559 172.534L199.004 147.812C201.151 146.738 203.97 146.207 206.79 146.207C209.609 146.207 212.428 146.738 214.576 147.812L264.02 172.534C265.927 173.488 267.02 174.732 267.141 176.046C267.141 176.116 267.151 176.197 267.151 176.277C267.151 176.277 267.151 176.377 267.151 176.417V176.498C267.03 177.812 265.937 179.056 264.03 180.009L242.8 190.625L214.596 204.732C210.301 206.879 203.318 206.879 199.034 204.732L149.589 180.009C147.683 179.056 146.589 177.812 146.479 176.498C146.479 176.427 146.469 176.347 146.469 176.267L146.439 176.277Z" fill="#94918E"/>
<path fill-rule="evenodd" clip-rule="evenodd" d="M207.883 21.2405L192.843 28.7555C192.632 28.8559 192.632 29.0264 192.843 29.1268L194.719 30.0699L206.659 28.8759C207.391 28.8057 207.973 28.5147 208.124 28.1435L210.512 22.1736L208.635 21.2305C208.425 21.1301 208.094 21.1301 207.883 21.2305V21.2405ZM199.696 32.5582L204.873 35.1468C205.084 35.2472 205.415 35.2472 205.625 35.1468L220.665 27.6318C220.876 27.5315 220.876 27.3609 220.665 27.2606L215.408 24.6318L216.01 23.0465L222.552 26.3174C223.796 26.9395 223.796 27.9529 222.552 28.5749L207.512 36.09C206.268 36.712 204.241 36.712 202.997 36.09L196.535 32.8592L199.696 32.5582ZM207.191 30.1803C208.926 30.0097 210.291 29.3475 210.702 28.4947L213.281 21.682L210.522 20.2974C209.278 19.6753 207.251 19.6753 206.007 20.2974L190.967 27.8124C189.722 28.4345 189.722 29.4478 190.967 30.0699L193.806 31.4947L198.712 31.0331L207.191 30.1903V30.1803ZM190.023 34.304L200.549 39.5716C203.147 40.8659 207.351 40.8659 209.95 39.5716L224.99 32.0565L223.114 31.1134L208.074 38.6284C206.518 39.411 203.99 39.411 202.435 38.6284L191.91 33.3609L190.033 34.304H190.023Z" fill="#94918E"/>
<path fill-rule="evenodd" clip-rule="evenodd" d="M267.351 65.1671L276.311 60.6822L273.652 59.3578L275.307 58.525L277.966 59.8494L280.454 58.6053C281.558 58.0534 283.334 58.0534 284.438 58.6053L288.591 60.6822L267.351 71.3076L263.197 69.2307C262.093 68.6788 262.093 67.7859 263.197 67.2441L265.685 65.9999L263.026 64.6755L264.682 63.8427L267.341 65.1671H267.351ZM264.862 68.0668L282.12 59.4381C282.301 59.3478 282.602 59.3478 282.782 59.4381L285.27 60.6822L267.351 69.642L264.862 68.3979C264.682 68.3076 264.682 68.1571 264.862 68.0668Z" fill="#94918E"/>
<path fill-rule="evenodd" clip-rule="evenodd" d="M275.146 71.2172C274.042 70.6654 274.042 69.7724 275.146 69.2306L276.471 68.5684C277.574 68.0166 279.35 68.0166 280.454 68.5684L281.778 69.2306C282.882 69.7825 282.882 70.6754 281.778 71.2172L280.454 71.8795C279.35 72.4313 277.574 72.4313 276.471 71.8795L275.146 71.2172ZM276.812 70.0634L278.136 69.4012C278.317 69.3109 278.618 69.3109 278.798 69.4012L280.123 70.0634C280.303 70.1537 280.303 70.3042 280.123 70.3945L278.798 71.0567C278.618 71.147 278.317 71.147 278.136 71.0567L276.812 70.3945C276.631 70.3042 276.631 70.1537 276.812 70.0634Z" fill="#94918E"/>
<path d="M288.921 62.5081L290.577 61.6753L299.045 65.9094C300.149 66.4612 300.149 67.3542 299.045 67.896L281.787 76.5248C280.684 77.0766 278.908 77.0766 277.804 76.5248L269.336 72.2907L270.991 71.4579L279.46 75.692C279.64 75.7823 279.941 75.7823 280.122 75.692L297.379 67.0632C297.56 66.9729 297.56 66.8224 297.379 66.7321L288.911 62.498L288.921 62.5081Z" fill="#94918E"/>
<path fill-rule="evenodd" clip-rule="evenodd" d="M345.371 104.939C347.207 104.026 347.207 102.541 345.371 101.618C343.535 100.695 340.565 100.705 338.729 101.618C336.893 102.531 336.893 104.016 338.729 104.939C340.565 105.862 343.535 105.852 345.371 104.939ZM343.705 104.107C344.618 103.645 344.618 102.903 343.705 102.451C342.792 102 341.307 101.989 340.384 102.451C339.461 102.913 339.471 103.655 340.384 104.107C341.297 104.558 342.782 104.568 343.705 104.107Z" fill="#94918E"/>
<path fill-rule="evenodd" clip-rule="evenodd" d="M346.694 105.602C343.394 107.247 343.394 109.926 346.694 111.572L347.547 112.003C348.179 112.314 349.193 112.314 349.825 112.003L359.497 107.167C360.129 106.856 360.129 106.344 359.497 106.033L358.644 105.602C355.343 103.956 349.995 103.956 346.694 105.602ZM357.32 106.595L356.989 106.425C354.601 105.231 350.738 105.231 348.36 106.425C345.982 107.619 345.972 109.545 348.36 110.739L348.691 110.909L357.32 106.595Z" fill="#94918E"/>
<path fill-rule="evenodd" clip-rule="evenodd" d="M354.662 96.9732C356.498 97.8863 356.498 99.3712 354.662 100.294C352.826 101.217 349.856 101.207 348.02 100.294C346.184 99.3812 346.184 97.8963 348.02 96.9732C349.856 96.0501 352.826 96.0602 354.662 96.9732ZM353.006 97.796C353.919 98.2575 353.919 99 353.006 99.4515C352.093 99.903 350.608 99.913 349.685 99.4515C348.762 98.9899 348.772 98.2475 349.685 97.796C350.598 97.3445 352.083 97.3344 353.006 97.796Z" fill="#94918E"/>
<path d="M366.28 101.779L366.611 101.949L360.972 104.769L361.494 105.03C361.895 105.23 362.206 105.461 362.417 105.702L368.798 102.511C369.431 102.2 369.431 101.688 368.798 101.377L367.946 100.946C364.645 99.3005 359.297 99.3005 355.996 100.946C354.842 101.528 354.089 102.23 353.738 102.973C354.521 103.013 355.293 103.083 356.046 103.204C356.307 102.682 356.839 102.18 357.661 101.779C360.049 100.585 363.912 100.585 366.29 101.779H366.28Z" fill="#94918E"/>
<path d="M40.1728 103.304L37.233 104.779L38.8785 106.405L38.0859 106.796L33.0391 101.659L33.9922 101.187L44.2665 103.706L43.4437 104.117L40.1829 103.304H40.1728ZM36.7715 104.338L39.2598 103.094L34.3635 101.87L34.3133 101.89L36.7715 104.338Z" fill="#94918E"/>
<path d="M50.8886 98.3076C51.8819 99.1805 51.7514 100.104 50.2966 100.826C48.5106 101.719 45.4806 101.619 43.1227 100.435C40.7648 99.2507 40.5541 97.7457 42.3802 96.8327C43.6846 96.1805 45.3501 96.0802 46.9655 96.4615L46.7749 97.0735C45.4103 96.6722 44.0257 96.6822 43.0023 97.1939C41.718 97.836 41.8786 99.0099 43.9354 100.033C45.9923 101.057 48.3401 101.137 49.5742 100.515C50.7381 99.933 50.7682 99.2307 49.6645 98.428L50.8886 98.2976V98.3076Z" fill="#94918E"/>
<path d="M58.3541 96.6622L51.3608 93.1706L48.5414 94.5853L47.8691 94.2542L54.3407 91.0234L55.0129 91.3545L52.1534 92.7793L59.1467 96.2709L58.3541 96.6622Z" fill="#94918E"/>
<path d="M64.9468 93.3614L64.2745 93.0303L66.502 91.9166L60.1809 88.756L57.9535 89.8697L57.2812 89.5386L62.5187 86.9199L63.1909 87.251L60.9635 88.3647L67.2846 91.5253L69.512 90.4116L70.1842 90.7427L64.9468 93.3614Z" fill="#94918E"/>
<path d="M76.5238 87.7223C74.7078 88.6253 71.7981 88.4748 69.4402 87.2909C67.0824 86.1069 66.7613 84.6521 68.5773 83.7491C70.3934 82.8461 73.3031 82.9966 75.6609 84.1805C78.0188 85.3645 78.3399 86.8193 76.5238 87.7223ZM69.2395 84.0802C67.8549 84.7725 68.2161 85.8661 70.2529 86.8795C72.2797 87.8929 74.467 88.0735 75.8616 87.3812C77.2462 86.6889 76.885 85.5952 74.8482 84.5819C72.8215 83.5685 70.6342 83.3879 69.2395 84.0802Z" fill="#94918E"/>
<path d="M85.8866 81.5718L79.5555 78.4012L80.2879 78.04L87.9434 81.8728L87.2912 82.2039L76.5354 80.9598L83.1575 84.2708L82.425 84.632L74.7695 80.7992L75.6725 80.3477L85.8966 81.5718H85.8866Z" fill="#94918E"/>
<path d="M89.1458 78.9333C90.7913 79.3146 92.4869 79.0838 93.5806 78.542C94.6843 77.9902 95.0655 77.2979 94.0522 76.7962C93.2896 76.4149 92.4468 76.4952 91.2629 76.8463L89.3866 77.4183C88.1826 77.7895 86.8181 77.9199 85.6442 77.338C84.4 76.7159 84.5304 75.7728 85.9652 75.0504C87.3398 74.3681 88.9652 74.2176 90.2495 74.4383L90.3097 75.0002C89.1157 74.7293 87.6709 74.8497 86.6274 75.3714C85.584 75.8932 85.4234 76.4851 86.3866 76.9667C87.1993 77.3781 88.0622 77.2176 89.206 76.8664L90.8013 76.3748C92.0655 75.9835 93.4502 75.7627 94.7746 76.4249C96.1291 77.0972 95.7679 78.0905 94.2428 78.853C92.8783 79.5353 90.8415 79.8463 89.2562 79.4851L89.1458 78.9233V78.9333Z" fill="#94918E"/>
<path fill-rule="evenodd" clip-rule="evenodd" d="M194.909 105.381C196.555 104.558 196.555 103.214 194.909 102.391C193.264 101.568 190.585 101.568 188.939 102.391C187.294 103.214 187.294 104.558 188.939 105.381C190.585 106.204 193.264 106.204 194.909 105.381ZM193.244 104.548C193.976 104.177 193.976 103.585 193.244 103.224C192.511 102.863 191.317 102.853 190.585 103.224C189.852 103.595 189.852 104.187 190.585 104.548C191.317 104.91 192.511 104.92 193.244 104.548Z" fill="#94918E"/>
<path fill-rule="evenodd" clip-rule="evenodd" d="M202.544 101.568C204.189 100.746 204.189 99.4012 202.544 98.5785C200.898 97.7557 198.219 97.7557 196.574 98.5785C194.928 99.4012 194.928 100.746 196.574 101.568C198.219 102.391 200.898 102.391 202.544 101.568ZM200.878 100.736C201.611 100.364 201.611 99.7725 200.878 99.4113C200.146 99.0501 198.952 99.04 198.219 99.4113C197.487 99.7825 197.487 100.374 198.219 100.736C198.952 101.097 200.146 101.107 200.878 100.736Z" fill="#94918E"/>
<path fill-rule="evenodd" clip-rule="evenodd" d="M210.181 94.7557C211.826 95.5785 211.826 96.9229 210.181 97.7457C208.535 98.5684 205.856 98.5684 204.211 97.7457C202.565 96.9229 202.565 95.5785 204.211 94.7557C205.856 93.933 208.535 93.933 210.181 94.7557ZM208.515 95.5885C209.247 95.9597 209.247 96.5517 208.515 96.9129C207.783 97.2741 206.589 97.2841 205.856 96.9129C205.124 96.5417 205.124 95.9497 205.856 95.5885C206.589 95.2273 207.783 95.2173 208.515 95.5885Z" fill="#94918E"/>
<path fill-rule="evenodd" clip-rule="evenodd" d="M202.544 109.204C204.189 108.381 204.189 107.036 202.544 106.214C200.898 105.391 198.219 105.391 196.574 106.214C194.928 107.036 194.928 108.381 196.574 109.204C198.219 110.026 200.898 110.026 202.544 109.204ZM200.878 108.371C201.611 108 201.611 107.408 200.878 107.047C200.146 106.685 198.952 106.675 198.219 107.047C197.487 107.418 197.487 108.01 198.219 108.371C198.952 108.732 200.146 108.742 200.878 108.371Z" fill="#94918E"/>
<path fill-rule="evenodd" clip-rule="evenodd" d="M210.181 102.391C211.826 103.214 211.826 104.559 210.181 105.381C208.535 106.204 205.856 106.204 204.211 105.381C202.565 104.559 202.565 103.214 204.211 102.391C205.856 101.569 208.535 101.569 210.181 102.391ZM208.515 103.224C209.247 103.595 209.247 104.187 208.515 104.549C207.783 104.91 206.589 104.92 205.856 104.549C205.124 104.177 205.124 103.585 205.856 103.224C206.589 102.863 207.783 102.853 208.515 103.224Z" fill="#94918E"/>
<path fill-rule="evenodd" clip-rule="evenodd" d="M217.806 109.204C219.451 108.381 219.451 107.036 217.806 106.214C216.16 105.391 213.481 105.391 211.836 106.214C210.19 107.036 210.19 108.381 211.836 109.204C213.481 110.026 216.16 110.026 217.806 109.204ZM216.15 108.371C216.882 108 216.882 107.408 216.15 107.047C215.418 106.685 214.224 106.675 213.491 107.047C212.759 107.418 212.759 108.01 213.491 108.371C214.224 108.732 215.418 108.742 216.15 108.371Z" fill="#94918E"/>
<path fill-rule="evenodd" clip-rule="evenodd" d="M217.806 98.5785C219.451 99.4012 219.451 100.746 217.806 101.568C216.16 102.391 213.481 102.391 211.836 101.568C210.19 100.746 210.19 99.4012 211.836 98.5785C213.481 97.7557 216.16 97.7557 217.806 98.5785ZM216.15 99.4113C216.882 99.7825 216.882 100.374 216.15 100.736C215.418 101.097 214.224 101.107 213.491 100.736C212.759 100.364 212.759 99.7725 213.491 99.4113C214.224 99.0501 215.418 99.04 216.15 99.4113Z" fill="#94918E"/>
<path fill-rule="evenodd" clip-rule="evenodd" d="M278.84 139.194L284.91 143.448L283.475 135.531L278.769 137.879L274.034 133.515L268.796 136.133L274.505 141.361L278.85 139.194H278.84ZM287.759 145.956C287.85 146.438 286.595 146.668 286.034 146.277L278.529 141.03L274.826 142.886C274.375 143.107 273.622 143.056 273.311 142.775L266.177 136.234C265.977 136.053 266.037 135.822 266.338 135.672L273.693 132C274.144 131.779 274.897 131.829 275.208 132.11L279.341 135.913L283.947 133.615C284.519 133.334 285.492 133.505 285.572 133.906L287.769 145.966L287.759 145.956Z" fill="#94918E"/>
<path d="M137.246 136.013L126.62 141.321L124.965 140.488L135.59 135.18L137.246 136.013Z" fill="#94918E"/>
<path d="M130.605 143.307L141.23 138L139.575 137.167L128.949 142.475L130.605 143.307Z" fill="#94918E"/>
<path d="M145.214 139.996L134.589 145.304L132.934 144.471L143.559 139.164L145.214 139.996Z" fill="#94918E"/>
<path fill-rule="evenodd" clip-rule="evenodd" d="M129.11 132.612L131.768 131.287C132.872 130.736 134.648 130.736 135.752 131.287L151.685 139.254C152.788 139.806 152.788 140.699 151.685 141.241L137.076 148.545C135.972 149.097 134.197 149.097 133.093 148.545L117.16 140.578C116.056 140.027 116.056 139.134 117.16 138.592L119.819 137.267L118.494 136.605L119.819 135.943L121.143 136.605L123.802 135.281L122.478 134.619L123.802 133.956L125.126 134.619L127.785 133.294L126.461 132.632L127.785 131.97L129.11 132.632V132.612ZM121.484 138.08L122.478 138.582L123.802 137.92L122.809 137.418L125.467 136.093L126.461 136.595L127.785 135.933L126.792 135.431L129.451 134.107L130.444 134.608L131.768 133.946L130.775 133.445L133.434 132.12C133.615 132.03 133.916 132.03 134.096 132.12L150.029 140.087C150.21 140.177 150.21 140.328 150.029 140.418L135.421 147.722C135.24 147.812 134.939 147.812 134.758 147.722L118.825 139.756C118.645 139.665 118.645 139.515 118.825 139.425L121.484 138.1V138.08Z" fill="#94918E"/>
<path fill-rule="evenodd" clip-rule="evenodd" d="M204.321 182.608L206.769 184.705L209.408 182.568L210.271 182.438C212.248 182.147 214.104 181.615 215.669 180.832C220.616 178.354 220.616 174.341 215.669 171.873C210.723 169.394 202.696 169.394 197.749 171.873C192.803 174.351 192.803 178.364 197.749 180.832C199.375 181.645 201.321 182.187 203.388 182.468L204.321 182.598V182.608ZM217.335 171.05C223.204 173.98 223.204 178.735 217.335 181.675C215.488 182.598 213.281 183.23 210.933 183.572L208.355 185.659C207.612 186.261 205.846 186.25 205.134 185.638L202.776 183.612C200.328 183.281 198.01 182.638 196.084 181.675C190.214 178.746 190.214 173.99 196.084 171.05C201.953 168.12 211.465 168.12 217.325 171.05H217.335Z" fill="#94918E"/>
</g>
<defs>
<clipPath id="clip0_3216_93993">
<rect width="413.146" height="235.775" fill="white"/>
</clipPath>
</defs>
</svg>
