<svg width="412" height="235" viewBox="0 0 412 235" fill="none" xmlns="http://www.w3.org/2000/svg">
<g clip-path="url(#clip0_3216_94070)">
<path d="M0.379062 130.88C0.229062 132.39 1.29906 133.93 3.60906 135.09L198.249 232.41C202.589 234.58 209.619 234.58 213.959 232.41L408.649 135.07C411.149 133.82 411.819 132.2 411.819 130.5V103.3H376.179L214.009 22.2C209.669 20.03 202.639 20.03 198.299 22.2L36.1191 103.29H0.379062" fill="#E5E3E1"/>
<path d="M399.111 111.93L239.471 191.75L222.311 200.3C221.771 200.57 221.251 200.88 220.741 201.2L215.221 203.95C209.341 206.88 205.731 213 206.011 219.57C206.341 227.21 214.441 231.97 221.281 228.54L243.301 217.5L401.871 138.22C402.291 138.01 402.651 137.79 402.961 137.56L408.961 134.56C411.691 133.19 412.011 131.41 412.011 130.19V120.08C412.011 113.43 405.081 109.09 399.121 111.92L399.111 111.93Z" fill="#CCC9C6"/>
<path d="M198.12 204.37L3.47961 107.05C-0.860391 104.88 -0.860391 101.36 3.47961 99.1902L198.17 1.85016C202.51 -0.319844 209.54 -0.319844 213.88 1.85016L408.52 99.1702C412.86 101.34 412.86 104.86 408.52 107.03L213.83 204.37C209.49 206.54 202.46 206.54 198.12 204.37Z" fill="white"/>
<path d="M408.62 98.9701L213.98 1.65007C209.59 -0.539932 202.45 -0.539932 198.07 1.65007L3.38 98.9901C1.2 100.08 0 101.55 0 103.12C0 103.38 0.1 130.86 0.1 130.86C0.1 132.71 1.15 134.14 3.45 135.29L198.09 232.61C200.28 233.71 203.17 234.26 206.05 234.26C208.93 234.26 211.81 233.71 214.01 232.61L408.7 135.27C410.95 134.15 412 132.63 412 130.49V103.35C412 103.27 412.01 103.18 412.01 103.1C412.01 101.53 410.81 100.06 408.63 98.9701H408.62ZM411.51 103.52C411.31 104.76 410.23 105.92 408.42 106.83L212.87 204.6C209.54 206.24 202.46 206.24 199.08 204.6L3.58 106.84C1.91 106 0.86 104.95 0.55 103.82C0.49 103.59 0.45 103.35 0.45 103.11C0.45 103.09 0.45 103.07 0.45 103.06C0.48 101.69 1.59 100.38 3.58 99.3901L198.27 2.05007C202.55 -0.0899317 209.5 -0.0899317 213.78 2.05007L408.42 99.3701C410.42 100.37 411.53 101.68 411.55 103.06C411.55 103.07 411.55 103.08 411.55 103.09C411.55 103.23 411.54 103.37 411.51 103.51V103.52ZM411.54 130.49C411.54 131.71 411.22 133.5 408.49 134.86L213.8 232.2C209.52 234.34 202.57 234.34 198.29 232.2L3.65 134.88C1.53 133.82 0.4 132.37 0.55 130.87V111.67C0.55 108.98 3.38 107.24 5.78 108.44L198.02 204.57C200.21 205.67 203.1 206.22 205.98 206.22C208.86 206.22 211.74 205.67 213.94 204.57L398.79 112.14C404.65 109.21 411.54 113.47 411.54 120.02V130.49Z" fill="#94918E"/>
<path d="M205.83 97.9998C205.83 95.7198 207.49 93.8198 209.67 93.4498C193.52 93.6698 177.22 90.7098 164.9 84.5498C173.42 88.8098 178.89 94.0198 181.31 99.4998C190.27 101.69 200.07 102.71 209.82 102.57C207.57 102.26 205.83 100.34 205.83 97.9998Z" fill="#E5E3E1"/>
<path d="M236.301 115.68C235.241 114.07 234.451 112.43 233.931 110.77C233.691 109.99 233.511 109.2 233.391 108.41V113.47C233.071 116.26 233.521 119.06 234.731 121.8C240.631 123.24 246.161 125.18 251.061 127.63C244.111 124.16 239.201 120.05 236.311 115.69L236.301 115.68Z" fill="#E5E3E1"/>
<path d="M182.741 113.69V107.29H182.691C182.601 108.37 182.411 109.45 182.091 110.52C181.581 112.27 180.761 113.99 179.641 115.68C176.751 120.05 171.831 124.15 164.891 127.62C169.841 125.15 175.431 123.19 181.391 121.75C182.551 119.1 183.001 116.38 182.731 113.68L182.741 113.69Z" fill="#CCC9C6"/>
<path d="M210.45 93.3799C210.18 93.3799 209.92 93.4099 209.67 93.4499C210.14 93.4499 210.62 93.4499 211.09 93.4299C210.88 93.3999 210.67 93.3799 210.45 93.3799Z" fill="#94918E"/>
<path d="M211.09 93.43C210.62 93.44 210.14 93.44 209.67 93.45C207.49 93.82 205.83 95.71 205.83 98C205.83 100.29 207.57 102.26 209.82 102.57C210.29 102.57 210.76 102.56 211.23 102.55C219.27 102.34 227.23 101.34 234.63 99.54C237.04 94.05 242.51 88.82 251.06 84.55C239.96 90.1 225.63 93.06 211.09 93.43Z" fill="#CCC9C6"/>
<path d="M233.389 113.47V108.41C232.939 105.44 233.349 102.45 234.629 99.5302C227.229 101.32 219.269 102.33 211.229 102.54C210.759 102.55 210.289 102.56 209.819 102.56C200.069 102.7 190.259 101.68 181.309 99.4902C182.439 102.05 182.899 104.68 182.699 107.29H182.749V113.69C183.019 116.39 182.569 119.11 181.409 121.76C198.209 117.69 217.959 117.7 234.739 121.8C233.529 119.06 233.089 116.26 233.399 113.47H233.389Z" fill="#94918E"/>
<path d="M171.5 87.8998C181.99 91.8098 194.66 93.9198 207.97 93.9198C221.28 93.9198 233.95 91.8098 244.44 87.8998C236.85 93.1398 232.75 99.4498 232.75 106.09C232.75 112.73 236.85 119.04 244.44 124.28C233.95 120.37 221.28 118.26 207.97 118.26C194.66 118.26 181.99 120.37 171.5 124.28C179.09 119.04 183.19 112.73 183.19 106.09C183.19 99.4498 179.09 93.1398 171.5 87.8998ZM251.06 84.5498C239.16 90.4998 223.57 93.4698 207.98 93.4698C192.39 93.4698 176.8 90.4998 164.9 84.5498C188.69 96.4498 188.69 115.73 164.9 127.63C176.8 121.68 192.39 118.71 207.98 118.71C223.57 118.71 239.16 121.68 251.06 127.63C227.27 115.73 227.27 96.4498 251.06 84.5498Z" fill="#94918E"/>
</g>
<defs>
<clipPath id="clip0_3216_94070">
<rect width="412" height="234.25" fill="white"/>
</clipPath>
</defs>
</svg>
