<svg width="412" height="235" viewBox="0 0 412 235" fill="none" xmlns="http://www.w3.org/2000/svg">
<g clip-path="url(#clip0_3216_93916)">
<path d="M205.782 74.57C205.522 68.63 208.302 63.04 213.032 59.64C211.002 60.44 208.552 60.84 206.092 60.84C203.212 60.84 200.332 60.29 198.132 59.19L148.852 34.55C147.442 33.85 146.452 32.98 145.922 32.03V59.3C145.922 60.69 147.032 62.02 149.052 63.03L198.332 87.67C202.612 89.81 209.572 89.81 213.842 87.67L219.492 84.85C212.912 86.5 206.082 81.75 205.772 74.58L205.782 74.57Z" fill="#3A6783"/>
<path d="M263.33 34.5402L214.05 59.1802C213.72 59.3402 213.38 59.4902 213.03 59.6302C208.3 63.0302 205.52 68.6202 205.78 74.5602C206.09 81.7402 212.92 86.4802 219.5 84.8302L263.13 63.0202C265.15 62.0102 266.26 60.6902 266.26 59.2902V32.6602L265.47 33.0602C264.93 33.6002 264.21 34.1002 263.34 34.5402H263.33Z" fill="#243031"/>
<path d="M266.241 30.19C266.131 28.88 265.041 27.64 263.131 26.69L213.851 2.04995C211.711 0.979951 208.901 0.449951 206.091 0.449951C203.281 0.449951 200.471 0.979951 198.331 2.04995L149.051 26.69C147.151 27.64 146.061 28.88 145.951 30.19C145.951 30.26 145.941 30.34 145.941 30.42C145.941 30.5 145.941 30.57 145.951 30.65C146.061 31.9599 147.151 33.2 149.051 34.15L198.331 58.79C202.611 60.93 209.571 60.93 213.841 58.79L241.951 44.7299L263.111 34.15C265.011 33.2 266.101 31.9599 266.211 30.65V30.57C266.211 30.57 266.221 30.47 266.221 30.43C266.221 30.35 266.221 30.28 266.211 30.2L266.241 30.19Z" fill="white"/>
<path d="M266.69 30.1901C266.58 28.7001 265.4 27.3201 263.33 26.2801L214.06 1.65007C209.67 -0.539932 202.53 -0.539932 198.14 1.65007L148.86 26.2901C146.79 27.3201 145.61 28.7001 145.5 30.2001L145.48 32.0801V59.3101C145.48 60.8801 146.68 62.3501 148.86 63.4401L198.14 88.0801C200.33 89.1801 203.22 89.7301 206.1 89.7301C208.98 89.7301 211.86 89.1801 214.06 88.0801L263.34 63.4401C265.52 62.3501 266.72 60.8801 266.72 59.3101V31.7101L266.7 30.2001L266.69 30.1901ZM266.26 59.3001C266.26 60.6901 265.15 62.0201 263.13 63.0301L219.5 84.8401L213.85 87.6601C209.57 89.8001 202.61 89.8001 198.34 87.6601L149.06 63.0201C147.04 62.0101 145.93 60.6901 145.93 59.2901V36.2601C145.93 34.7801 147.49 33.8501 148.82 34.5201C148.83 34.5201 148.85 34.5301 148.86 34.5401L198.14 59.1801C200.33 60.2801 203.22 60.8301 206.1 60.8301C208.55 60.8301 211.01 60.4301 213.04 59.6301C213.39 59.4901 213.74 59.3401 214.06 59.1801L263.34 34.5401L263.4 34.5101C264.72 33.8501 266.27 34.8001 266.27 36.2801V59.2901L266.26 59.3001ZM145.95 30.4101C145.95 30.3301 145.95 30.2601 145.96 30.1801C146.07 28.8701 147.16 27.6301 149.06 26.6801L198.34 2.05007C200.48 0.980068 203.29 0.450068 206.1 0.450068C208.91 0.450068 211.72 0.980068 213.86 2.05007L263.14 26.6901C265.04 27.6401 266.13 28.8801 266.25 30.1901C266.25 30.2601 266.26 30.3401 266.26 30.4201C266.26 30.4201 266.26 30.5201 266.26 30.5601V30.6401C266.14 31.9501 265.05 33.1901 263.15 34.1401L241.99 44.7201L213.88 58.7801C209.6 60.9201 202.64 60.9201 198.37 58.7801L149.09 34.1401C147.19 33.1901 146.1 31.9501 145.99 30.6401C145.99 30.5701 145.98 30.4901 145.98 30.4101H145.95Z" fill="black"/>
<path d="M157.62 66.3004L133.33 54.1604L36.3305 102.65H0.230469V131.53C0.230469 132.95 1.31047 134.37 3.48047 135.46L52.7605 160.1C57.1005 162.27 64.1305 162.27 68.4705 160.1L190.34 99.1904C191.9 98.4104 192.89 96.8104 192.89 95.0604V66.3004H157.62Z" fill="#3A6783"/>
<path d="M192.89 95.6703V66.7903L95.4303 117.58L77.4203 126.56C76.8503 126.85 76.3003 127.17 75.7803 127.51L69.9903 130.4C63.8103 133.48 60.0303 139.91 60.3203 146.8C60.6503 154.49 68.4803 159.4 75.4503 156.62L189.64 99.6103C191.81 98.5303 192.89 97.1003 192.89 95.6803V95.6703Z" fill="#243031"/>
<path d="M193.06 66.0801C192.84 64.6001 191.93 63.3201 190.56 62.6401L141.28 38.0001C136.3 35.5101 130.35 35.5101 125.36 38.0001L72.92 64.2201C72.92 64.2201 72.84 64.2201 72.81 64.2401L3.37 98.9801C1.21 100.06 0.02 101.52 0 103.09V131.53C0 133.1 1.2 134.57 3.38 135.66L52.66 160.3C54.85 161.4 57.74 161.95 60.62 161.95C63.5 161.95 66.38 161.4 68.58 160.3L75.51 156.84H75.54L189.74 99.8101C190.11 99.6301 190.45 99.4201 190.83 99.1701C190.95 99.0901 191.07 99.0201 191.18 98.9301L191.24 98.8801C191.37 98.7801 191.5 98.6701 191.62 98.5601C192.6 97.6801 193.12 96.6901 193.12 95.6801V68.1801L193.06 66.0801ZM3.57 99.3801L72.93 64.6801C72.93 64.6801 73.01 64.6801 73.04 64.6601L125.56 38.4001C130.42 35.9701 136.22 35.9701 141.07 38.4001L190.35 63.0401C191.58 63.6601 192.39 64.7601 192.59 66.0801C192.61 66.2301 192.63 66.3801 192.63 66.5301C192.63 66.6101 192.65 66.6901 192.65 66.7601C192.65 68.3701 191.79 69.7701 190.35 70.4901L133.29 99.0201C133.29 99.0201 133.22 99.0201 133.18 99.0401L68.35 131.47C64.07 133.61 57.11 133.61 52.84 131.47L3.57 106.83C1.56 105.83 0.45 104.5 0.45 103.1C0.45 103.1 0.45 103.08 0.45 103.07C0.45 103 0.45 102.93 0.46 102.86C0.58 101.55 1.67 100.32 3.56 99.3701L3.57 99.3801ZM192.67 95.6701C192.67 96.5501 192.2 97.4301 191.31 98.2201C191.2 98.3201 191.08 98.4201 190.96 98.5101L191.1 98.6901L190.91 98.5601C190.81 98.6401 190.7 98.7101 190.58 98.7801C190.22 99.0301 189.88 99.2201 189.54 99.4001L75.36 156.41L68.38 159.9C64.1 162.04 57.14 162.04 52.87 159.9L3.58 135.26C1.56 134.25 0.45 132.93 0.45 131.53V109.11C0.45 107.58 2.07 106.58 3.44 107.27L4.33 107.72L52.65 131.88C54.84 132.98 57.73 133.53 60.61 133.53C63.49 133.53 66.37 132.98 68.57 131.88L133.32 99.4901C133.32 99.4901 133.39 99.4901 133.43 99.4701L190.09 71.1401C190.09 71.1401 190.11 71.1401 190.12 71.1301C191.29 70.5401 192.67 71.3401 192.67 72.6501V95.6901V95.6701Z" fill="black"/>
<path d="M190.46 62.8302L141.18 38.1901C136.23 35.7201 130.41 35.7201 125.47 38.1901L72.9505 64.4501L72.9205 64.4301L3.47047 99.1801C-0.849531 101.34 -0.849531 104.88 3.47047 107.04L52.7505 131.68C57.0705 133.84 64.1405 133.84 68.4605 131.68L133.29 99.2501L133.32 99.2701L190.45 70.7001C193.69 69.0801 193.69 64.4601 190.45 62.8401L190.46 62.8302Z" fill="white"/>
<path d="M60.61 133.52C57.73 133.52 54.85 132.97 52.65 131.87L3.37 107.24C1.2 106.15 0 104.69 0 103.11C0 101.53 1.2 100.06 3.37 98.9801L72.91 64.1901L72.94 64.2101L125.36 38.0001C130.34 35.5101 136.29 35.5101 141.28 38.0001L190.56 62.6401C192.13 63.4301 193.11 65.0101 193.11 66.7701C193.11 68.5301 192.13 70.1101 190.56 70.9001L133.32 99.5201L133.29 99.5001L68.56 131.88C66.37 132.98 63.48 133.53 60.6 133.53L60.61 133.52ZM72.92 64.6901L3.57 99.3801C1.56 100.38 0.45 101.71 0.45 103.11C0.45 104.51 1.56 105.83 3.57 106.84L52.85 131.48C57.13 133.62 64.09 133.62 68.36 131.48L133.29 99.0001L133.32 99.0201L190.35 70.5001C191.79 69.7801 192.65 68.3901 192.65 66.7701C192.65 65.1501 191.79 63.7601 190.35 63.0401L141.07 38.4001C136.21 35.9701 130.41 35.9701 125.56 38.4001L72.94 64.7101L72.91 64.6901H72.92Z" fill="black"/>
<path d="M278.709 99.5102C278.709 99.5102 278.639 99.5102 278.609 99.4902L213.949 67.1602V95.5402L278.709 127.92V99.5102Z" fill="#3A6783"/>
<path d="M278.711 99.5102V127.92L343.471 95.5402V67.1602L278.811 99.4902C278.811 99.4902 278.741 99.5102 278.711 99.5102Z" fill="#243031"/>
<path d="M342.739 66.5598L278.709 34.5498L214.669 66.5598L214.219 66.7898L214.669 67.0198L278.709 99.0298L342.739 67.0198L343.189 66.7898L342.739 66.5598Z" fill="white"/>
<path d="M343.92 66.79C343.92 66.7 343.87 66.63 343.8 66.59L278.71 34.04L213.67 66.56L213.5 66.65V95.81L278.72 128.42L343.94 95.81V66.83C343.94 66.83 343.94 66.81 343.94 66.8C343.94 66.8 343.94 66.79 343.94 66.78L343.92 66.79ZM340.58 96.98L280.45 127.04C279.35 127.59 278.06 127.59 276.96 127.04L216.6 96.86C214.97 96.04 213.94 94.38 213.94 92.55V70.07C213.94 68.73 215.35 67.85 216.55 68.45L278.6 99.47C278.6 99.47 278.67 99.49 278.7 99.49C278.7 99.49 278.77 99.49 278.8 99.47L340.85 68.45C342.05 67.85 343.46 68.72 343.46 70.07V92.29C343.46 94.27 342.34 96.08 340.57 96.97L340.58 96.98ZM217.45 65.17L276.08 35.86C277.73 35.03 279.68 35.03 281.33 35.86L339.96 65.17C341.29 65.84 341.29 67.74 339.96 68.4L281.47 97.65C279.73 98.52 277.69 98.52 275.95 97.65L217.46 68.4C216.13 67.73 216.13 65.83 217.46 65.17H217.45Z" fill="black"/>
<path d="M350.84 147.22C350.58 141.28 353.36 135.69 358.09 132.29C356.06 133.09 353.61 133.49 351.15 133.49C348.27 133.49 345.39 132.94 343.19 131.84L293.91 107.2C292.5 106.5 291.51 105.63 290.98 104.68V131.95C290.98 133.34 292.09 134.67 294.11 135.68L343.39 160.32C347.67 162.46 354.63 162.46 358.9 160.32L364.55 157.5C357.97 159.15 351.14 154.4 350.83 147.23L350.84 147.22Z" fill="#3A6783"/>
<path d="M408.391 107.2L359.111 131.84C358.781 132 358.441 132.15 358.091 132.29C353.361 135.69 350.581 141.28 350.841 147.22C351.151 154.4 357.981 159.14 364.561 157.49L408.191 135.68C410.211 134.67 411.321 133.35 411.321 131.95V105.32L410.531 105.72C409.991 106.26 409.271 106.76 408.401 107.2H408.391Z" fill="#243031"/>
<path d="M411.288 102.85C411.178 101.54 410.088 100.3 408.178 99.3496L358.898 74.7096C356.758 73.6396 353.948 73.1096 351.138 73.1096C348.328 73.1096 345.518 73.6396 343.378 74.7096L294.098 99.3496C292.198 100.3 291.108 101.54 290.998 102.85C290.998 102.92 290.988 103 290.988 103.08C290.988 103.16 290.988 103.23 290.998 103.31C291.108 104.62 292.198 105.86 294.098 106.81L343.378 131.45C347.658 133.59 354.618 133.59 358.888 131.45L386.998 117.39L408.158 106.81C410.058 105.86 411.148 104.62 411.258 103.31V103.23C411.258 103.23 411.268 103.13 411.268 103.09C411.268 103.01 411.268 102.94 411.258 102.86L411.288 102.85Z" fill="white"/>
<path d="M411.74 102.85C411.63 101.36 410.45 99.98 408.38 98.94L359.1 74.3C354.71 72.11 347.57 72.11 343.18 74.3L293.9 98.94C291.83 99.97 290.65 101.35 290.54 102.85L290.52 104.73V131.96C290.52 133.53 291.72 135 293.9 136.09L343.18 160.73C345.37 161.83 348.26 162.38 351.14 162.38C354.02 162.38 356.9 161.83 359.1 160.73L408.38 136.09C410.56 135 411.76 133.53 411.76 131.96V104.36L411.74 102.85ZM411.31 131.96C411.31 133.35 410.2 134.68 408.18 135.69L364.55 157.5L358.9 160.32C354.62 162.46 347.66 162.46 343.39 160.32L294.11 135.68C292.09 134.67 290.98 133.35 290.98 131.95V108.92C290.98 107.44 292.54 106.51 293.87 107.18C293.88 107.18 293.9 107.19 293.91 107.2L343.19 131.84C345.38 132.94 348.27 133.49 351.15 133.49C353.6 133.49 356.06 133.09 358.09 132.29C358.44 132.15 358.79 132 359.11 131.84L408.39 107.2L408.45 107.17C409.77 106.51 411.32 107.46 411.32 108.94V131.95L411.31 131.96ZM291 103.07C291 102.99 291 102.92 291.01 102.84C291.12 101.53 292.21 100.29 294.11 99.34L343.39 74.7C345.53 73.63 348.34 73.1 351.15 73.1C353.96 73.1 356.77 73.63 358.91 74.7L408.19 99.34C410.09 100.29 411.18 101.53 411.3 102.84C411.3 102.91 411.31 102.99 411.31 103.07C411.31 103.07 411.31 103.17 411.31 103.21V103.29C411.19 104.6 410.1 105.84 408.2 106.79L387.04 117.37L358.93 131.43C354.65 133.57 347.69 133.57 343.42 131.43L294.14 106.79C292.24 105.84 291.15 104.6 291.04 103.29C291.04 103.22 291.03 103.14 291.03 103.06L291 103.07Z" fill="black"/>
<path d="M238.669 86.8205C220.799 77.8805 191.549 77.8805 173.679 86.8205C164.739 91.2905 160.279 97.1805 160.279 103.07C160.279 108.96 164.749 114.85 173.679 119.32C185.319 125.14 201.769 127.16 216.779 125.41C217.709 125.3 218.639 125.18 219.559 125.04C226.569 123.98 233.159 122.08 238.669 119.33C247.609 114.86 252.069 108.97 252.069 103.08C252.069 97.1905 247.599 91.3005 238.669 86.8305V86.8205Z" fill="#FFFF42"/>
<path d="M205.649 139.44C205.649 132.61 210.399 126.89 216.769 125.4C201.769 127.16 185.309 125.13 173.669 119.31C164.729 114.84 160.269 108.95 160.269 103.06H160.209V131.94C160.209 137.82 164.699 143.7 173.669 148.19C186.189 154.45 204.129 156.34 219.929 153.86C212.019 153.79 205.639 147.36 205.639 139.43L205.649 139.44Z" fill="#3A6783"/>
<path d="M252.1 131.21V125.01C252.13 124.53 252.13 124.06 252.1 123.58V103.07H252.07C252.07 108.96 247.6 114.85 238.67 119.32C233.16 122.08 226.56 123.98 219.56 125.03C218.64 125.17 217.71 125.29 216.78 125.4C210.4 126.89 205.66 132.61 205.66 139.44C205.66 147.36 212.05 153.79 219.95 153.87C221.87 153.57 223.76 153.21 225.6 152.78C230.34 151.68 234.77 150.15 238.68 148.2C248.03 143.52 252.51 137.33 252.11 131.21H252.1Z" fill="#243031"/>
<path d="M238.669 86.8205C220.799 77.8805 191.549 77.8805 173.679 86.8205C164.739 91.2905 160.279 97.1805 160.279 103.07C160.279 108.96 164.749 114.85 173.679 119.32C185.319 125.14 201.769 127.16 216.779 125.41C217.709 125.3 218.639 125.18 219.559 125.04C226.569 123.98 233.159 122.08 238.669 119.33C247.609 114.86 252.069 108.97 252.069 103.08C252.069 97.1905 247.599 91.3005 238.669 86.8305V86.8205Z" fill="white"/>
<path d="M252.33 131.2V125.02C252.36 124.52 252.36 124.03 252.33 123.58V103.07L252.3 102.84C252.19 96.6802 247.4 90.9302 238.78 86.6202C220.81 77.6302 191.56 77.6302 173.59 86.6202C164.97 90.9302 160.18 96.6802 160.07 102.84L160.01 106.68V131.95C160.01 138.18 164.83 144.02 173.59 148.4C182.39 152.8 194.11 155.16 206.14 155.16C210.76 155.16 215.43 154.81 219.99 154.1C221.97 153.79 223.87 153.42 225.65 153.01C230.53 151.87 234.94 150.33 238.78 148.41C247.94 143.83 252.75 137.72 252.34 131.21L252.33 131.2ZM173.78 87.0202C182.71 82.5502 194.44 80.3202 206.17 80.3202C217.9 80.3202 229.63 82.5502 238.56 87.0202C247.12 91.3002 251.84 97.0002 251.84 103.07C251.84 109.14 247.12 114.83 238.56 119.12C233.27 121.76 226.69 123.73 219.51 124.81C218.61 124.95 217.67 125.07 216.74 125.18C201.59 126.96 186.04 124.88 174.84 119.63C174.48 119.46 174.12 119.29 173.77 119.11C165.21 114.83 160.49 109.13 160.49 103.06C160.49 96.9902 165.21 91.3002 173.77 87.0102L173.78 87.0202ZM238.57 148C234.77 149.9 230.38 151.44 225.54 152.57C223.77 152.98 221.88 153.35 219.91 153.65C203.55 156.21 185.88 154.05 173.78 148C165.18 143.7 160.44 138 160.44 131.95V109.97C160.44 109.54 160.79 109.2 161.21 109.2C161.46 109.2 161.67 109.32 161.81 109.5C161.73 109.35 161.65 109.2 161.57 109.06C161.71 109.33 161.86 109.61 162.02 109.88C162.18 110.15 162.36 110.42 162.54 110.68C162.57 110.73 162.61 110.78 162.64 110.83C162.82 111.09 163.01 111.34 163.2 111.59C163.24 111.64 163.28 111.69 163.32 111.74C163.53 112 163.74 112.26 163.96 112.51C163.96 112.51 163.96 112.51 163.96 112.52C164.19 112.78 164.42 113.03 164.67 113.28C164.72 113.33 164.76 113.38 164.81 113.42C165.05 113.66 165.3 113.9 165.56 114.14C165.61 114.19 165.66 114.23 165.71 114.28C165.98 114.53 166.25 114.77 166.54 115.01H166.55C166.84 115.26 167.14 115.5 167.44 115.73C167.5 115.77 167.56 115.82 167.61 115.86C167.91 116.09 168.22 116.31 168.53 116.54C168.59 116.58 168.65 116.63 168.72 116.67C169.05 116.9 169.39 117.13 169.74 117.35C170.09 117.57 170.45 117.79 170.82 118.01C170.89 118.05 170.96 118.09 171.03 118.13C171.39 118.34 171.75 118.55 172.13 118.75C172.2 118.79 172.28 118.83 172.35 118.87C172.74 119.08 173.14 119.29 173.55 119.49C174.04 119.73 174.54 119.97 175.04 120.2C175.16 120.25 175.28 120.31 175.4 120.36C175.9 120.58 176.41 120.81 176.93 121.02C176.99 121.04 177.05 121.07 177.11 121.09C177.59 121.28 178.07 121.47 178.56 121.65C178.68 121.7 178.81 121.74 178.93 121.79C179.46 121.98 180 122.17 180.54 122.36C180.64 122.39 180.74 122.42 180.83 122.46C181.31 122.62 181.8 122.77 182.29 122.92C182.41 122.96 182.53 122.99 182.66 123.03C183.22 123.2 183.78 123.36 184.35 123.51C184.48 123.54 184.6 123.58 184.73 123.61C185.23 123.74 185.74 123.87 186.25 123.99C186.36 124.02 186.47 124.04 186.59 124.07C187.18 124.21 187.77 124.34 188.36 124.46C188.5 124.49 188.65 124.52 188.79 124.55C189.33 124.66 189.88 124.77 190.43 124.86C190.51 124.87 190.6 124.89 190.68 124.91C191.29 125.02 191.91 125.12 192.53 125.21C192.68 125.23 192.84 125.26 192.99 125.28C193.6 125.37 194.22 125.46 194.84 125.53C194.86 125.53 194.88 125.53 194.91 125.53C195.55 125.61 196.19 125.68 196.84 125.75C197 125.77 197.15 125.78 197.31 125.8C197.95 125.86 198.6 125.92 199.25 125.97C199.31 125.97 199.37 125.97 199.43 125.98C200.04 126.02 200.65 126.06 201.26 126.09C201.41 126.09 201.56 126.11 201.71 126.11C202.36 126.14 203.02 126.17 203.68 126.18C203.78 126.18 203.88 126.18 203.98 126.18C204.57 126.19 205.17 126.2 205.76 126.2C205.85 126.2 205.93 126.2 206.02 126.2C206.06 126.2 206.11 126.2 206.15 126.2C206.93 126.2 207.71 126.19 208.5 126.17C208.63 126.17 208.76 126.17 208.89 126.16C209.67 126.14 210.45 126.1 211.24 126.06C211.36 126.06 211.49 126.05 211.61 126.04C212.41 125.99 213.21 125.94 214.01 125.87C214.1 125.87 214.19 125.85 214.27 125.85C215.11 125.78 215.95 125.69 216.78 125.59C217.72 125.48 218.66 125.35 219.57 125.22C226.79 124.13 233.42 122.15 238.75 119.48C239.16 119.28 239.55 119.07 239.94 118.86C240.01 118.82 240.09 118.78 240.16 118.74C240.53 118.54 240.89 118.33 241.25 118.12C241.32 118.08 241.39 118.04 241.45 118C241.8 117.79 242.15 117.58 242.49 117.36C242.5 117.36 242.52 117.34 242.53 117.33C242.87 117.11 243.21 116.88 243.53 116.66C243.6 116.61 243.66 116.57 243.73 116.52C244.04 116.3 244.35 116.08 244.65 115.85C244.71 115.81 244.76 115.77 244.81 115.72C245.1 115.5 245.38 115.27 245.65 115.05C245.67 115.03 245.7 115.01 245.72 114.99C246 114.75 246.27 114.51 246.54 114.27C246.6 114.22 246.65 114.17 246.7 114.12C246.96 113.88 247.21 113.64 247.44 113.4C247.48 113.36 247.52 113.31 247.57 113.27C247.8 113.04 248.02 112.8 248.23 112.57C248.25 112.54 248.28 112.52 248.3 112.49C248.52 112.24 248.73 111.99 248.93 111.73C248.97 111.68 249.02 111.62 249.06 111.57C249.26 111.32 249.45 111.07 249.63 110.81C249.66 110.77 249.69 110.72 249.72 110.68C249.89 110.44 250.05 110.19 250.2 109.95C250.22 109.92 250.24 109.88 250.26 109.85C250.37 109.66 250.39 109.62 250.5 109.43C250.47 109.48 250.53 109.38 250.5 109.43C250.64 109.25 250.79 109.13 251.1 109.13C251.46 109.13 251.85 109.37 251.85 109.72V123.52C251.88 123.97 251.88 124.44 251.85 124.94V131.14C252.25 137.39 247.4 143.5 238.54 147.93L238.57 148Z" fill="black"/>
<path d="M133.319 172.15C133.319 172.15 133.249 172.15 133.219 172.13L68.5586 139.8V168.18L133.319 200.56V172.15Z" fill="#3A6783"/>
<path d="M133.32 172.15V200.56L198.08 168.18V139.8L133.42 172.13C133.42 172.13 133.35 172.15 133.32 172.15Z" fill="#243031"/>
<path d="M197.348 139.2L133.318 107.19L69.2781 139.2L68.8281 139.43L69.2781 139.65L133.318 171.67L197.348 139.65L197.798 139.43L197.348 139.2Z" fill="white"/>
<path d="M198.529 139.43C198.529 139.34 198.479 139.27 198.409 139.23L133.319 106.68L68.2794 139.2L68.1094 139.29V168.45L133.329 201.06L198.549 168.45V139.47C198.549 139.47 198.549 139.45 198.549 139.44C198.549 139.44 198.549 139.43 198.549 139.42L198.529 139.43ZM195.189 169.62L135.059 199.68C133.959 200.23 132.669 200.23 131.569 199.68L71.2094 169.5C69.5794 168.68 68.5494 167.02 68.5494 165.19V142.71C68.5494 141.37 69.9594 140.49 71.1594 141.09L133.209 172.11C133.209 172.11 133.279 172.13 133.309 172.13C133.309 172.13 133.379 172.13 133.409 172.11L195.459 141.09C196.659 140.49 198.069 141.36 198.069 142.71V164.93C198.069 166.91 196.949 168.72 195.179 169.61L195.189 169.62ZM72.0594 137.81L130.689 108.5C132.339 107.67 134.289 107.67 135.939 108.5L194.569 137.81C195.899 138.48 195.899 140.38 194.569 141.04L136.079 170.29C134.339 171.16 132.299 171.16 130.559 170.29L72.0694 141.04C70.7394 140.37 70.7394 138.47 72.0694 137.81H72.0594Z" fill="black"/>
<path d="M278.709 172.15C278.709 172.15 278.639 172.15 278.609 172.13L213.949 139.8V168.18L278.709 200.56V172.15Z" fill="#3A6783"/>
<path d="M278.711 172.15V200.56L343.471 168.18V139.8L278.811 172.13C278.811 172.13 278.741 172.15 278.711 172.15Z" fill="#243031"/>
<path d="M342.739 139.2L278.709 107.19L214.669 139.2L214.219 139.43L214.669 139.65L278.709 171.67L342.739 139.65L343.189 139.43L342.739 139.2Z" fill="white"/>
<path d="M343.92 139.43C343.92 139.34 343.87 139.27 343.8 139.23L278.71 106.68L213.67 139.2L213.5 139.29V168.45L278.72 201.06L343.94 168.45V139.47C343.94 139.47 343.94 139.45 343.94 139.44C343.94 139.44 343.94 139.43 343.94 139.42L343.92 139.43ZM340.58 169.62L280.45 199.68C279.35 200.23 278.06 200.23 276.96 199.68L216.6 169.5C214.97 168.68 213.94 167.02 213.94 165.19V142.71C213.94 141.37 215.35 140.49 216.55 141.09L278.6 172.11C278.6 172.11 278.67 172.13 278.7 172.13C278.7 172.13 278.77 172.13 278.8 172.11L340.85 141.09C342.05 140.49 343.46 141.36 343.46 142.71V164.93C343.46 166.91 342.34 168.72 340.57 169.61L340.58 169.62ZM217.45 137.81L276.08 108.5C277.73 107.67 279.68 107.67 281.33 108.5L339.96 137.81C341.29 138.48 341.29 140.38 339.96 141.04L281.47 170.29C279.73 171.16 277.69 171.16 275.95 170.29L217.46 141.04C216.13 140.37 216.13 138.47 217.46 137.81H217.45Z" fill="black"/>
<path d="M205.778 219.84C205.518 213.9 208.298 208.31 213.028 204.91C210.998 205.71 208.548 206.11 206.088 206.11C203.208 206.11 200.328 205.56 198.128 204.46L148.848 179.82C147.438 179.12 146.448 178.25 145.918 177.3V204.57C145.918 205.96 147.028 207.29 149.048 208.3L198.328 232.94C202.608 235.08 209.568 235.08 213.838 232.94L219.488 230.12C212.908 231.77 206.078 227.02 205.768 219.85L205.778 219.84Z" fill="#3A6783"/>
<path d="M263.328 179.821L214.048 204.461C213.718 204.621 213.378 204.771 213.028 204.911C208.298 208.311 205.518 213.901 205.778 219.841C206.088 227.021 212.918 231.761 219.498 230.111L263.128 208.301C265.148 207.291 266.258 205.971 266.258 204.571V177.941L265.468 178.341C264.928 178.881 264.208 179.381 263.338 179.821H263.328Z" fill="#243031"/>
<path d="M266.237 175.46C266.127 174.15 265.038 172.91 263.128 171.96L213.848 147.32C211.708 146.25 208.897 145.72 206.087 145.72C203.277 145.72 200.467 146.25 198.327 147.32L149.048 171.96C147.148 172.91 146.057 174.15 145.947 175.46C145.947 175.53 145.938 175.61 145.938 175.69C145.938 175.77 145.937 175.84 145.947 175.92C146.057 177.23 147.148 178.47 149.048 179.42L198.327 204.06C202.607 206.2 209.567 206.2 213.837 204.06L241.947 190L263.107 179.42C265.007 178.47 266.097 177.23 266.207 175.92V175.84C266.207 175.84 266.217 175.74 266.217 175.7C266.217 175.62 266.217 175.55 266.207 175.47L266.237 175.46Z" fill="white"/>
<path d="M266.689 175.46C266.579 173.97 265.399 172.59 263.329 171.55L214.049 146.91C209.659 144.72 202.519 144.72 198.129 146.91L148.849 171.55C146.779 172.58 145.599 173.96 145.489 175.46L145.469 177.34V204.57C145.469 206.14 146.669 207.61 148.849 208.7L198.129 233.34C200.319 234.44 203.209 234.99 206.089 234.99C208.969 234.99 211.849 234.44 214.049 233.34L263.329 208.7C265.509 207.61 266.709 206.14 266.709 204.57V176.97L266.689 175.46ZM266.259 204.57C266.259 205.96 265.149 207.29 263.129 208.3L219.499 230.11L213.849 232.93C209.569 235.07 202.609 235.07 198.339 232.93L149.059 208.29C147.039 207.28 145.929 205.96 145.929 204.56V181.53C145.929 180.05 147.489 179.12 148.819 179.79C148.829 179.79 148.849 179.8 148.859 179.81L198.139 204.45C200.329 205.55 203.219 206.1 206.099 206.1C208.549 206.1 211.009 205.7 213.039 204.9C213.389 204.76 213.739 204.61 214.059 204.45L263.339 179.81L263.399 179.78C264.719 179.12 266.269 180.07 266.269 181.55V204.56L266.259 204.57ZM145.949 175.69C145.949 175.61 145.949 175.54 145.959 175.46C146.069 174.15 147.159 172.91 149.059 171.96L198.339 147.32C200.479 146.25 203.289 145.72 206.099 145.72C208.909 145.72 211.719 146.25 213.859 147.32L263.139 171.96C265.039 172.91 266.129 174.15 266.249 175.46C266.249 175.53 266.259 175.61 266.259 175.69C266.259 175.69 266.259 175.79 266.259 175.83V175.91C266.139 177.22 265.049 178.46 263.149 179.41L241.989 189.99L213.879 204.05C209.599 206.19 202.639 206.19 198.369 204.05L149.089 179.41C147.189 178.46 146.099 177.22 145.989 175.91C145.989 175.84 145.979 175.76 145.979 175.68L145.949 175.69Z" fill="black"/>
<path fill-rule="evenodd" clip-rule="evenodd" d="M207.191 21.1696L192.201 28.6596C191.991 28.7596 191.991 28.9296 192.201 29.0296L194.071 29.9696L205.971 28.7796C206.701 28.7097 207.281 28.4196 207.431 28.0496L209.811 22.0996L207.941 21.1596C207.731 21.0596 207.401 21.0596 207.191 21.1596V21.1696ZM199.031 32.4496L204.191 35.0296C204.401 35.1296 204.731 35.1296 204.941 35.0296L219.931 27.5396C220.141 27.4397 220.141 27.2696 219.931 27.1696L214.691 24.5496L215.291 22.9696L221.811 26.2296C223.051 26.8496 223.051 27.8596 221.811 28.4796L206.821 35.9697C205.581 36.5897 203.561 36.5897 202.321 35.9697L195.881 32.7496L199.031 32.4496ZM206.501 30.0796C208.231 29.9096 209.591 29.2496 210.001 28.3996L212.571 21.6096L209.821 20.2296C208.581 19.6096 206.561 19.6096 205.321 20.2296L190.331 27.7196C189.091 28.3396 189.091 29.3496 190.331 29.9696L193.161 31.3896L198.051 30.9296L206.501 30.0896V30.0796ZM189.391 34.1896L199.881 39.4396C202.471 40.7296 206.661 40.7296 209.251 39.4396L224.241 31.9496L222.371 31.0096L207.381 38.4996C205.831 39.2796 203.311 39.2796 201.761 38.4996L191.271 33.2496L189.401 34.1896H189.391Z" fill="#3A6783"/>
<path fill-rule="evenodd" clip-rule="evenodd" d="M266.459 64.9501L275.389 60.4801L272.739 59.1601L274.389 58.3301L277.039 59.6501L279.519 58.4101C280.619 57.8601 282.389 57.8601 283.489 58.4101L287.629 60.4801L266.459 71.0701L262.319 69.0001C261.219 68.4501 261.219 67.5601 262.319 67.0201L264.799 65.7801L262.149 64.4601L263.799 63.6301L266.449 64.9501H266.459ZM263.979 67.8401L281.179 59.2401C281.359 59.1501 281.659 59.1501 281.839 59.2401L284.319 60.4801L266.459 69.4101L263.979 68.1701C263.799 68.0801 263.799 67.9301 263.979 67.8401Z" fill="#3A6783"/>
<path fill-rule="evenodd" clip-rule="evenodd" d="M274.231 70.9802C273.131 70.4302 273.131 69.5402 274.231 69.0002L275.551 68.3402C276.651 67.7902 278.421 67.7902 279.521 68.3402L280.841 69.0002C281.941 69.5502 281.941 70.4402 280.841 70.9802L279.521 71.6402C278.421 72.1902 276.651 72.1902 275.551 71.6402L274.231 70.9802ZM275.891 69.8302L277.211 69.1702C277.391 69.0802 277.691 69.0802 277.871 69.1702L279.191 69.8302C279.371 69.9202 279.371 70.0702 279.191 70.1602L277.871 70.8202C277.691 70.9102 277.391 70.9102 277.211 70.8202L275.891 70.1602C275.711 70.0702 275.711 69.9202 275.891 69.8302Z" fill="#3A6783"/>
<path d="M287.961 62.2997L289.611 61.4697L298.051 65.6897C299.151 66.2397 299.151 67.1297 298.051 67.6697L280.851 76.2697C279.751 76.8197 277.981 76.8197 276.881 76.2697L268.441 72.0497L270.091 71.2197L278.531 75.4397C278.711 75.5297 279.011 75.5297 279.191 75.4397L296.391 66.8397C296.571 66.7497 296.571 66.5997 296.391 66.5097L287.951 62.2897L287.961 62.2997Z" fill="#3A6783"/>
<path fill-rule="evenodd" clip-rule="evenodd" d="M344.219 104.59C346.049 103.68 346.049 102.2 344.219 101.28C342.389 100.36 339.429 100.37 337.599 101.28C335.769 102.19 335.769 103.67 337.599 104.59C339.429 105.51 342.389 105.5 344.219 104.59ZM342.559 103.76C343.469 103.3 343.469 102.56 342.559 102.11C341.649 101.66 340.169 101.65 339.249 102.11C338.329 102.57 338.339 103.31 339.249 103.76C340.159 104.21 341.639 104.22 342.559 103.76Z" fill="#3A6783"/>
<path fill-rule="evenodd" clip-rule="evenodd" d="M345.54 105.25C342.25 106.89 342.25 109.56 345.54 111.2L346.39 111.63C347.02 111.94 348.03 111.94 348.66 111.63L358.3 106.81C358.93 106.5 358.93 105.99 358.3 105.68L357.45 105.25C354.16 103.61 348.83 103.61 345.54 105.25ZM356.13 106.24L355.8 106.07C353.42 104.88 349.57 104.88 347.2 106.07C344.83 107.26 344.82 109.18 347.2 110.37L347.53 110.54L356.13 106.24Z" fill="#3A6783"/>
<path fill-rule="evenodd" clip-rule="evenodd" d="M353.481 96.6501C355.311 97.5601 355.311 99.0401 353.481 99.9601C351.651 100.88 348.691 100.87 346.861 99.9601C345.031 99.0501 345.031 97.5701 346.861 96.6501C348.691 95.7301 351.651 95.7401 353.481 96.6501ZM351.831 97.4701C352.741 97.9301 352.741 98.6701 351.831 99.1201C350.921 99.5701 349.441 99.5801 348.521 99.1201C347.601 98.6601 347.611 97.9201 348.521 97.4701C349.431 97.0201 350.911 97.0101 351.831 97.4701Z" fill="#3A6783"/>
<path d="M365.059 101.44L365.389 101.61L359.769 104.42L360.289 104.68C360.689 104.88 360.999 105.11 361.209 105.35L367.569 102.17C368.199 101.86 368.199 101.35 367.569 101.04L366.719 100.61C363.429 98.9699 358.099 98.9699 354.809 100.61C353.659 101.19 352.909 101.89 352.559 102.63C353.339 102.67 354.109 102.74 354.859 102.86C355.119 102.34 355.649 101.84 356.469 101.44C358.849 100.25 362.699 100.25 365.069 101.44H365.059Z" fill="#3A6783"/>
<path d="M40.0397 102.96L37.1097 104.43L38.7497 106.05L37.9597 106.44L32.9297 101.32L33.8797 100.85L44.1197 103.36L43.2997 103.77L40.0497 102.96H40.0397ZM36.6497 103.99L39.1297 102.75L34.2497 101.53L34.1997 101.55L36.6497 103.99Z" fill="black"/>
<path d="M50.7195 97.9799C51.7095 98.8499 51.5795 99.7699 50.1295 100.49C48.3495 101.38 45.3294 101.28 42.9794 100.1C40.6294 98.9199 40.4195 97.4199 42.2395 96.5099C43.5395 95.8599 45.1995 95.7599 46.8095 96.1399L46.6194 96.7499C45.2594 96.3499 43.8795 96.3599 42.8595 96.8699C41.5795 97.5099 41.7395 98.6799 43.7895 99.6999C45.8395 100.72 48.1795 100.8 49.4095 100.18C50.5695 99.5999 50.5995 98.8999 49.4995 98.0999L50.7195 97.9699V97.9799Z" fill="black"/>
<path d="M58.1609 96.3397L51.1909 92.8597L48.3809 94.2697L47.7109 93.9397L54.1609 90.7197L54.8309 91.0497L51.9809 92.4697L58.9509 95.9497L58.1609 96.3397Z" fill="black"/>
<path d="M64.7298 93.0499L64.0598 92.7199L66.2798 91.6099L59.9798 88.4599L57.7598 89.5699L57.0898 89.2399L62.3098 86.6299L62.9798 86.9599L60.7598 88.0699L67.0598 91.2199L69.2798 90.1099L69.9498 90.4399L64.7298 93.0499Z" fill="black"/>
<path d="M76.2688 87.43C74.4588 88.33 71.5588 88.18 69.2088 87C66.8588 85.82 66.5388 84.37 68.3488 83.47C70.1588 82.57 73.0588 82.72 75.4088 83.9C77.7588 85.08 78.0788 86.53 76.2688 87.43ZM69.0088 83.8C67.6288 84.49 67.9888 85.58 70.0188 86.59C72.0388 87.6 74.2188 87.78 75.6088 87.09C76.9888 86.4 76.6288 85.31 74.5988 84.3C72.5788 83.29 70.3988 83.11 69.0088 83.8Z" fill="black"/>
<path d="M85.5995 81.3L79.2895 78.14L80.0195 77.78L87.6495 81.6L86.9995 81.93L76.2795 80.69L82.8795 83.99L82.1495 84.35L74.5195 80.53L75.4195 80.08L85.6095 81.3H85.5995Z" fill="black"/>
<path d="M88.8501 78.67C90.4901 79.05 92.1801 78.82 93.2701 78.28C94.3701 77.73 94.7501 77.04 93.7401 76.54C92.9801 76.16 92.1401 76.24 90.9601 76.59L89.0901 77.16C87.8901 77.53 86.5301 77.66 85.3601 77.08C84.1201 76.46 84.2501 75.52 85.6801 74.8C87.0501 74.12 88.6701 73.97 89.9501 74.19L90.0101 74.75C88.8201 74.48 87.3801 74.6 86.3401 75.12C85.3001 75.64 85.1401 76.23 86.1001 76.71C86.9101 77.12 87.7701 76.96 88.9101 76.61L90.5001 76.12C91.7601 75.73 93.1401 75.51 94.4601 76.17C95.8101 76.84 95.4501 77.83 93.9301 78.59C92.5701 79.27 90.5401 79.58 88.9601 79.22L88.8501 78.66V78.67Z" fill="black"/>
<path fill-rule="evenodd" clip-rule="evenodd" d="M194.26 105.03C195.9 104.21 195.9 102.87 194.26 102.05C192.62 101.23 189.95 101.23 188.31 102.05C186.67 102.87 186.67 104.21 188.31 105.03C189.95 105.85 192.62 105.85 194.26 105.03ZM192.6 104.2C193.33 103.83 193.33 103.24 192.6 102.88C191.87 102.52 190.68 102.51 189.95 102.88C189.22 103.25 189.22 103.84 189.95 104.2C190.68 104.56 191.87 104.57 192.6 104.2Z" fill="#3A6783"/>
<path fill-rule="evenodd" clip-rule="evenodd" d="M201.871 101.23C203.511 100.41 203.511 99.07 201.871 98.25C200.231 97.43 197.561 97.43 195.921 98.25C194.281 99.07 194.281 100.41 195.921 101.23C197.561 102.05 200.231 102.05 201.871 101.23ZM200.211 100.4C200.941 100.03 200.941 99.44 200.211 99.08C199.481 98.72 198.291 98.71 197.561 99.08C196.831 99.45 196.831 100.04 197.561 100.4C198.291 100.76 199.481 100.77 200.211 100.4Z" fill="#3A6783"/>
<path fill-rule="evenodd" clip-rule="evenodd" d="M209.481 94.44C211.121 95.26 211.121 96.5999 209.481 97.4199C207.841 98.2399 205.171 98.2399 203.531 97.4199C201.891 96.5999 201.891 95.26 203.531 94.44C205.171 93.62 207.841 93.62 209.481 94.44ZM207.821 95.2699C208.551 95.6399 208.551 96.2299 207.821 96.5899C207.091 96.9499 205.901 96.9599 205.171 96.5899C204.441 96.2199 204.441 95.6299 205.171 95.2699C205.901 94.9099 207.091 94.8999 207.821 95.2699Z" fill="#3A6783"/>
<path fill-rule="evenodd" clip-rule="evenodd" d="M201.871 108.84C203.511 108.02 203.511 106.68 201.871 105.86C200.231 105.04 197.561 105.04 195.921 105.86C194.281 106.68 194.281 108.02 195.921 108.84C197.561 109.66 200.231 109.66 201.871 108.84ZM200.211 108.01C200.941 107.64 200.941 107.05 200.211 106.69C199.481 106.33 198.291 106.32 197.561 106.69C196.831 107.06 196.831 107.65 197.561 108.01C198.291 108.37 199.481 108.38 200.211 108.01Z" fill="#3A6783"/>
<path fill-rule="evenodd" clip-rule="evenodd" d="M209.481 102.05C211.121 102.87 211.121 104.21 209.481 105.03C207.841 105.85 205.171 105.85 203.531 105.03C201.891 104.21 201.891 102.87 203.531 102.05C205.171 101.23 207.841 101.23 209.481 102.05ZM207.821 102.88C208.551 103.25 208.551 103.84 207.821 104.2C207.091 104.56 205.901 104.57 205.171 104.2C204.441 103.83 204.441 103.24 205.171 102.88C205.901 102.52 207.091 102.51 207.821 102.88Z" fill="#3A6783"/>
<path fill-rule="evenodd" clip-rule="evenodd" d="M217.08 108.84C218.72 108.02 218.72 106.68 217.08 105.86C215.44 105.04 212.77 105.04 211.13 105.86C209.49 106.68 209.49 108.02 211.13 108.84C212.77 109.66 215.44 109.66 217.08 108.84ZM215.43 108.01C216.16 107.64 216.16 107.05 215.43 106.69C214.7 106.33 213.51 106.32 212.78 106.69C212.05 107.06 212.05 107.65 212.78 108.01C213.51 108.37 214.7 108.38 215.43 108.01Z" fill="#3A6783"/>
<path fill-rule="evenodd" clip-rule="evenodd" d="M217.08 98.25C218.72 99.07 218.72 100.41 217.08 101.23C215.44 102.05 212.77 102.05 211.13 101.23C209.49 100.41 209.49 99.07 211.13 98.25C212.77 97.43 215.44 97.43 217.08 98.25ZM215.43 99.08C216.16 99.45 216.16 100.04 215.43 100.4C214.7 100.76 213.51 100.77 212.78 100.4C212.05 100.03 212.05 99.44 212.78 99.08C213.51 98.72 214.7 98.71 215.43 99.08Z" fill="#3A6783"/>
<path fill-rule="evenodd" clip-rule="evenodd" d="M277.91 138.73L283.96 142.97L282.53 135.08L277.84 137.42L273.12 133.07L267.9 135.68L273.59 140.89L277.92 138.73H277.91ZM286.8 145.47C286.89 145.95 285.64 146.18 285.08 145.79L277.6 140.56L273.91 142.41C273.46 142.63 272.71 142.58 272.4 142.3L265.29 135.78C265.09 135.6 265.15 135.37 265.45 135.22L272.78 131.56C273.23 131.34 273.98 131.39 274.29 131.67L278.41 135.46L283 133.17C283.57 132.89 284.54 133.06 284.62 133.46L286.81 145.48L286.8 145.47Z" fill="#3A6783"/>
<path d="M136.791 135.56L126.201 140.85L124.551 140.02L135.141 134.73L136.791 135.56Z" fill="#3A6783"/>
<path d="M130.17 142.83L140.76 137.54L139.11 136.71L128.52 142L130.17 142.83Z" fill="#3A6783"/>
<path d="M144.73 139.53L134.14 144.82L132.49 143.99L143.08 138.7L144.73 139.53Z" fill="#3A6783"/>
<path fill-rule="evenodd" clip-rule="evenodd" d="M128.68 132.17L131.33 130.85C132.43 130.3 134.2 130.3 135.3 130.85L151.18 138.79C152.28 139.34 152.28 140.23 151.18 140.77L136.62 148.05C135.52 148.6 133.75 148.6 132.65 148.05L116.77 140.11C115.67 139.56 115.67 138.67 116.77 138.13L119.42 136.81L118.1 136.15L119.42 135.49L120.74 136.15L123.39 134.83L122.07 134.17L123.39 133.51L124.71 134.17L127.36 132.85L126.04 132.19L127.36 131.53L128.68 132.19V132.17ZM121.08 137.62L122.07 138.12L123.39 137.46L122.4 136.96L125.05 135.64L126.04 136.14L127.36 135.48L126.37 134.98L129.02 133.66L130.01 134.16L131.33 133.5L130.34 133L132.99 131.68C133.17 131.59 133.47 131.59 133.65 131.68L149.53 139.62C149.71 139.71 149.71 139.86 149.53 139.95L134.97 147.23C134.79 147.32 134.49 147.32 134.31 147.23L118.43 139.29C118.25 139.2 118.25 139.05 118.43 138.96L121.08 137.64V137.62Z" fill="#3A6783"/>
<path fill-rule="evenodd" clip-rule="evenodd" d="M203.64 182L206.08 184.09L208.71 181.96L209.57 181.83C211.54 181.54 213.39 181.01 214.95 180.23C219.88 177.76 219.88 173.76 214.95 171.3C210.02 168.83 202.02 168.83 197.09 171.3C192.16 173.77 192.16 177.77 197.09 180.23C198.71 181.04 200.65 181.58 202.71 181.86L203.64 181.99V182ZM216.61 170.48C222.46 173.4 222.46 178.14 216.61 181.07C214.77 181.99 212.57 182.62 210.23 182.96L207.66 185.04C206.92 185.64 205.16 185.63 204.45 185.02L202.1 183C199.66 182.67 197.35 182.03 195.43 181.07C189.58 178.15 189.58 173.41 195.43 170.48C201.28 167.56 210.76 167.56 216.6 170.48H216.61Z" fill="#3A6783"/>
</g>
<defs>
<clipPath id="clip0_3216_93916">
<rect width="411.77" height="234.99" fill="white"/>
</clipPath>
</defs>
</svg>
