<svg xmlns="http://www.w3.org/2000/svg" width="414" height="236" viewBox="0 0 414 236" fill="none">
<g clip-path="url(#clip0_3216_93902)">
<path d="M0.381061 131.317C0.23056 132.832 1.30414 134.377 3.62186 135.541L198.912 233.187C203.267 235.364 210.32 235.364 214.675 233.187L410.016 135.521C412.524 134.267 413.196 132.642 413.196 130.936V103.645H377.437L214.725 22.2741C210.371 20.0968 203.317 20.0968 198.963 22.2741L36.2405 103.635H0.381061" fill="#2C66FF"/>
<path d="M400.444 112.304L240.271 192.391L223.053 200.969C222.512 201.24 221.99 201.551 221.478 201.872L215.94 204.632C210.04 207.571 206.418 213.712 206.699 220.304C207.03 227.969 215.157 232.745 222.02 229.304L244.113 218.227L403.213 138.682C403.635 138.471 403.996 138.25 404.307 138.02L410.327 135.01C413.066 133.635 413.387 131.849 413.387 130.625V120.481C413.387 113.809 406.434 109.455 400.454 112.294L400.444 112.304Z" fill="#1E4AB3"/>
<path d="M198.783 205.053L3.49244 107.408C-0.862064 105.23 -0.862064 101.699 3.49244 99.5214L198.833 1.85608C203.188 -0.321169 210.241 -0.321169 214.596 1.85608L409.886 99.5013C414.241 101.679 414.241 105.21 409.886 107.388L214.545 205.053C210.191 207.23 203.137 207.23 198.783 205.053Z" fill="#D9E6FF"/>
<path d="M409.986 99.3006L214.695 1.65531C210.29 -0.542006 203.127 -0.542006 198.732 1.65531L3.3913 99.3206C1.20401 100.414 0 101.889 0 103.464C0 103.725 0.100334 131.297 0.100334 131.297C0.100334 133.153 1.15384 134.588 3.46153 135.742L198.752 233.387C200.949 234.491 203.849 235.043 206.739 235.043C209.628 235.043 212.518 234.491 214.725 233.387L410.066 135.722C412.323 134.598 413.377 133.073 413.377 130.926V103.695C413.377 103.615 413.387 103.525 413.387 103.444C413.387 101.869 412.183 100.394 409.996 99.3006H409.986ZM412.885 103.866C412.685 105.11 411.601 106.274 409.785 107.187L213.581 205.284C210.24 206.929 203.137 206.929 199.745 205.284L3.59196 107.197C1.91638 106.354 0.862874 105.301 0.551838 104.167C0.491638 103.936 0.451504 103.695 0.451504 103.454C0.451504 103.434 0.451504 103.414 0.451504 103.404C0.481604 102.03 1.59531 100.715 3.59196 99.722L198.933 2.05665C203.227 -0.0905017 210.2 -0.0905017 214.494 2.05665L409.785 99.7019C411.792 100.705 412.905 102.02 412.925 103.404C412.925 103.414 412.925 103.424 412.925 103.434C412.925 103.575 412.915 103.715 412.885 103.856V103.866ZM412.915 130.926C412.915 132.15 412.594 133.946 409.855 135.311L214.515 232.976C210.22 235.123 203.247 235.123 198.953 232.976L3.6622 135.331C1.53511 134.267 0.401337 132.812 0.551838 131.307V112.043C0.551838 109.344 3.3913 107.598 5.79932 108.802L198.682 205.253C200.879 206.357 203.779 206.909 206.668 206.909C209.558 206.909 212.448 206.357 214.655 205.253L400.123 112.515C406.002 109.575 412.915 113.849 412.915 120.421V130.926Z" fill="#1E4AB3"/>
<path d="M206.52 98.3275C206.52 96.0398 208.185 94.1335 210.373 93.7623C194.169 93.983 177.814 91.0131 165.453 84.8325C174.002 89.1068 179.49 94.3342 181.918 99.8325C190.908 102.03 200.741 103.053 210.523 102.913C208.266 102.602 206.52 100.675 206.52 98.3275Z" fill="#2C66FF"/>
<path d="M237.09 116.066C236.027 114.451 235.234 112.805 234.712 111.14C234.471 110.357 234.291 109.565 234.17 108.772V113.849C233.849 116.648 234.301 119.458 235.515 122.207C241.435 123.652 246.983 125.598 251.9 128.056C244.926 124.575 240 120.451 237.1 116.076L237.09 116.066Z" fill="#2C66FF"/>
<path d="M183.351 114.07V107.648H183.301C183.211 108.732 183.02 109.816 182.699 110.889C182.187 112.645 181.364 114.371 180.241 116.066C177.341 120.451 172.405 124.565 165.441 128.046C170.408 125.568 176.017 123.602 181.997 122.157C183.16 119.498 183.612 116.769 183.341 114.06L183.351 114.07Z" fill="#1E4AB3"/>
<path d="M211.154 93.6919C210.883 93.6919 210.622 93.722 210.371 93.7621C210.843 93.7621 211.324 93.7621 211.796 93.7421C211.585 93.712 211.374 93.6919 211.154 93.6919Z" fill="#1E4AB3"/>
<path d="M211.795 93.7422C211.324 93.7522 210.842 93.7522 210.37 93.7623C208.183 94.1335 206.518 96.0298 206.518 98.3275C206.518 100.625 208.263 102.602 210.521 102.913C210.992 102.913 211.464 102.903 211.936 102.893C220.002 102.682 227.989 101.679 235.414 99.8726C237.832 94.3643 243.32 89.1168 251.899 84.8325C240.762 90.4011 226.384 93.371 211.795 93.7422Z" fill="#1E4AB3"/>
<path d="M234.17 113.849V108.772C233.719 105.792 234.13 102.792 235.414 99.8624C227.989 101.658 220.003 102.672 211.936 102.882C211.464 102.892 210.993 102.903 210.521 102.903C200.739 103.043 190.896 102.02 181.916 99.8223C183.05 102.391 183.511 105.03 183.311 107.648H183.361V114.07C183.632 116.779 183.18 119.508 182.016 122.167C198.873 118.083 218.689 118.093 235.525 122.207C234.311 119.458 233.869 116.648 234.18 113.849H234.17Z" fill="#4169E1"/>
<path d="M172.075 88.1937C182.6 92.1168 195.313 94.2338 208.667 94.2338C222.022 94.2338 234.734 92.1168 245.259 88.1937C237.644 93.4512 233.53 99.7823 233.53 106.444C233.53 113.107 237.644 119.438 245.259 124.695C234.734 120.772 222.022 118.655 208.667 118.655C195.313 118.655 182.6 120.772 172.075 124.695C179.691 119.438 183.804 113.107 183.804 106.444C183.804 99.7823 179.691 93.4512 172.075 88.1937ZM251.901 84.8325C239.961 90.8024 224.319 93.7823 208.677 93.7823C193.035 93.7823 177.393 90.8024 165.453 84.8325C189.323 96.7723 189.323 116.117 165.453 128.056C177.393 122.087 193.035 119.107 208.677 119.107C224.319 119.107 239.961 122.087 251.901 128.056C228.032 116.117 228.032 96.7723 251.901 84.8325Z" fill="#1E4AB3"/>
</g>
<defs>
<clipPath id="clip0_3216_93902">
<rect width="413.377" height="235.033" fill="white"/>
</clipPath>
</defs>
</svg>