<svg width="1024" height="1024" viewBox="0 0 1024 1024" fill="none" xmlns="http://www.w3.org/2000/svg">
    <mask id="mask0_280_36893" style="mask-type:alpha" maskUnits="userSpaceOnUse" x="0" y="0" width="1024" height="711">
        <rect width="1024" height="711" fill="url(#paint0_linear_280_36893)"/>
    </mask>
    <g mask="url(#mask0_280_36893)">
        <g filter="url(#filter0_i_280_36893)">
            <path d="M828.448 553.761C837.82 563.134 837.82 578.33 828.448 587.702L258.991 1157.16C249.619 1166.53 234.423 1166.53 225.05 1157.16L-143.274 788.835C-152.647 779.462 -152.647 764.266 -143.274 754.894L426.183 185.437C435.555 176.064 450.751 176.064 460.124 185.437L828.448 553.761Z" fill="white" fill-opacity="0.01"/>
        </g>
        <g filter="url(#filter1_i_280_36893)">
            <path d="M414.115 139.428C423.487 148.801 423.487 163.997 414.115 173.369L-155.342 742.826C-164.714 752.198 -179.91 752.198 -189.283 742.826L-557.607 374.502C-566.979 365.129 -566.979 349.933 -557.607 340.561L11.8496 -228.896C21.2221 -238.269 36.4181 -238.269 45.7907 -228.896L414.115 139.428Z" fill="white" fill-opacity="0.01"/>
        </g>
        <g filter="url(#filter2_f_280_36893)">
            <path d="M92.5404 135.385C101.913 144.758 101.913 159.954 92.5404 169.326L-184.985 446.852C-194.358 456.224 -209.554 456.224 -218.926 446.852L-392.63 273.148C-402.002 263.776 -402.002 248.58 -392.63 239.207L-115.104 -38.3184C-105.731 -47.6909 -90.5355 -47.6909 -81.1629 -38.3184L92.5404 135.385Z" fill="#F8FF2C"/>
        </g>
    </g>
    <defs>
        <filter id="filter0_i_280_36893" x="-150.304" y="178.408" width="985.781" height="1014.23" filterUnits="userSpaceOnUse" color-interpolation-filters="sRGB">
            <feFlood flood-opacity="0" result="BackgroundImageFix"/>
            <feBlend mode="normal" in="SourceGraphic" in2="BackgroundImageFix" result="shape"/>
            <feColorMatrix in="SourceAlpha" type="matrix" values="0 0 0 0 0 0 0 0 0 0 0 0 0 0 0 0 0 0 127 0" result="hardAlpha"/>
            <feOffset dy="28.4444"/>
            <feGaussianBlur stdDeviation="42.6667"/>
            <feComposite in2="hardAlpha" operator="arithmetic" k2="-1" k3="1"/>
            <feColorMatrix type="matrix" values="0 0 0 0 1 0 0 0 0 0.741176 0 0 0 0 0.960784 0 0 0 1 0"/>
            <feBlend mode="normal" in2="shape" result="effect1_innerShadow_280_36893"/>
        </filter>
        <filter id="filter1_i_280_36893" x="-564.636" y="-235.925" width="985.78" height="1042.67" filterUnits="userSpaceOnUse" color-interpolation-filters="sRGB">
            <feFlood flood-opacity="0" result="BackgroundImageFix"/>
            <feBlend mode="normal" in="SourceGraphic" in2="BackgroundImageFix" result="shape"/>
            <feColorMatrix in="SourceAlpha" type="matrix" values="0 0 0 0 0 0 0 0 0 0 0 0 0 0 0 0 0 0 127 0" result="hardAlpha"/>
            <feOffset dy="56.8889"/>
            <feGaussianBlur stdDeviation="42.6667"/>
            <feComposite in2="hardAlpha" operator="arithmetic" k2="-1" k3="1"/>
            <feColorMatrix type="matrix" values="0 0 0 0 0.929412 0 0 0 0 0.921569 0 0 0 0 0.909804 0 0 0 1 0"/>
            <feBlend mode="normal" in2="shape" result="effect1_innerShadow_280_36893"/>
        </filter>
        <filter id="filter2_f_280_36893" x="-541.881" y="-187.57" width="783.673" height="783.673" filterUnits="userSpaceOnUse" color-interpolation-filters="sRGB">
            <feFlood flood-opacity="0" result="BackgroundImageFix"/>
            <feBlend mode="normal" in="SourceGraphic" in2="BackgroundImageFix" result="shape"/>
            <feGaussianBlur stdDeviation="71.1111" result="effect1_foregroundBlur_280_36893"/>
        </filter>
        <linearGradient id="paint0_linear_280_36893" x1="512" y1="355.21" x2="512" y2="637.988" gradientUnits="userSpaceOnUse">
            <stop/>
            <stop offset="1" stop-opacity="0"/>
        </linearGradient>
    </defs>
</svg>
