<svg width="375" height="375" viewBox="0 0 375 375" fill="none" xmlns="http://www.w3.org/2000/svg">
    <mask id="mask0_280_36953" style="mask-type:alpha" maskUnits="userSpaceOnUse" x="0" y="0" width="375" height="375">
        <rect width="375" height="375" fill="url(#paint0_linear_280_36953)"/>
    </mask>
    <g mask="url(#mask0_280_36953)">
        <g filter="url(#filter0_i_280_36953)">
            <path d="M409.686 316.78C415.935 323.028 415.935 333.159 409.686 339.407L131.592 617.501C125.344 623.75 115.213 623.75 108.965 617.501L-68.8889 439.648C-75.1373 433.399 -75.1373 423.269 -68.8889 417.02L209.205 138.926C215.454 132.678 225.584 132.678 231.833 138.926L409.686 316.78Z" fill="white" fill-opacity="0.01"/>
        </g>
        <g filter="url(#filter1_i_280_36953)">
            <path d="M203.191 110.285C209.439 116.533 209.439 126.664 203.191 132.912L-74.903 411.006C-81.1514 417.255 -91.282 417.255 -97.5304 411.006L-275.384 233.153C-281.632 226.904 -281.632 216.774 -275.384 210.525L2.71006 -67.5689C8.95846 -73.8173 19.0891 -73.8173 25.3375 -67.5689L203.191 110.285Z" fill="white" fill-opacity="0.01"/>
        </g>
        <g filter="url(#filter2_f_280_36953)">
            <path d="M42.9245 108.27C49.1729 114.518 49.1729 124.649 42.9245 130.897L-89.677 263.498C-95.9253 269.747 -106.056 269.747 -112.304 263.498L-193.163 182.64C-199.411 176.391 -199.411 166.261 -193.163 160.012L-60.5614 27.411C-54.313 21.1626 -44.1824 21.1626 -37.934 27.411L42.9245 108.27Z" fill="#F8FF2C"/>
        </g>
    </g>
    <defs>
        <filter id="filter0_i_280_36953" x="-73.5753" y="134.24" width="487.948" height="498.364" filterUnits="userSpaceOnUse" color-interpolation-filters="sRGB">
            <feFlood flood-opacity="0" result="BackgroundImageFix"/>
            <feBlend mode="normal" in="SourceGraphic" in2="BackgroundImageFix" result="shape"/>
            <feColorMatrix in="SourceAlpha" type="matrix" values="0 0 0 0 0 0 0 0 0 0 0 0 0 0 0 0 0 0 127 0" result="hardAlpha"/>
            <feOffset dy="10.4167"/>
            <feGaussianBlur stdDeviation="15.625"/>
            <feComposite in2="hardAlpha" operator="arithmetic" k2="-1" k3="1"/>
            <feColorMatrix type="matrix" values="0 0 0 0 1 0 0 0 0 0.741176 0 0 0 0 0.960784 0 0 0 1 0"/>
            <feBlend mode="normal" in2="shape" result="effect1_innerShadow_280_36953"/>
        </filter>
        <filter id="filter1_i_280_36953" x="-280.07" y="-72.2554" width="487.948" height="508.781" filterUnits="userSpaceOnUse" color-interpolation-filters="sRGB">
            <feFlood flood-opacity="0" result="BackgroundImageFix"/>
            <feBlend mode="normal" in="SourceGraphic" in2="BackgroundImageFix" result="shape"/>
            <feColorMatrix in="SourceAlpha" type="matrix" values="0 0 0 0 0 0 0 0 0 0 0 0 0 0 0 0 0 0 127 0" result="hardAlpha"/>
            <feOffset dy="20.8333"/>
            <feGaussianBlur stdDeviation="15.625"/>
            <feComposite in2="hardAlpha" operator="arithmetic" k2="-1" k3="1"/>
            <feColorMatrix type="matrix" values="0 0 0 0 0.929412 0 0 0 0 0.921569 0 0 0 0 0.909804 0 0 0 1 0"/>
            <feBlend mode="normal" in2="shape" result="effect1_innerShadow_280_36953"/>
        </filter>
        <filter id="filter2_f_280_36953" x="-249.932" y="-29.3587" width="349.627" height="349.627" filterUnits="userSpaceOnUse" color-interpolation-filters="sRGB">
            <feFlood flood-opacity="0" result="BackgroundImageFix"/>
            <feBlend mode="normal" in="SourceGraphic" in2="BackgroundImageFix" result="shape"/>
            <feGaussianBlur stdDeviation="26.0417" result="effect1_foregroundBlur_280_36953"/>
        </filter>
        <linearGradient id="paint0_linear_280_36953" x1="187.5" y1="187.347" x2="187.5" y2="336.491" gradientUnits="userSpaceOnUse">
            <stop/>
            <stop offset="1" stop-opacity="0"/>
        </linearGradient>
    </defs>
</svg>
