<svg width="2216" height="888" viewBox="0 0 2216 888" fill="none" xmlns="http://www.w3.org/2000/svg">
<g clip-path="url(#clip0_3272_82276)">
<rect width="2216" height="888" fill="#AFCDFC"/>
<g filter="url(#filter0_f_3272_82276)">
<ellipse cx="1085" cy="544" rx="626" ry="322" fill="url(#paint0_linear_3272_82276)"/>
</g>
<path d="M680.855 1251L1508 946.924V858.161L680.855 1091.05V1251Z" fill="#6CA4F9"/>
<path d="M680.855 854.856L1508 713.01V796.503L680.855 1008.64V854.856Z" fill="#99C0FB"/>
<path d="M680.855 616.219L1508 579.844V678.723L680.855 808.889V616.219Z" fill="#C5DBFC"/>
<path d="M680.855 385.422L1508 421.377V544.555L680.855 578.512V385.422Z" fill="#AFCDFC"/>
<path d="M680.855 144.392L1508 295.535V392.08L680.855 342.224V144.392Z" fill="#C5DBFC"/>
<path d="M680.855 -74L1508 163.162V268.236L680.855 103.489V-74Z" fill="#DBE8FD"/>
<path d="M680.855 1251L1508 946.924V858.161L680.855 1091.05V1251Z" fill="#6CA4F9"/>
<path d="M680.855 854.856L1508 713.01V796.503L680.855 1008.64V854.856Z" fill="#99C0FB"/>
<path d="M680.855 616.219L1508 579.844V678.723L680.855 808.889V616.219Z" fill="#C5DBFC"/>
<path d="M680.855 385.422L1508 421.377V544.555L680.855 578.512V385.422Z" fill="#AFCDFC"/>
<path d="M680.855 144.392L1508 295.535V392.08L680.855 342.224V144.392Z" fill="#C5DBFC"/>
<path d="M680.855 -74L1508 163.162V268.236L680.855 103.489V-74Z" fill="#DBE8FD"/>
<path d="M2335.14 1251L1508 946.924V858.161L2335.14 1091.05V1251Z" fill="#4089F8"/>
<path d="M2335.14 854.856L1508 713.01V796.503L2335.14 1008.64V854.856Z" fill="#6CA4F9"/>
<path d="M2335.14 616.219L1508 579.844V678.723L2335.14 808.889V616.219Z" fill="#AFCDFC"/>
<path d="M2335.14 385.422L1508 421.377V544.555L2335.14 578.512V385.422Z" fill="#99C0FB"/>
<path d="M2335.14 144.392L1508 295.535V392.08L2335.14 342.224V144.392Z" fill="#AFCDFC"/>
<path d="M2335.14 -74L1508 163.162V268.236L2335.14 103.489V-74Z" fill="#C5DBFC"/>
<path d="M680.855 1251L385 946.924V858.161L680.855 1091.05V1251Z" fill="#4089F8"/>
<path d="M680.855 854.856L385 713.01V796.503L680.855 1008.64V854.856Z" fill="#6CA4F9"/>
<path d="M680.855 616.219L385 579.844V678.723L680.855 808.889V616.219Z" fill="#AFCDFC"/>
<path d="M680.855 385.422H385V544.555L680.855 578.512V385.422Z" fill="#99C0FB"/>
<path d="M680.855 144.392L385 275.739V364.115L680.855 342.224V144.392Z" fill="#AFCDFC"/>
<path d="M680.855 -74L385 162.7V246.93L680.855 103.143V-74Z" fill="#C5DBFC"/>
<path d="M680.855 1251L385 946.924V858.161L680.855 1091.05V1251Z" fill="#4089F8"/>
<path d="M680.855 854.856L385 713.01V796.503L680.855 1008.64V854.856Z" fill="#6CA4F9"/>
<path d="M680.855 616.219L385 579.844V678.723L680.855 808.889V616.219Z" fill="#AFCDFC"/>
<path d="M680.855 385.422H385V544.555L680.855 578.512V385.422Z" fill="#99C0FB"/>
<path d="M680.855 144.392L385 275.739V364.115L680.855 342.224V144.392Z" fill="#AFCDFC"/>
<path d="M680.855 -74L385 162.7V246.93L680.855 103.143V-74Z" fill="#C5DBFC"/>
<path d="M-697 1251L384.855 946.924V858.161L-697 1091.05V1251Z" fill="#4089F8"/>
<path d="M-697 854.856L384.855 713.01V796.503L-697 1008.64V854.856Z" fill="#6CA4F9"/>
<path d="M-697 616.219L384.855 579.844V678.723L-697 808.889V616.219Z" fill="#AFCDFC"/>
<path d="M-697 385.422H384.855V544.555L-697 578.512V385.422Z" fill="#99C0FB"/>
<path d="M-697 144.392L384.855 275.739V364.115L-697 342.224V144.392Z" fill="#AFCDFC"/>
<path d="M-697 -74L384.855 162.7V246.93L-697 103.143V-74Z" fill="#C5DBFC"/>
<path fill-rule="evenodd" clip-rule="evenodd" d="M1766.5 273H1795V301.333V329.667H1766.5V358H1738V329.667V301.333H1766.5V273Z" fill="#6CA4F9"/>
<path fill-rule="evenodd" clip-rule="evenodd" d="M1666.7 330.978C1667.47 345.922 1679.82 357.826 1695 358V301C1679.82 301.174 1667.47 313.078 1666.7 328.022C1665.94 313.275 1653.91 301.488 1639 301.013V357.987C1653.91 357.512 1665.94 345.725 1666.7 330.978Z" fill="#99C0FB"/>
<path fill-rule="evenodd" clip-rule="evenodd" d="M1586.66 337.72L1595.18 332.797L1588.9 321.923L1580.37 326.838L1580.37 317H1567.81L1567.8 326.838L1559.28 321.923L1553 332.797L1561.52 337.72L1553 342.643L1559.28 353.517L1567.8 348.602L1567.81 358.44H1580.37L1580.37 348.602L1588.9 353.517L1595.18 342.643L1586.66 337.72Z" fill="#FFCBA5"/>
<path fill-rule="evenodd" clip-rule="evenodd" d="M2124.74 605.274H2168.48V648.758V692.242H2124.74V735.726H2081V692.242V648.758H2124.74V605.274Z" fill="#6CA4F9"/>
<path fill-rule="evenodd" clip-rule="evenodd" d="M1995.51 676.008C1996.69 698.942 2015.64 717.212 2038.95 717.479V630C2015.64 630.267 1996.69 648.537 1995.51 671.471C1994.35 648.839 1975.88 630.75 1953 630.02V717.459C1975.88 716.73 1994.35 698.641 1995.51 676.008Z" fill="#99C0FB"/>
<path fill-rule="evenodd" clip-rule="evenodd" d="M1916.66 661.629L1929.73 654.073L1920.1 637.386L1907.01 644.928L1907.01 629.83H1887.73L1887.72 644.928L1874.64 637.386L1865 654.073L1878.08 661.629L1865 669.185L1874.64 685.873L1887.72 678.33L1887.73 693.429H1907.01L1907.01 678.33L1920.1 685.873L1929.73 669.185L1916.66 661.629Z" fill="#FFCBA5"/>
<path d="M1737.86 145.235C1737.68 144.249 1737.58 143.232 1737.58 142.192C1737.58 133.249 1744.68 126 1753.42 126C1758.78 126 1763.51 128.714 1766.38 132.869C1769.13 130.507 1772.68 129.084 1776.56 129.084C1785.22 129.084 1792.26 136.195 1792.4 145.019H1792.4C1802.12 145.019 1810 153.073 1810 163.009C1810 172.945 1802.12 181 1792.4 181H1740.6C1730.88 181 1723 172.945 1723 163.009C1723 154.025 1729.44 146.579 1737.86 145.235Z" fill="#DBE8FD"/>
<path fill-rule="evenodd" clip-rule="evenodd" d="M1688 155.862C1673.73 152.046 1657.88 152.046 1643.61 155.862C1643.61 164.275 1643.61 172.688 1643.61 181.101C1643.61 193.721 1665.81 206 1665.81 206C1665.81 206 1688 193.723 1688 181.101C1688 172.688 1688 164.275 1688 155.862Z" fill="#FFF2E9"/>
<path fill-rule="evenodd" clip-rule="evenodd" d="M1557.55 191.14C1558.97 192.56 1560.93 193.111 1562.77 192.791C1562.45 194.631 1563 196.592 1564.42 198.012C1565.84 199.433 1567.8 199.983 1569.64 199.664C1569.32 201.503 1569.87 203.464 1571.29 204.885C1572.72 206.305 1574.68 206.856 1576.52 206.537C1576.2 208.376 1576.75 210.337 1578.17 211.757C1579.59 213.178 1581.55 213.729 1583.39 213.409C1583.07 215.249 1583.62 217.21 1585.04 218.63C1587.36 220.95 1591.12 220.95 1593.44 218.63C1595.76 216.311 1595.76 212.55 1593.44 210.23C1592.02 208.81 1590.06 208.259 1588.22 208.578C1588.54 206.739 1587.99 204.778 1586.57 203.358C1585.15 201.937 1583.19 201.387 1581.35 201.706C1581.67 199.866 1581.12 197.905 1579.69 196.485C1578.27 195.065 1576.31 194.514 1574.47 194.833C1574.79 192.994 1574.24 191.033 1572.82 189.612C1571.4 188.192 1569.44 187.641 1567.6 187.961C1567.92 186.121 1567.37 184.16 1565.95 182.74C1563.63 180.42 1559.87 180.42 1557.55 182.74C1555.23 185.059 1555.23 188.82 1557.55 191.14Z" fill="#99C0FB"/>
<path d="M2101.23 479.469C2100.96 478.061 2100.83 476.608 2100.83 475.123C2100.83 462.352 2110.96 452 2123.45 452C2131.09 452 2137.85 455.876 2141.95 461.81C2145.88 458.436 2150.95 456.404 2156.48 456.404C2168.86 456.404 2178.91 466.559 2179.1 479.16H2179.11C2192.99 479.16 2204.24 490.662 2204.24 504.852C2204.24 519.041 2192.99 530.544 2179.11 530.544H2105.14C2091.25 530.544 2080 519.041 2080 504.852C2080 492.022 2089.2 481.389 2101.23 479.469Z" fill="#DBE8FD"/>
<path fill-rule="evenodd" clip-rule="evenodd" d="M2027.39 456.087C2007.01 450.638 1984.38 450.638 1964 456.087C1964 468.101 1964 480.116 1964 492.131C1964 510.152 1995.7 527.688 1995.7 527.688C1995.7 527.688 2027.39 510.155 2027.39 492.131C2027.39 480.116 2027.39 468.101 2027.39 456.087Z" fill="#AFCDFC"/>
<path fill-rule="evenodd" clip-rule="evenodd" d="M1899.48 499.825C1901.51 501.854 1904.31 502.64 1906.94 502.184C1906.48 504.811 1907.27 507.611 1909.3 509.64C1911.33 511.668 1914.13 512.455 1916.75 511.999C1916.3 514.626 1917.08 517.426 1919.11 519.454C1921.14 521.483 1923.94 522.269 1926.57 521.813C1926.11 524.44 1926.9 527.24 1928.93 529.269C1930.96 531.298 1933.76 532.084 1936.38 531.628C1935.93 534.255 1936.71 537.055 1938.74 539.084C1942.06 542.396 1947.43 542.396 1950.74 539.084C1954.05 535.771 1954.05 530.4 1950.74 527.088C1948.71 525.06 1945.91 524.273 1943.28 524.729C1943.74 522.102 1942.95 519.302 1940.92 517.273C1938.9 515.245 1936.09 514.459 1933.47 514.915C1933.92 512.288 1933.14 509.487 1931.11 507.459C1929.08 505.43 1926.28 504.644 1923.65 505.1C1924.11 502.473 1923.32 499.673 1921.29 497.644C1919.27 495.616 1916.47 494.829 1913.84 495.285C1914.29 492.658 1913.51 489.858 1911.48 487.83C1908.17 484.517 1902.8 484.517 1899.48 487.83C1896.17 491.142 1896.17 496.513 1899.48 499.825Z" fill="#4089F8"/>
<path d="M1767.42 452.818C1767.29 451.727 1765.71 451.727 1765.58 452.818L1764.49 461.966C1763.09 473.779 1753.78 483.092 1741.97 484.494L1732.82 485.579C1731.73 485.709 1731.73 487.291 1732.82 487.421L1741.97 488.506C1753.78 489.908 1763.09 499.221 1764.49 511.034L1765.58 520.182C1765.71 521.273 1767.29 521.273 1767.42 520.182L1768.51 511.034C1769.91 499.221 1779.22 489.908 1791.03 488.506L1800.18 487.421C1801.27 487.291 1801.27 485.709 1800.18 485.579L1791.03 484.494C1779.22 483.092 1769.91 473.779 1768.51 461.966L1767.42 452.818Z" fill="#FF974C"/>
<path fill-rule="evenodd" clip-rule="evenodd" d="M1649.02 502.684H1625.63C1625.63 483.529 1641.16 468 1660.32 468C1679.47 468 1695 483.529 1695 502.684H1671.61C1671.61 496.448 1666.55 491.392 1660.32 491.392C1654.08 491.392 1649.02 496.448 1649.02 502.684Z" fill="#AFCDFC"/>
<circle cx="18.5" cy="18.5" r="18.5" transform="matrix(-1 0 0 1 1592 468)" fill="#DBE8FD"/>
<path d="M2126.61 36.0763C2126.44 34.6412 2124.36 34.6412 2124.19 36.0763L2122.76 48.1155C2120.92 63.6612 2108.66 75.9179 2093.12 77.7625L2081.08 79.191C2079.64 79.3614 2079.64 81.4438 2081.08 81.6142L2093.12 83.0427C2108.66 84.8873 2120.92 97.144 2122.76 112.69L2124.19 124.729C2124.36 126.164 2126.44 126.164 2126.61 124.729L2128.04 112.69C2129.89 97.144 2142.14 84.8873 2157.69 83.0427L2169.73 81.6142C2171.16 81.4438 2171.16 79.3614 2169.73 79.191L2157.69 77.7625C2142.14 75.9179 2129.89 63.6612 2128.04 48.1155L2126.61 36.0763Z" fill="#FF974C"/>
<path fill-rule="evenodd" clip-rule="evenodd" d="M1980.78 125.645L1950 125.645C1950 100.436 1970.44 80 1995.65 80C2020.85 80 2041.29 100.436 2041.29 125.645H2010.51C2010.51 117.438 2003.85 110.784 1995.65 110.784C1987.44 110.784 1980.78 117.438 1980.78 125.645Z" fill="#AFCDFC"/>
<circle cx="24.3463" cy="24.3463" r="24.3463" transform="matrix(-1 0 0 1 1899.69 107.154)" fill="#DBE8FD"/>
<path d="M1766.66 615L1764.07 632.573L1756.42 616.544L1759.12 634.1L1747.08 621.04L1754.84 637.018L1739.49 628.087L1751.61 641.068L1734.31 637.059L1749.72 645.89L1732 647.16L1749.33 651.056L1732.77 657.492L1750.48 656.107L1736.56 667.136L1753.07 660.593L1743.02 675.236L1756.87 664.116L1751.58 681.073L1761.54 666.364L1761.48 684.127L1766.66 667.136L1771.84 684.127L1771.78 666.364L1781.74 681.073L1776.45 664.116L1790.3 675.236L1780.25 660.593L1796.76 667.136L1782.84 656.107L1800.55 657.492L1783.99 651.056L1801.32 647.16L1783.6 645.89L1799.01 637.059L1781.71 641.068L1793.83 628.087L1778.48 637.018L1786.24 621.04L1774.2 634.1L1776.91 616.544L1769.25 632.573L1766.66 615Z" fill="#DBE8FD"/>
<path d="M1679.12 668.748C1677.64 669.824 1675.92 670.343 1674.21 670.343C1671.64 670.343 1669.11 669.167 1667.48 666.957C1667.47 666.952 1667.47 666.948 1667.46 666.942C1667.46 666.937 1667.45 666.932 1667.45 666.927L1667.45 666.919C1667.44 666.913 1667.44 666.908 1667.43 666.903L1661.66 658.964L1655.89 666.903C1655.88 666.911 1655.88 666.918 1655.87 666.925C1655.87 666.929 1655.87 666.932 1655.86 666.936C1653.14 670.64 1647.92 671.456 1644.2 668.752C1640.48 666.049 1639.64 660.822 1642.33 657.09L1642.34 657.08C1642.34 657.073 1642.35 657.067 1642.35 657.06L1648.11 649.118L1638.78 646.08C1634.39 644.653 1631.99 639.92 1633.41 635.534C1634.84 631.149 1639.57 628.738 1643.95 630.161L1653.29 633.187L1653.29 623.365C1653.29 618.754 1657.05 615 1661.66 615C1666.27 615 1670.02 618.754 1670.02 623.369L1670.03 633.183L1679.36 630.157C1679.37 630.157 1679.37 630.156 1679.38 630.155C1679.38 630.153 1679.39 630.151 1679.39 630.149C1683.77 628.743 1688.48 631.153 1689.91 635.53C1691.33 639.907 1688.94 644.624 1684.57 646.063C1684.57 646.064 1684.56 646.066 1684.56 646.067L1684.55 646.073L1684.54 646.076L1675.21 649.114L1680.97 657.056C1680.97 657.06 1680.98 657.065 1680.98 657.069C1680.98 657.073 1680.99 657.077 1680.99 657.081C1683.68 660.814 1682.84 666.045 1679.12 668.748Z" fill="#6CA4F9"/>
<path d="M1591.93 615H1557.29C1556.29 623.023 1565.95 624.952 1565.95 633.037C1565.95 641.123 1556.29 643.052 1557.29 651.075H1591.93C1592.93 643.052 1583.27 641.123 1583.27 633.037C1583.27 624.952 1592.93 623.023 1591.93 615Z" fill="#99C0FB"/>
<path d="M2124.57 224L2120.27 253.188L2107.55 226.565L2112.05 255.724L2092.05 234.032L2104.94 260.572L2079.43 245.737L2099.57 267.299L2070.83 260.64L2096.43 275.309L2067 277.417L2095.79 283.889L2068.29 294.578L2097.7 292.278L2074.57 310.598L2102 299.729L2085.3 324.052L2108.31 305.582L2099.52 333.746L2116.06 309.315L2115.97 338.819L2124.57 310.598L2133.17 338.819L2133.08 309.315L2149.62 333.746L2140.83 305.582L2163.84 324.052L2147.14 299.729L2174.57 310.598L2151.44 292.278L2180.85 294.578L2153.36 283.889L2182.14 277.417L2152.71 275.309L2178.31 260.64L2149.57 267.299L2169.71 245.737L2144.2 260.572L2157.09 234.032L2137.09 255.724L2141.59 226.565L2128.87 253.188L2124.57 224Z" fill="#DBE8FD"/>
<path d="M2024 332.545C2021.75 334.178 2019.14 334.965 2016.55 334.965C2012.65 334.965 2008.81 333.181 2006.33 329.826C2006.32 329.819 2006.32 329.812 2006.31 329.804C2006.3 329.796 2006.3 329.788 2006.29 329.781L2006.28 329.768C2006.28 329.76 2006.27 329.752 2006.27 329.744L1997.5 317.694L1988.74 329.744C1988.73 329.757 1988.72 329.767 1988.71 329.778C1988.71 329.783 1988.71 329.789 1988.7 329.795C1984.57 335.417 1976.64 336.655 1971 332.551C1965.35 328.448 1964.08 320.514 1968.16 314.848L1968.17 314.834C1968.18 314.822 1968.18 314.813 1968.19 314.804L1976.94 302.747L1962.77 298.136C1956.11 295.97 1952.46 288.786 1954.62 282.129C1956.79 275.472 1963.96 271.813 1970.62 273.973L1984.79 278.565L1984.8 263.657C1984.8 256.657 1990.5 250.959 1997.5 250.959C2004.49 250.959 2010.19 256.657 2010.2 263.663L2010.21 278.559L2024.38 273.966C2024.38 273.966 2024.39 273.965 2024.39 273.963C2024.4 273.961 2024.41 273.957 2024.42 273.954C2031.07 271.819 2038.22 275.478 2040.38 282.123C2042.54 288.767 2038.9 295.925 2032.28 298.111C2032.27 298.112 2032.27 298.115 2032.26 298.117L2032.24 298.126L2032.23 298.13L2018.07 302.741L2026.81 314.798C2026.82 314.804 2026.82 314.81 2026.83 314.817C2026.83 314.823 2026.84 314.829 2026.84 314.836C2030.92 320.502 2029.65 328.442 2024 332.545Z" fill="#6CA4F9"/>
<path d="M1898.65 279H1841.12C1839.46 292.326 1855.5 295.531 1855.5 308.96C1855.5 322.389 1839.46 325.594 1841.12 338.92H1898.65C1900.31 325.594 1884.27 322.389 1884.27 308.96C1884.27 295.531 1900.31 292.326 1898.65 279Z" fill="#99C0FB"/>
<g filter="url(#filter1_f_3272_82276)">
<ellipse cx="1041" cy="495" rx="426" ry="344" fill="url(#paint1_linear_3272_82276)"/>
</g>
<g filter="url(#filter2_f_3272_82276)">
<ellipse cx="1595" cy="888" rx="512" ry="335" fill="url(#paint2_linear_3272_82276)"/>
</g>
<rect width="209" height="888" fill="url(#paint3_linear_3272_82276)"/>
<rect width="209" height="888" transform="matrix(-1 0 0 1 2216 0)" fill="url(#paint4_linear_3272_82276)"/>
</g>
<defs>
<filter id="filter0_f_3272_82276" x="43.6" y="-193.4" width="2082.8" height="1474.8" filterUnits="userSpaceOnUse" color-interpolation-filters="sRGB">
<feFlood flood-opacity="0" result="BackgroundImageFix"/>
<feBlend mode="normal" in="SourceGraphic" in2="BackgroundImageFix" result="shape"/>
<feGaussianBlur stdDeviation="207.7" result="effect1_foregroundBlur_3272_82276"/>
</filter>
<filter id="filter1_f_3272_82276" x="236.2" y="-227.8" width="1609.6" height="1445.6" filterUnits="userSpaceOnUse" color-interpolation-filters="sRGB">
<feFlood flood-opacity="0" result="BackgroundImageFix"/>
<feBlend mode="normal" in="SourceGraphic" in2="BackgroundImageFix" result="shape"/>
<feGaussianBlur stdDeviation="189.4" result="effect1_foregroundBlur_3272_82276"/>
</filter>
<filter id="filter2_f_3272_82276" x="704.2" y="174.2" width="1781.6" height="1427.6" filterUnits="userSpaceOnUse" color-interpolation-filters="sRGB">
<feFlood flood-opacity="0" result="BackgroundImageFix"/>
<feBlend mode="normal" in="SourceGraphic" in2="BackgroundImageFix" result="shape"/>
<feGaussianBlur stdDeviation="189.4" result="effect1_foregroundBlur_3272_82276"/>
</filter>
<linearGradient id="paint0_linear_3272_82276" x1="-295.569" y1="-105.929" x2="434.683" y2="1457.23" gradientUnits="userSpaceOnUse">
<stop stop-color="white"/>
<stop offset="1" stop-color="white"/>
</linearGradient>
<linearGradient id="paint1_linear_3272_82276" x1="101.507" y1="-199.334" x2="922.739" y2="893.188" gradientUnits="userSpaceOnUse">
<stop stop-color="white"/>
<stop offset="1" stop-color="#B9D4FB"/>
</linearGradient>
<linearGradient id="paint2_linear_3272_82276" x1="465.844" y1="211.831" x2="1205.58" y2="1426.38" gradientUnits="userSpaceOnUse">
<stop stop-color="white"/>
<stop offset="1" stop-color="#B9D4FB"/>
</linearGradient>
<linearGradient id="paint3_linear_3272_82276" x1="3.11434e-06" y1="444" x2="209" y2="444" gradientUnits="userSpaceOnUse">
<stop stop-color="#AFCDFC"/>
<stop offset="1" stop-color="#AFCDFC" stop-opacity="0"/>
</linearGradient>
<linearGradient id="paint4_linear_3272_82276" x1="3.11434e-06" y1="444" x2="209" y2="444" gradientUnits="userSpaceOnUse">
<stop stop-color="#AFCDFC"/>
<stop offset="1" stop-color="#AFCDFC" stop-opacity="0"/>
</linearGradient>
<clipPath id="clip0_3272_82276">
<rect width="2216" height="888" fill="white"/>
</clipPath>
</defs>
</svg>
