<svg width="2650" height="1684" viewBox="0 0 2650 1684" fill="none" xmlns="http://www.w3.org/2000/svg">
<g clip-path="url(#clip0_2294_24142)">
<rect width="2650" height="1718" fill="#8B6AF9"/>
<rect width="2650" height="1718" fill="url(#paint0_linear_2294_24142)"/>
<g filter="url(#filter0_i_2294_24142)">
<path fill-rule="evenodd" clip-rule="evenodd" d="M-130.5 374L945.283 374C964.027 374 979.223 389.195 979.223 407.94V690.936H1743.01C1761.75 690.936 1776.95 706.132 1776.95 724.876V1026H2650V1074H1762.89C1744.14 1074 1728.95 1058.8 1728.95 1040.06V738.936H965.162C946.418 738.936 931.223 723.741 931.223 704.997V422H-130.5V374Z" fill="url(#paint1_linear_2294_24142)"/>
</g>
<g filter="url(#filter1_i_2294_24142)">
<path fill-rule="evenodd" clip-rule="evenodd" d="M-10 992H554.994C575.036 992 591.283 976.798 591.283 958.046V577.664H1290.62C1310.66 577.664 1326.91 562.463 1326.91 543.71L1326.91 248.021H2661V200H1311.88C1291.83 200 1275.59 215.202 1275.59 233.955L1275.59 529.644H576.249C556.207 529.644 539.96 544.845 539.96 563.598V943.979H-10V992Z" fill="url(#paint2_linear_2294_24142)"/>
</g>
<circle cx="692.5" cy="397.5" r="24.5" fill="#FF7D1F"/>
<circle cx="749.5" cy="397.5" r="24.5" fill="#FF974C"/>
<circle cx="24.5" cy="24.5" r="24.5" transform="matrix(-1 0 0 1 2022 200.001)" fill="#FF7D1F"/>
<circle cx="24.5" cy="24.5" r="24.5" transform="matrix(-1 0 0 1 1965 200.001)" fill="#FF974C"/>
<g filter="url(#filter2_i_2294_24142)">
<path fill-rule="evenodd" clip-rule="evenodd" d="M2662 459H2013.72C1994.97 459 1979.78 474.195 1979.78 492.94V775.936H1215.99C1197.25 775.936 1182.05 791.132 1182.05 809.876V1111H-2.5V1159H1196.11C1214.86 1159 1230.05 1143.8 1230.05 1125.06V823.936H1993.84C2012.58 823.936 2027.78 808.741 2027.78 789.997V507H2662V459Z" fill="url(#paint3_linear_2294_24142)"/>
</g>
<g filter="url(#filter3_i_2294_24142)">
<path fill-rule="evenodd" clip-rule="evenodd" d="M531 1822L895.283 1822C914.027 1822 929.223 1806.8 929.223 1788.06L929.223 1505.06L1693.01 1505.06C1711.75 1505.06 1726.95 1489.87 1726.95 1471.12L1726.95 1170L2651 1170L2651 1122L1712.89 1122C1694.14 1122 1678.95 1137.2 1678.95 1155.94L1678.95 1457.06L915.162 1457.06C896.418 1457.06 881.223 1472.26 881.223 1491L881.223 1774L531 1774L531 1822Z" fill="url(#paint4_linear_2294_24142)"/>
</g>
<g filter="url(#filter4_f_2294_24142)">
<rect x="-21" y="1060" width="285" height="156" fill="url(#paint5_linear_2294_24142)"/>
</g>
<g filter="url(#filter5_f_2294_24142)">
<rect x="-21" y="884" width="285" height="156" fill="url(#paint6_linear_2294_24142)"/>
</g>
<g filter="url(#filter6_f_2294_24142)">
<rect x="-21" y="304" width="285" height="128" fill="url(#paint7_linear_2294_24142)"/>
</g>
<g filter="url(#filter7_f_2294_24142)">
<rect width="285" height="100" transform="matrix(-1 0 0 1 2656 412)" fill="url(#paint8_linear_2294_24142)"/>
</g>
<g filter="url(#filter8_f_2294_24142)">
<rect width="285" height="100" transform="matrix(-1 0 0 1 2656 176)" fill="url(#paint9_linear_2294_24142)"/>
</g>
<g filter="url(#filter9_f_2294_24142)">
<rect width="285" height="100" transform="matrix(-1 0 0 1 2653 992)" fill="url(#paint10_linear_2294_24142)"/>
</g>
<g filter="url(#filter10_f_2294_24142)">
<rect width="285" height="100" transform="matrix(-1 0 0 1 2653 992)" fill="url(#paint11_linear_2294_24142)"/>
</g>
<g filter="url(#filter11_f_2294_24142)">
<rect width="285" height="100" transform="matrix(-1 0 0 1 2653 1096)" fill="url(#paint12_linear_2294_24142)"/>
</g>
</g>
<defs>
<filter id="filter0_i_2294_24142" x="-130.5" y="366" width="2783.5" height="708" filterUnits="userSpaceOnUse" color-interpolation-filters="sRGB">
<feFlood flood-opacity="0" result="BackgroundImageFix"/>
<feBlend mode="normal" in="SourceGraphic" in2="BackgroundImageFix" result="shape"/>
<feColorMatrix in="SourceAlpha" type="matrix" values="0 0 0 0 0 0 0 0 0 0 0 0 0 0 0 0 0 0 127 0" result="hardAlpha"/>
<feOffset dx="3" dy="-8"/>
<feGaussianBlur stdDeviation="20.5"/>
<feComposite in2="hardAlpha" operator="arithmetic" k2="-1" k3="1"/>
<feColorMatrix type="matrix" values="0 0 0 0 0.454902 0 0 0 0 0.337255 0 0 0 0 0.854902 0 0 0 0.4 0"/>
<feBlend mode="normal" in2="shape" result="effect1_innerShadow_2294_24142"/>
</filter>
<filter id="filter1_i_2294_24142" x="-27" y="200" width="2688" height="801" filterUnits="userSpaceOnUse" color-interpolation-filters="sRGB">
<feFlood flood-opacity="0" result="BackgroundImageFix"/>
<feBlend mode="normal" in="SourceGraphic" in2="BackgroundImageFix" result="shape"/>
<feColorMatrix in="SourceAlpha" type="matrix" values="0 0 0 0 0 0 0 0 0 0 0 0 0 0 0 0 0 0 127 0" result="hardAlpha"/>
<feOffset dx="-17" dy="9"/>
<feGaussianBlur stdDeviation="16.5"/>
<feComposite in2="hardAlpha" operator="arithmetic" k2="-1" k3="1"/>
<feColorMatrix type="matrix" values="0 0 0 0 0.454902 0 0 0 0 0.337255 0 0 0 0 0.854902 0 0 0 0.3 0"/>
<feBlend mode="normal" in2="shape" result="effect1_innerShadow_2294_24142"/>
</filter>
<filter id="filter2_i_2294_24142" x="-2.5" y="451" width="2667.5" height="708" filterUnits="userSpaceOnUse" color-interpolation-filters="sRGB">
<feFlood flood-opacity="0" result="BackgroundImageFix"/>
<feBlend mode="normal" in="SourceGraphic" in2="BackgroundImageFix" result="shape"/>
<feColorMatrix in="SourceAlpha" type="matrix" values="0 0 0 0 0 0 0 0 0 0 0 0 0 0 0 0 0 0 127 0" result="hardAlpha"/>
<feOffset dx="3" dy="-8"/>
<feGaussianBlur stdDeviation="20.5"/>
<feComposite in2="hardAlpha" operator="arithmetic" k2="-1" k3="1"/>
<feColorMatrix type="matrix" values="0 0 0 0 0.454902 0 0 0 0 0.337255 0 0 0 0 0.854902 0 0 0 0.4 0"/>
<feBlend mode="normal" in2="shape" result="effect1_innerShadow_2294_24142"/>
</filter>
<filter id="filter3_i_2294_24142" x="531" y="1114" width="2123" height="708" filterUnits="userSpaceOnUse" color-interpolation-filters="sRGB">
<feFlood flood-opacity="0" result="BackgroundImageFix"/>
<feBlend mode="normal" in="SourceGraphic" in2="BackgroundImageFix" result="shape"/>
<feColorMatrix in="SourceAlpha" type="matrix" values="0 0 0 0 0 0 0 0 0 0 0 0 0 0 0 0 0 0 127 0" result="hardAlpha"/>
<feOffset dx="3" dy="-8"/>
<feGaussianBlur stdDeviation="20.5"/>
<feComposite in2="hardAlpha" operator="arithmetic" k2="-1" k3="1"/>
<feColorMatrix type="matrix" values="0 0 0 0 0.454902 0 0 0 0 0.337255 0 0 0 0 0.854902 0 0 0 0.4 0"/>
<feBlend mode="normal" in2="shape" result="effect1_innerShadow_2294_24142"/>
</filter>
<filter id="filter4_f_2294_24142" x="-36" y="1045" width="315" height="186" filterUnits="userSpaceOnUse" color-interpolation-filters="sRGB">
<feFlood flood-opacity="0" result="BackgroundImageFix"/>
<feBlend mode="normal" in="SourceGraphic" in2="BackgroundImageFix" result="shape"/>
<feGaussianBlur stdDeviation="7.5" result="effect1_foregroundBlur_2294_24142"/>
</filter>
<filter id="filter5_f_2294_24142" x="-36" y="869" width="315" height="186" filterUnits="userSpaceOnUse" color-interpolation-filters="sRGB">
<feFlood flood-opacity="0" result="BackgroundImageFix"/>
<feBlend mode="normal" in="SourceGraphic" in2="BackgroundImageFix" result="shape"/>
<feGaussianBlur stdDeviation="7.5" result="effect1_foregroundBlur_2294_24142"/>
</filter>
<filter id="filter6_f_2294_24142" x="-36" y="289" width="315" height="158" filterUnits="userSpaceOnUse" color-interpolation-filters="sRGB">
<feFlood flood-opacity="0" result="BackgroundImageFix"/>
<feBlend mode="normal" in="SourceGraphic" in2="BackgroundImageFix" result="shape"/>
<feGaussianBlur stdDeviation="7.5" result="effect1_foregroundBlur_2294_24142"/>
</filter>
<filter id="filter7_f_2294_24142" x="2356" y="397" width="315" height="130" filterUnits="userSpaceOnUse" color-interpolation-filters="sRGB">
<feFlood flood-opacity="0" result="BackgroundImageFix"/>
<feBlend mode="normal" in="SourceGraphic" in2="BackgroundImageFix" result="shape"/>
<feGaussianBlur stdDeviation="7.5" result="effect1_foregroundBlur_2294_24142"/>
</filter>
<filter id="filter8_f_2294_24142" x="2356" y="161" width="315" height="130" filterUnits="userSpaceOnUse" color-interpolation-filters="sRGB">
<feFlood flood-opacity="0" result="BackgroundImageFix"/>
<feBlend mode="normal" in="SourceGraphic" in2="BackgroundImageFix" result="shape"/>
<feGaussianBlur stdDeviation="7.5" result="effect1_foregroundBlur_2294_24142"/>
</filter>
<filter id="filter9_f_2294_24142" x="2353" y="977" width="315" height="130" filterUnits="userSpaceOnUse" color-interpolation-filters="sRGB">
<feFlood flood-opacity="0" result="BackgroundImageFix"/>
<feBlend mode="normal" in="SourceGraphic" in2="BackgroundImageFix" result="shape"/>
<feGaussianBlur stdDeviation="7.5" result="effect1_foregroundBlur_2294_24142"/>
</filter>
<filter id="filter10_f_2294_24142" x="2353" y="977" width="315" height="130" filterUnits="userSpaceOnUse" color-interpolation-filters="sRGB">
<feFlood flood-opacity="0" result="BackgroundImageFix"/>
<feBlend mode="normal" in="SourceGraphic" in2="BackgroundImageFix" result="shape"/>
<feGaussianBlur stdDeviation="7.5" result="effect1_foregroundBlur_2294_24142"/>
</filter>
<filter id="filter11_f_2294_24142" x="2353" y="1081" width="315" height="130" filterUnits="userSpaceOnUse" color-interpolation-filters="sRGB">
<feFlood flood-opacity="0" result="BackgroundImageFix"/>
<feBlend mode="normal" in="SourceGraphic" in2="BackgroundImageFix" result="shape"/>
<feGaussianBlur stdDeviation="7.5" result="effect1_foregroundBlur_2294_24142"/>
</filter>
<linearGradient id="paint0_linear_2294_24142" x1="1325" y1="0" x2="1325" y2="1718" gradientUnits="userSpaceOnUse">
<stop stop-color="#B9A6FB"/>
<stop offset="1" stop-color="#8B6AF9" stop-opacity="0"/>
</linearGradient>
<linearGradient id="paint1_linear_2294_24142" x1="531.973" y1="285.376" x2="2201.13" y2="1505.62" gradientUnits="userSpaceOnUse">
<stop stop-color="#B9A6FB"/>
<stop offset="0.479167" stop-color="#B9A6FB" stop-opacity="0"/>
<stop offset="1" stop-color="#B9A6FB"/>
</linearGradient>
<linearGradient id="paint2_linear_2294_24142" x1="175.32" y1="1223.62" x2="2041.03" y2="261.521" gradientUnits="userSpaceOnUse">
<stop stop-color="#B9A6FB"/>
<stop offset="0.479167" stop-color="#B9A6FB" stop-opacity="0"/>
<stop offset="1" stop-color="#B9A6FB"/>
</linearGradient>
<linearGradient id="paint3_linear_2294_24142" x1="2427.03" y1="370.375" x2="757.873" y2="1590.62" gradientUnits="userSpaceOnUse">
<stop stop-color="#B9A6FB"/>
<stop offset="0.479167" stop-color="#B9A6FB" stop-opacity="0"/>
<stop offset="1" stop-color="#B9A6FB"/>
</linearGradient>
<linearGradient id="paint4_linear_2294_24142" x1="481.973" y1="1910.62" x2="2151.13" y2="690.384" gradientUnits="userSpaceOnUse">
<stop stop-color="#B9A6FB"/>
<stop offset="0.479167" stop-color="#B9A6FB" stop-opacity="0"/>
<stop offset="1" stop-color="#B9A6FB"/>
</linearGradient>
<linearGradient id="paint5_linear_2294_24142" x1="34.3662" y1="1138" x2="264" y2="1138" gradientUnits="userSpaceOnUse">
<stop stop-color="#9172F9"/>
<stop offset="1" stop-color="#9172F9" stop-opacity="0"/>
</linearGradient>
<linearGradient id="paint6_linear_2294_24142" x1="34.3662" y1="962" x2="264" y2="962" gradientUnits="userSpaceOnUse">
<stop stop-color="#9476F9"/>
<stop offset="1" stop-color="#9678FB" stop-opacity="0"/>
</linearGradient>
<linearGradient id="paint7_linear_2294_24142" x1="34.3662" y1="368" x2="264" y2="368" gradientUnits="userSpaceOnUse">
<stop stop-color="#AB94FA"/>
<stop offset="1" stop-color="#AB94FA" stop-opacity="0"/>
</linearGradient>
<linearGradient id="paint8_linear_2294_24142" x1="55.3662" y1="50" x2="285" y2="50" gradientUnits="userSpaceOnUse">
<stop stop-color="#A78EFA"/>
<stop offset="1" stop-color="#A187F9" stop-opacity="0"/>
</linearGradient>
<linearGradient id="paint9_linear_2294_24142" x1="55.3662" y1="50" x2="285" y2="50" gradientUnits="userSpaceOnUse">
<stop stop-color="#B09AFB"/>
<stop offset="1" stop-color="#B09AFB" stop-opacity="0"/>
</linearGradient>
<linearGradient id="paint10_linear_2294_24142" x1="55.3662" y1="50" x2="285" y2="50" gradientUnits="userSpaceOnUse">
<stop stop-color="#9375F9"/>
<stop offset="1" stop-color="#9375F9" stop-opacity="0"/>
</linearGradient>
<linearGradient id="paint11_linear_2294_24142" x1="55.3662" y1="50" x2="285" y2="50" gradientUnits="userSpaceOnUse">
<stop stop-color="#9375F9"/>
<stop offset="1" stop-color="#9375F9" stop-opacity="0"/>
</linearGradient>
<linearGradient id="paint12_linear_2294_24142" x1="55.3662" y1="50" x2="285" y2="50" gradientUnits="userSpaceOnUse">
<stop stop-color="#9070F9"/>
<stop offset="1" stop-color="#9070F9" stop-opacity="0"/>
</linearGradient>
<clipPath id="clip0_2294_24142">
<rect width="2650" height="1684" fill="white"/>
</clipPath>
</defs>
</svg>
