<svg width="1440" height="1440" viewBox="0 0 1440 1440" fill="none" xmlns="http://www.w3.org/2000/svg">
    <mask id="mask0_280_36875" style="mask-type:alpha" maskUnits="userSpaceOnUse" x="0" y="0" width="1440" height="1000">
        <rect width="1440" height="1000" fill="url(#paint0_linear_280_36875)"/>
    </mask>
    <g mask="url(#mask0_280_36875)">
        <g filter="url(#filter0_i_280_36875)">
            <path d="M1171.9 729.371C1181.27 738.744 1181.27 753.94 1171.9 763.312L357.312 1577.9C347.939 1587.27 332.743 1587.27 323.371 1577.9L-208.373 1046.15C-217.746 1036.78 -217.746 1021.59 -208.373 1012.21L606.214 197.627C615.586 188.254 630.782 188.254 640.155 197.627L1171.9 729.371Z" fill="white" fill-opacity="0.01"/>
        </g>
        <g filter="url(#filter1_i_280_36875)">
            <path d="M589.243 146.715C598.615 156.088 598.615 171.284 589.243 180.656L-225.344 995.243C-234.717 1004.62 -249.913 1004.62 -259.285 995.243L-791.029 463.498C-800.402 454.126 -800.402 438.93 -791.029 429.557L23.5576 -385.029C32.9302 -394.402 48.1261 -394.402 57.4987 -385.029L589.243 146.715Z" fill="white" fill-opacity="0.01"/>
        </g>
        <g filter="url(#filter2_f_280_36875)">
            <path d="M137.029 141.029C146.402 150.402 146.402 165.598 137.029 174.971L-267.029 579.029C-276.402 588.402 -291.598 588.402 -300.971 579.029L-559.029 320.971C-568.402 311.598 -568.402 296.402 -559.029 287.029L-154.971 -117.029C-145.598 -126.402 -130.402 -126.402 -121.029 -117.029L137.029 141.029Z" fill="#F8FF2C"/>
        </g>
    </g>
    <defs>
        <filter id="filter0_i_280_36875" x="-215.403" y="190.597" width="1394.33" height="1434.33" filterUnits="userSpaceOnUse" color-interpolation-filters="sRGB">
            <feFlood flood-opacity="0" result="BackgroundImageFix"/>
            <feBlend mode="normal" in="SourceGraphic" in2="BackgroundImageFix" result="shape"/>
            <feColorMatrix in="SourceAlpha" type="matrix" values="0 0 0 0 0 0 0 0 0 0 0 0 0 0 0 0 0 0 127 0" result="hardAlpha"/>
            <feOffset dy="40"/>
            <feGaussianBlur stdDeviation="60"/>
            <feComposite in2="hardAlpha" operator="arithmetic" k2="-1" k3="1"/>
            <feColorMatrix type="matrix" values="0 0 0 0 1 0 0 0 0 0.741176 0 0 0 0 0.960784 0 0 0 1 0"/>
            <feBlend mode="normal" in2="shape" result="effect1_innerShadow_280_36875"/>
        </filter>
        <filter id="filter1_i_280_36875" x="-798.059" y="-392.059" width="1394.33" height="1474.33" filterUnits="userSpaceOnUse" color-interpolation-filters="sRGB">
            <feFlood flood-opacity="0" result="BackgroundImageFix"/>
            <feBlend mode="normal" in="SourceGraphic" in2="BackgroundImageFix" result="shape"/>
            <feColorMatrix in="SourceAlpha" type="matrix" values="0 0 0 0 0 0 0 0 0 0 0 0 0 0 0 0 0 0 127 0" result="hardAlpha"/>
            <feOffset dy="80"/>
            <feGaussianBlur stdDeviation="60"/>
            <feComposite in2="hardAlpha" operator="arithmetic" k2="-1" k3="1"/>
            <feColorMatrix type="matrix" values="0 0 0 0 0.929412 0 0 0 0 0.921569 0 0 0 0 0.909804 0 0 0 1 0"/>
            <feBlend mode="normal" in2="shape" result="effect1_innerShadow_280_36875"/>
        </filter>
        <filter id="filter2_f_280_36875" x="-766.059" y="-324.059" width="1110.12" height="1110.12" filterUnits="userSpaceOnUse" color-interpolation-filters="sRGB">
            <feFlood flood-opacity="0" result="BackgroundImageFix"/>
            <feBlend mode="normal" in="SourceGraphic" in2="BackgroundImageFix" result="shape"/>
            <feGaussianBlur stdDeviation="100" result="effect1_foregroundBlur_280_36875"/>
        </filter>
        <linearGradient id="paint0_linear_280_36875" x1="720" y1="499.592" x2="720" y2="897.31" gradientUnits="userSpaceOnUse">
            <stop/>
            <stop offset="1" stop-opacity="0"/>
        </linearGradient>
    </defs>
</svg>
