<svg width="3044" height="888" viewBox="0 0 3044 888" fill="none" xmlns="http://www.w3.org/2000/svg">
<g clip-path="url(#clip0_3265_57813)">
<rect width="3044" height="888" fill="#031938"/>
<g filter="url(#filter0_f_3265_57813)">
<ellipse cx="1522" cy="762.5" rx="753" ry="127.5" fill="url(#paint0_linear_3265_57813)"/>
</g>
<ellipse cx="1522" cy="835.5" rx="943" ry="137.5" fill="#6CA4F9"/>
<ellipse cx="1522" cy="818.5" rx="668" ry="109.5" fill="#99C0FB"/>
<ellipse cx="1522" cy="804" rx="446" ry="83" fill="#AFCDFC"/>
<ellipse cx="1522" cy="797.5" rx="286" ry="57.5" fill="#C5DBFC"/>
<ellipse cx="1522" cy="778" rx="111" ry="25" fill="#DBE8FD"/>
<rect y="-57" width="645" height="947" fill="url(#paint1_linear_3265_57813)"/>
<rect width="517" height="947" transform="matrix(-1 0 0 1 3044 -57)" fill="url(#paint2_linear_3265_57813)"/>
<path d="M1522 778L-650 -15H3694L1522 778Z" fill="#D1C3FD"/>
<path d="M1522 778L201 -15H2843L1522 778Z" fill="#DCD2FD"/>
<path d="M1522 778L719 -15H2325L1522 778Z" fill="#E8E1FE"/>
<path d="M1522 778L955.5 117H1005.5L1522 778Z" fill="#F3F0FE"/>
<path d="M1522 778L1924.5 297H1874.5L1522 778Z" fill="#F3F0FE"/>
<path d="M952.799 597.067C952.968 595.644 955.032 595.644 955.201 597.067L956.617 608.999C958.445 624.407 970.593 636.555 986.001 638.383L997.933 639.799C999.356 639.968 999.356 642.032 997.933 642.201L986.001 643.617C970.593 645.445 958.445 657.593 956.617 673.001L955.201 684.933C955.032 686.356 952.968 686.356 952.799 684.933L951.383 673.001C949.555 657.593 937.407 645.445 921.999 643.617L910.067 642.201C908.644 642.032 908.644 639.968 910.067 639.799L921.999 638.383C937.407 636.555 949.555 624.407 951.383 608.999L952.799 597.067Z" fill="#DBE8FD"/>
<path d="M2096.66 468.747C2096.78 467.751 2098.22 467.751 2098.34 468.747L2099.33 477.099C2100.61 487.885 2109.12 496.389 2119.9 497.668L2128.25 498.659C2129.25 498.778 2129.25 500.222 2128.25 500.341L2119.9 501.332C2109.12 502.611 2100.61 511.115 2099.33 521.9L2098.34 530.253C2098.22 531.249 2096.78 531.249 2096.66 530.253L2095.67 521.9C2094.39 511.115 2085.88 502.611 2075.1 501.332L2066.75 500.341C2065.75 500.222 2065.75 498.778 2066.75 498.659L2075.1 497.668C2085.88 496.389 2094.39 487.885 2095.67 477.099L2096.66 468.747Z" fill="#F3F0FE"/>
<rect width="612" height="947" fill="url(#paint3_linear_3265_57813)"/>
<rect width="484" height="947" transform="matrix(-1 0 0 1 3044 -57)" fill="url(#paint4_linear_3265_57813)"/>
</g>
<defs>
<filter id="filter0_f_3265_57813" x="547.2" y="413.2" width="1949.6" height="698.6" filterUnits="userSpaceOnUse" color-interpolation-filters="sRGB">
<feFlood flood-opacity="0" result="BackgroundImageFix"/>
<feBlend mode="normal" in="SourceGraphic" in2="BackgroundImageFix" result="shape"/>
<feGaussianBlur stdDeviation="110.9" result="effect1_foregroundBlur_3265_57813"/>
</filter>
<linearGradient id="paint0_linear_3265_57813" x1="931.178" y1="730.471" x2="2216.24" y2="718.977" gradientUnits="userSpaceOnUse">
<stop stop-color="#4089F8"/>
<stop offset="1" stop-color="#A288FA"/>
</linearGradient>
<linearGradient id="paint1_linear_3265_57813" x1="-5.75773e-06" y1="436.5" x2="645" y2="436.5" gradientUnits="userSpaceOnUse">
<stop stop-color="#031938"/>
<stop offset="1" stop-color="#031938" stop-opacity="0"/>
</linearGradient>
<linearGradient id="paint2_linear_3265_57813" x1="-4.61511e-06" y1="493.5" x2="517" y2="493.5" gradientUnits="userSpaceOnUse">
<stop stop-color="#031938"/>
<stop offset="1" stop-color="#031938" stop-opacity="0"/>
</linearGradient>
<linearGradient id="paint3_linear_3265_57813" x1="-5.46315e-06" y1="493.5" x2="612" y2="493.5" gradientUnits="userSpaceOnUse">
<stop stop-color="#031938"/>
<stop offset="1" stop-color="#031938" stop-opacity="0"/>
</linearGradient>
<linearGradient id="paint4_linear_3265_57813" x1="-4.32053e-06" y1="493.5" x2="484" y2="493.5" gradientUnits="userSpaceOnUse">
<stop stop-color="#031938"/>
<stop offset="1" stop-color="#031938" stop-opacity="0"/>
</linearGradient>
<clipPath id="clip0_3265_57813">
<rect width="3044" height="888" fill="white"/>
</clipPath>
</defs>
</svg>
