<svg xmlns="http://www.w3.org/2000/svg" width="412" height="221" viewBox="0 0 412 221" fill="none">
<g clip-path="url(#clip0_3216_93701)">
<g opacity="1">
<path d="M0.320468 117.062C0.170468 118.572 1.24047 120.112 3.55047 121.272L198.19 218.592C202.53 220.762 209.56 220.762 213.9 218.592L408.59 121.252C411.09 120.002 411.76 118.382 411.76 116.682V103.292H376.12L213.95 22.1924C209.61 20.0224 202.58 20.0224 198.24 22.1924L36.0605 103.282H0.320468" fill="#2C66FF"/>
<path d="M406.4 108.333L399.17 111.953C399.17 111.953 399.15 111.953 399.14 111.963L210.15 206.453L208.91 207.073C206.93 208.063 205.54 210.013 205.43 212.223C205.43 212.353 205.43 212.493 205.43 212.623C205.46 215.243 207.2 217.553 209.66 218.463C210.97 218.953 212.21 218.923 213.33 218.623L215.63 217.473L220.59 214.993C220.59 214.993 220.59 214.993 220.6 214.993L222.9 213.843L408.5 121.043C411.23 119.673 411.55 117.893 411.55 116.673V111.603C411.55 108.953 408.8 107.223 406.41 108.333H406.4Z" fill="#1E4AB3"/>
<path d="M198.12 204.363L3.47961 107.043C-0.860391 104.873 -0.860391 101.353 3.47961 99.1826L198.17 1.84259C202.51 -0.327412 209.54 -0.327412 213.88 1.84259L408.52 99.1626C412.86 101.333 412.86 104.853 408.52 107.023L213.83 204.363C209.49 206.533 202.46 206.533 198.12 204.363Z" fill="#D9E6FF"/>
<path d="M408.62 98.9625L213.98 1.6425C209.59 -0.5475 202.45 -0.5475 198.07 1.6425L3.38 98.9825C1.2 100.072 0 101.543 0 103.113C0 103.373 0.1 117.043 0.1 117.043C0.1 118.893 1.15 120.323 3.45 121.473L198.09 218.792C200.28 219.893 203.17 220.442 206.05 220.442C208.93 220.442 211.81 219.893 214.01 218.792L408.7 121.452C410.95 120.332 412 118.812 412 116.673V103.342C412 103.262 412.01 103.173 412.01 103.092C412.01 101.522 410.81 100.052 408.63 98.9625H408.62ZM411.51 103.512C411.31 104.752 410.23 105.912 408.42 106.823L212.87 204.592C209.54 206.232 202.46 206.232 199.08 204.592L3.58 106.832C1.91 105.993 0.86 104.942 0.55 103.812C0.49 103.582 0.45 103.342 0.45 103.103C0.45 103.083 0.45 103.062 0.45 103.052C0.48 101.682 1.59 100.372 3.58 99.3825L198.27 2.0425C202.55 -0.0975001 209.5 -0.0975001 213.78 2.0425L408.42 99.3625C410.42 100.363 411.53 101.673 411.55 103.052C411.55 103.062 411.55 103.072 411.55 103.082C411.55 103.222 411.54 103.363 411.51 103.503V103.512ZM411.54 116.673C411.54 117.893 411.22 119.683 408.49 121.043L213.8 218.382C209.52 220.522 202.57 220.522 198.29 218.382L3.65 121.062C1.53 120.003 0.4 118.552 0.55 117.052V111.653C0.55 108.963 3.38 107.223 5.78 108.423L198.02 204.552C200.21 205.652 203.1 206.202 205.98 206.202C208.86 206.202 211.74 205.652 213.94 204.552L406.31 108.363C408.71 107.163 411.54 108.912 411.54 111.592V116.662V116.673Z" fill="black"/>
</g>
</g>
<defs>
<clipPath id="clip0_3216_93701">
<rect width="412" height="220.44" fill="white" transform="translate(0 0.25)"/>
</clipPath>
</defs>
</svg>