<svg xmlns="http://www.w3.org/2000/svg" width="109" height="155" fill="none"><ellipse cx="75.815" cy="44.8" fill="#FAFF5C" rx="75.815" ry="44.8" transform="matrix(0 1 1 0 .94 2.036)"/><path fill="#D8E003" d="m65.039 1.348-13.785.689C64.35 5.943 89.162 26.16 90.54 74.406c1.386 48.502-18.609 75.126-39.286 79.261h11.028c12.406.69 39.975-8.27 44.8-66.855 4.913-59.655-24.813-81.329-42.043-85.464Z"/><path fill="#000" fill-rule="evenodd" d="M45.178 54.077H43.8c0 12.569-10.178 22.745-22.74 22.745V78.2c12.558 0 22.74 10.185 22.74 22.745h1.378c0-12.557 10.187-22.745 22.749-22.745v-1.378c-12.56 0-22.75-10.177-22.75-22.745Zm11.729 21.466c1.283.66 1.283 3.277 0 3.937a24.24 24.24 0 0 0-10.449 10.448c-.66 1.283-3.277 1.283-3.937 0A24.229 24.229 0 0 0 32.078 79.48c-1.283-.66-1.283-3.278 0-3.938A24.212 24.212 0 0 0 42.521 65.1c.66-1.283 3.278-1.284 3.938 0a24.227 24.227 0 0 0 10.448 10.443Z" clip-rule="evenodd"/><path fill="#000" fill-rule="evenodd" d="M44.452.975a27.38 27.38 0 0 1 .34-.006L62.1.662C74.69.44 86.114 8.986 94.444 22.702c8.339 13.734 13.662 32.77 14.035 53.847.373 21.078-4.271 40.289-12.12 54.31-7.837 14.003-18.952 22.949-31.541 23.172l-17.732.314h-.029l-.028-.001c-12.466.079-23.77-8.436-32.032-22.038C6.657 118.574 1.334 99.539.96 78.454.587 57.368 5.232 38.157 13.08 24.138 20.857 10.244 31.86 1.333 44.33.978a.694.694 0 0 1 .037-.001l.084-.002ZM2.34 78.43c-.37-20.885 4.235-39.847 11.944-53.618C21.966 11.087 32.653 2.64 44.481 2.353l.33-.006c7.53-.085 14.715 3.151 21.048 8.98v.018h.019c3.61 3.327 6.944 7.498 9.907 12.377 8.193 13.488 13.467 32.275 13.837 53.16.37 20.886-4.236 39.848-11.945 53.619-7.718 13.787-18.468 22.25-30.362 22.461-11.895.211-22.938-7.866-31.14-21.372C7.983 118.102 2.71 99.314 2.34 78.43Zm64.6-68.463c-.341 0-.67-.126-.925-.351a40.388 40.388 0 0 0-4.984-3.76c-1.324-.841-.73-3.782.837-3.81l.258-.004C68.12 1.934 73.9 3.934 79.207 7.674c1.047.737.492 2.292-.789 2.292h-11.48Zm17.534 2.136a2.67 2.67 0 0 0-1.88-.757h-7.97c-2.469 0-3.782 3.088-2.251 5.025a64.426 64.426 0 0 1 3.805 5.37c.784 1.233 2.13 2.01 3.592 2.01h6.394c3.215 0 5.166-3.492 3.217-6.047a52.989 52.989 0 0 0-4.907-5.6Zm10.956 15.131c-.695-1.312-2.073-2.104-3.558-2.104H85.28c-3.164 0-5.189 3.43-3.879 6.31 1.708 3.752 3.22 7.774 4.511 12.02.542 1.785 2.169 3.036 4.034 3.036h7.558c2.727 0 4.709-2.595 3.857-5.186-1.67-5.076-3.665-9.796-5.932-14.075Zm4.657 20.64c1.884 0 3.538 1.273 3.959 3.11 1.409 6.157 2.37 12.699 2.807 19.508.15 2.33-1.729 4.263-4.064 4.263h-7.843c-2.23 0-4.051-1.77-4.193-3.995a125.178 125.178 0 0 0-2.384-17.685c-.554-2.647 1.421-5.2 4.126-5.2h7.592Zm7.03 32.308c.021-2.25-1.823-4.049-4.073-4.049h-7.826c-2.321 0-4.181 1.911-4.2 4.232-.056 6.596-.602 13.193-1.691 19.698-.435 2.594 1.525 5.018 4.155 5.018h7.564c1.943 0 3.632-1.352 3.992-3.262 1.342-7.129 2.01-14.383 2.079-21.637Zm-8.258 26.277c2.661 0 4.634 2.481 3.905 5.041-1.596 5.613-3.594 10.821-5.93 15.514-.678 1.36-2.084 2.19-3.604 2.19h-6.467c-3.104 0-5.13-3.31-3.929-6.173 1.742-4.155 3.24-8.629 4.46-13.359.483-1.871 2.15-3.213 4.082-3.213h7.483Zm-14.374 36.53c.724 0 1.421-.282 1.924-.803 2.142-2.216 4.164-4.75 6.043-7.57 1.173-1.758-.14-4.034-2.254-4.034h-9.355c-1.008 0-1.93.552-2.434 1.424a64.777 64.777 0 0 1-3.967 6.08c-1.435 1.943-.113 4.903 2.303 4.903h7.74Zm-3.94 1.378c1.265 0 1.831 1.527.816 2.281-5.09 3.782-10.689 5.902-16.566 6.006l-8.92.158c4.083-1.414 7.938-3.768 11.493-6.911 1.08-.956 2.454-1.534 3.897-1.534h9.28Z" clip-rule="evenodd"/><path fill="#000" d="M104.325 106.11H87.094c-3.86 30.326-24.123 44.341-33.772 47.557h13.095c22.055-2.205 35.84-33.083 37.908-47.557Z"/></svg>