<svg xmlns="http://www.w3.org/2000/svg" width="67" height="235" fill="none"><path fill="#77736E" d="M61.333 3.502a2.667 2.667 0 1 0 5.334 0 2.667 2.667 0 0 0-5.334 0Zm-28.833 8h.5v-1h-1v1h.5Zm0-3h.5v-1h-1v1h.5Zm0-1h.5c0-.234.023-.463.067-.684l-.49-.097-.491-.097a4.522 4.522 0 0 0-.086.878h.5Zm.674-2.223.415.279c.256-.382.585-.711.967-.967l-.278-.415-.279-.416a4.52 4.52 0 0 0-1.24 1.241l.415.278Zm2.545-1.7.097.49c.221-.044.45-.067.684-.067v-1c-.3 0-.593.03-.878.086l.097.49Zm.781-.077v.5h.982v-1H36.5v.5Zm2.946 0v.5h1.965v-1h-1.965v.5Zm3.929 0v.5h1.964v-1h-1.964v.5Zm3.929 0v.5h1.964v-1h-1.964v.5Zm3.928 0v.5h1.964v-1h-1.964v.5Zm3.929 0v.5h1.964v-1h-1.964v.5Zm3.928 0v.5h1.965v-1h-1.965v.5Zm3.929 0v.5H64v-1h-.982v.5ZM61.333 79.502a2.667 2.667 0 1 0 5.334 0 2.667 2.667 0 0 0-5.334 0Zm-28.833 0v.5h.984v-1H32.5v.5Zm2.953 0v.5h1.969v-1h-1.969v.5Zm3.938 0v.5h1.968v-1h-1.968v.5Zm3.937 0v.5h1.969v-1h-1.969v.5Zm3.938 0v.5h1.968v-1h-1.968v.5Zm3.937 0v.5h1.969v-1h-1.969v.5Zm3.938 0v.5h1.968v-1h-1.968v.5Zm3.937 0v.5h1.969v-1h-1.969v.5Zm3.938 0v.5H64v-1h-.984v.5ZM5.5 117.002l-5-2.387v5.774l5-2.387v-1Zm26.5.5v-.5h-.984v1H32v-.5Zm-2.953 0v-.5h-1.969v1h1.969v-.5Zm-3.938 0v-.5h-1.968v1h1.968v-.5Zm-3.937 0v-.5h-1.969v1h1.969v-.5Zm-3.938 0v-.5h-1.968v1h1.968v-.5Zm-3.937 0v-.5h-1.969v1h1.969v-.5Zm-3.938 0v-.5H7.391v1h1.968v-.5Zm-3.937 0v-.5H3.453v1h1.969v-.5ZM61.333 157.502a2.667 2.667 0 1 0 5.334 0 2.667 2.667 0 0 0-5.334 0Zm-28.833 0v.5h.984v-1H32.5v.5Zm2.953 0v.5h1.969v-1h-1.969v.5Zm3.938 0v.5h1.968v-1h-1.968v.5Zm3.937 0v.5h1.969v-1h-1.969v.5Zm3.938 0v.5h1.968v-1h-1.968v.5Zm3.937 0v.5h1.969v-1h-1.969v.5Zm3.938 0v.5h1.968v-1h-1.968v.5Zm3.937 0v.5h1.969v-1h-1.969v.5Zm3.938 0v.5H64v-1h-.984v.5Z"/><path fill="#77736E" d="M60.833 231.502a2.667 2.667 0 1 0 5.334 0 2.667 2.667 0 0 0-5.334 0Zm-28.333-218H32v1.005h1v-1.005h-.5Zm0 3.014H32v2.01h1v-2.01h-.5Zm0 4.019H32v2.01h1v-2.01h-.5Zm0 4.019H32v2.01h1v-2.01h-.5Zm0 4.019H32v2.01h1v-2.01h-.5Zm0 4.019H32V34.6h1v-2.01h-.5Zm0 4.018H32v2.01h1v-2.01h-.5Zm0 4.02H32v2.009h1v-2.01h-.5Zm0 4.018H32v2.01h1v-2.01h-.5Zm0 4.019H32v2.01h1v-2.01h-.5Zm0 4.019H32v2.01h1v-2.01h-.5Zm0 4.019H32v2.01h1v-2.01h-.5Zm0 4.019H32v2.01h1v-2.01h-.5Zm0 4.019H32v2.009h1v-2.01h-.5Zm0 4.018H32v2.01h1v-2.01h-.5Zm0 4.02H32v2.009h1v-2.01h-.5Zm0 4.018H32v2.01h1v-2.01h-.5Zm0 4.019H32v2.01h1v-2.01h-.5Zm0 4.019H32v2.01h1v-2.01h-.5Zm0 4.019H32v2.01h1v-2.01h-.5Zm0 4.019H32v2.01h1v-2.01h-.5Zm0 4.019H32v2.009h1v-2.01h-.5Zm0 4.018H32v2.01h1v-2.01h-.5Zm0 4.019H32v2.01h1v-2.01h-.5Zm0 4.019H32v2.01h1v-2.01h-.5Zm0 4.019H32v2.009h1v-2.009h-.5Zm0 4.019H32v2.009h1v-2.009h-.5Zm0 4.019H32v2.009h1v-2.009h-.5Zm0 4.019H32v2.009h1v-2.009h-.5Zm0 4.018H32v2.01h1v-2.01h-.5Zm0 4.019H32v2.01h1v-2.01h-.5Zm0 4.019H32v2.01h1v-2.01h-.5Zm0 4.019H32v2.01h1v-2.01h-.5Zm0 4.019H32v2.009h1v-2.009h-.5Zm0 4.019H32v2.009h1v-2.009h-.5Zm0 4.019H32v2.009h1v-2.009h-.5Zm0 4.019H32v2.009h1v-2.009h-.5Zm0 4.018H32v2.01h1v-2.01h-.5Zm0 4.019H32v2.01h1v-2.01h-.5Zm0 4.019H32v2.01h1v-2.01h-.5Zm0 4.019H32v2.009h1v-2.009h-.5Zm0 4.019H32v2.009h1v-2.009h-.5Zm0 4.019H32v2.009h1v-2.009h-.5Zm0 4.019H32v2.009h1v-2.009h-.5Zm0 4.018H32v2.01h1v-2.01h-.5Zm0 4.019H32v2.01h1v-2.01h-.5Zm0 4.019H32v2.01h1v-2.01h-.5Zm0 4.019H32v2.009h1v-2.009h-.5Zm0 4.019H32v2.009h1v-2.009h-.5Zm0 4.019H32v2.009h1v-2.009h-.5Zm0 4.019H32v2.009h1v-2.009h-.5Zm0 4.018H32v2.01h1v-2.01h-.5Zm0 4.019H32v2.01h1v-2.01h-.5Zm0 4.019H32v1.005h1v-1.005h-.5Zm0 1.005H32c0 .367.036.725.105 1.073l.49-.097.49-.097a4.525 4.525 0 0 1-.085-.879h-.5Zm.842 2.778-.415.278c.401.6.917 1.116 1.517 1.517l.278-.415.278-.416a4.514 4.514 0 0 1-1.242-1.242l-.416.278Zm3.182 2.127-.097.49c.348.069.706.105 1.073.105v-1c-.301 0-.595-.03-.879-.086l-.097.491Zm.976.095v.5h.929v-1H37.5v.5Zm2.786 0v.5h1.857v-1h-1.857v.5Zm3.714 0v.5h1.857v-1H44v.5Zm3.714 0v.5h1.857v-1h-1.857v.5Zm3.715 0v.5h1.857v-1h-1.857v.5Zm3.714 0v.5H57v-1h-1.857v.5Zm3.714 0v.5h1.857v-1h-1.857v.5Zm3.714 0v.5h.929v-1h-.929v.5Z"/></svg>