<?xml version="1.0" encoding="UTF-8"?> <svg xmlns="http://www.w3.org/2000/svg" width="142" height="24" viewBox="0 0 142 24" fill="none"><g clip-path="url(#clip0_3771_8677)"><path d="M20.4503 0H3.49152C1.5637 0 0 1.5675 0 3.5V20.5C0 22.4325 1.5637 24 3.49152 24H20.4503C22.3781 24 23.9418 22.4325 23.9418 20.5V3.5C23.9418 1.5675 22.3781 0 20.4503 0ZM16.3428 17H7.59904C6.63388 17 6.03534 15.95 6.52415 15.1175L10.916 7.62C11.3998 6.795 12.5894 6.7975 13.0682 7.625L17.4202 15.1225C17.904 15.955 17.303 17 16.3428 17Z" fill="#212647"></path><path d="M64.2471 7.53C60.3591 7.53 58.1719 9.92 58.1719 14.16C58.1719 18.4 60.3591 20.785 64.2471 20.785C67.1351 20.785 69.2998 19.5525 69.9832 16.8325C70.038 16.6125 69.8685 16.3975 69.6465 16.3975H67.9207C67.7586 16.3975 67.6189 16.5075 67.584 16.665C67.4369 17.295 66.8159 18.835 64.2471 18.835C62.3692 18.835 61.0274 17.6025 60.6583 15.415C60.6234 15.2025 60.788 15.0075 61.0025 15.0075H69.9757C70.1677 15.0075 70.3224 14.8525 70.3224 14.66V14.28C70.3224 9.945 68.1352 7.53 64.2471 7.53ZM67.5217 13.2075H61C60.7855 13.2075 60.6209 13.015 60.6558 12.805C61.0025 10.695 62.2819 9.5075 64.2745 9.5075C66.2672 9.5075 67.5217 10.695 67.8658 12.805C67.9007 13.0175 67.7361 13.2075 67.5217 13.2075Z" fill="#212647"></path><path d="M57.409 7.8425H56.0971C54.905 7.8425 53.8052 8.48 53.2092 9.515C53.0446 9.805 52.6031 9.685 52.6031 9.3525V8.175C52.6031 7.9825 52.4485 7.8275 52.2565 7.8275H50.3486C50.1566 7.8275 50.002 7.9825 50.002 8.175V20.145C50.002 20.3375 50.1566 20.4925 50.3486 20.4925H52.2565C52.4485 20.4925 52.6031 20.3375 52.6031 20.145V12.69C52.6031 11.2525 53.7653 10.0875 55.1968 10.0875H56.4887C56.6059 10.0875 56.7131 10.0225 56.7705 9.9225L57.6933 8.3325C57.8205 8.115 57.6633 7.845 57.4114 7.845L57.409 7.8425Z" fill="#212647"></path><path d="M46.858 7.82249H45.0224C44.831 7.82249 44.6758 7.97808 44.6758 8.16999V20.145C44.6758 20.3369 44.831 20.4925 45.0224 20.4925H46.858C47.0494 20.4925 47.2046 20.3369 47.2046 20.145V8.16999C47.2046 7.97808 47.0494 7.82249 46.858 7.82249Z" fill="#212647"></path><path d="M46.9401 3.49249H44.935C44.7325 3.49249 44.5684 3.65703 44.5684 3.85999V5.99749C44.5684 6.20046 44.7325 6.36499 44.935 6.36499H46.9401C47.1426 6.36499 47.3067 6.20046 47.3067 5.99749V3.85999C47.3067 3.65703 47.1426 3.49249 46.9401 3.49249Z" fill="#212647"></path><path d="M42.2607 3.49251H31.2724C31.0804 3.49251 30.9258 3.64751 30.9258 3.84001V20.14C30.9258 20.3325 31.0804 20.4875 31.2724 20.4875H33.2003C33.3923 20.4875 33.5469 20.3325 33.5469 20.14V12.6675C33.5469 12.4875 33.6941 12.3425 33.8711 12.3425L40.0012 12.3325C40.106 12.3325 40.2032 12.2875 40.2681 12.205L41.1584 10.66C41.3455 10.4325 41.1834 10.09 40.8916 10.09H35.577C35.3101 10.09 35.0557 10.1875 34.8537 10.3675C34.6143 10.5825 34.2976 10.865 34.1504 10.9975C33.916 11.205 33.5494 11.0375 33.5494 10.725V6.20001C33.5494 6.00751 33.704 5.85251 33.8961 5.85251H41.3205C41.4377 5.85251 41.545 5.79001 41.6023 5.69001L42.5376 4.05001C42.7121 3.82251 42.55 3.49001 42.2607 3.49001V3.49251Z" fill="#212647"></path><path d="M116.991 15.985H115.173C115.014 15.985 114.879 16.0925 114.839 16.245C114.455 17.765 113.323 18.6175 111.712 18.6175C109.427 18.6175 108.063 17.0325 108.063 14.1575C108.063 11.2825 109.4 9.6975 111.712 9.6975C114.023 9.6975 114.649 11.33 114.817 11.975C114.856 12.125 114.996 12.2325 115.151 12.2325H116.984C117.203 12.2325 117.368 12.03 117.328 11.815C116.787 9.0575 114.762 7.53 111.614 7.53C107.701 7.53 105.539 9.9175 105.539 14.155C105.539 18.3925 107.704 20.78 111.614 20.78C114.769 20.78 116.817 19.205 117.335 16.395C117.375 16.18 117.208 15.9825 116.991 15.9825V15.985Z" fill="#212647"></path><path d="M124.654 13.7075C124.526 13.565 124.536 13.3475 124.676 13.22L130.008 8.33999C130.21 8.15749 130.081 7.82249 129.806 7.82249H127.524C127.439 7.82249 127.355 7.85499 127.29 7.91249L122.466 12.33C122.304 12.48 122.043 12.3625 122.043 12.1425V3.83749C122.043 3.64499 121.89 3.49249 121.698 3.49249H119.858C119.666 3.49249 119.514 3.64499 119.514 3.83749V20.1475C119.514 20.34 119.666 20.4925 119.858 20.4925H121.698C121.89 20.4925 122.043 20.34 122.043 20.1475V14.8775C122.043 14.6425 122.332 14.5325 122.486 14.7075L127.507 20.3775C127.572 20.45 127.666 20.495 127.764 20.495H130.078C130.335 20.495 130.47 20.19 130.297 19.9975L124.651 13.7075H124.654Z" fill="#212647"></path><path d="M137.139 13.0175C134.513 12.5275 133.907 12.185 133.907 11.1375C133.907 10.09 134.999 9.4325 136.364 9.4325C138.758 9.4325 139.194 10.835 139.269 11.47C139.289 11.645 139.441 11.7725 139.613 11.7725H141.371C141.576 11.7725 141.735 11.5975 141.718 11.395C141.523 8.9675 139.626 7.535 136.364 7.535C133.446 7.535 131.43 8.9475 131.43 11.24C131.43 13.1875 132.453 14.455 136.388 15.115C139.112 15.555 139.473 16.015 139.473 17.09C139.473 18.285 138.428 18.8925 136.728 18.8925C134.144 18.895 133.725 17.3475 133.668 16.6575C133.655 16.475 133.505 16.335 133.321 16.335H131.545C131.343 16.335 131.181 16.5075 131.199 16.71C131.396 19.5625 133.623 20.7925 136.675 20.7925C139.728 20.7925 141.997 19.4275 141.997 16.945C141.997 14.8025 140.927 13.755 137.137 13.0225L137.139 13.0175Z" fill="#212647"></path><path d="M88.9986 3.49249H87.1631C86.9716 3.49249 86.8164 3.64807 86.8164 3.83999V20.1425C86.8164 20.3344 86.9716 20.49 87.1631 20.49H88.9986C89.1901 20.49 89.3453 20.3344 89.3453 20.1425V3.83999C89.3453 3.64807 89.1901 3.49249 88.9986 3.49249Z" fill="#212647"></path><path d="M97.7571 7.53C93.8441 7.53 91.5098 10.38 91.5098 14.155C91.5098 17.93 93.8441 20.78 97.7571 20.78C101.67 20.78 104.004 17.93 104.004 14.155C104.004 10.38 101.67 7.53 97.7571 7.53ZM97.7571 18.7125C95.2532 18.7125 94.086 16.7875 94.086 14.155C94.086 11.5225 95.2507 9.5975 97.7571 9.5975C100.264 9.5975 101.428 11.5225 101.428 14.155C101.428 16.7875 100.264 18.7125 97.7571 18.7125Z" fill="#212647"></path><path d="M79.4837 7.5525C77.7778 7.555 76.4036 8.2025 75.5931 9.3325C75.456 9.52 75.1592 9.41999 75.1592 9.18999V3.8425C75.1592 3.65 75.0046 3.495 74.8125 3.495H72.9795C72.7874 3.495 72.6328 3.65 72.6328 3.8425V20.1425C72.6328 20.335 72.7874 20.49 72.9795 20.49H74.7153C74.9073 20.49 75.0619 20.335 75.0619 20.1425V18.7775C75.0619 18.55 75.3562 18.4725 75.4784 18.6625C76.2939 19.95 77.6955 20.76 79.4363 20.76C82.8879 20.76 85.0003 18.3225 85.0003 14.1575C85.0003 9.9925 82.863 7.555 79.4837 7.555V7.5525ZM78.7804 18.665C76.5184 18.665 75.1816 16.935 75.1816 14.1575C75.1816 11.38 76.5184 9.625 78.7804 9.625C81.0424 9.625 82.429 11.3775 82.429 14.1575C82.429 16.9375 81.0673 18.665 78.7804 18.665Z" fill="#212647"></path></g><defs><clipPath id="clip0_3771_8677"><rect width="142" height="24" fill="white"></rect></clipPath></defs></svg> 