<svg width="629" height="629" viewBox="0 0 629 629" fill="none" xmlns="http://www.w3.org/2000/svg">
<g clip-path="url(#clip0_4748_91377)">
<path d="M413.781 301.948L327.945 252.629C324.866 251.751 322.345 254.558 323.721 257.605L324.895 259.765L336.941 264.028C337.326 264.163 337.586 264.317 337.759 264.472C338.789 265.205 339.549 266.487 339.559 267.712L339.751 287.222L349.873 305.911C355.656 306.008 361.429 308.033 366.163 312.064C368.068 313.684 369.675 315.526 370.983 317.513C373.504 321.351 374.909 325.739 375.178 330.214L413.8 307.57C415.099 306.808 415.811 305.805 415.801 304.754C415.792 303.703 415.08 302.71 413.771 301.957" fill="#F8FF2C"/>
<path d="M414.472 178.392C414.434 178.334 414.405 178.276 414.366 178.208C414.078 177.707 413.76 177.196 413.414 176.675C412.721 175.624 411.932 174.573 411.076 173.541C411.057 173.512 411.037 173.492 411.008 173.464C410.181 172.47 409.296 171.496 408.382 170.58C408.334 170.532 408.295 170.484 408.247 170.445C407.804 170.001 407.352 169.577 406.9 169.172C406.861 169.133 406.813 169.095 406.775 169.066C406.352 168.69 405.928 168.323 405.505 167.986C405.457 167.947 405.409 167.899 405.351 167.86C404.918 167.513 404.485 167.195 404.062 166.896C403.975 166.838 403.888 166.78 403.802 166.722C403.369 166.433 402.945 166.153 402.522 165.912L346.418 133.673L346.052 133.461L345.686 133.249L332.688 125.784L368.278 201.537C369.462 204.054 371.482 206.88 373.801 209.416C373.849 209.474 373.907 209.522 373.955 209.58C374.003 209.638 374.061 209.686 374.109 209.744C376.322 212.116 378.776 214.199 380.989 215.472L450.823 255.6L415.232 179.848C415.011 179.375 414.751 178.883 414.472 178.392Z" fill="#F8FF2C"/>
<path d="M317.002 109.832C317.705 110.054 318.301 110.41 318.744 110.661L403.781 159.527C404.272 159.806 404.762 160.125 405.263 160.453C405.359 160.51 405.446 160.578 405.542 160.645C405.927 160.906 406.311 161.176 406.696 161.465C406.879 161.6 407.052 161.735 407.235 161.87C407.793 162.304 408.342 162.748 408.9 163.22C408.9 163.22 408.938 163.249 408.948 163.269C410.045 164.214 411.142 165.236 412.21 166.326C412.238 166.355 412.258 166.374 412.287 166.403C413.172 167.3 414.625 167.329 415.519 166.432L435.61 146.488C436.803 145.302 436.822 143.373 435.639 142.177C435.61 142.148 435.581 142.119 435.552 142.091C435.109 141.657 434.667 141.223 434.214 140.818C434.205 140.808 434.186 140.789 434.176 140.779C433.762 140.403 433.349 140.036 432.935 139.68C432.925 139.67 432.916 139.66 432.896 139.651C432.483 139.294 432.069 138.956 431.655 138.628C431.645 138.619 431.626 138.609 431.617 138.599C431.203 138.272 430.789 137.953 430.375 137.654C430.366 137.654 430.356 137.635 430.347 137.625C429.923 137.317 429.509 137.028 429.096 136.757C429.057 136.729 429.009 136.7 428.971 136.671C428.567 136.41 428.162 136.16 427.768 135.928L342.769 87.0915C342.346 86.8504 341.942 86.6382 341.557 86.455C341.432 86.3971 341.317 86.3489 341.201 86.291C340.932 86.1753 340.672 86.0596 340.422 85.9632C340.297 85.9149 340.172 85.8764 340.056 85.8281C339.816 85.751 339.585 85.6835 339.363 85.6256C339.267 85.6063 339.161 85.5774 339.065 85.5485C338.757 85.4906 338.469 85.4424 338.199 85.4424C338.199 85.4424 338.199 85.4424 338.19 85.4424C337.987 85.4424 337.795 85.452 337.622 85.481C337.564 85.481 337.516 85.5002 337.458 85.5195C337.333 85.5485 337.208 85.587 337.102 85.6353C337.054 85.6545 337.006 85.6738 336.968 85.6931C336.823 85.7703 336.689 85.8571 336.583 85.9632L316.079 106.177C314.876 107.363 315.405 109.301 317.012 109.812" fill="#F8FF2C"/>
<path d="M275.27 133.537C275.242 133.383 275.203 133.219 275.155 133.055C275.03 132.669 274.847 132.428 274.616 132.38C274.299 132.303 273.904 132.582 273.519 133.122L258.317 154.445C257.412 155.718 256.874 158.004 257.124 159.537L258.923 170.791C259.029 171.457 259.269 171.872 259.577 171.949C259.722 171.978 259.876 171.929 260.049 171.833C260.126 171.775 260.203 171.717 260.28 171.65C260.289 171.64 260.299 171.63 260.318 171.621C260.434 171.505 260.559 171.38 260.684 171.206L275.886 149.883C276.675 148.774 277.185 146.884 277.137 145.399C277.137 145.187 277.108 144.984 277.079 144.792L275.28 133.547L275.27 133.537Z" fill="#F8FF2C"/>
<path d="M306.105 318.604C305.884 318.015 305.499 317.62 305.008 317.495C304.527 317.369 303.998 317.523 303.517 317.938L292.567 327.322L292.385 327.476L292.202 327.63L284.687 334.063C283.648 334.96 283.186 336.734 283.667 338.026L286.746 346.262L286.833 346.484L286.919 346.706L287.766 348.972L303.536 358.037L314.755 348.422C315.804 347.526 316.256 345.751 315.775 344.459L306.115 318.584L306.105 318.604Z" fill="#F8FF2C"/>
<path d="M229.209 204.815L212.707 186.993C212.082 186.318 211.014 185.923 210.023 185.923C209.59 185.923 209.167 186 208.801 186.154L183.929 196.666C183.361 196.907 182.996 197.303 182.89 197.785C182.784 198.267 182.957 198.778 183.38 199.231L199.882 217.053C200.334 217.535 201.007 217.873 201.719 218.027C202.345 218.162 202.999 218.143 203.567 217.96C203.644 217.941 203.721 217.921 203.798 217.892L228.67 207.38C228.805 207.323 228.93 207.255 229.055 207.168C229.401 206.937 229.622 206.619 229.699 206.262C229.805 205.78 229.622 205.268 229.209 204.815Z" fill="#F8FF2C"/>
<path d="M274.289 281.695L260.876 276.594L260.607 276.488L260.338 276.381L251.611 273.064C251.264 272.929 250.889 272.871 250.495 272.871C249.465 272.871 248.368 273.305 247.733 274.048L230.828 293.692L230.376 294.223L230.106 294.541C230.058 294.599 230.02 294.666 229.971 294.724C229.673 295.139 229.558 295.582 229.664 295.997C229.779 296.47 230.164 296.855 230.741 297.068L253.42 305.699C254.651 306.171 256.431 305.718 257.297 304.715L274.924 284.232C275.04 284.097 275.126 283.933 275.222 283.778C275.386 283.441 275.444 283.103 275.367 282.775C275.251 282.303 274.866 281.917 274.289 281.695Z" fill="#F8FF2C"/>
<path d="M339.293 286.556V286.363L339.11 267.712C339.11 267.567 339.091 267.423 339.062 267.268C338.975 266.863 338.773 266.535 338.475 266.323C338.244 266.169 337.975 266.092 337.676 266.092C337.445 266.092 337.205 266.14 336.955 266.236L329.835 268.908L329.786 268.927L329.411 269.072L314.238 274.771C312.997 275.234 311.967 276.748 311.977 278.079L312.246 305.13C312.246 305.747 312.477 306.239 312.881 306.519C313.285 306.799 313.824 306.828 314.401 306.615L337.118 298.071C338.359 297.608 339.389 296.094 339.379 294.773L339.302 287.337V286.566L339.293 286.556Z" fill="#F8FF2C"/>
<path d="M465.268 274.82C465.268 274.752 465.268 274.685 465.258 274.598C465.249 274.502 465.22 274.386 465.201 274.289C465.191 274.212 465.172 274.125 465.162 274.048C465.143 273.933 465.124 273.817 465.095 273.692C465.066 273.576 465.027 273.46 464.999 273.344C464.989 273.306 464.979 273.267 464.97 273.229C464.922 273.055 464.883 272.891 464.825 272.708C464.777 272.544 464.7 272.37 464.643 272.197C464.575 272.004 464.517 271.821 464.44 271.628C464.287 271.252 464.123 270.856 463.931 270.461L420.95 178.989C420.748 178.564 420.537 178.14 420.306 177.706C420.19 177.494 420.065 177.272 419.94 177.06C419.921 177.031 419.901 177.002 419.892 176.963C419.786 176.77 419.68 176.587 419.574 176.394C419.392 176.095 419.199 175.796 419.007 175.488C418.949 175.391 418.891 175.295 418.824 175.199C418.805 175.16 418.776 175.121 418.747 175.083C418.516 174.726 418.266 174.36 418.016 173.993C417.968 173.916 417.91 173.839 417.862 173.762C417.573 173.347 417.265 172.923 416.957 172.508C416.957 172.498 416.938 172.489 416.938 172.479C416.928 172.469 416.919 172.45 416.909 172.44C416.428 171.794 415.918 171.158 415.398 170.521C415.36 170.473 415.322 170.425 415.273 170.377C414.763 169.759 414.234 169.142 413.686 168.544C413.339 168.168 412.993 167.792 412.647 167.426C412.57 167.348 412.502 167.271 412.425 167.194C412.108 166.857 411.781 166.538 411.454 166.21C411.348 166.104 411.232 165.989 411.126 165.883C410.867 165.632 410.607 165.391 410.347 165.14C410.328 165.121 410.309 165.101 410.289 165.082C410.174 164.976 410.068 164.87 409.953 164.764C409.904 164.725 409.866 164.677 409.818 164.638C409.654 164.484 409.481 164.349 409.318 164.195C409.183 164.069 409.039 163.954 408.904 163.828C408.779 163.722 408.663 163.607 408.538 163.5C408.509 163.481 408.48 163.452 408.452 163.433C407.624 162.739 406.806 162.092 405.988 161.504C405.95 161.475 405.911 161.456 405.873 161.427C405.507 161.167 405.142 160.916 404.786 160.675C404.382 160.414 403.987 160.164 403.593 159.942L318.556 111.076C318.229 110.883 317.911 110.72 317.594 110.565C317.526 110.536 317.459 110.498 317.391 110.469C317.334 110.44 317.286 110.421 317.238 110.401C316.987 110.286 316.747 110.17 316.516 110.073C316.477 110.054 316.439 110.044 316.41 110.035C316.16 109.938 315.919 109.852 315.688 109.774C315.631 109.755 315.563 109.736 315.506 109.717C315.323 109.668 315.159 109.63 314.986 109.591C314.919 109.572 314.842 109.553 314.784 109.543C314.736 109.543 314.688 109.533 314.64 109.524C314.447 109.495 314.255 109.475 314.082 109.466C314.043 109.466 313.995 109.466 313.957 109.466C313.754 109.466 313.562 109.475 313.389 109.504C313.35 109.504 313.302 109.524 313.264 109.533C313.129 109.562 312.994 109.601 312.879 109.659C312.84 109.678 312.802 109.688 312.763 109.707C312.629 109.774 312.504 109.861 312.388 109.967C311.349 110.961 311.618 113.381 313.139 116.622L356.119 208.094C359.333 214.941 367.136 223.495 373.505 227.15L458.542 276.016C461.448 277.684 463.69 278.099 464.71 277.163C464.787 277.096 464.835 277.009 464.893 276.922C464.941 276.855 464.999 276.797 465.037 276.72C465.037 276.72 465.047 276.7 465.056 276.691C465.095 276.614 465.124 276.517 465.152 276.43C465.172 276.363 465.201 276.295 465.22 276.238C465.229 276.199 465.249 276.17 465.258 276.131C465.278 276.045 465.287 275.939 465.297 275.842C465.316 275.717 465.335 275.591 465.345 275.447C465.345 275.36 465.345 275.263 465.335 275.167C465.335 275.071 465.335 274.974 465.316 274.868M454.174 266.025C453.837 266.333 453.376 266.488 452.808 266.488C451.875 266.488 450.643 266.063 449.2 265.234L374.573 222.357C372.264 221.036 369.705 218.837 367.415 216.359L367.261 216.195C365.173 213.899 363.422 211.498 362.238 209.299C362.219 209.261 362.2 209.232 362.181 209.193C362.007 208.865 361.844 208.547 361.7 208.238L323.626 127.201C322.558 124.935 322.308 123.199 322.876 122.225C322.953 122.09 323.059 121.964 323.174 121.858C324.059 121.038 325.83 121.318 328.149 122.649L336.26 127.317L402.765 165.535C406.508 167.686 410.905 172.103 413.753 176.375C414.504 177.503 415.158 178.612 415.658 179.673L453.732 260.711C454.944 263.305 455.107 265.195 454.184 266.054" fill="#EDEBE8"/>
<path d="M445.18 155.014C444.997 154.638 444.805 154.242 444.603 153.856C444.536 153.741 444.478 153.615 444.41 153.5C444.257 153.21 444.083 152.921 443.92 152.622C443.852 152.506 443.785 152.381 443.708 152.265C443.487 151.899 443.256 151.532 443.015 151.156C442.9 150.983 442.784 150.809 442.669 150.626C442.534 150.423 442.39 150.211 442.246 150.009C442.092 149.796 441.947 149.575 441.793 149.362C441.697 149.218 441.591 149.083 441.485 148.938C441.11 148.427 440.725 147.916 440.331 147.414C440.302 147.385 440.283 147.347 440.254 147.318C439.128 145.9 437.011 145.775 435.732 147.057L415.382 167.271C414.727 167.927 414.679 168.978 415.285 169.692H415.295V169.711C415.641 170.126 415.988 170.55 416.325 170.974C416.325 170.974 416.325 170.974 416.334 170.984C416.353 171.013 416.373 171.032 416.392 171.061C416.392 171.061 416.402 171.08 416.411 171.08C417.066 171.9 417.681 172.739 418.268 173.569C418.268 173.569 418.268 173.569 418.268 173.578C418.336 173.675 418.403 173.781 418.47 173.877C418.47 173.877 418.47 173.877 418.47 173.887C418.759 174.301 419.028 174.716 419.288 175.131C419.336 175.208 419.384 175.285 419.432 175.362C419.432 175.372 419.452 175.391 419.452 175.401C419.615 175.661 419.779 175.922 419.933 176.182C420.077 176.423 420.202 176.655 420.337 176.896C420.337 176.915 420.356 176.925 420.366 176.944C420.462 177.127 420.577 177.301 420.664 177.484C420.895 177.918 421.116 178.342 421.309 178.767L464.289 270.239C464.481 270.644 464.645 271.03 464.799 271.415C464.837 271.502 464.866 271.589 464.905 271.676C465.02 271.984 465.126 272.283 465.222 272.573C465.242 272.631 465.261 272.688 465.28 272.746C465.338 272.939 465.376 273.122 465.424 273.306L465.396 273.219C465.521 273.576 465.751 273.865 466.04 274.058C466.656 274.482 467.512 274.328 468.041 273.797L488.901 253.102C489.921 252.099 489.642 249.678 488.122 246.467L445.142 154.994L445.18 155.014Z" fill="#EDEBE8"/>
<path d="M229.883 155.718C230.123 157.223 231.47 159.084 232.818 159.788L256.679 172.171C256.833 172.248 256.997 172.315 257.16 172.363C257.257 172.392 257.363 172.402 257.459 172.431C257.728 172.46 257.959 172.431 258.142 172.296C258.469 172.064 258.594 171.544 258.488 170.869L256.689 159.624C256.448 158.119 255.101 156.258 253.754 155.554L229.893 143.171C229.546 142.998 229.229 142.901 228.95 142.901C228.748 142.901 228.574 142.95 228.43 143.056C228.103 143.297 227.978 143.808 228.084 144.483L229.883 155.728V155.718Z" fill="#EDEBE8"/>
<path d="M279.903 335.875H279.874L265.172 336.01L285.252 347.544L285.464 347.66L285.676 347.776L287.148 348.624L286.551 347.023L286.465 346.802L286.378 346.58L283.241 338.19C282.76 336.907 281.269 335.875 279.893 335.875" fill="#EDEBE8"/>
<path d="M182.237 196.222C182.65 196.483 183.189 196.492 183.757 196.251L208.629 185.739C209.841 185.228 210.823 183.675 210.755 182.345L209.543 158.061C209.514 157.444 209.264 156.962 208.85 156.702C208.639 156.567 208.388 156.499 208.109 156.499C208.004 156.499 207.898 156.518 207.782 156.538C207.628 156.576 207.465 156.615 207.32 156.673L182.458 167.184C181.217 167.705 180.264 169.229 180.331 170.579L181.544 194.862C181.573 195.48 181.823 195.962 182.237 196.222Z" fill="#EDEBE8"/>
<path d="M332.966 351.18C333.88 351.951 334.832 352.655 335.823 353.282L365.574 335.836L365.785 335.711L365.958 335.605L374.762 330.445C374.406 323.695 371.404 317.108 365.872 312.392C361.292 308.486 355.711 306.5 350.121 306.355C350.063 306.355 350.015 306.355 349.958 306.355C349.842 306.355 349.717 306.355 349.602 306.355C342.347 306.307 335.13 309.345 330.069 315.305C322.584 324.119 322.16 336.618 328.232 345.827C329.521 347.785 331.099 349.589 332.966 351.18ZM328.472 334.747C328.299 334.371 328.251 334.043 328.241 333.84C328.241 333.638 328.212 333.435 328.184 333.233C327.375 327.379 328.963 321.226 333.081 316.375C335.602 313.405 338.758 311.293 342.174 310.068C344.108 309.374 346.311 310.01 347.542 311.659C347.562 311.688 347.581 311.717 347.6 311.736C348.813 313.395 348.197 315.758 346.369 316.693C341.981 318.931 334.168 324.225 332.725 334.052C332.408 336.213 329.386 336.714 328.463 334.747" fill="#EDEBE8"/>
<path d="M243.816 199.279C240.314 205.653 239.506 213.021 241.526 220.013C243.547 227.005 248.175 232.781 254.535 236.292C257.777 238.076 261.27 239.156 264.84 239.532C270.401 238.519 282.813 227.795 280.629 207.649C279.282 195.19 278.262 191.457 280.706 188.516C267.572 181.302 251.032 186.124 243.816 199.279Z" fill="#EDEBE8"/>
<path d="M197.197 273.249C209.859 265.196 213.621 248.329 205.597 235.638C197.572 222.946 180.744 219.166 168.072 227.218C155.41 235.271 151.648 252.138 159.672 264.83C167.697 277.521 184.535 281.301 197.197 273.249ZM160.336 244.047C161.654 239.08 164.916 234.374 169.862 231.298C180.118 224.914 189.24 227.942 192.117 229.195C192.684 229.446 192.973 230.025 192.848 230.642C192.704 231.317 192.088 231.847 191.376 231.896C187.537 232.166 175.615 233.988 169.881 246.091C169.842 246.178 169.804 246.265 169.756 246.352C167.177 251.801 158.816 249.766 160.326 244.047" fill="#EDEBE8"/>
<path d="M326.142 369.572C327.076 369.196 327.97 368.771 328.788 368.289L347.041 357.584L347.387 357.382L347.714 357.189L370.037 344.102L370.229 343.987L370.422 343.871L372.327 342.752L372.673 342.55L372.981 342.366L424.534 312.133C424.698 312.036 424.842 311.94 424.996 311.844C425.179 311.728 425.362 311.612 425.535 311.496C425.708 311.381 425.872 311.255 426.035 311.13C426.035 311.13 426.064 311.111 426.074 311.101C426.228 310.985 426.372 310.879 426.507 310.763C426.651 310.648 426.795 310.522 426.93 310.407C427.103 310.243 427.267 310.079 427.43 309.915C427.565 309.78 427.7 309.635 427.825 309.5C427.834 309.481 427.854 309.471 427.863 309.452C428.027 309.269 428.181 309.076 428.316 308.893C428.402 308.777 428.469 308.671 428.546 308.555C428.546 308.555 428.556 308.545 428.556 308.536C428.672 308.362 428.777 308.198 428.874 308.025C428.931 307.909 428.999 307.803 429.056 307.687C429.056 307.687 429.056 307.677 429.056 307.668C429.172 307.436 429.268 307.195 429.355 306.964C429.355 306.964 429.355 306.954 429.355 306.944C429.374 306.896 429.393 306.858 429.412 306.809C429.432 306.761 429.432 306.713 429.451 306.665C429.538 306.375 429.624 306.086 429.672 305.797C429.691 305.662 429.691 305.527 429.711 305.392C429.73 305.18 429.759 304.967 429.759 304.755C429.759 304.755 429.759 304.746 429.759 304.736C429.759 304.437 429.73 304.148 429.682 303.858C429.663 303.762 429.653 303.666 429.634 303.579C429.586 303.328 429.518 303.077 429.441 302.836C429.441 302.836 429.441 302.836 429.441 302.827C429.393 302.692 429.345 302.556 429.287 302.421C429.23 302.267 429.162 302.113 429.085 301.968C429.008 301.814 428.931 301.66 428.845 301.505C428.806 301.438 428.758 301.37 428.71 301.303C428.71 301.303 428.71 301.293 428.7 301.284C428.498 300.956 428.267 300.637 428.017 300.329C427.988 300.29 427.95 300.242 427.911 300.203C427.758 300.02 427.594 299.837 427.421 299.663C427.353 299.596 427.276 299.528 427.209 299.461C427.151 299.403 427.094 299.355 427.036 299.297C426.969 299.239 426.911 299.172 426.843 299.114C426.786 299.065 426.728 299.017 426.67 298.969C426.526 298.844 426.372 298.718 426.218 298.593C426.122 298.516 426.026 298.439 425.92 298.371C425.747 298.236 425.564 298.111 425.371 297.985C425.179 297.86 424.977 297.735 424.775 297.609C424.756 297.609 424.746 297.59 424.727 297.58C424.611 297.513 424.515 297.436 424.4 297.378L327.691 241.81C327.239 241.549 326.777 241.308 326.296 241.086C326.277 241.086 326.258 241.067 326.248 241.067C326.142 241.019 326.027 240.98 325.921 240.932C325.902 240.922 325.873 240.913 325.854 240.903C325.507 240.749 325.171 240.595 324.805 240.46C324.766 240.44 324.718 240.431 324.67 240.411C324.545 240.363 324.41 240.325 324.285 240.286C324.276 240.286 324.256 240.286 324.247 240.276C323.91 240.161 323.573 240.035 323.237 239.929C323.16 239.91 323.092 239.891 323.015 239.871C322.89 239.833 322.756 239.804 322.63 239.775C322.611 239.775 322.582 239.765 322.563 239.756C322.246 239.669 321.928 239.572 321.601 239.495C321.495 239.476 321.389 239.457 321.283 239.428C321.187 239.408 321.081 239.389 320.975 239.37C320.899 239.35 320.822 239.341 320.754 239.322C320.475 239.264 320.196 239.206 319.917 239.158C319.782 239.138 319.638 239.119 319.503 239.1C319.436 239.09 319.359 239.08 319.292 239.071C319.167 239.052 319.032 239.032 318.907 239.013C318.676 238.984 318.435 238.945 318.204 238.917C318.031 238.897 317.848 238.888 317.675 238.868C317.637 238.868 317.589 238.868 317.55 238.859C317.377 238.849 317.213 238.83 317.04 238.82C316.848 238.81 316.655 238.781 316.453 238.772C316.232 238.762 316.001 238.762 315.77 238.753C315.568 238.753 315.366 238.743 315.164 238.733C315.01 238.733 314.856 238.724 314.692 238.724C314.433 238.724 314.173 238.743 313.903 238.743C313.865 238.743 313.836 238.743 313.798 238.743C313.682 238.743 313.567 238.743 313.451 238.753C313.288 238.753 313.115 238.753 312.941 238.772C312.932 238.772 312.922 238.772 312.903 238.772C312.653 238.791 312.403 238.82 312.152 238.839C311.816 238.868 311.479 238.888 311.152 238.926C310.892 238.955 310.651 239.003 310.392 239.032C310.064 239.08 309.737 239.119 309.42 239.177C309.17 239.225 308.919 239.283 308.669 239.331C308.352 239.399 308.044 239.447 307.736 239.524C307.476 239.582 307.226 239.659 306.976 239.727C306.687 239.804 306.389 239.871 306.1 239.968C305.831 240.054 305.571 240.151 305.302 240.247C305.042 240.334 304.782 240.421 304.532 240.517C304.243 240.633 303.964 240.758 303.685 240.884C303.474 240.98 303.252 241.057 303.041 241.164C302.559 241.395 302.098 241.636 301.645 241.906L266.035 262.785L270.394 270.587L309.429 247.692C311.527 246.458 314.577 246.12 317.204 246.651C317.406 246.689 317.598 246.738 317.791 246.786C318.58 246.988 319.33 247.268 319.984 247.644L413.989 301.66C414.21 301.785 414.422 301.93 414.614 302.074C415.663 302.855 416.25 303.82 416.25 304.852C416.25 306.077 415.461 307.214 414.018 308.054L375.204 330.813L375.002 330.929L374.771 331.064L366.159 336.117L365.976 336.223L365.765 336.349L336.236 353.669L336.014 353.804L335.793 353.939L320.995 362.619C319.532 363.477 317.598 363.911 315.664 363.911C313.73 363.911 311.883 363.496 310.44 362.667L303.57 358.722L303.358 358.607L303.146 358.491L287.983 349.783L287.675 349.609L287.367 349.435L285.279 348.24L285.067 348.124L284.855 348.008L264.246 336.165L263.861 335.944L263.476 335.722L257.299 332.173L257.087 332.057L256.875 331.941L239.018 321.68L238.806 321.565L238.594 321.449L216.406 308.7C214.954 307.87 214.155 306.732 214.145 305.517C214.145 304.292 214.934 303.154 216.378 302.315L227.722 295.661C227.318 295.237 226.971 294.793 226.731 294.369L223.171 287.985L205.871 298.12C202.888 299.866 201.089 302.103 200.694 304.505C200.656 304.755 200.646 305.006 200.636 305.266C200.636 305.353 200.617 305.44 200.617 305.536C200.617 305.681 200.646 305.826 200.656 305.97C200.675 306.173 200.675 306.385 200.713 306.588C200.713 306.588 200.723 306.636 200.733 306.655C200.829 307.166 201.002 307.668 201.223 308.16C201.223 308.16 201.223 308.16 201.223 308.169C201.262 308.266 201.3 308.352 201.339 308.449C201.435 308.642 201.55 308.825 201.666 309.008C201.666 309.008 201.666 309.018 201.676 309.028C201.743 309.134 201.801 309.24 201.868 309.346C201.993 309.519 202.118 309.693 202.263 309.867C202.349 309.982 202.445 310.088 202.542 310.204C202.686 310.368 202.84 310.542 203.003 310.696C203.109 310.802 203.225 310.918 203.35 311.024C203.523 311.188 203.696 311.342 203.889 311.496C204.014 311.602 204.148 311.699 204.273 311.795C204.476 311.95 204.678 312.114 204.908 312.268C204.995 312.326 205.091 312.384 205.178 312.441C205.178 312.441 205.188 312.441 205.197 312.451C205.457 312.625 205.717 312.789 205.996 312.953L232.456 328.161L232.667 328.277L232.879 328.402L253.797 340.418L254.104 340.592L254.412 340.766L277.678 354.132L277.889 354.248L278.101 354.363L292.226 362.484L292.534 362.657L292.842 362.831L295.959 364.625L296.171 364.74L296.382 364.856L302.713 368.492C303.541 368.964 304.436 369.379 305.369 369.745C311.623 372.195 319.898 372.176 326.113 369.688" fill="#EDEBE8"/>
<path d="M429.822 310.493C429.822 309.596 428.725 309.21 428.128 309.866C428.128 309.866 428.119 309.866 428.109 309.875C428.09 309.895 428.08 309.914 428.071 309.924C427.792 310.232 427.484 310.531 427.157 310.82C427.147 310.82 427.137 310.84 427.128 310.84C426.81 311.119 426.473 311.389 426.108 311.65C426.079 311.669 426.05 311.688 426.021 311.708C425.636 311.978 425.242 312.238 424.818 312.498L372.726 343.05L372.37 343.253L372.005 343.465L348.624 357.179L348.268 357.391L347.902 357.603L329.073 368.645C328.62 368.915 328.149 369.156 327.658 369.397C327.629 369.407 327.6 369.417 327.572 369.436C326.234 370.246 324.406 370.786 322.578 371.143C318.518 371.943 315.631 375.57 315.641 379.716L315.718 405.842L315.968 491.132C315.977 494.237 318.643 497.111 321.587 497.295C322.106 497.324 322.645 497.295 323.174 497.14C325.436 496.494 327.552 495.462 327.735 495.375H327.754C328.226 495.144 328.688 494.903 329.13 494.643L424.876 438.486C428.273 436.5 430.139 433.867 430.139 431.089V426.73L429.86 310.454L429.822 310.493Z" fill="#EDEBE8"/>
<path d="M223.373 287.183L223.479 287.376L223.585 287.578L227.155 293.982C227.453 294.522 227.886 294.84 228.377 294.888C228.55 294.907 228.713 294.888 228.887 294.83C229.117 294.763 229.339 294.628 229.55 294.445C229.618 294.377 229.695 294.319 229.753 294.242L247.38 273.758C247.437 273.691 247.495 273.604 247.543 273.527C247.63 273.402 247.707 273.276 247.774 273.141C247.832 273.016 247.88 272.9 247.928 272.784C248.274 271.81 248.246 270.643 247.774 269.795L235.93 248.569C235.631 248.029 235.198 247.71 234.708 247.662C234.669 247.662 234.621 247.662 234.573 247.662C234.284 247.662 233.996 247.768 233.717 247.961C233.582 248.077 233.438 248.183 233.322 248.318L215.695 268.802C214.82 269.824 214.637 271.608 215.291 272.784L223.344 287.212L223.373 287.183Z" fill="#EDEBE8"/>
<path d="M286.797 298.562L309.678 306.654C310.255 306.856 310.794 306.818 311.198 306.528C311.593 306.249 311.814 305.747 311.804 305.13L311.535 278.079C311.525 276.748 310.457 275.263 309.216 274.819L286.336 266.728C286.095 266.641 285.864 266.603 285.643 266.603C285.335 266.603 285.056 266.689 284.825 266.853C284.527 267.065 284.334 267.393 284.257 267.808C284.238 267.953 284.219 268.107 284.219 268.252L284.488 295.303C284.498 296.653 285.547 298.109 286.817 298.562" fill="#EDEBE8"/>
<path d="M451.161 256.314L380.768 215.857C379.44 215.096 378.036 214.054 376.65 212.829C374.966 211.344 372.436 211.402 370.839 212.974C369.059 214.739 369.184 217.642 371.089 219.281C372.349 220.361 373.61 221.277 374.803 221.972L449.429 264.848C451.526 266.054 453.143 266.362 453.874 265.697C454.634 264.993 454.432 263.238 453.316 260.885L451.17 256.314H451.161Z" fill="white"/>
<path d="M230.077 142.767L253.939 155.149C255.267 155.834 257.066 155.41 257.942 154.185L273.144 132.862C273.558 132.284 273.702 131.609 273.548 130.972C273.433 130.5 273.163 130.085 272.778 129.767C272.644 129.67 272.509 129.574 272.374 129.497C272.355 129.497 272.345 129.477 272.326 129.468L248.464 117.085C248.272 116.989 248.06 116.911 247.848 116.863C247.781 116.844 247.714 116.834 247.646 116.825C247.492 116.796 247.339 116.776 247.194 116.776C247.127 116.776 247.05 116.776 246.983 116.776C246.79 116.776 246.598 116.805 246.405 116.844C246.376 116.844 246.338 116.844 246.309 116.863C246.088 116.911 245.886 116.989 245.684 117.085C245.626 117.114 245.568 117.143 245.51 117.172C245.366 117.249 245.222 117.345 245.087 117.442C245.029 117.48 244.981 117.519 244.933 117.567C244.76 117.712 244.606 117.876 244.471 118.059L229.269 139.382C228.855 139.96 228.711 140.626 228.865 141.272C229.019 141.908 229.452 142.448 230.077 142.776" fill="white"/>
<path d="M257.689 331.71L264.396 335.567L279.867 335.423C281.282 335.413 283.312 334.651 284.39 333.725L292.02 327.187L292.202 327.032L292.385 326.878L303.219 317.601C303.739 317.147 303.864 316.81 303.797 316.636C303.729 316.472 303.431 316.299 302.767 316.299H302.729L288.479 316.434H288.238H287.998L277.953 316.53C276.538 316.54 274.508 317.302 273.43 318.228L257.68 331.729L257.689 331.71Z" fill="white"/>
<path d="M213.038 186.694L229.539 204.516C230.001 205.008 230.328 205.104 230.492 205.046C230.569 205.017 230.646 204.921 230.703 204.767C230.761 204.593 230.8 204.342 230.78 203.995L229.568 179.712C229.501 178.323 228.673 176.365 227.73 175.343L211.229 157.521C211.027 157.309 210.854 157.174 210.71 157.087C210.69 157.078 210.671 157.058 210.652 157.049C210.652 157.049 210.633 157.049 210.633 157.039C210.479 156.962 210.354 156.952 210.277 156.991C210.113 157.058 209.959 157.377 209.988 158.042L211.2 182.325C211.268 183.714 212.095 185.672 213.038 186.694Z" fill="white"/>
<path d="M347.549 311.659C346.317 310.01 344.114 309.373 342.17 310.068C338.755 311.292 335.599 313.404 333.078 316.375C328.96 321.226 327.372 327.378 328.18 333.232C328.209 333.435 328.229 333.637 328.238 333.84C328.238 334.042 328.286 334.37 328.469 334.746C329.393 336.723 332.414 336.212 332.731 334.052C334.184 324.225 341.988 318.93 346.375 316.693C348.213 315.758 348.829 313.395 347.607 311.736C347.587 311.707 347.568 311.678 347.549 311.659Z" fill="white"/>
<path d="M191.371 231.894C192.083 231.845 192.699 231.315 192.843 230.64C192.978 230.023 192.68 229.444 192.112 229.193C189.235 227.94 180.114 224.902 169.857 231.296C164.911 234.382 161.65 239.078 160.332 244.045C158.811 249.764 167.182 251.799 169.761 246.35C169.799 246.263 169.838 246.176 169.886 246.089C175.62 233.986 187.542 232.164 191.381 231.894" fill="white"/>
<path d="M315.145 380.479C315.136 375.975 312.086 372.069 307.746 370.893C307.66 370.873 307.573 370.844 307.486 370.815C307.217 370.738 306.938 370.651 306.678 370.574C306.418 370.497 306.168 370.41 305.918 370.314C305.697 370.237 305.466 370.15 305.245 370.063C304.946 369.947 304.648 369.822 304.359 369.687C304.186 369.61 304.013 369.542 303.849 369.465C303.397 369.253 302.945 369.022 302.522 368.781L296.027 365.048L295.806 364.923L295.594 364.798L293.14 363.39L292.833 363.216L292.525 363.042L277.775 354.565L277.563 354.45L277.351 354.334L254.702 341.324L254.394 341.151L254.086 340.977L232.908 328.807L232.677 328.672L232.456 328.546L205.804 313.232C205.371 312.981 204.967 312.721 204.572 312.451C204.553 312.441 204.534 312.422 204.515 312.412C204.495 312.402 204.476 312.383 204.457 312.373C204.101 312.123 203.764 311.853 203.447 311.583C203.437 311.573 203.427 311.563 203.408 311.554C203.408 311.554 203.399 311.554 203.389 311.544C203.052 311.255 202.735 310.946 202.446 310.638C202.436 310.618 202.417 310.609 202.407 310.599C201.83 309.866 200.647 310.223 200.656 311.178L200.935 431.755C200.935 434.571 202.85 437.223 206.324 439.219L242.655 460.098L303.032 494.797C303.493 495.057 303.975 495.308 304.465 495.54C304.542 495.578 304.629 495.607 304.706 495.646C305.129 495.839 305.552 496.022 306.005 496.186C306.062 496.205 306.12 496.224 306.178 496.244C306.659 496.417 307.14 496.581 307.64 496.726H307.66C308.237 496.899 308.824 497.035 309.42 497.17C312.547 497.806 315.482 495.385 315.472 492.164L315.222 406.199L315.145 380.517V380.479Z" fill="white"/>
<path d="M270.113 270.915L270.007 270.722L265.648 262.92L265.543 262.727L265.437 262.525L263.493 259.034C262.82 257.818 261.213 256.43 259.914 255.938L237.235 247.307C237.033 247.229 236.87 247.191 236.725 247.172C236.668 247.172 236.61 247.152 236.562 247.152C236.543 247.152 236.514 247.152 236.504 247.152C236.504 247.152 236.504 247.152 236.495 247.152C236.321 247.152 236.206 247.201 236.148 247.268C236.033 247.403 236.033 247.75 236.36 248.339L248.204 269.565C248.579 270.249 249.263 270.982 250.013 271.58C250.08 271.629 250.138 271.686 250.196 271.725C250.263 271.773 250.321 271.821 250.388 271.87C250.85 272.207 251.331 272.477 251.774 272.651L260.838 276.103L261.107 276.209L261.376 276.315L274.452 281.292C275.078 281.533 275.424 281.475 275.54 281.34C275.597 281.272 275.626 281.157 275.597 280.973C275.588 280.935 275.578 280.896 275.568 280.858C275.568 280.809 275.549 280.771 275.53 280.723C275.482 280.588 275.424 280.443 275.328 280.26L270.228 271.117L270.123 270.925L270.113 270.915Z" fill="white"/>
<path d="M286.481 266.304L309.362 274.395C310.67 274.858 312.787 274.839 314.086 274.347L329.202 268.667L329.587 268.522L329.635 268.503L336.813 265.802C337.448 265.561 337.669 265.291 337.669 265.118C337.669 265.031 337.611 264.925 337.486 264.819C337.351 264.693 337.14 264.568 336.803 264.452L325.228 260.363L325.18 260.344L324.583 260.132L313.913 256.361C313.278 256.139 312.46 256.023 311.642 256.023C310.757 256.023 309.862 256.149 309.189 256.409L286.472 264.954C286.145 265.079 285.933 265.214 285.798 265.33C285.673 265.446 285.625 265.552 285.625 265.638C285.625 265.812 285.856 266.082 286.491 266.304" fill="white"/>
<path d="M464.231 446.384L430.536 427.019L430.257 304.744C430.257 304.744 430.257 304.734 430.257 304.725C430.257 304.725 430.257 304.715 430.257 304.706C430.257 304.561 430.228 304.426 430.219 304.281C430.199 304.108 430.199 303.934 430.17 303.76C430.151 303.664 430.142 303.568 430.122 303.471C430.113 303.404 430.084 303.346 430.074 303.288C430.026 303.076 429.978 302.873 429.911 302.661C429.863 302.526 429.814 302.391 429.757 302.256C429.699 302.111 429.641 301.976 429.574 301.841C429.564 301.812 429.555 301.783 429.535 301.754C429.458 301.591 429.381 301.436 429.285 301.282C429.237 301.205 429.189 301.118 429.131 301.041C429.131 301.041 429.131 301.041 429.122 301.031C428.91 300.694 428.679 300.366 428.419 300.048C428.39 300.019 428.362 299.98 428.342 299.951C428.333 299.932 428.313 299.922 428.304 299.903C428.14 299.71 427.977 299.527 427.794 299.344C427.727 299.266 427.64 299.199 427.573 299.131C427.515 299.073 427.457 299.016 427.399 298.967C427.332 298.9 427.274 298.842 427.197 298.775C427.149 298.726 427.091 298.688 427.043 298.64C426.88 298.505 426.716 298.36 426.553 298.225C426.456 298.148 426.351 298.061 426.245 297.984C426.062 297.849 425.87 297.714 425.677 297.579C425.542 297.482 425.398 297.395 425.254 297.309C425.177 297.26 425.109 297.212 425.023 297.164C425.004 297.154 424.994 297.145 424.975 297.135C424.859 297.068 424.763 296.99 424.648 296.933L327.939 241.364C327.468 241.094 326.968 240.834 326.448 240.593C326.294 240.516 326.121 240.458 325.967 240.39C325.601 240.236 325.236 240.072 324.851 239.928C324.639 239.85 324.418 239.783 324.206 239.706C323.87 239.59 323.523 239.474 323.167 239.368C322.917 239.291 322.657 239.233 322.397 239.166C322.08 239.079 321.753 239.002 321.426 238.925C321.137 238.857 320.839 238.809 320.54 238.751C320.232 238.693 319.934 238.635 319.626 238.587C319.309 238.539 318.982 238.491 318.655 238.452C318.366 238.413 318.068 238.385 317.769 238.356C317.433 238.327 317.096 238.298 316.759 238.278C316.461 238.259 316.162 238.25 315.864 238.24C315.527 238.23 315.191 238.221 314.854 238.211C314.527 238.211 314.19 238.221 313.853 238.23C313.593 238.23 313.343 238.23 313.084 238.25L312.728 238.269C308.59 238.539 304.578 239.59 301.432 241.432L265.831 262.311L263.888 258.83C263.734 258.55 263.512 258.251 263.281 257.962C262.425 256.93 261.155 255.936 260.077 255.531L237.399 246.9C237.014 246.755 236.716 246.707 236.485 246.707C235.224 246.591 233.81 247.093 233.021 248.009L215.394 268.493C214.403 269.65 214.201 271.666 214.942 272.996L222.995 287.433L205.695 297.579C203.03 299.141 201.269 301.089 200.567 303.22C200.509 303.394 200.48 303.577 200.432 303.751C200.384 303.924 200.326 304.108 200.298 304.291C200.249 304.609 200.221 304.927 200.221 305.246C200.221 305.284 200.211 305.332 200.211 305.371V305.4L200.5 431.744C200.5 434.734 202.501 437.521 206.119 439.604L245.366 462.161C245.462 462.219 245.539 462.277 245.645 462.335L342.353 517.903C349.646 522.098 361.404 522.059 368.63 517.826L464.376 461.669C471.592 457.436 471.534 450.608 464.241 446.413M236.148 247.257C236.206 247.189 236.321 247.141 236.495 247.141C236.514 247.141 236.533 247.141 236.552 247.141C236.6 247.141 236.658 247.151 236.716 247.16C236.86 247.18 237.024 247.218 237.226 247.295L259.904 255.927C261.203 256.419 262.81 257.807 263.483 259.022L265.427 262.504L265.533 262.697L265.639 262.89L269.997 270.692L270.103 270.894L270.209 271.087L275.309 280.229C275.405 280.403 275.472 280.557 275.511 280.692C275.53 280.74 275.54 280.789 275.549 280.837C275.559 280.875 275.568 280.914 275.578 280.953C275.597 281.126 275.578 281.252 275.52 281.319C275.405 281.454 275.058 281.512 274.433 281.271L261.357 276.295L261.088 276.189L260.818 276.082L251.755 272.63C251.312 272.466 250.831 272.186 250.369 271.849C250.302 271.801 250.234 271.762 250.177 271.704C250.109 271.656 250.052 271.608 249.994 271.559C249.243 270.962 248.57 270.229 248.185 269.544L236.341 248.318C236.013 247.729 236.013 247.382 236.129 247.247M286.922 346.724L286.835 346.502L286.749 346.28L283.67 338.044C283.189 336.752 283.641 334.978 284.69 334.081L292.204 327.648L292.387 327.494L292.57 327.34L303.529 317.956C304.01 317.542 304.539 317.387 305.021 317.513C305.502 317.638 305.896 318.033 306.117 318.622L315.778 344.496C316.259 345.788 315.797 347.563 314.758 348.46L303.539 358.075L287.769 349.01L286.922 346.743V346.724ZM287.153 348.633L285.681 347.785L285.469 347.669L285.257 347.553L265.177 336.019L279.879 335.884H279.908C281.274 335.884 282.775 336.916 283.256 338.199L286.393 346.589L286.479 346.811L286.566 347.033L287.163 348.633H287.153ZM314.402 306.605C313.824 306.827 313.286 306.789 312.881 306.509C312.477 306.229 312.256 305.737 312.246 305.12L311.977 278.069C311.967 276.738 312.997 275.234 314.238 274.771L329.412 269.062L329.787 268.917L329.835 268.898L336.955 266.226C337.205 266.13 337.455 266.082 337.677 266.082C337.975 266.082 338.244 266.159 338.475 266.313C338.774 266.516 338.976 266.844 339.062 267.258C339.091 267.403 339.11 267.557 339.11 267.702L339.293 286.353V286.546L339.303 287.318L339.38 294.753C339.389 296.074 338.36 297.588 337.119 298.051L314.402 306.596V306.605ZM330.076 315.304C335.127 309.344 342.353 306.306 349.598 306.355C349.713 306.355 349.839 306.355 349.954 306.355C350.002 306.355 350.06 306.355 350.118 306.355C355.708 306.499 361.288 308.486 365.868 312.392C371.401 317.108 374.403 323.694 374.759 330.445L365.955 335.605L365.782 335.711L365.57 335.836L335.82 353.282C334.829 352.655 333.876 351.951 332.962 351.179C331.095 349.588 329.508 347.775 328.228 345.817C322.166 336.607 322.59 324.109 330.066 315.295M370.987 317.513C369.679 315.516 368.062 313.684 366.167 312.064C361.433 308.033 355.65 306.007 349.877 305.911L339.755 287.221L339.563 267.712C339.553 266.496 338.793 265.204 337.754 264.471C337.58 264.317 337.321 264.163 336.936 264.028L324.889 259.765L323.716 257.605C322.34 254.557 324.861 251.751 327.939 252.629L413.775 301.947C415.084 302.7 415.796 303.693 415.805 304.744C415.815 305.795 415.103 306.798 413.794 307.56L375.182 330.204C374.903 325.739 373.508 321.341 370.978 317.503M324.572 260.131L325.168 260.344L325.207 260.363L336.782 264.452C337.119 264.568 337.33 264.703 337.465 264.818C337.59 264.925 337.648 265.031 337.648 265.117C337.648 265.291 337.427 265.561 336.791 265.802L329.614 268.502L329.566 268.522L329.19 268.666L314.075 274.347C312.776 274.838 310.659 274.858 309.35 274.395L286.47 266.304C285.835 266.082 285.604 265.812 285.604 265.638C285.604 265.551 285.662 265.445 285.777 265.33C285.912 265.204 286.123 265.069 286.451 264.953L309.167 256.409C309.841 256.158 310.736 256.033 311.621 256.033C312.449 256.033 313.266 256.139 313.892 256.37L324.562 260.141L324.572 260.131ZM285.642 266.603C285.864 266.603 286.095 266.641 286.335 266.728L309.216 274.819C310.466 275.263 311.525 276.758 311.534 278.079L311.804 305.13C311.804 305.747 311.592 306.239 311.198 306.528C310.794 306.818 310.264 306.856 309.677 306.654L286.797 298.562C285.527 298.109 284.488 296.653 284.468 295.303L284.199 268.252C284.199 268.107 284.218 267.962 284.238 267.808C284.315 267.393 284.507 267.065 284.805 266.853C285.036 266.689 285.315 266.603 285.623 266.603M288.009 316.413H288.25H288.49L302.74 316.278H302.779C303.443 316.278 303.75 316.452 303.808 316.625C303.876 316.799 303.75 317.136 303.231 317.59L292.397 326.867L292.214 327.021L292.031 327.176L284.401 333.714C283.323 334.64 281.293 335.402 279.879 335.412L264.407 335.556L257.701 331.699L273.452 318.197C274.529 317.271 276.559 316.51 277.974 316.5L288.019 316.404L288.009 316.413ZM257.306 304.715C256.44 305.718 254.67 306.171 253.429 305.699L230.75 297.068C230.173 296.846 229.798 296.47 229.673 295.997C229.567 295.582 229.682 295.139 229.981 294.724C230.019 294.666 230.058 294.599 230.106 294.541L230.375 294.223L230.827 293.692L247.733 274.057C248.368 273.315 249.465 272.881 250.494 272.881C250.879 272.881 251.264 272.939 251.61 273.074L260.337 276.391L260.607 276.497L260.876 276.603L274.289 281.705C274.866 281.927 275.241 282.303 275.366 282.785C275.453 283.113 275.395 283.46 275.222 283.788C275.145 283.942 275.049 284.097 274.924 284.241L257.297 304.725L257.306 304.715ZM215.327 272.755C214.672 271.579 214.855 269.795 215.731 268.772L233.358 248.289C233.473 248.154 233.618 248.048 233.752 247.932C234.022 247.739 234.31 247.633 234.599 247.633C234.647 247.633 234.686 247.633 234.734 247.633C235.224 247.681 235.657 248.009 235.956 248.54L247.8 269.766C248.272 270.624 248.31 271.791 247.954 272.755C247.906 272.871 247.858 272.987 247.8 273.103C247.8 273.103 247.8 273.103 247.8 273.112C247.733 273.247 247.656 273.373 247.569 273.498C247.511 273.575 247.463 273.662 247.406 273.729L229.779 294.213C229.711 294.29 229.644 294.348 229.576 294.415C229.365 294.608 229.143 294.734 228.913 294.801C228.749 294.849 228.576 294.878 228.403 294.859C227.912 294.811 227.479 294.483 227.181 293.953L223.611 287.559L223.505 287.366L223.399 287.163L215.346 272.736L215.327 272.755ZM200.654 305.352C200.654 305.265 200.673 305.168 200.673 305.082C200.682 304.831 200.692 304.571 200.731 304.32C201.125 301.918 202.924 299.681 205.907 297.936L223.207 287.79L226.767 294.184C227.007 294.608 227.354 295.052 227.758 295.476L216.414 302.131C214.971 302.979 214.182 304.117 214.182 305.332C214.182 306.557 214.99 307.685 216.443 308.515L238.631 321.264L238.842 321.38L239.054 321.496L256.912 331.757L257.124 331.872L257.335 331.988L263.512 335.537L263.897 335.759L264.282 335.981L284.892 347.823L285.104 347.939L285.315 348.055L287.403 349.251L287.711 349.424L288.019 349.598L303.183 358.306L303.394 358.422L303.606 358.538L310.476 362.492C311.919 363.321 313.805 363.736 315.701 363.736C317.596 363.736 319.569 363.302 321.031 362.443L335.829 353.764L336.051 353.629L336.272 353.494L365.801 336.174L366.013 336.048L366.196 335.942L374.807 330.889L375.038 330.754L375.24 330.638L414.054 307.878C415.497 307.03 416.286 305.892 416.286 304.677C416.286 303.645 415.699 302.68 414.651 301.899C414.458 301.754 414.256 301.619 414.025 301.484L320.021 247.469C319.367 247.093 318.616 246.823 317.827 246.611C317.635 246.563 317.442 246.514 317.24 246.476C314.604 245.945 311.563 246.283 309.466 247.517L270.43 270.412L266.081 262.61L301.691 241.721C302.144 241.461 302.605 241.21 303.087 240.979C303.298 240.882 303.52 240.796 303.731 240.699C304.01 240.574 304.289 240.448 304.578 240.333C304.828 240.236 305.097 240.159 305.348 240.063C305.617 239.976 305.867 239.87 306.146 239.793C306.435 239.706 306.724 239.638 307.022 239.551C307.282 239.484 307.522 239.407 307.782 239.349C308.09 239.272 308.407 239.224 308.715 239.156C308.965 239.108 309.216 239.05 309.466 239.002C309.783 238.944 310.11 238.905 310.438 238.857C310.688 238.819 310.938 238.78 311.198 238.751C311.534 238.712 311.862 238.693 312.198 238.664C312.448 238.645 312.699 238.616 312.949 238.597C312.958 238.597 312.968 238.597 312.987 238.597C313.151 238.587 313.324 238.597 313.497 238.577C313.613 238.577 313.728 238.577 313.844 238.568C313.882 238.568 313.911 238.568 313.949 238.568C314.209 238.568 314.469 238.548 314.738 238.548C314.892 238.548 315.056 238.548 315.21 238.558C315.412 238.558 315.614 238.558 315.816 238.577C316.037 238.577 316.268 238.577 316.499 238.597C316.692 238.597 316.884 238.626 317.086 238.645C317.259 238.655 317.423 238.674 317.596 238.683C317.635 238.683 317.683 238.683 317.721 238.683C317.894 238.703 318.077 238.712 318.25 238.732C318.491 238.761 318.722 238.799 318.953 238.828C319.078 238.847 319.213 238.867 319.338 238.886C319.405 238.896 319.482 238.905 319.549 238.915C319.684 238.934 319.828 238.954 319.963 238.973C320.242 239.021 320.521 239.079 320.8 239.137C320.877 239.156 320.954 239.166 321.021 239.185C321.118 239.204 321.224 239.224 321.329 239.243C321.435 239.262 321.541 239.281 321.647 239.31C321.974 239.387 322.292 239.474 322.609 239.561C322.628 239.561 322.657 239.571 322.676 239.58C322.801 239.619 322.936 239.648 323.061 239.677C323.138 239.696 323.206 239.715 323.283 239.735C323.629 239.841 323.956 239.956 324.293 240.082C324.302 240.082 324.322 240.082 324.331 240.092C324.456 240.14 324.591 240.178 324.716 240.227C324.755 240.246 324.803 240.255 324.851 240.275C325.207 240.41 325.553 240.564 325.9 240.718C325.919 240.718 325.948 240.738 325.967 240.747C326.073 240.796 326.188 240.834 326.294 240.882C326.313 240.882 326.333 240.902 326.342 240.902C326.823 241.123 327.295 241.374 327.737 241.625L424.446 297.193C424.561 297.26 424.657 297.338 424.773 297.405C424.84 297.444 424.907 297.492 424.975 297.53C425.129 297.627 425.283 297.714 425.427 297.82C425.619 297.945 425.802 298.08 425.975 298.206C426.081 298.283 426.187 298.36 426.283 298.447C426.928 298.958 427.496 299.488 427.967 300.048C427.977 300.057 427.986 300.076 427.996 300.086C428.025 300.115 428.044 300.144 428.073 300.173C428.333 300.491 428.564 300.809 428.756 301.128C428.756 301.128 428.756 301.137 428.766 301.147C428.804 301.214 428.852 301.282 428.9 301.359C428.987 301.513 429.064 301.668 429.141 301.822C429.189 301.909 429.218 302.005 429.256 302.092C429.285 302.16 429.314 302.217 429.343 302.285C429.401 302.42 429.449 302.555 429.497 302.69C429.584 302.941 429.641 303.191 429.699 303.442C429.718 303.539 429.728 303.625 429.747 303.722C429.747 303.76 429.747 303.799 429.757 303.828C429.795 304.088 429.824 304.339 429.824 304.599C429.824 304.599 429.824 304.609 429.824 304.619C429.824 304.831 429.795 305.043 429.776 305.255C429.766 305.39 429.766 305.535 429.737 305.67C429.689 305.959 429.612 306.249 429.516 306.538C429.497 306.586 429.497 306.634 429.478 306.683C429.458 306.731 429.439 306.769 429.42 306.818C429.42 306.818 429.42 306.827 429.42 306.837C429.333 307.078 429.237 307.309 429.122 307.541C429.122 307.541 429.122 307.55 429.122 307.56C429.064 307.676 429.006 307.782 428.939 307.888C428.843 308.062 428.737 308.235 428.621 308.399C428.621 308.399 428.621 308.418 428.612 308.418C428.535 308.534 428.467 308.65 428.381 308.756C428.236 308.949 428.083 309.132 427.929 309.315C427.919 309.335 427.9 309.344 427.89 309.364C427.765 309.508 427.63 309.643 427.496 309.778C427.332 309.942 427.168 310.106 426.995 310.27C426.861 310.395 426.716 310.511 426.572 310.637C426.437 310.752 426.283 310.868 426.139 310.974C426.129 310.984 426.12 310.993 426.1 311.003C425.937 311.128 425.773 311.254 425.6 311.369C425.427 311.485 425.244 311.601 425.061 311.717C424.907 311.813 424.763 311.91 424.599 312.006L373.046 342.24L372.738 342.423L372.392 342.625L370.487 343.744L370.294 343.86L370.102 343.975L347.78 357.062L347.452 357.255L347.106 357.458L328.854 368.162C328.026 368.644 327.141 369.069 326.208 369.445C319.992 371.933 311.717 371.952 305.463 369.503C304.53 369.136 303.635 368.722 302.808 368.249L296.476 364.613L296.265 364.498L296.053 364.382L292.936 362.588L292.628 362.415L292.32 362.241L278.195 354.121L277.983 354.005L277.772 353.889L254.506 340.513L254.198 340.34L253.891 340.166L232.973 328.15L232.761 328.024L232.55 327.909L206.09 312.7C205.811 312.536 205.551 312.372 205.291 312.199C205.291 312.199 205.282 312.199 205.272 312.189C205.185 312.131 205.089 312.073 205.003 312.016C204.781 311.861 204.579 311.707 204.368 311.543C204.242 311.447 204.108 311.35 203.983 311.244C203.79 311.09 203.617 310.926 203.453 310.772C203.338 310.665 203.223 310.559 203.107 310.444C202.944 310.28 202.79 310.116 202.645 309.942C202.549 309.826 202.453 309.72 202.366 309.605C202.232 309.431 202.097 309.257 201.972 309.084C201.904 308.978 201.837 308.872 201.779 308.766C201.779 308.766 201.779 308.766 201.77 308.756C201.654 308.573 201.539 308.38 201.443 308.197C201.394 308.11 201.366 308.013 201.327 307.917C201.327 307.917 201.327 307.917 201.327 307.907C201.106 307.415 200.933 306.914 200.836 306.403C200.836 306.384 200.827 306.355 200.817 306.335C200.779 306.133 200.779 305.921 200.759 305.718C200.75 305.573 200.721 305.429 200.721 305.284M309.427 497.13C308.831 496.995 308.244 496.85 307.666 496.686H307.647C307.147 496.542 306.666 496.378 306.185 496.204C306.127 496.185 306.069 496.166 306.012 496.146C305.569 495.982 305.136 495.799 304.722 495.606C304.645 495.568 304.559 495.539 304.482 495.5C303.991 495.269 303.51 495.028 303.048 494.758L242.672 460.059L206.34 439.18C202.867 437.184 200.952 434.531 200.952 431.715L200.673 311.138C200.673 310.183 201.856 309.826 202.424 310.559C202.434 310.579 202.453 310.579 202.462 310.598C202.751 310.907 203.069 311.215 203.405 311.504C203.405 311.504 203.415 311.504 203.425 311.514C203.434 311.524 203.444 311.533 203.453 311.543C203.771 311.813 204.108 312.073 204.464 312.334C204.483 312.343 204.502 312.363 204.521 312.372C204.541 312.382 204.56 312.401 204.579 312.411C204.964 312.681 205.368 312.941 205.811 313.192L232.463 328.507L232.684 328.632L232.915 328.767L254.093 340.938L254.401 341.111L254.708 341.285L277.358 354.294L277.57 354.41L277.781 354.526L292.531 363.003L292.839 363.176L293.147 363.35L295.601 364.758L295.813 364.883L296.034 365.009L302.528 368.741C302.952 368.992 303.404 369.213 303.856 369.426C304.02 369.503 304.193 369.57 304.366 369.647C304.655 369.773 304.953 369.908 305.251 370.024C305.473 370.11 305.704 370.187 305.925 370.274C306.175 370.361 306.425 370.448 306.685 370.535C306.954 370.621 307.224 370.699 307.493 370.776C307.58 370.805 307.666 370.834 307.753 370.853C312.092 372.029 315.133 375.935 315.152 380.439L315.229 406.121L315.479 492.096C315.489 495.307 312.554 497.737 309.427 497.091M424.84 438.514L329.094 494.671C328.651 494.931 328.19 495.172 327.718 495.404C327.718 495.404 327.699 495.404 327.699 495.413C327.516 495.5 325.399 496.532 323.138 497.178C322.609 497.332 322.08 497.371 321.551 497.332C318.606 497.149 315.941 494.266 315.932 491.17L315.681 405.88L315.604 379.754C315.595 375.607 318.481 371.981 322.542 371.181C324.36 370.824 326.188 370.284 327.535 369.474C327.564 369.455 327.593 369.455 327.622 369.435C328.113 369.204 328.584 368.953 329.036 368.683L347.866 357.641L348.232 357.429L348.588 357.216L371.969 343.503L372.334 343.291L372.69 343.088L424.782 312.536C425.215 312.286 425.61 312.016 425.985 311.746C426.014 311.726 426.043 311.707 426.072 311.688C426.437 311.427 426.774 311.157 427.091 310.878C427.101 310.878 427.111 310.858 427.12 310.858C427.447 310.569 427.755 310.27 428.034 309.961C428.034 309.961 428.063 309.923 428.083 309.913C428.083 309.913 428.092 309.913 428.102 309.904C428.698 309.248 429.795 309.634 429.795 310.53L430.065 426.797V431.156C430.074 433.934 428.208 436.557 424.811 438.553" fill="black"/>
<path d="M415.64 179.644C415.14 178.583 414.495 177.474 413.735 176.346C410.878 172.074 406.481 167.657 402.747 165.506L336.242 127.288L328.131 122.62C325.812 121.289 324.042 121.009 323.156 121.829C323.041 121.935 322.945 122.061 322.858 122.196C322.29 123.17 322.541 124.905 323.609 127.172L361.682 208.209C361.826 208.528 361.99 208.846 362.163 209.174C362.182 209.212 362.201 209.241 362.221 209.28C363.404 211.479 365.155 213.88 367.243 216.175L367.407 216.349C369.697 218.827 372.256 221.026 374.565 222.347L449.191 265.224C450.635 266.053 451.866 266.478 452.809 266.478C453.377 266.478 453.839 266.323 454.166 266.015C455.09 265.156 454.926 263.266 453.714 260.672L415.64 179.635V179.644ZM368.292 201.536L332.701 125.783L345.7 133.247L346.066 133.46L346.431 133.672L402.536 165.911C402.949 166.152 403.382 166.432 403.815 166.721C403.902 166.779 403.988 166.837 404.075 166.895C404.508 167.194 404.931 167.512 405.364 167.859C405.413 167.898 405.461 167.946 405.509 167.985C405.932 168.322 406.355 168.689 406.779 169.065C406.817 169.103 406.865 169.142 406.904 169.171C407.356 169.576 407.808 170 408.251 170.444C408.299 170.492 408.338 170.531 408.386 170.579C409.3 171.495 410.185 172.459 411.012 173.462C411.032 173.491 411.061 173.511 411.08 173.54C411.936 174.571 412.725 175.623 413.418 176.674C413.764 177.185 414.072 177.696 414.37 178.207C414.409 178.265 414.438 178.323 414.476 178.39C414.755 178.882 415.015 179.374 415.236 179.847L450.827 255.599L380.993 215.471C378.78 214.198 376.336 212.115 374.113 209.743C374.065 209.685 374.007 209.637 373.959 209.579C373.911 209.521 373.853 209.473 373.805 209.415C371.496 206.888 369.466 204.053 368.282 201.536M453.868 265.697C453.146 266.362 451.529 266.053 449.422 264.848L374.796 221.971C373.603 221.286 372.343 220.361 371.082 219.281C369.177 217.651 369.052 214.738 370.832 212.973C372.429 211.401 374.96 211.344 376.644 212.829C378.039 214.054 379.443 215.095 380.762 215.857L451.154 256.313L453.3 260.884C454.406 263.247 454.608 265.002 453.858 265.697" fill="black"/>
<path d="M227.632 144.539L229.431 155.784C229.633 157.028 230.48 158.446 231.519 159.401C231.865 159.719 232.231 159.989 232.606 160.182L256.468 172.565C256.709 172.69 256.939 172.767 257.161 172.825C257.449 172.902 257.748 172.941 258.056 172.941C258.825 172.941 259.595 172.68 260.23 172.237C260.297 172.188 260.374 172.16 260.432 172.111C260.442 172.102 260.461 172.092 260.471 172.082C260.663 171.928 260.855 171.735 261.038 171.475L276.241 150.152C277.203 148.802 277.78 146.362 277.511 144.723L275.711 133.478C275.683 133.314 275.634 133.14 275.586 132.967C275.153 131.433 273.874 129.775 272.536 129.08L248.674 116.698C248.289 116.495 247.876 116.379 247.462 116.341C246.192 116.206 244.855 116.746 244.104 117.797L228.902 139.12C228.016 140.354 227.478 142.495 227.584 144.115C227.593 144.269 227.603 144.414 227.622 144.559M274.624 132.379C274.845 132.427 275.038 132.677 275.163 133.054C275.211 133.218 275.25 133.381 275.278 133.536L277.078 144.781C277.107 144.973 277.126 145.176 277.135 145.388C277.184 146.873 276.674 148.763 275.885 149.873L260.682 171.195C260.567 171.359 260.442 171.494 260.317 171.61C260.307 171.619 260.297 171.629 260.288 171.639C260.211 171.706 260.134 171.754 260.057 171.822C259.884 171.928 259.72 171.976 259.585 171.938C259.278 171.861 259.037 171.446 258.931 170.78L257.132 159.526C256.882 157.983 257.421 155.697 258.325 154.424L273.537 133.102C273.922 132.562 274.316 132.282 274.634 132.359M229.277 139.37L244.479 118.048C244.614 117.864 244.768 117.701 244.941 117.556C244.989 117.508 245.047 117.469 245.095 117.43C245.23 117.324 245.374 117.238 245.518 117.16C245.576 117.132 245.634 117.093 245.692 117.074C245.894 116.977 246.105 116.9 246.317 116.852C246.346 116.852 246.384 116.852 246.413 116.833C246.606 116.794 246.798 116.775 246.991 116.765C247.068 116.765 247.135 116.765 247.202 116.765C247.356 116.765 247.51 116.784 247.664 116.813C247.731 116.823 247.799 116.833 247.857 116.852C248.068 116.91 248.27 116.977 248.472 117.074L272.334 129.456C272.334 129.456 272.363 129.476 272.382 129.485C272.527 129.562 272.661 129.649 272.786 129.755C273.171 130.074 273.441 130.488 273.556 130.961C273.71 131.607 273.566 132.272 273.152 132.851L257.95 154.174C257.074 155.398 255.284 155.832 253.947 155.138L230.085 142.755C229.46 142.427 229.027 141.897 228.873 141.251C228.719 140.614 228.863 139.939 229.277 139.361M228.421 143.045C228.555 142.948 228.738 142.89 228.94 142.89C229.21 142.89 229.537 142.987 229.883 143.16L253.745 155.543C255.092 156.247 256.439 158.108 256.68 159.613L258.479 170.867C258.585 171.533 258.46 172.053 258.133 172.295C257.959 172.42 257.728 172.458 257.449 172.43C257.353 172.42 257.257 172.401 257.151 172.362C256.988 172.314 256.824 172.246 256.67 172.169L232.808 159.786C231.461 159.082 230.114 157.221 229.873 155.717L228.074 144.462C227.968 143.797 228.093 143.276 228.421 143.035" fill="black"/>
<path d="M183.052 199.541L199.554 217.363C200.275 218.134 201.449 218.578 202.565 218.578C203.056 218.578 203.537 218.491 203.97 218.308L228.842 207.796C229.958 207.323 230.863 206.127 231.142 204.893C231.219 204.671 231.257 204.372 231.238 203.967L230.026 179.684C229.949 178.208 229.073 176.116 228.072 175.036L211.571 157.214C211.292 156.915 211.042 156.731 210.83 156.635C209.753 155.979 208.271 155.796 207.155 156.269L182.292 166.78C180.887 167.369 179.81 169.095 179.887 170.609L181.099 194.892C181.176 196.368 182.052 198.461 183.052 199.541ZM229.698 206.262C229.621 206.619 229.4 206.928 229.054 207.169C228.929 207.246 228.794 207.323 228.669 207.381L203.797 217.893C203.729 217.922 203.643 217.941 203.566 217.961C202.998 218.144 202.353 218.163 201.718 218.028C201.006 217.874 200.333 217.536 199.881 217.054L183.379 199.232C182.956 198.779 182.783 198.268 182.889 197.786C182.995 197.303 183.36 196.908 183.928 196.667L208.8 186.155C209.166 186.001 209.589 185.924 210.022 185.924C211.023 185.924 212.081 186.319 212.706 186.994L229.208 204.816C229.621 205.269 229.804 205.78 229.698 206.262ZM210.272 156.982C210.349 156.944 210.474 156.953 210.628 157.03C210.628 157.03 210.647 157.03 210.647 157.04C210.667 157.04 210.686 157.069 210.695 157.079C210.849 157.165 211.013 157.291 211.215 157.513L227.716 175.335C228.659 176.357 229.487 178.314 229.554 179.703L230.766 203.987C230.786 204.334 230.747 204.584 230.689 204.758C230.632 204.912 230.555 205.009 230.478 205.038C230.314 205.096 229.977 204.999 229.525 204.507L213.024 186.685C212.081 185.673 211.254 183.705 211.186 182.317L209.974 158.033C209.945 157.358 210.099 157.05 210.263 156.982M182.456 167.185L207.318 156.674C207.463 156.616 207.617 156.577 207.78 156.539C207.886 156.519 208.001 156.5 208.107 156.5C208.377 156.5 208.627 156.568 208.848 156.703C209.262 156.963 209.502 157.445 209.541 158.062L210.753 182.346C210.821 183.667 209.849 185.22 208.627 185.74L183.755 196.252C183.187 196.493 182.648 196.484 182.234 196.223C181.821 195.963 181.58 195.481 181.542 194.863L180.329 170.58C180.262 169.23 181.214 167.716 182.456 167.185Z" fill="black"/>
<path d="M243.417 199.058C239.857 205.538 239.039 213.022 241.089 220.13C243.148 227.237 247.843 233.11 254.319 236.678C258.456 238.954 263.007 240.121 267.597 240.121C270.185 240.121 272.792 239.755 275.342 239.012C282.433 236.948 288.293 232.242 291.853 225.762C299.194 212.376 294.307 195.499 280.952 188.131C267.597 180.763 250.759 185.672 243.417 199.058ZM280.634 207.641C282.818 227.787 270.406 238.511 264.845 239.523C261.275 239.157 257.783 238.067 254.54 236.283C248.18 232.773 243.562 226.996 241.531 220.004C239.501 213.012 240.319 205.654 243.821 199.27C251.038 186.116 267.577 181.294 280.711 188.507C278.267 191.449 279.287 195.171 280.634 207.641Z" fill="black"/>
<path d="M190.348 276.845C192.792 276.131 195.178 275.07 197.429 273.634C210.303 265.456 214.133 248.299 205.973 235.405C202.019 229.156 195.871 224.826 188.673 223.206C181.467 221.585 174.068 222.878 167.833 226.841C154.959 235.019 151.129 252.176 159.289 265.079C166.024 275.717 178.84 280.201 190.348 276.845ZM168.073 227.227C180.736 219.175 197.574 222.955 205.598 235.646C213.623 248.338 209.861 265.205 197.198 273.257C184.536 281.31 167.708 277.53 159.674 264.838C151.649 252.147 155.411 235.28 168.073 227.227Z" fill="black"/>
<path d="M445.6 154.822C445.398 154.397 445.186 153.973 444.955 153.539C444.849 153.336 444.724 153.134 444.609 152.922C444.483 152.69 444.358 152.468 444.214 152.227C444.041 151.938 443.858 151.649 443.675 151.35C443.589 151.205 443.492 151.06 443.406 150.916C443.175 150.559 442.934 150.212 442.694 149.855C442.636 149.768 442.578 149.691 442.521 149.604C442.242 149.209 441.953 148.804 441.655 148.408C441.626 148.37 441.597 148.331 441.578 148.293C441.26 147.868 440.933 147.444 440.596 147.02C440.596 147.02 440.587 147 440.577 146.991C439.884 146.123 439.163 145.264 438.412 144.425C438.412 144.425 438.412 144.425 438.403 144.416L438.258 144.252C438.22 144.204 438.172 144.165 438.133 144.117C437.931 143.885 437.719 143.664 437.508 143.442C437.508 143.442 437.498 143.432 437.488 143.422C437.277 143.201 437.065 142.969 436.853 142.747C436.709 142.603 436.574 142.468 436.43 142.323C436.392 142.284 436.353 142.246 436.315 142.207C436.064 141.947 435.805 141.696 435.554 141.445C435.17 141.079 434.794 140.713 434.41 140.365C434.323 140.288 434.236 140.211 434.15 140.134C433.832 139.845 433.515 139.565 433.197 139.295C433.12 139.227 433.034 139.15 432.957 139.083C432.168 138.417 431.379 137.79 430.599 137.231C430.522 137.173 430.445 137.125 430.368 137.067C430.06 136.845 429.753 136.643 429.454 136.44C429.358 136.373 429.262 136.315 429.166 136.247C428.79 136.006 428.425 135.775 428.059 135.572L342.993 86.6971C339.818 84.8744 337.422 84.508 336.249 85.6556L312.002 109.611C312.002 109.611 312.002 109.63 311.992 109.64C310.838 110.807 311.078 113.324 312.685 116.767L355.665 208.239C358.917 215.163 366.798 223.804 373.234 227.498L458.271 276.363C460.234 277.492 461.899 278.061 463.159 278.061C463.91 278.061 464.526 277.858 464.968 277.443C464.978 277.434 464.987 277.415 464.997 277.405C464.997 277.405 465.007 277.405 465.016 277.405L489.263 253.44C490.446 252.283 490.206 249.737 488.58 246.284L445.6 154.812V154.822ZM316.062 106.187L336.576 85.9738C336.691 85.8677 336.816 85.7809 336.961 85.7038C337.009 85.6845 337.057 85.6652 337.095 85.6459C337.201 85.5977 337.326 85.5591 337.451 85.5302C337.499 85.5206 337.557 85.5013 337.615 85.4916C337.798 85.4627 337.98 85.4434 338.183 85.4531C338.183 85.4531 338.183 85.4531 338.192 85.4531C338.462 85.4531 338.75 85.5013 339.058 85.5591C339.154 85.5784 339.26 85.6074 339.356 85.6363C339.578 85.6942 339.809 85.752 340.049 85.8388C340.165 85.8774 340.29 85.9256 340.415 85.9738C340.665 86.0703 340.925 86.1763 341.194 86.3017C341.31 86.3596 341.425 86.4078 341.55 86.4657C341.945 86.6585 342.349 86.8611 342.762 87.1022L427.799 135.968C428.194 136.199 428.598 136.44 429.002 136.71C429.041 136.739 429.089 136.768 429.127 136.797C429.541 137.067 429.964 137.356 430.378 137.665C430.388 137.665 430.397 137.684 430.407 137.694C430.821 137.993 431.234 138.311 431.648 138.639C431.658 138.649 431.677 138.658 431.687 138.668C432.1 138.996 432.514 139.343 432.928 139.69C432.937 139.7 432.947 139.71 432.966 139.719C433.38 140.076 433.794 140.442 434.207 140.819C434.227 140.828 434.236 140.848 434.246 140.857C434.689 141.272 435.141 141.696 435.583 142.13C435.612 142.159 435.641 142.188 435.67 142.217C436.853 143.403 436.825 145.342 435.641 146.528L415.551 166.471C414.656 167.368 413.203 167.339 412.318 166.442C412.289 166.413 412.27 166.394 412.241 166.365C411.173 165.285 410.076 164.253 408.979 163.308C408.96 163.289 408.95 163.279 408.931 163.26C408.373 162.787 407.815 162.334 407.267 161.91C407.084 161.775 406.911 161.64 406.728 161.505C406.343 161.215 405.958 160.945 405.573 160.685C405.477 160.617 405.381 160.55 405.294 160.492C404.794 160.155 404.293 159.846 403.812 159.566L318.785 110.701C318.342 110.44 317.736 110.093 317.044 109.871C315.437 109.36 314.908 107.422 316.11 106.236M465.247 275.794C465.238 275.891 465.228 275.997 465.209 276.084C465.209 276.122 465.18 276.151 465.17 276.19C465.151 276.257 465.122 276.325 465.103 276.383C465.074 276.469 465.045 276.566 465.007 276.643C465.007 276.643 464.997 276.653 464.987 276.662C464.939 276.74 464.891 276.797 464.843 276.865C464.785 276.942 464.728 277.038 464.66 277.106C463.65 278.041 461.398 277.627 458.493 275.958L373.456 227.093C367.086 223.438 359.293 214.884 356.069 208.036L313.089 116.564C311.569 113.324 311.29 110.903 312.339 109.91C312.444 109.804 312.569 109.717 312.714 109.65C312.752 109.63 312.791 109.621 312.829 109.601C312.945 109.553 313.079 109.505 313.214 109.476C313.253 109.466 313.301 109.457 313.339 109.447C313.512 109.418 313.705 109.408 313.907 109.408C313.945 109.408 313.993 109.408 314.032 109.408C314.215 109.408 314.398 109.437 314.59 109.466C314.638 109.466 314.686 109.476 314.734 109.486C314.802 109.495 314.869 109.524 314.936 109.534C315.11 109.572 315.273 109.611 315.456 109.659C315.514 109.678 315.571 109.698 315.639 109.717C315.87 109.794 316.11 109.871 316.36 109.977C316.399 109.997 316.437 110.006 316.466 110.016C316.697 110.112 316.947 110.228 317.188 110.344C317.236 110.373 317.294 110.392 317.342 110.411C317.409 110.44 317.477 110.479 317.544 110.518C317.861 110.672 318.179 110.845 318.506 111.029L403.543 159.894C403.937 160.116 404.332 160.367 404.736 160.627C405.102 160.859 405.458 161.109 405.823 161.379C405.862 161.408 405.9 161.428 405.939 161.457C406.757 162.045 407.574 162.691 408.402 163.385C408.431 163.405 408.46 163.434 408.489 163.453C408.614 163.559 408.729 163.665 408.854 163.771C408.989 163.896 409.133 164.012 409.268 164.138C409.431 164.282 409.605 164.427 409.768 164.581C409.816 164.62 409.855 164.668 409.903 164.706C410.018 164.813 410.124 164.919 410.24 165.025C410.259 165.044 410.278 165.063 410.297 165.083C410.557 165.324 410.817 165.574 411.077 165.825C411.183 165.931 411.298 166.047 411.404 166.153C411.731 166.471 412.049 166.799 412.376 167.137C412.453 167.214 412.52 167.291 412.597 167.368C412.943 167.735 413.29 168.101 413.636 168.487C413.636 168.487 413.636 168.487 413.636 168.497C414.175 169.094 414.704 169.712 415.224 170.329C415.262 170.377 415.301 170.425 415.349 170.474C415.868 171.11 416.378 171.747 416.859 172.393C416.869 172.402 416.879 172.422 416.888 172.431C416.888 172.441 416.908 172.451 416.908 172.46C417.215 172.875 417.523 173.29 417.812 173.714C417.87 173.791 417.918 173.868 417.966 173.945C418.216 174.312 418.466 174.669 418.697 175.035C418.726 175.074 418.745 175.112 418.774 175.151C418.832 175.247 418.89 175.344 418.957 175.44C419.149 175.749 419.342 176.048 419.515 176.347C419.631 176.54 419.727 176.723 419.833 176.916C419.852 176.945 419.871 176.983 419.89 177.012C420.015 177.224 420.14 177.446 420.256 177.658C420.487 178.092 420.708 178.517 420.901 178.941L463.881 270.413C464.073 270.818 464.237 271.204 464.391 271.58C464.468 271.783 464.535 271.966 464.602 272.149C464.66 272.323 464.737 272.496 464.785 272.66C464.843 272.843 464.882 273.017 464.93 273.191C464.939 273.229 464.949 273.268 464.959 273.306C464.987 273.422 465.026 273.547 465.055 273.653C465.084 273.779 465.093 273.885 465.122 274.01C465.132 274.087 465.151 274.174 465.161 274.251C465.18 274.357 465.199 274.464 465.218 274.56C465.228 274.637 465.218 274.705 465.228 274.772C465.228 274.878 465.238 274.975 465.247 275.071C465.247 275.168 465.266 275.264 465.257 275.351C465.257 275.495 465.228 275.621 465.209 275.746M488.946 253.131L468.086 273.827C467.556 274.357 466.7 274.512 466.084 274.087C465.796 273.885 465.565 273.605 465.44 273.248L465.468 273.326C465.42 273.152 465.382 272.969 465.324 272.776C465.305 272.718 465.286 272.66 465.266 272.602C465.17 272.313 465.074 272.014 464.949 271.705C464.92 271.619 464.882 271.532 464.843 271.445C464.689 271.069 464.526 270.673 464.333 270.268L421.353 178.796C421.151 178.372 420.939 177.948 420.708 177.514C420.612 177.34 420.506 177.157 420.41 176.974C420.4 176.954 420.391 176.945 420.381 176.925C420.246 176.684 420.121 176.453 419.977 176.212C419.823 175.951 419.659 175.691 419.496 175.43C419.496 175.421 419.477 175.402 419.477 175.392C419.428 175.315 419.38 175.238 419.332 175.16C419.072 174.746 418.793 174.331 418.514 173.916C418.514 173.916 418.514 173.916 418.514 173.907C418.447 173.81 418.38 173.704 418.312 173.608C418.312 173.608 418.312 173.608 418.303 173.598C417.725 172.769 417.1 171.93 416.455 171.11C416.455 171.11 416.446 171.091 416.436 171.081C416.417 171.062 416.398 171.033 416.378 171.004C416.378 171.004 416.378 171.004 416.369 170.994C416.032 170.57 415.686 170.146 415.339 169.731H415.33C414.723 169.017 414.772 167.956 415.426 167.301L435.776 147.087C437.065 145.814 439.172 145.93 440.298 147.348C440.327 147.376 440.346 147.415 440.375 147.444C440.779 147.945 441.164 148.457 441.53 148.968C441.635 149.112 441.732 149.247 441.837 149.392C441.991 149.604 442.145 149.826 442.29 150.038C442.434 150.241 442.569 150.453 442.713 150.655C442.829 150.829 442.954 151.012 443.059 151.186C443.3 151.552 443.531 151.928 443.752 152.295C443.82 152.411 443.897 152.536 443.964 152.652C444.137 152.941 444.301 153.24 444.455 153.529C444.522 153.645 444.589 153.77 444.647 153.886C444.849 154.272 445.051 154.658 445.224 155.043L488.205 246.516C489.715 249.727 490.004 252.148 488.984 253.151" fill="black"/>
</g>
<defs>
<clipPath id="clip0_4748_91377">
<rect width="335" height="436" fill="white" transform="translate(155 85)"/>
</clipPath>
</defs>
</svg>
