<svg width="103" height="65" viewBox="0 0 103 65" fill="none" xmlns="http://www.w3.org/2000/svg">
  <path d="M39.9328 29.9934C42.4595 26.7516 49.4199 27.6574 49.4199 32.0911V41.0061C49.4199 41.9119 46.5595 41.9119 46.5595 41.0061V31.662C46.5595 29.469 39.9328 29.755 39.9328 32.6155V41.0538C39.9328 41.9596 37.0723 41.9596 37.0723 41.0538V23.176C37.0723 21.8888 39.9328 21.8888 39.9328 23.176V29.9457V29.9934Z" fill="black"/>
  <path d="M68.9261 28.7056H70.4921C70.7781 28.7056 71.0165 28.944 71.0165 29.2301V30.2312C73.0665 27.0371 80.6943 27.8952 80.6943 31.6614V41.1009C80.6943 41.4823 80.4083 41.7683 80.0269 41.7683H78.549C78.1676 41.7683 77.8816 41.4823 77.8816 41.1009V32.7103C77.8816 32.2812 77.7862 31.8521 77.5955 31.4707C76.1653 28.944 71.2072 30.6126 71.2072 32.6149V41.1486C71.2072 41.53 70.9211 41.816 70.5398 41.816H69.0619C68.6805 41.816 68.3944 41.53 68.3944 41.1486V29.3254C68.3944 29.0394 68.6401 28.7056 68.9261 28.7056Z" fill="black"/>
  <path d="M55.5701 37.7163C55.8085 40.3384 59.7654 40.4814 61.291 38.6698C62.8166 36.8582 62.2445 37.1443 62.4352 36.3338V29.278C62.4352 28.992 62.6735 28.7059 63.0072 28.7059H64.1037C64.3898 28.7059 64.6758 28.9443 64.6758 29.278V41.3396C64.6758 41.5779 64.4851 41.7686 64.2468 41.7686H62.8642C62.6258 41.7686 62.4352 41.5779 62.4352 41.3396V39.7663C62.4352 39.7663 59.7177 42.9605 55.5701 41.4826C53.0928 40.5999 52.7573 38.7175 52.7573 37.7163V29.278C52.7573 28.9443 53.0434 28.7059 53.3294 28.7059C53.8062 28.7059 54.3306 28.7536 54.8073 28.7059C55.284 28.6583 55.4271 28.9443 55.4271 29.278C55.4271 30.9943 55.4271 36.0477 55.5701 37.7163Z" fill="black"/>
  <path d="M87.8452 25.2256V28.1337H91.1347C91.4684 28.1337 91.7068 28.372 91.7068 28.7058V29.7069C91.7068 30.0406 91.4684 30.279 91.1347 30.279H87.8452L87.9405 37.8115C87.9882 38.908 89.18 39.7185 90.3242 39.6708H90.8486C91.3254 39.6231 91.7068 40.0045 91.7068 40.4812V40.8626C91.7068 41.244 91.4684 41.5301 91.1347 41.6731C89.165 41.8598 87.5487 41.9567 86.3091 40.9078C85.0696 39.859 85.0801 38.622 85.0801 38.622V30.3744H82.5057C82.172 30.3744 81.9336 30.136 81.9336 29.8023V28.8011C81.9336 28.4674 82.172 28.229 82.5057 28.229H85.0801V25.3209C85.0801 24.8918 85.4138 24.5581 85.8429 24.5581H87.0347C87.4638 24.5581 87.7975 24.8918 87.7975 25.3209L87.8452 25.2256Z" fill="black"/>
  <path d="M94.9965 28.0866H95.4255C95.95 28.0866 96.4267 28.5156 96.4267 29.0401V30.4226C97.1895 28.8017 102.481 26.4657 102.148 29.2784C101.814 32.0912 98.715 29.7075 97.1895 31.8528C96.8441 32.3632 96.6174 33.5214 96.522 34.8086V40.9586C96.522 41.3876 96.1883 41.7214 95.7593 41.7214H94.8058C94.3767 41.7214 94.043 41.3876 94.043 40.9586V29.0401C94.043 28.5156 94.4721 28.0866 94.9965 28.0866Z" fill="black"/>
  <path d="M19.9574 19.6478H9.2784C4.84472 19.6478 1.26917 23.2233 1.26917 27.657V38.336C1.26917 42.7697 4.84472 46.3452 9.2784 46.3452H19.9574C24.3911 46.3452 27.9666 42.7697 27.9666 38.336V27.657C27.9666 23.2233 24.3911 19.6478 19.9574 19.6478ZM13.283 23.7477C13.283 23.5093 13.4737 23.3187 13.7121 23.271C13.9981 23.271 14.2842 23.2233 14.6179 23.2233C18.9562 23.2233 22.6748 26.0837 23.9143 30.0407C24.0097 30.3744 23.7713 30.6605 23.4376 30.6605H13.7598C13.4737 30.6605 13.283 30.4698 13.283 30.1837V23.7477ZM11.9005 41.7208C11.9005 42.0545 11.5668 42.2929 11.233 42.1499C9.89817 41.6732 8.70632 40.9104 7.70516 39.9092C7.41912 39.6232 7.60981 39.0988 8.03888 39.0988H11.3761C11.6621 39.0988 11.8528 39.2895 11.8528 39.5755V41.7208H11.9005ZM11.9005 37.2395C11.9005 37.5255 11.7098 37.7162 11.4237 37.7162H6.37029C6.17959 37.7162 6.03657 37.6209 5.94122 37.4778C5.22611 36.143 4.84472 34.6174 4.84472 32.9965C4.84472 31.3756 4.84472 32.6628 4.84472 32.4721C4.84472 32.2337 5.08309 32.043 5.32146 32.043H11.4237C11.7098 32.043 11.9005 32.2337 11.9005 32.5197V37.2395ZM11.9005 30.1837C11.9005 30.4698 11.7098 30.6605 11.4237 30.6605H5.75052C5.41681 30.6605 5.17844 30.3267 5.27378 30.0407C6.17959 27.1802 8.42027 24.8442 11.233 23.8431C11.5668 23.7477 11.9005 23.9384 11.9005 24.2721V30.1837ZM21.483 39.9569C19.719 41.7208 17.2876 42.7697 14.6179 42.7697C11.9481 42.7697 13.9981 42.7697 13.7121 42.722C13.4737 42.722 13.283 42.4836 13.283 42.2452V39.5755C13.283 39.2895 13.4737 39.0988 13.7598 39.0988H21.1492C21.5783 39.0988 21.769 39.6232 21.483 39.9092V39.9569ZM23.2946 37.4778C23.1992 37.6209 23.0562 37.7162 22.8655 37.7162H13.7598C13.4737 37.7162 13.283 37.5255 13.283 37.2395V32.5197C13.283 32.2337 13.4737 32.043 13.7598 32.043H23.8667C24.105 32.043 24.3434 32.2337 24.3434 32.4721C24.3434 32.6628 24.3434 32.8058 24.3434 32.9965C24.3434 34.6174 23.962 36.143 23.2469 37.4778H23.2946Z" fill="black"/>
</svg>
