<svg xmlns="http://www.w3.org/2000/svg" width="412" height="235" viewBox="0 0 412 235" fill="none">
<g clip-path="url(#clip0_integration)">
<!-- Main platform base -->
<path d="M0.320468 130.88C0.170468 132.39 1.24047 133.93 3.55047 135.09L198.19 232.41C202.53 234.58 209.56 234.58 213.9 232.41L408.59 135.07C411.09 133.82 411.76 132.2 411.76 130.5V103.3H376.12L213.95 22.1998C209.61 20.0298 202.58 20.0298 198.24 22.1998L36.0605 103.29H0.320468" fill="#2C66FF"/>
<path d="M399.111 111.93L239.471 191.75L222.311 200.3C221.771 200.57 221.251 200.88 220.741 201.2L215.221 203.95C209.341 206.88 205.731 213 206.011 219.57C206.341 227.21 214.441 231.97 221.281 228.54L243.301 217.5L401.871 138.22C402.291 138.01 402.651 137.79 402.961 137.56L408.961 134.56C411.691 133.19 412.011 131.41 412.011 130.19V120.08C412.011 113.43 405.081 109.09 399.121 111.92L399.111 111.93Z" fill="#1E4AB3"/>
<path d="M198.12 204.37L3.47961 107.05C-0.860391 104.88 -0.860391 101.36 3.47961 99.1902L198.17 1.85016C202.51 -0.319844 209.54 -0.319844 213.88 1.85016L408.52 99.1702C412.86 101.34 412.86 104.86 408.52 107.03L213.83 204.37C209.49 206.54 202.46 206.54 198.12 204.37Z" fill="#D9E6FF"/>

<!-- Integration symbol - 4 curved segments forming a circular pattern -->
<!-- Top segment -->
<path d="M206 70 Q230 70 240 85 L230 92 Q223 82 206 82 Q189 82 182 92 L172 85 Q182 70 206 70 Z" fill="#2C66FF"/>
<path d="M206 70 Q230 70 240 85 L230 92 Q223 82 206 82 Z" fill="#4169E1"/>
<ellipse cx="206" cy="76" rx="17" ry="6" fill="#D9E6FF"/>

<!-- Right segment -->
<path d="M242 103 Q242 85 230 75 L223 82 Q230 89 230 103 Q230 117 223 124 L230 131 Q242 121 242 103 Z" fill="#2C66FF"/>
<path d="M242 103 Q242 85 230 75 L223 82 Q230 89 230 103 Z" fill="#4169E1"/>
<ellipse cx="236" cy="103" rx="6" ry="17" fill="#D9E6FF"/>

<!-- Bottom segment -->
<path d="M206 136 Q182 136 172 121 L182 114 Q189 124 206 124 Q223 124 230 114 L240 121 Q230 136 206 136 Z" fill="#2C66FF"/>
<path d="M206 136 Q230 136 240 121 L230 114 Q223 124 206 124 Z" fill="#4169E1"/>
<ellipse cx="206" cy="130" rx="17" ry="6" fill="#D9E6FF"/>

<!-- Left segment -->
<path d="M170 103 Q170 121 182 131 L189 124 Q182 117 182 103 Q182 89 189 82 L182 75 Q170 85 170 103 Z" fill="#2C66FF"/>
<path d="M170 103 Q170 85 182 75 L189 82 Q182 89 182 103 Z" fill="#4169E1"/>
<ellipse cx="176" cy="103" rx="6" ry="17" fill="#D9E6FF"/>

<!-- Center circle -->
<ellipse cx="206" cy="103" rx="20" ry="11" fill="#2C66FF"/>
<ellipse cx="206" cy="103" rx="15" ry="8" fill="#4169E1"/>
<ellipse cx="206" cy="103" rx="8" ry="5" fill="#D9E6FF"/>

<!-- Arrows between segments -->
<defs>
  <marker id="arrowBlue" markerWidth="8" markerHeight="8" refX="7" refY="4" orient="auto">
    <polygon points="0 0, 8 4, 0 8" fill="#1E4AB3"/>
  </marker>
</defs>

<!-- Arrow paths -->
<path d="M235 88 L228 95" stroke="#1E4AB3" stroke-width="2" marker-end="url(#arrowBlue)" fill="none"/>
<path d="M228 111 L235 118" stroke="#1E4AB3" stroke-width="2" marker-end="url(#arrowBlue)" fill="none"/>
<path d="M177 118 L184 111" stroke="#1E4AB3" stroke-width="2" marker-end="url(#arrowBlue)" fill="none"/>
<path d="M184 95 L177 88" stroke="#1E4AB3" stroke-width="2" marker-end="url(#arrowBlue)" fill="none"/>

<!-- Outline -->
<path d="M408.62 98.9701L213.98 1.65007C209.59 -0.539932 202.45 -0.539932 198.07 1.65007L3.38 98.9901C1.2 100.08 0 101.55 0 103.12C0 103.38 0.1 130.86 0.1 130.86C0.1 132.71 1.15 134.14 3.45 135.29L198.09 232.61C200.28 233.71 203.17 234.26 206.05 234.26C208.93 234.26 211.81 233.71 214.01 232.61L408.7 135.27C410.95 134.15 412 132.63 412 130.49V103.35C412 103.27 412.01 103.18 412.01 103.1C412.01 101.53 410.81 100.06 408.63 98.9701H408.62ZM411.51 103.52C411.31 104.76 410.23 105.92 408.42 106.83L212.87 204.6C209.54 206.24 202.46 206.24 199.08 204.6L3.58 106.84C1.91 106 0.86 104.95 0.55 103.82C0.49 103.59 0.45 103.35 0.45 103.11C0.45 103.09 0.45 103.07 0.45 103.06C0.48 101.69 1.59 100.38 3.58 99.3901L198.27 2.05007C202.55 -0.0899317 209.5 -0.0899317 213.78 2.05007L408.42 99.3701C410.42 100.37 411.53 101.68 411.55 103.06C411.55 103.07 411.55 103.08 411.55 103.09C411.55 103.23 411.54 103.37 411.51 103.51V103.52ZM411.54 130.49C411.54 131.71 411.22 133.5 408.49 134.86L213.8 232.2C209.52 234.34 202.57 234.34 198.29 232.2L3.65 134.88C1.53 133.82 0.4 132.37 0.55 130.87V111.67C0.55 108.98 3.38 107.24 5.78 108.44L198.02 204.57C200.21 205.67 203.1 206.22 205.98 206.22C208.86 206.22 211.74 205.67 213.94 204.57L398.79 112.14C404.65 109.21 411.54 113.47 411.54 120.02V130.49Z" fill="#1E4AB3"/>
</g>
<defs>
<clipPath id="clip0_integration">
<rect width="412" height="234.25" fill="white"/>
</clipPath>
</defs>
</svg>