<svg xmlns="http://www.w3.org/2000/svg" width="74" height="20" viewBox="0 0 74 20" fill="none">
    <path fill-rule="evenodd" clip-rule="evenodd" d="M0 0.716164H4.6021V15.2895H12.5791V0.716164H32.5669C37.87 0.716164 42.1859 4.99944 42.1859 10.3039C42.1859 15.6083 37.87 19.8916 32.5669 19.8916H25.0047V5.31826H17.1812V8.38633H21.7833V12.9884H17.1812V19.8916H0V0.716164ZM29.6068 15.2895H32.5669C35.347 15.2895 37.5838 13.0481 37.5838 10.3039C37.5838 7.55968 35.347 5.31826 32.5669 5.31826H29.6068V15.2895Z" fill="black"/>
    <path fill-rule="evenodd" clip-rule="evenodd" d="M42.1859 0.716164V10.3039V19.8916H46.788V11.4646L50.4445 19.9162H54.6683L58.4467 11.1828V19.8916H68.3292L74.0057 10.1492L68.3485 0.716164H57.9606L52.5564 13.2074L47.1522 0.716164H42.1859ZM68.6597 10.183L63.0488 19.8128V0.827065L68.6597 10.183Z" fill="black"/>
</svg>