<?xml version="1.0" encoding="UTF-8"?>
<svg version="1.1" xmlns="http://www.w3.org/2000/svg" width="1500" height="1500">
<path d="M0 0 C0.97450104 0.01705994 1.94900208 0.03411987 2.95303345 0.05169678 C32.32700501 0.59511167 32.32700501 0.59511167 39.57421875 7.90234375 C45.1345559 14.57182952 44.21156033 24.8961777 44.19621277 33.17276001 C44.1996111 34.54049311 44.1996111 34.54049311 44.20307809 35.93585718 C44.20937037 38.96848174 44.20859181 42.00106107 44.20776367 45.03369141 C44.21075819 47.21755022 44.21416139 49.40140851 44.21794128 51.58526611 C44.22675682 57.5029098 44.2291184 63.42053902 44.22975707 69.33818865 C44.23046909 73.04082291 44.23260631 76.74345353 44.23525429 80.44608688 C44.24497764 94.04681148 44.24852017 107.64752473 44.24767885 121.24825256 C44.24724766 132.60993514 44.25862245 143.97157468 44.2735464 155.33324683 C44.286652 165.68177456 44.29198535 176.03028767 44.29134732 186.37882364 C44.29109318 192.55014843 44.29389811 198.7214333 44.30452538 204.89274979 C44.31425699 210.70239209 44.31425101 216.51195672 44.30700874 222.32160187 C44.3059691 224.4438857 44.30828859 226.56617449 44.3143692 228.68844986 C44.40925081 264.12305569 44.40925081 264.12305569 35.6484375 274.3359375 C30.59053053 279.01517764 24.89702606 279.86158287 18.23876953 279.80102539 C14.65780583 279.61422394 11.1994565 278.94655964 7.6875 278.25 C-1.71032437 276.41777491 -10.99549846 275.5369018 -20.5703125 275.44921875 C-21.46822006 275.4394249 -22.36612762 275.42963104 -23.29124451 275.41954041 C-84.58285462 274.89176751 -144.45624837 286.06289518 -203.69256592 301.11779785 C-206.04706626 301.71530488 -208.40262722 302.30850361 -210.75830078 302.90136719 C-245.18829317 311.58692226 -279.17401908 321.69938491 -312.9375 332.6875 C-312.12224854 332.70208252 -311.30699707 332.71666504 -310.46704102 332.73168945 C-224.08611132 334.42449488 -138.65550427 347.8689396 44.0625 408.6875 C44.08615865 431.11085087 44.10363724 453.5341996 44.11431217 475.95756054 C44.11940671 486.3757641 44.12634397 496.79395969 44.13793945 507.2121582 C44.22546612 587.57133046 44.22546612 587.57133046 43.62109375 619.11328125 C43.59179622 620.69006181 43.59179622 620.69006181 43.56190681 622.29869652 C42.67175557 668.18967447 42.67175557 668.18967447 32.359375 679.56640625 C26.25588592 685.07281488 20.70059683 686.21828016 12.56640625 686.0546875 C6.58850974 685.42824127 1.47482517 683.1809907 -3.9375 680.6875 C-4.62602051 680.37103516 -5.31454102 680.05457031 -6.02392578 679.72851562 C-6.75981934 679.39013672 -7.49571289 679.05175781 -8.25390625 678.703125 C-91.25499357 640.59874728 -184.6646994 625.27043916 -327.9375 614.6875 C-328.61451965 614.65827454 -329.29153931 614.62904907 -329.98907471 614.59893799 C-352.14233613 613.65288887 -374.29501755 613.63641398 -396.46377945 613.66175079 C-400.25046966 613.66565304 -404.03716088 613.66731348 -407.82385254 613.66918945 C-415.19507101 613.67315814 -422.56628466 613.67952018 -429.9375 613.6875 C-429.93657821 614.55798068 -429.93565641 615.42846136 -429.93470669 616.32532024 C-429.82640498 720.54303062 -429.85201136 824.75923933 -430.32705754 928.97611278 C-430.36476702 937.26665045 -430.40010484 945.55719596 -430.43453979 953.8477478 C-430.48117201 965.02013202 -430.53364599 976.19247747 -430.59037781 987.36481476 C-430.61111667 991.47559235 -430.62978326 995.58637095 -430.64659119 999.69716644 C-430.66609517 1004.43153501 -430.69020066 1009.16585732 -430.71799481 1013.90018427 C-430.72730075 1015.61354787 -430.73499614 1017.32692114 -430.74091804 1019.04029977 C-430.7492434 1021.37094569 -430.76352302 1023.70148338 -430.77928162 1026.03208923 C-430.78573417 1027.32659469 -430.79218672 1028.62110014 -430.7988348 1029.95483303 C-431.22943316 1041.54591913 -431.22943316 1041.54591913 -434.9921875 1046.703125 C-435.60707031 1047.56164063 -436.22195313 1048.42015625 -436.85546875 1049.3046875 C-437.82419922 1050.60792969 -437.82419922 1050.60792969 -438.8125 1051.9375 C-439.76962891 1053.26394531 -439.76962891 1053.26394531 -440.74609375 1054.6171875 C-442.46043981 1056.9864925 -444.1914841 1059.34147318 -445.9375 1061.6875 C-446.52950305 1062.72997281 -446.52950305 1062.72997281 -447.13346577 1063.79350567 C-448.9375 1065.6875 -448.9375 1065.6875 -451.82039928 1066.17398548 C-453.59819759 1066.16433781 -453.59819759 1066.16433781 -455.41191101 1066.15449524 C-456.07306827 1066.15636268 -456.73422552 1066.15823013 -457.41541785 1066.16015416 C-459.63770426 1066.16146843 -461.85870518 1066.13401615 -464.08081055 1066.10668945 C-465.67262897 1066.10158434 -467.26445375 1066.09820862 -468.85627937 1066.09643364 C-473.2030401 1066.08635325 -477.54927765 1066.05100537 -481.89585328 1066.01107192 C-486.5147876 1065.97266485 -491.13380685 1065.95655447 -495.75285339 1065.93733215 C-505.52532207 1065.89221945 -515.29741229 1065.81724759 -525.06963348 1065.73548126 C-530.76857713 1065.68803461 -536.46755477 1065.6478137 -542.16656494 1065.60931396 C-562.22348149 1065.47204092 -582.27958181 1065.29228644 -602.33563423 1065.06056023 C-604.14766554 1065.03963036 -605.95969696 1065.01871121 -607.77172852 1064.99780273 C-609.11945463 1064.98224105 -609.11945463 1064.98224105 -610.49440753 1064.96636498 C-617.99532 1064.88095857 -625.49633019 1064.81051933 -632.99741632 1064.74236506 C-640.37925626 1064.6745126 -647.76092332 1064.59548788 -655.14255446 1064.50783139 C-659.48589858 1064.45649761 -663.82916626 1064.40976581 -668.17267799 1064.37508202 C-672.18513778 1064.34277376 -676.19719667 1064.29664072 -680.2093792 1064.23962593 C-681.6731074 1064.22122237 -683.1369087 1064.20783683 -684.6007309 1064.19986725 C-686.59595079 1064.1882411 -688.59102516 1064.15671713 -690.58601379 1064.12419128 C-691.69904279 1064.11220798 -692.81207178 1064.10022467 -693.95882893 1064.08787823 C-698.59683443 1063.46446048 -701.75595032 1061.29257217 -704.69140625 1057.7265625 C-705.15353516 1057.17226562 -705.61566406 1056.61796875 -706.09179688 1056.046875 C-706.55650391 1055.47453125 -707.02121094 1054.9021875 -707.5 1054.3125 C-707.96857422 1053.74789063 -708.43714844 1053.18328125 -708.91992188 1052.6015625 C-710.26908448 1050.97124573 -711.60746137 1049.33345505 -712.9375 1047.6875 C-713.61590431 1046.95291087 -714.29430862 1046.21832174 -714.99327064 1045.46147233 C-717.29430971 1042.17841385 -717.43535392 1040.55863407 -717.42969131 1036.59056377 C-717.43765551 1035.35793668 -717.4456197 1034.12530959 -717.45382524 1032.85533017 C-717.44241382 1031.49052042 -717.43063145 1030.12571373 -717.41851807 1028.76091003 C-717.42026242 1027.30878677 -717.42376484 1025.85666474 -717.42887473 1024.40454942 C-717.43782534 1020.41373263 -717.42181017 1016.42334465 -717.40176249 1012.4325825 C-717.38450299 1008.12929013 -717.39033312 1003.82602232 -717.39337158 999.52270508 C-717.3954699 992.06677195 -717.38291041 984.61097873 -717.36042023 977.1550808 C-717.32792435 966.37510223 -717.31749568 955.59519137 -717.31246826 944.81516913 C-717.30371182 927.32571567 -717.27708677 909.83633679 -717.23925781 892.34692383 C-717.20254676 875.35669325 -717.17423056 858.36648293 -717.15722656 841.3762207 C-717.15617567 840.32909887 -717.15512477 839.28197704 -717.15404204 838.20312425 C-717.14882192 832.95006854 -717.14376708 827.69701268 -717.13879442 822.44395673 C-717.09732153 778.85841949 -717.02686358 735.27296359 -716.9375 691.6875 C-717.55042021 691.86484721 -718.16334041 692.04219443 -718.79483396 692.2249158 C-725.26312134 694.09624557 -731.7318943 695.96588984 -738.2009325 697.83462238 C-740.60454808 698.52919182 -743.00804583 699.22416917 -745.41141605 699.91958714 C-763.93129499 705.27790468 -782.47847584 710.47531862 -801.125 715.375 C-802.4631654 715.72806599 -803.80128899 716.08129047 -805.13937378 716.43466187 C-890.91158788 739.07393711 -978.246182 760.01823142 -1066.9375 766.6875 C-1068.49611258 766.81878702 -1070.05470893 766.95026705 -1071.61328125 767.08203125 C-1105.50730631 769.68527735 -1155.89085553 773.28231293 -1183.9375 750.6875 C-1188.93339925 746.0662932 -1188.7746899 740.8521542 -1189.02741277 734.38754678 C-1189.06821133 731.95757064 -1189.07566337 729.52970719 -1189.07121277 727.09939575 C-1189.07347833 726.17658432 -1189.07574388 725.25377289 -1189.07807809 724.30299747 C-1189.08437121 721.23339808 -1189.08359176 718.16384338 -1189.08276367 715.09423828 C-1189.08575805 712.88418522 -1189.08916122 710.67413267 -1189.09294128 708.46408081 C-1189.10175613 702.47646003 -1189.10411831 696.48885355 -1189.10475707 690.5012269 C-1189.10546889 686.75708144 -1189.10760569 683.01293958 -1189.11025429 679.26879501 C-1189.11902215 666.87140782 -1189.12367504 654.47402756 -1189.12292381 642.07663764 C-1189.12288386 641.40955523 -1189.1228439 640.74247281 -1189.12280273 640.05517578 C-1189.12276185 639.38727177 -1189.12272097 638.71936776 -1189.12267885 638.03122424 C-1189.12227243 627.20778086 -1189.13184364 616.38437228 -1189.1459411 605.56093897 C-1189.16032826 594.42658801 -1189.16702717 583.29224977 -1189.16634732 572.15788829 C-1189.16609274 565.91515027 -1189.16892225 559.67245167 -1189.17952538 553.42972183 C-1189.18922719 547.55771326 -1189.18927122 541.68578163 -1189.18200874 535.81377029 C-1189.18096557 533.6640054 -1189.18330988 531.51423567 -1189.1893692 529.36447906 C-1189.2638542 501.09837206 -1189.2638542 501.09837206 -1182.9375 493.6875 C-1175.40216933 486.5594845 -1166.79761407 485.55441514 -1156.90478516 485.58276367 C-1153.3305742 485.70892267 -1149.90166624 486.20331362 -1146.37255859 486.75537109 C-1051.49910072 501.02751289 -943.1984185 475.90084541 -819.6875 442.6875 C-819.04416718 442.47392853 -818.40083435 442.26035706 -817.73800659 442.04031372 C-803.1922228 437.76357893 -803.1922228 437.76357893 -791.9375 428.6875 C-798.96458188 426.50649643 -805.46789313 426.45854557 -812.7890625 426.5625 C-815.34317884 426.57997241 -817.89729676 426.59721658 -820.45141602 426.61425781 C-821.79054051 426.6265084 -823.12966205 426.63908538 -824.46878052 426.65197754 C-831.31368001 426.71511668 -838.1587478 426.7287283 -845.00390625 426.734375 C-845.67167776 426.7349868 -846.33944927 426.7355986 -847.02745628 426.73622894 C-861.42413212 426.74177256 -875.61027836 426.16514082 -889.9375 424.6875 C-891.21898926 424.56391113 -892.50047852 424.44032227 -893.82080078 424.31298828 C-953.01905722 418.57345424 -1011.32853374 406.16061099 -1068.9375 391.6875 C-1069.85664185 391.45718079 -1070.77578369 391.22686157 -1071.72277832 390.98956299 C-1093.20643293 385.59858245 -1114.54379455 379.74648463 -1135.8125 373.5625 C-1136.77109924 373.28448547 -1137.72969849 373.00647095 -1138.71734619 372.72003174 C-1150.42826822 369.31412272 -1162.06636071 365.71349101 -1173.67236328 361.96533203 C-1174.96770668 361.54784134 -1176.26308107 361.13044683 -1177.55848694 360.71315002 C-1180.68512904 359.70553986 -1183.81145902 358.69697322 -1186.9375 357.6875 C-1186.98318881 326.33207605 -1187.01855213 294.97666095 -1187.03963066 263.62121158 C-1187.04213188 259.91397824 -1187.04472054 256.20674496 -1187.04736328 252.49951172 C-1187.0478879 251.7615116 -1187.04841252 251.02351148 -1187.04895304 250.26314773 C-1187.05764032 238.33538751 -1187.073401 226.40764669 -1187.09180559 214.47989796 C-1187.11055141 202.22823712 -1187.1216266 189.9765864 -1187.12567699 177.72491181 C-1187.12841236 170.17347102 -1187.13703148 162.62208509 -1187.15333293 155.0706612 C-1187.1652191 149.266621 -1187.16639958 143.46261546 -1187.16371536 137.65856552 C-1187.16426314 135.2875332 -1187.16820858 132.9164987 -1187.17591095 130.54547882 C-1187.28464658 95.33000926 -1187.28464658 95.33000926 -1179.9375 87.6875 C-1173.47501913 82.48088586 -1167.20175132 80.91989578 -1158.9375 81.6875 C-1150.43690457 83.37048782 -1142.44199892 86.20805491 -1134.375 89.3125 C-1046.786158 122.2321198 -953.58342462 135.46610567 -623.10203552 134.90097046 C-621.61328455 134.75414711 -620.12287147 134.62355958 -618.63148499 134.50650024 C-613.62242844 134.06524675 -609.59215635 133.02046635 -604.94140625 130.9765625 C-603.59149186 130.39529743 -602.24155582 129.81408264 -600.89160156 129.23291016 C-600.18072388 128.92154114 -599.46984619 128.61017212 -598.73742676 128.28936768 C-594.76283824 126.55404962 -590.7667082 124.86999927 -586.76953125 123.1875 C-585.47751297 122.64351059 -585.47751297 122.64351059 -584.15939331 122.08853149 C-485.55206637 80.83340171 -381.54706823 49.37404446 -109.5 3.4375 C-108.00499969 3.31273788 -108.00499969 3.31273788 -106.47979736 3.18545532 C-87.04464809 1.58141546 -67.6201513 0.54013472 -48.125 0.0625 C-47.22449921 0.04037445 -46.32399841 0.0182489 -45.39620972 -0.00454712 C-30.25686431 -0.35632548 -15.13973428 -0.30335487 0 0 Z M-627.4375 141.125 C-629.06726463 141.8033794 -630.69765029 142.4802685 -632.32861328 143.15576172 C-635.77117743 144.58448647 -639.20973954 146.02229599 -642.64550781 147.46728516 C-647.88762254 149.67038588 -653.14152779 151.84420093 -658.3984375 154.01171875 C-678.9450326 162.48982199 -699.45013414 171.06735708 -719.9375 179.6875 C-716.5788665 180.8070445 -716.12145215 180.63897047 -712.98754883 179.40600586 C-711.78440033 178.94059891 -711.78440033 178.94059891 -710.5569458 178.46578979 C-709.678349 178.1148526 -708.7997522 177.76391541 -707.89453125 177.40234375 C-706.96251892 177.03867706 -706.03050659 176.67501038 -705.07025146 176.30032349 C-701.95993085 175.08411532 -698.85505309 173.8545877 -695.75 172.625 C-693.57771698 171.77252902 -691.40510354 170.92089956 -689.23217773 170.07006836 C-684.58819777 168.24968073 -679.94657265 166.42345376 -675.30664062 164.59277344 C-668.376287 161.85876584 -661.44107722 159.13729751 -654.5045414 156.41902733 C-644.1475865 152.36012465 -633.79280742 148.29570469 -623.44140625 144.22265625 C-622.42351013 143.82233185 -621.40561401 143.42200745 -620.35687256 143.009552 C-614.20883933 140.58927535 -608.06942671 138.14829931 -601.9375 135.6875 C-601.9375 135.3575 -601.9375 135.0275 -601.9375 134.6875 C-611.32185857 133.59899895 -619.00497558 137.5441129 -627.4375 141.125 Z M-722.9375 180.6875 C-723.5975 181.3475 -724.2575 182.0075 -724.9375 182.6875 C-723.2875 182.3575 -721.6375 182.0275 -719.9375 181.6875 C-720.9275 181.3575 -721.9175 181.0275 -722.9375 180.6875 Z " fill="#0D07ED" transform="translate(1316.9375,201.3125)"/>
</svg>
