<svg xmlns="http://www.w3.org/2000/svg" width="121" height="27" viewBox="0 0 121 27" fill="none">
    <path fill-rule="evenodd" clip-rule="evenodd" d="M12.8 26.1163C19.8692 26.1163 25.6 20.3855 25.6 13.3163C25.6 6.24702 19.8692 0.516266 12.8 0.516266C5.73075 0.516266 0 6.24702 0 13.3163C0 20.3855 5.73075 26.1163 12.8 26.1163ZM9.14286 8.74484C9.14286 8.23989 9.5522 7.83055 10.0571 7.83055H18.2857V9.65912H10.0571C9.5522 9.65912 9.14286 9.24978 9.14286 8.74484ZM11.8857 17.8877C11.8857 17.3827 12.2951 16.9734 12.8 16.9734H18.2857V18.802H12.8C12.2951 18.802 11.8857 18.3926 11.8857 17.8877ZM4.57143 12.402C4.06648 12.402 3.65714 12.8113 3.65714 13.3163C3.65714 13.8212 4.06648 14.2306 4.57143 14.2306H18.2857V12.402H4.57143Z" fill="black"/>
    <path d="M34.5945 20.6306V5.33704H40.0458C41.2356 5.33704 42.2213 5.5536 43.0029 5.98672C43.7845 6.41984 44.3695 7.01226 44.7578 7.76399C45.1461 8.51075 45.3403 9.35209 45.3403 10.288C45.3403 11.2289 45.1436 12.0752 44.7503 12.827C44.362 13.5737 43.7746 14.1662 42.988 14.6043C42.2064 15.0374 41.2232 15.2539 40.0383 15.2539H36.2896V13.2974H39.8292C40.5809 13.2974 41.1908 13.168 41.6588 12.9091C42.1267 12.6453 42.4702 12.2868 42.6893 11.8338C42.9083 11.3808 43.0178 10.8655 43.0178 10.288C43.0178 9.71053 42.9083 9.19776 42.6893 8.74971C42.4702 8.30165 42.1242 7.95068 41.6513 7.69678C41.1833 7.44289 40.566 7.31594 39.7993 7.31594H36.9019V20.6306H34.5945Z" fill="black"/>
    <path d="M50.6809 20.8844C49.954 20.8844 49.2969 20.75 48.7095 20.4812C48.122 20.2074 47.6565 19.8116 47.313 19.2939C46.9745 18.7761 46.8052 18.1414 46.8052 17.3896C46.8052 16.7425 46.9297 16.2098 47.1786 15.7916C47.4275 15.3734 47.7636 15.0423 48.1867 14.7984C48.6099 14.5545 49.0828 14.3703 49.6056 14.2458C50.1283 14.1214 50.661 14.0268 51.2036 13.962C51.8906 13.8824 52.4482 13.8177 52.8763 13.7679C53.3045 13.7131 53.6156 13.626 53.8098 13.5065C54.0039 13.387 54.101 13.1929 54.101 12.9241V12.8718C54.101 12.2196 53.9168 11.7143 53.5484 11.3559C53.185 10.9974 52.6424 10.8182 51.9205 10.8182C51.1688 10.8182 50.5763 10.985 50.1432 11.3185C49.7151 11.6471 49.4189 12.013 49.2546 12.4163L47.1562 11.9383C47.4051 11.2414 47.7685 10.6788 48.2465 10.2507C48.7294 9.81756 49.2845 9.50393 49.9117 9.30977C50.539 9.11064 51.1986 9.01107 51.8906 9.01107C52.3486 9.01107 52.834 9.06583 53.3468 9.17536C53.8645 9.2799 54.3474 9.47406 54.7955 9.75782C55.2485 10.0416 55.6194 10.4473 55.9081 10.975C56.1969 11.4978 56.3413 12.1773 56.3413 13.0137V20.6306H54.1607V19.0624H54.0711C53.9268 19.3511 53.7102 19.6349 53.4215 19.9137C53.1327 20.1925 52.7618 20.4239 52.3088 20.6081C51.8558 20.7923 51.3131 20.8844 50.6809 20.8844ZM51.1663 19.0922C51.7836 19.0922 52.3113 18.9703 52.7494 18.7263C53.1925 18.4824 53.5285 18.1638 53.7575 17.7705C53.9915 17.3722 54.1085 16.9466 54.1085 16.4935V15.015C54.0288 15.0946 53.8745 15.1693 53.6455 15.239C53.4215 15.3037 53.1651 15.361 52.8763 15.4107C52.5876 15.4556 52.3063 15.4979 52.0325 15.5377C51.7587 15.5725 51.5297 15.6024 51.3455 15.6273C50.9124 15.6821 50.5166 15.7742 50.1582 15.9036C49.8047 16.033 49.5209 16.2197 49.3069 16.4637C49.0978 16.7026 48.9932 17.0212 48.9932 17.4195C48.9932 17.9721 49.1973 18.3903 49.6056 18.6741C50.0138 18.9528 50.534 19.0922 51.1663 19.0922Z" fill="black"/>
    <path d="M58.8946 20.6306V9.16042H61.0528V10.9825H61.1722C61.3813 10.3652 61.7497 9.87979 62.2774 9.52633C62.8101 9.16789 63.4125 8.98867 64.0846 8.98867C64.224 8.98867 64.3883 8.99365 64.5774 9.0036C64.7716 9.01356 64.9234 9.026 65.033 9.04094V11.1767C64.9433 11.1518 64.784 11.1244 64.555 11.0945C64.326 11.0597 64.097 11.0422 63.868 11.0422C63.3403 11.0422 62.8699 11.1543 62.4567 11.3783C62.0484 11.5973 61.7248 11.9035 61.4859 12.2968C61.2469 12.6851 61.1274 13.1282 61.1274 13.626V20.6306H58.8946Z" fill="black"/>
    <path d="M69.7799 20.8844C69.0531 20.8844 68.3959 20.75 67.8085 20.4812C67.221 20.2074 66.7556 19.8116 66.4121 19.2939C66.0735 18.7761 65.9043 18.1414 65.9043 17.3896C65.9043 16.7425 66.0287 16.2098 66.2776 15.7916C66.5266 15.3734 66.8626 15.0423 67.2858 14.7984C67.7089 14.5545 68.1819 14.3703 68.7046 14.2458C69.2273 14.1214 69.76 14.0268 70.3026 13.962C70.9896 13.8824 71.5472 13.8177 71.9754 13.7679C72.4035 13.7131 72.7146 13.626 72.9088 13.5065C73.103 13.387 73.2 13.1929 73.2 12.9241V12.8718C73.2 12.2196 73.0158 11.7143 72.6474 11.3559C72.284 10.9974 71.7414 10.8182 71.0195 10.8182C70.2678 10.8182 69.6754 10.985 69.2422 11.3185C68.8141 11.6471 68.5179 12.013 68.3536 12.4163L66.2552 11.9383C66.5042 11.2414 66.8676 10.6788 67.3455 10.2507C67.8284 9.81756 68.3835 9.50393 69.0108 9.30977C69.638 9.11064 70.2977 9.01107 70.9896 9.01107C71.4477 9.01107 71.9331 9.06583 72.4458 9.17536C72.9636 9.2799 73.4465 9.47406 73.8945 9.75782C74.3475 10.0416 74.7184 10.4473 75.0072 10.975C75.2959 11.4978 75.4403 12.1773 75.4403 13.0137V20.6306H73.2598V19.0624H73.1702C73.0258 19.3511 72.8092 19.6349 72.5205 19.9137C72.2318 20.1925 71.8609 20.4239 71.4078 20.6081C70.9548 20.7923 70.4122 20.8844 69.7799 20.8844ZM70.2653 19.0922C70.8826 19.0922 71.4103 18.9703 71.8484 18.7263C72.2915 18.4824 72.6275 18.1638 72.8565 17.7705C73.0905 17.3722 73.2075 16.9466 73.2075 16.4935V15.015C73.1279 15.0946 72.9735 15.1693 72.7445 15.239C72.5205 15.3037 72.2641 15.361 71.9754 15.4107C71.6866 15.4556 71.4053 15.4979 71.1315 15.5377C70.8577 15.5725 70.6287 15.6024 70.4445 15.6273C70.0114 15.6821 69.6156 15.7742 69.2572 15.9036C68.9037 16.033 68.62 16.2197 68.4059 16.4637C68.1968 16.7026 68.0923 17.0212 68.0923 17.4195C68.0923 17.9721 68.2964 18.3903 68.7046 18.6741C69.1128 18.9528 69.633 19.0922 70.2653 19.0922Z" fill="black"/>
    <path d="M83.4524 9.16042V10.9526H76.9706V9.16042H83.4524ZM78.7479 20.6306V7.8312C78.7479 7.11432 78.9047 6.5194 79.2184 6.04646C79.532 5.56854 79.9477 5.21259 80.4654 4.9786C80.9832 4.73964 81.5457 4.62016 82.1531 4.62016C82.6011 4.62016 82.9845 4.6575 83.3031 4.73217C83.6217 4.80187 83.8582 4.86659 84.0125 4.92633L83.4898 6.73347C83.3852 6.7036 83.2508 6.66875 83.0865 6.62893C82.9222 6.58412 82.7231 6.56172 82.4891 6.56172C81.9465 6.56172 81.5582 6.69614 81.3242 6.96497C81.0952 7.2338 80.9807 7.62211 80.9807 8.1299V20.6306H78.7479Z" fill="black"/>
    <path d="M89.7153 20.862C88.64 20.862 87.7016 20.6156 86.9 20.1228C86.0985 19.6299 85.4762 18.9404 85.0332 18.0543C84.5901 17.1681 84.3686 16.1326 84.3686 14.9478C84.3686 13.7579 84.5901 12.7175 85.0332 11.8263C85.4762 10.9352 86.0985 10.2432 86.9 9.75036C87.7016 9.2575 88.64 9.01107 89.7153 9.01107C90.7906 9.01107 91.7291 9.2575 92.5306 9.75036C93.3321 10.2432 93.9544 10.9352 94.3975 11.8263C94.8405 12.7175 95.0621 13.7579 95.0621 14.9478C95.0621 16.1326 94.8405 17.1681 94.3975 18.0543C93.9544 18.9404 93.3321 19.6299 92.5306 20.1228C91.7291 20.6156 90.7906 20.862 89.7153 20.862ZM89.7228 18.9877C90.4197 18.9877 90.9972 18.8035 91.4552 18.4351C91.9133 18.0667 92.2518 17.5763 92.4708 16.964C92.6949 16.3517 92.8069 15.6771 92.8069 14.9403C92.8069 14.2085 92.6949 13.5364 92.4708 12.9241C92.2518 12.3067 91.9133 11.8114 91.4552 11.438C90.9972 11.0646 90.4197 10.878 89.7228 10.878C89.0208 10.878 88.4384 11.0646 87.9754 11.438C87.5174 11.8114 87.1763 12.3067 86.9523 12.9241C86.7333 13.5364 86.6237 14.2085 86.6237 14.9403C86.6237 15.6771 86.7333 16.3517 86.9523 16.964C87.1763 17.5763 87.5174 18.0667 87.9754 18.4351C88.4384 18.8035 89.0208 18.9877 89.7228 18.9877Z" fill="black"/>
    <path d="M97.1338 20.6306V9.16042H99.2919V10.9825H99.4114C99.6205 10.3652 99.9889 9.87979 100.517 9.52633C101.049 9.16789 101.652 8.98867 102.324 8.98867C102.463 8.98867 102.627 8.99365 102.817 9.0036C103.011 9.01356 103.163 9.026 103.272 9.04094V11.1767C103.182 11.1518 103.023 11.1244 102.794 11.0945C102.565 11.0597 102.336 11.0422 102.107 11.0422C101.579 11.0422 101.109 11.1543 100.696 11.3783C100.288 11.5973 99.964 11.9035 99.725 12.2968C99.486 12.6851 99.3666 13.1282 99.3666 13.626V20.6306H97.1338Z" fill="black"/>
    <path d="M104.784 20.6306V9.16042H106.927V11.0273H107.069C107.308 10.3951 107.699 9.9022 108.241 9.54873C108.784 9.19029 109.434 9.01107 110.19 9.01107C110.957 9.01107 111.599 9.19029 112.117 9.54873C112.64 9.90717 113.025 10.4 113.274 11.0273H113.394C113.668 10.415 114.103 9.92709 114.701 9.56367C115.298 9.19527 116.01 9.01107 116.836 9.01107C117.877 9.01107 118.726 9.33715 119.383 9.98932C120.045 10.6415 120.376 11.6247 120.376 12.939V20.6306H118.143V13.1481C118.143 12.3715 117.932 11.8089 117.508 11.4604C117.085 11.1119 116.58 10.9377 115.993 10.9377C115.266 10.9377 114.701 11.1617 114.297 11.6098C113.894 12.0528 113.692 12.6229 113.692 13.3198V20.6306H111.467V13.0062C111.467 12.3839 111.273 11.8836 110.885 11.5052C110.496 11.1269 109.991 10.9377 109.369 10.9377C108.946 10.9377 108.555 11.0497 108.196 11.2737C107.843 11.4928 107.557 11.7989 107.338 12.1922C107.124 12.5855 107.017 13.041 107.017 13.5588V20.6306H104.784Z" fill="black"/>
</svg>