<svg xmlns="http://www.w3.org/2000/svg" width="412" height="235" viewBox="0 0 412 235" fill="none">
<g clip-path="url(#clip0_3216_93733)">
<path d="M0.320468 130.88C0.170468 132.39 1.24047 133.93 3.55047 135.09L198.19 232.41C202.53 234.58 209.56 234.58 213.9 232.41L408.59 135.07C411.09 133.82 411.76 132.2 411.76 130.5V103.3H376.12L213.95 22.1998C209.61 20.0298 202.58 20.0298 198.24 22.1998L36.0605 103.29H0.320468" fill="#2C66FF"/>
<path d="M399.111 111.93L239.471 191.75L222.311 200.3C221.771 200.57 221.251 200.88 220.741 201.2L215.221 203.95C209.341 206.88 205.731 213 206.011 219.57C206.341 227.21 214.441 231.97 221.281 228.54L243.301 217.5L401.871 138.22C402.291 138.01 402.651 137.79 402.961 137.56L408.961 134.56C411.691 133.19 412.011 131.41 412.011 130.19V120.08C412.011 113.43 405.081 109.09 399.121 111.92L399.111 111.93Z" fill="#1E4AB3"/>
<path d="M198.12 204.37L3.47961 107.05C-0.860391 104.88 -0.860391 101.36 3.47961 99.1902L198.17 1.85016C202.51 -0.319844 209.54 -0.319844 213.88 1.85016L408.52 99.1702C412.86 101.34 412.86 104.86 408.52 107.03L213.83 204.37C209.49 206.54 202.46 206.54 198.12 204.37Z" fill="#D9E6FF"/>
<mask id="mask0_3216_93733" style="mask-type:luminance" maskUnits="userSpaceOnUse" x="149" y="74" width="115" height="58">
<path d="M246.521 83.1001C268.661 94.1701 268.661 112.11 246.521 123.18C224.381 134.25 188.501 134.25 166.361 123.18C144.221 112.11 144.221 94.1701 166.361 83.1001C188.501 72.0301 224.381 72.0301 246.521 83.1001Z" fill="white"/>
</mask>
<g mask="url(#mask0_3216_93733)">
<path d="M206.441 131.69C191.891 131.69 177.341 128.92 166.261 123.38C155.471 117.99 149.531 110.8 149.531 103.14C149.531 95.4798 155.471 88.2898 166.261 82.8998C188.421 71.8198 224.471 71.8198 246.621 82.8998C257.411 88.2898 263.351 95.4798 263.351 103.14C263.351 110.8 257.411 117.99 246.621 123.38C235.541 128.92 220.991 131.69 206.441 131.69Z" fill="#4169E1"/>
<path d="M206.443 131.91C191.213 131.91 176.903 128.95 166.163 123.58C155.293 118.15 149.312 110.89 149.312 103.14C149.312 95.3902 155.293 88.1302 166.163 82.7002C188.373 71.5902 224.513 71.5902 246.723 82.7002C257.593 88.1302 263.573 95.3902 263.573 103.14C263.573 110.89 257.593 118.15 246.723 123.58C235.973 128.95 221.673 131.91 206.443 131.91ZM206.443 74.8102C191.923 74.8102 177.413 77.5702 166.363 83.1002C155.653 88.4502 149.762 95.5702 149.762 103.14C149.762 110.71 155.663 117.83 166.363 123.18C177.053 128.52 191.283 131.46 206.443 131.46C221.603 131.46 235.843 128.52 246.523 123.18C257.233 117.83 263.122 110.71 263.122 103.14C263.122 95.5702 257.223 88.4502 246.523 83.1002C235.473 77.5702 220.953 74.8102 206.443 74.8102Z" fill="#1E4AB3"/>
<path d="M211.792 72.29H144.822V115.1H211.792V72.29Z" fill="#2C66FF"/>
<path d="M212.022 115.32H144.592V72.0601H212.022V115.32ZM145.042 114.87H211.562V72.5101H145.042V114.87Z" fill="#1E4AB3"/>
<path d="M210.892 75.1702C208.192 75.2102 206.002 77.3202 206.002 79.7602C206.002 82.0002 208.182 84.1502 210.892 84.1802V117.98H277.862V75.1702H210.892Z" fill="#1E4AB3"/>
<path d="M246.521 92.3901C268.661 103.46 268.661 121.4 246.521 132.47C224.381 143.54 188.501 143.54 166.361 132.47C144.221 121.4 144.221 103.46 166.361 92.3901C188.501 81.3201 224.381 81.3201 246.521 92.3901Z" fill="#2C66FF"/>
</g>
<path d="M237.86 103.2C237.87 107.37 234.62 111.28 228.69 114.23C222.76 117.17 214.88 118.79 206.5 118.79C198.15 118.79 190.31 117.17 184.41 114.23C184.41 114.23 184.4 114.23 184.39 114.23H184.38C178.49 111.3 175.24 107.4 175.24 103.25C175.24 103.24 175.24 103.23 175.24 103.21C175.26 99.06 178.52 95.16 184.44 92.23L189.64 94.82C185.12 97.06 182.62 100.04 182.6 103.21C182.6 106.4 185.08 109.39 189.61 111.64C194.12 113.88 200.12 115.12 206.5 115.12C212.91 115.12 218.93 113.89 223.47 111.64C228 109.39 230.49 106.39 230.48 103.21C230.48 100.04 227.98 97.06 223.47 94.81L228.68 92.22C234.58 95.15 237.84 99.05 237.85 103.2H237.86Z" fill="white"/>
<path d="M218.921 109.37C215.601 111.02 211.191 111.92 206.501 111.92C201.851 111.92 197.471 111.01 194.181 109.37C190.891 107.73 189.051 105.54 189.061 103.21H189.031C189.031 100.9 190.841 98.7201 194.121 97.0801H194.151C194.151 97.0801 194.171 97.0801 194.191 97.0801L199.401 99.6701C197.501 100.62 196.441 101.88 196.431 103.21C196.431 104.56 197.481 105.83 199.401 106.78C201.301 107.73 203.841 108.25 206.531 108.25C209.251 108.25 211.801 107.73 213.721 106.78C215.641 105.83 216.691 104.56 216.691 103.21C216.691 101.87 215.631 100.61 213.721 99.6701L218.931 97.0801C222.221 98.7201 224.041 100.89 224.051 103.2C224.061 105.53 222.241 107.73 218.931 109.37H218.921Z" fill="white"/>
<path d="M174.64 87.3801L179.85 89.9701C172.7 93.5201 168.76 98.2301 168.76 103.25C168.76 108.26 172.68 112.96 179.8 116.51L179.85 116.48C186.97 120.02 196.44 121.97 206.51 121.98C216.61 121.98 226.1 120.03 233.25 116.48C240.39 112.93 244.32 108.21 244.31 103.19C244.31 98.1801 240.37 93.4801 233.25 89.9401L238.46 87.3501C246.97 91.5801 251.66 97.2001 251.68 103.19C251.69 109.19 247 114.83 238.46 119.07C229.93 123.31 218.58 125.64 206.51 125.64C194.5 125.64 183.21 123.31 174.7 119.1L174.65 119.13C174.65 119.13 174.63 119.12 174.62 119.11C166.1 114.87 161.4 109.24 161.4 103.25C161.4 97.2501 166.1 91.6101 174.65 87.3801H174.64Z" fill="white"/>
<path d="M206.441 131.69C191.891 131.69 177.341 128.92 166.261 123.38C155.471 117.99 149.531 110.8 149.531 103.14C149.531 95.4798 155.471 88.2898 166.261 82.8998C188.421 71.8198 224.471 71.8198 246.621 82.8998C257.411 88.2898 263.351 95.4798 263.351 103.14C263.351 110.8 257.411 117.99 246.621 123.38C235.541 128.92 220.991 131.69 206.441 131.69ZM206.441 75.0298C191.961 75.0298 177.481 77.7898 166.461 83.2998C155.831 88.6098 149.981 95.6598 149.981 103.14C149.981 110.62 155.831 117.67 166.461 122.98C188.501 134 224.371 134 246.421 122.98C257.051 117.67 262.901 110.62 262.901 103.14C262.901 95.6598 257.051 88.6098 246.421 83.2998C235.791 77.9898 220.921 75.0298 206.441 75.0298Z" fill="#1E4AB3"/>

<path d="M408.62 98.9701L213.98 1.65007C209.59 -0.539932 202.45 -0.539932 198.07 1.65007L3.38 98.9901C1.2 100.08 0 101.55 0 103.12C0 103.38 0.1 130.86 0.1 130.86C0.1 132.71 1.15 134.14 3.45 135.29L198.09 232.61C200.28 233.71 203.17 234.26 206.05 234.26C208.93 234.26 211.81 233.71 214.01 232.61L408.7 135.27C410.95 134.15 412 132.63 412 130.49V103.35C412 103.27 412.01 103.18 412.01 103.1C412.01 101.53 410.81 100.06 408.63 98.9701H408.62ZM411.51 103.52C411.31 104.76 410.23 105.92 408.42 106.83L212.87 204.6C209.54 206.24 202.46 206.24 199.08 204.6L3.58 106.84C1.91 106 0.86 104.95 0.55 103.82C0.49 103.59 0.45 103.35 0.45 103.11C0.45 103.09 0.45 103.07 0.45 103.06C0.48 101.69 1.59 100.38 3.58 99.3901L198.27 2.05007C202.55 -0.0899317 209.5 -0.0899317 213.78 2.05007L408.42 99.3701C410.42 100.37 411.53 101.68 411.55 103.06C411.55 103.07 411.55 103.08 411.55 103.09C411.55 103.23 411.54 103.37 411.51 103.51V103.52ZM411.54 130.49C411.54 131.71 411.22 133.5 408.49 134.86L213.8 232.2C209.52 234.34 202.57 234.34 198.29 232.2L3.65 134.88C1.53 133.82 0.4 132.37 0.55 130.87V111.67C0.55 108.98 3.38 107.24 5.78 108.44L198.02 204.57C200.21 205.67 203.1 206.22 205.98 206.22C208.86 206.22 211.74 205.67 213.94 204.57L398.79 112.14C404.65 109.21 411.54 113.47 411.54 120.02V130.49Z" fill="#1E4AB3"/>
</g>
<defs>
<clipPath id="clip0_3216_93733">
<rect width="412" height="234.25" fill="white"/>
</clipPath>
</defs>
</svg>