<svg xmlns="http://www.w3.org/2000/svg" width="412" height="235" viewBox="0 0 412 235" fill="none">
<g clip-path="url(#clip0_security)">
<!-- Main platform base -->
<path d="M0.320468 130.88C0.170468 132.39 1.24047 133.93 3.55047 135.09L198.19 232.41C202.53 234.58 209.56 234.58 213.9 232.41L408.59 135.07C411.09 133.82 411.76 132.2 411.76 130.5V103.3H376.12L213.95 22.1998C209.61 20.0298 202.58 20.0298 198.24 22.1998L36.0605 103.29H0.320468" fill="#2C66FF"/>
<path d="M399.111 111.93L239.471 191.75L222.311 200.3C221.771 200.57 221.251 200.88 220.741 201.2L215.221 203.95C209.341 206.88 205.731 213 206.011 219.57C206.341 227.21 214.441 231.97 221.281 228.54L243.301 217.5L401.871 138.22C402.291 138.01 402.651 137.79 402.961 137.56L408.961 134.56C411.691 133.19 412.011 131.41 412.011 130.19V120.08C412.011 113.43 405.081 109.09 399.121 111.92L399.111 111.93Z" fill="#1E4AB3"/>
<path d="M198.12 204.37L3.47961 107.05C-0.860391 104.88 -0.860391 101.36 3.47961 99.1902L198.17 1.85016C202.51 -0.319844 209.54 -0.319844 213.88 1.85016L408.52 99.1702C412.86 101.34 412.86 104.86 408.52 107.03L213.83 204.37C209.49 206.54 202.46 206.54 198.12 204.37Z" fill="#D9E6FF"/>

<!-- Shield body - main with balanced isometric perspective -->
<path d="M206 55 L175 68 L175 92 Q175 113 206 130 Q237 113 237 92 L237 68 Z" fill="#2C66FF"/>

<!-- Shield left side (darker) -->
<path d="M206 55 L175 68 L175 92 Q175 113 206 130 L206 55 Z" fill="#1E4AB3"/>

<!-- Shield right side (lighter) -->
<path d="M206 55 L237 68 L237 92 Q237 113 206 130 L206 55 Z" fill="#4169E1"/>

<!-- Shield top face -->
<path d="M206 55 L175 68 L206 62 L237 68 Z" fill="#D9E6FF"/>

<!-- Inner shield detail -->
<path d="M206 68 L186 78 L186 95 Q186 107 206 118 Q226 107 226 95 L226 78 Z" fill="#4169E1"/>

<!-- Inner shield left (darker) -->
<path d="M206 68 L186 78 L186 95 Q186 107 206 118 L206 68 Z" fill="#2C66FF"/>

<!-- Inner shield right (lighter) -->
<path d="M206 68 L226 78 L226 95 Q226 107 206 118 L206 68 Z" fill="#D9E6FF"/>

<!-- Lock/keyhole detail in center -->
<ellipse cx="206" cy="92" rx="7" ry="4.5" fill="#1E4AB3"/>
<rect x="202.5" y="92" width="7" height="16" rx="1" fill="#1E4AB3"/>
<path d="M202.5 108 L206 113 L209.5 108 Z" fill="#1E4AB3"/>

<!-- Checkmark on shield -->
<path d="M196 86 L202 93 L218 76" stroke="#D9E6FF" stroke-width="3" stroke-linecap="round" stroke-linejoin="round" fill="none"/>

<!-- Security badges/indicators around shield -->
<!-- Top badge -->
<circle cx="206" cy="45" r="7" fill="#2C66FF"/>
<circle cx="206" cy="45" r="4.5" fill="#D9E6FF"/>

<!-- Left badge -->
<circle cx="165" cy="80" r="6" fill="#2C66FF"/>
<circle cx="165" cy="80" r="3.5" fill="#D9E6FF"/>

<!-- Right badge -->
<circle cx="247" cy="80" r="6" fill="#2C66FF"/>
<circle cx="247" cy="80" r="3.5" fill="#D9E6FF"/>

<!-- Outline -->
<path d="M408.62 98.9701L213.98 1.65007C209.59 -0.539932 202.45 -0.539932 198.07 1.65007L3.38 98.9901C1.2 100.08 0 101.55 0 103.12C0 103.38 0.1 130.86 0.1 130.86C0.1 132.71 1.15 134.14 3.45 135.29L198.09 232.61C200.28 233.71 203.17 234.26 206.05 234.26C208.93 234.26 211.81 233.71 214.01 232.61L408.7 135.27C410.95 134.15 412 132.63 412 130.49V103.35C412 103.27 412.01 103.18 412.01 103.1C412.01 101.53 410.81 100.06 408.63 98.9701H408.62ZM411.51 103.52C411.31 104.76 410.23 105.92 408.42 106.83L212.87 204.6C209.54 206.24 202.46 206.24 199.08 204.6L3.58 106.84C1.91 106 0.86 104.95 0.55 103.82C0.49 103.59 0.45 103.35 0.45 103.11C0.45 103.09 0.45 103.07 0.45 103.06C0.48 101.69 1.59 100.38 3.58 99.3901L198.27 2.05007C202.55 -0.0899317 209.5 -0.0899317 213.78 2.05007L408.42 99.3701C410.42 100.37 411.53 101.68 411.55 103.06C411.55 103.07 411.55 103.08 411.55 103.09C411.55 103.23 411.54 103.37 411.51 103.51V103.52ZM411.54 130.49C411.54 131.71 411.22 133.5 408.49 134.86L213.8 232.2C209.52 234.34 202.57 234.34 198.29 232.2L3.65 134.88C1.53 133.82 0.4 132.37 0.55 130.87V111.67C0.55 108.98 3.38 107.24 5.78 108.44L198.02 204.57C200.21 205.67 203.1 206.22 205.98 206.22C208.86 206.22 211.74 205.67 213.94 204.57L398.79 112.14C404.65 109.21 411.54 113.47 411.54 120.02V130.49Z" fill="#1E4AB3"/>
</g>
<defs>
<clipPath id="clip0_security">
<rect width="412" height="234.25" fill="white"/>
</clipPath>
</defs>
</svg>