<svg width="108" height="20" viewBox="0 0 108 20" fill="none" xmlns="http://www.w3.org/2000/svg">
<path d="M29.4346 4.86822C30.6353 4.86822 31.8507 5.15009 32.7186 5.62939V7.60324C31.8647 7.01111 30.7218 6.71502 29.5931 6.72911C28.4937 6.74323 27.9438 7.03911 27.9438 7.64553C27.9438 9.35154 33.4856 8.71712 33.4856 12.2276C33.4856 14.4411 31.6627 15.1319 29.5355 15.1319C28.1321 15.1319 26.8299 14.8077 25.7885 14.2437V12.2276C26.9458 12.9749 28.219 13.2709 29.3766 13.2709C30.5484 13.2709 31.2719 13.0309 31.2719 12.3264C31.2719 10.4794 25.7302 11.1703 25.7302 7.67374C25.7306 5.77052 27.4379 4.86822 29.4346 4.86822Z" fill="black"/>
<path d="M45.6104 5.06597V14.9348H43.4403V8.85837L40.7631 12.8202H39.5046L36.8279 8.84429V14.9348H34.6576V5.06597H36.6686L40.1412 10.1978L43.5991 5.06597H45.6104Z" fill="black"/>
<path d="M46.5449 14.9348L50.6829 5.06597H53.0267L57.1504 14.9348H54.9079L54.1696 13.0879H49.5395L48.7879 14.9348H46.5449ZM50.22 11.3398H53.49L52.0721 7.80107C51.9996 7.60357 51.9271 7.4062 51.8546 7.02557C51.7829 7.4062 51.7104 7.60357 51.6233 7.80107L50.22 11.3398Z" fill="black"/>
<path d="M58.0846 14.9348V5.06597H62.2513C64.2188 5.06597 66.2734 5.78497 66.2734 8.28049C66.2734 9.97221 65.2897 10.8322 64.0597 11.2128L67.0834 14.9348H64.5809L61.8467 11.4807H60.255V14.9348H58.0846ZM60.255 9.71838H62.3526C63.2642 9.71838 64.0601 9.32371 64.0601 8.32258C64.0601 7.30757 63.2642 6.92698 62.3526 6.92698H60.255V9.71838Z" fill="black"/>
<path d="M75.5014 5.06597V6.96919H72.391V14.9348H70.2351V6.96919H67.1247V5.06597H75.5014Z" fill="black"/>
<path d="M78.6669 5.06597V13.0315H83.5273V14.9348H76.4964V5.06597H78.6669Z" fill="black"/>
<path d="M87.1319 5.06597V14.9348H84.9615V5.06597H87.1319Z" fill="black"/>
<path d="M88.9019 14.9348V5.06597H90.9419L95.6587 11.5089C95.6295 11.1001 95.6153 10.6066 95.6153 10.1554V5.06597H97.7853V14.9348H95.7457L91.0286 8.49187C91.0578 8.90071 91.072 9.39421 91.072 9.84538V14.9348H88.9019Z" fill="black"/>
<path d="M104.561 4.86822C105.646 4.86822 106.731 5.0938 107.672 5.5026V7.51874C106.905 7.02523 105.877 6.75731 104.85 6.75731C103.042 6.75731 101.262 7.68732 101.262 10C101.262 12.6224 103.245 13.285 104.735 13.285C105.169 13.285 105.545 13.215 105.849 13.1017V9.57713H107.918V14.4693C106.905 14.8922 105.747 15.1319 104.619 15.1319C101.783 15.1319 99.0487 13.6234 99.0487 10C99.0487 6.41902 101.783 4.86822 104.561 4.86822Z" fill="black"/>
<path d="M8.41681 12.8165C8.98111 12.8165 9.43853 12.3707 9.43853 11.8209C9.43853 11.271 8.98111 10.8253 8.41681 10.8253C7.85252 10.8253 7.39506 11.271 7.39506 11.8209C7.39506 12.3707 7.85252 12.8165 8.41681 12.8165Z" fill="black"/>
<path d="M18.6975 17.3562C18.5866 17.3561 18.4777 17.3284 18.3809 17.2757C18.2841 17.2231 18.2027 17.1473 18.1443 17.0554C18.086 16.9636 18.0527 16.8587 18.0476 16.7508C18.0425 16.6429 18.0656 16.5355 18.115 16.4388C20.1778 12.3996 19.3628 7.54053 16.0863 4.34784C12.7973 1.1432 7.79764 0.355296 3.64452 2.38731C3.49018 2.46283 3.31137 2.47552 3.14744 2.42257C2.9835 2.36963 2.84786 2.2554 2.77036 2.10501C2.69285 1.95462 2.67984 1.78038 2.73417 1.62064C2.7885 1.46089 2.90573 1.32872 3.06007 1.2532C7.71593 -1.02471 13.3207 -0.141709 17.0073 3.45002C20.6801 7.02894 21.5939 12.4758 19.2811 17.0038C19.2272 17.1097 19.1439 17.1988 19.0409 17.261C18.9377 17.3233 18.8188 17.3563 18.6975 17.3562Z" fill="black"/>
<path d="M8.41915 15.4405C6.36338 15.4405 4.69079 13.8105 4.69079 11.8076C4.69079 9.80471 6.36359 8.1747 8.41915 8.1747C10.4747 8.1747 12.1474 9.80471 12.1474 11.8076C12.1474 13.8105 10.4748 15.4405 8.41915 15.4405ZM8.41915 9.44379C7.08143 9.44379 5.99363 10.5042 5.99363 11.8076C5.99363 13.111 7.08143 14.1715 8.41944 14.1715C9.75745 14.1715 10.8452 13.1114 10.8452 11.8076C10.8452 10.5038 9.75666 9.44379 8.41915 9.44379Z" fill="black"/>
<path d="M8.41852 18.1683C7.75773 18.1689 7.10068 18.0717 6.46988 17.8799C6.38692 17.8552 6.3098 17.8148 6.24292 17.7609C6.17605 17.7071 6.12076 17.6409 6.08026 17.5661C6.03975 17.4914 6.01484 17.4096 6.00692 17.3254C5.999 17.2413 6.00825 17.1564 6.03413 17.0757C6.06001 16.995 6.10201 16.9201 6.15771 16.8553C6.21342 16.7906 6.28172 16.7371 6.35872 16.6982C6.43567 16.6592 6.5198 16.6355 6.60626 16.6283C6.69268 16.6211 6.77972 16.6307 6.8623 16.6565C7.3661 16.8095 7.89081 16.887 8.41852 16.8865C11.2928 16.8865 13.6313 14.6078 13.6313 11.8069C13.6313 9.00612 11.2928 6.7274 8.41852 6.7274C5.54421 6.7274 3.2052 9.00604 3.2052 11.8074C3.20472 12.3226 3.28458 12.8348 3.44206 13.3266C3.49267 13.4884 3.47558 13.6631 3.39451 13.8127C3.31344 13.9623 3.17497 14.0746 3.00929 14.1251C2.84361 14.1756 2.66416 14.1602 2.51006 14.0823C2.35596 14.0045 2.23971 13.8703 2.18666 13.7093C1.98928 13.0937 1.88914 12.4524 1.88966 11.8074C1.88966 8.29974 4.81837 5.44601 8.41811 5.44601C12.0178 5.44601 14.9462 8.29974 14.9462 11.8074C14.9462 15.3152 12.0182 18.1683 8.41852 18.1683Z" fill="black"/>
<path d="M12.3923 20C12.2447 20.0001 12.1014 19.9518 11.9854 19.8629C11.8694 19.774 11.7874 19.6497 11.7527 19.5099C11.718 19.3701 11.7325 19.223 11.7939 19.0922C11.8553 18.9615 11.96 18.8547 12.0913 18.7889C14.7912 17.4375 16.4684 14.7622 16.4684 11.8071C16.4684 7.48203 12.8573 3.96321 8.41881 3.96321C5.37671 3.96321 2.62749 5.60481 1.2437 8.24724C1.20445 8.3222 1.15043 8.38891 1.08472 8.44358C1.01901 8.4982 0.942899 8.5397 0.860736 8.56566C0.778573 8.59162 0.691964 8.60158 0.605851 8.59495C0.519742 8.58829 0.43582 8.5652 0.358873 8.52695C0.281927 8.4887 0.213465 8.43604 0.157397 8.37204C0.101329 8.30799 0.0587525 8.23383 0.0320985 8.15378C0.00544425 8.0737 -0.00476558 7.98932 0.00205193 7.90541C0.00886944 7.82149 0.0325808 7.7397 0.0718322 7.66474C1.6816 4.59092 4.87991 2.6815 8.41881 2.6815C13.5826 2.6815 17.7837 6.77511 17.7837 11.8071C17.7837 15.245 15.8329 18.3571 12.6923 19.9291C12.5995 19.9757 12.4967 20 12.3923 20Z" fill="black"/>
</svg>
