<svg width="412" height="221" viewBox="0 0 412 221" fill="none" xmlns="http://www.w3.org/2000/svg">
<g clip-path="url(#clip0_3216_93758)">
<g opacity="0.8">
<path d="M408.52 107.012L213.83 204.352C209.49 206.522 202.46 206.522 198.12 204.352L3.48047 107.042C1.67047 106.132 0.620468 104.992 0.320468 103.812V117.062C0.170468 118.572 1.24047 120.112 3.55047 121.272L198.19 218.592C202.53 220.762 209.56 220.762 213.9 218.592L408.59 121.252C411.09 120.002 411.76 118.382 411.76 116.682V103.292C411.67 104.652 410.6 105.992 408.52 107.032V107.012ZM411.54 116.672C411.54 117.892 411.22 119.682 408.49 121.042L222.89 213.842L220.59 214.992C220.59 214.992 220.59 214.992 220.58 214.992L215.62 217.472L213.32 218.622C212.19 218.922 210.96 218.952 209.65 218.462C207.19 217.552 205.45 215.242 205.42 212.622C205.42 212.492 205.42 212.352 205.42 212.222C205.53 210.012 206.92 208.062 208.9 207.072L210.14 206.452L399.13 111.962C399.13 111.962 399.15 111.962 399.16 111.952L406.39 108.332C408.77 107.222 411.52 108.952 411.52 111.602V116.672H411.54Z" fill="#F8FF2C"/>
<path d="M406.4 108.333L399.17 111.953C399.17 111.953 399.15 111.953 399.14 111.963L210.15 206.453L208.91 207.073C206.93 208.063 205.54 210.013 205.43 212.223C205.43 212.353 205.43 212.493 205.43 212.623C205.46 215.243 207.2 217.553 209.66 218.463C210.97 218.953 212.21 218.923 213.33 218.623L215.63 217.473L220.59 214.993C220.59 214.993 220.59 214.993 220.6 214.993L222.9 213.843L408.5 121.043C411.23 119.673 411.55 117.893 411.55 116.673V111.603C411.55 108.953 408.8 107.223 406.42 108.333H406.4Z" fill="#CECA2D"/>
<path d="M36.0593 103.282L198.239 22.1925C202.579 20.0225 209.609 20.0225 213.949 22.1925L376.119 103.282H411.749C411.849 101.792 410.779 100.292 408.509 99.1625L213.879 1.84247C209.539 -0.327534 202.509 -0.327534 198.169 1.84247L3.47926 99.1825C0.949258 100.442 -0.0907426 102.162 0.319257 103.812V103.282H36.0593Z" fill="#FEFFD9"/>
<path d="M3.48031 107.042L198.12 204.362C202.46 206.532 209.49 206.532 213.83 204.362L408.52 107.022C410.59 105.982 411.66 104.642 411.76 103.282H376.13L213.95 22.1924C209.61 20.0224 202.58 20.0224 198.24 22.1924L36.0603 103.282H0.320312V103.812C0.620313 104.992 1.66031 106.132 3.48031 107.042Z" fill="#FEFFD9"/>
<path d="M408.62 98.9625L213.98 1.6425C209.59 -0.5475 202.45 -0.5475 198.07 1.6425L3.38 98.9825C1.2 100.072 0 101.543 0 103.113C0 103.373 0.1 117.043 0.1 117.043C0.1 118.893 1.15 120.323 3.45 121.473L198.09 218.792C200.28 219.893 203.17 220.442 206.05 220.442C208.93 220.442 211.81 219.893 214.01 218.792L408.7 121.452C410.95 120.332 412 118.812 412 116.673V103.342C412 103.262 412.01 103.173 412.01 103.092C412.01 101.522 410.81 100.052 408.63 98.9625H408.62ZM411.51 103.512C411.31 104.752 410.23 105.912 408.42 106.823L212.87 204.592C209.54 206.232 202.46 206.232 199.08 204.592L3.58 106.832C1.91 105.993 0.86 104.942 0.55 103.812C0.49 103.582 0.45 103.342 0.45 103.103C0.45 103.083 0.45 103.062 0.45 103.052C0.48 101.682 1.59 100.372 3.58 99.3825L198.27 2.0425C202.55 -0.0975001 209.5 -0.0975001 213.78 2.0425L408.42 99.3625C410.42 100.363 411.53 101.673 411.55 103.052C411.55 103.062 411.55 103.072 411.55 103.082C411.55 103.222 411.54 103.363 411.51 103.503V103.512ZM411.54 116.673C411.54 117.893 411.22 119.683 408.49 121.043L213.8 218.382C209.52 220.522 202.57 220.522 198.29 218.382L3.65 121.062C1.53 120.003 0.4 118.552 0.55 117.052V111.653C0.55 108.963 3.38 107.223 5.78 108.423L198.02 204.552C200.21 205.652 203.1 206.202 205.98 206.202C208.86 206.202 211.74 205.652 213.94 204.552L406.31 108.363C408.71 107.163 411.54 108.912 411.54 111.592V116.662V116.673Z" fill="black"/>
<path d="M186.01 102.603L183.9 103.673L193.96 115.443L196.16 114.323L192.86 110.633L200.05 106.973L207.58 108.513L209.9 107.333L186.26 102.653L186.01 102.603ZM191.68 109.243L187.57 104.493L197.22 106.423L191.68 109.243Z" fill="black"/>
<path d="M217.351 91.4224C213.991 93.1324 214.161 95.6624 217.761 97.4324C221.361 99.2024 226.421 99.2424 229.781 97.5324C233.161 95.8124 233.001 93.2824 229.391 91.5124C225.781 89.7424 220.721 89.7024 217.341 91.4224H217.351ZM227.961 96.6324C225.741 97.7624 222.671 97.6424 219.961 96.3124C217.251 94.9824 216.951 93.4524 219.171 92.3224C221.391 91.1924 224.491 91.3024 227.201 92.6324C229.911 93.9624 230.201 95.5024 227.961 96.6424V96.6324Z" fill="black"/>
<path d="M238.6 80.6125C235.22 82.3325 235.38 84.8625 238.99 86.6325C242.6 88.4025 247.66 88.4425 251.04 86.7225C254.42 85.0025 254.23 82.4825 250.63 80.7125C247.03 78.9425 241.97 78.9025 238.61 80.6125H238.6ZM249.21 85.8225C246.97 86.9625 243.89 86.8425 241.18 85.5125C238.47 84.1825 238.18 82.6425 240.42 81.5025C242.64 80.3725 245.71 80.4925 248.42 81.8225C251.13 83.1525 251.43 84.6825 249.21 85.8125V85.8225Z" fill="black"/>
<path d="M236.921 93.5924L239.041 92.5124L222.161 84.2124L220.031 85.2924L236.921 93.5924Z" fill="black"/>
<path d="M241.16 91.4325L243.28 90.3525L226.39 82.0625L224.27 83.1425L241.16 91.4325Z" fill="black"/>
<path d="M211.659 104.863C213.459 104.993 215.599 104.753 217.339 103.873C220.569 102.233 220.239 99.9026 216.519 98.0726C212.799 96.2426 208.129 96.1226 204.899 97.7626C203.169 98.6426 202.719 99.7226 203.029 100.633L201.429 99.8426L199.309 100.923L215.569 108.913L217.689 107.833L211.659 104.873V104.863ZM206.909 102.623C204.539 101.463 204.399 99.8826 206.569 98.7826C208.699 97.7026 211.599 97.8526 214.319 99.1826C217.039 100.513 217.389 101.963 215.259 103.053C213.129 104.143 209.939 104.113 207.569 102.953L206.909 102.633V102.623Z" fill="black"/>
<path d="M167.521 117.592L159.761 113.782C159.391 113.942 159.031 114.102 158.681 114.282C157.841 114.712 157.131 115.172 156.531 115.662L166.301 118.142C166.851 118.282 166.671 118.692 166.061 118.712L154.431 118.992C154.321 119.782 154.461 120.592 154.851 121.362L166.611 119.492C168.251 119.232 168.741 118.192 167.521 117.592Z" fill="black"/>
<path d="M171.179 121.472L178.899 125.262C179.279 125.102 179.649 124.932 179.999 124.752C180.829 124.332 181.529 123.872 182.119 123.392L172.379 120.922C171.829 120.782 172.009 120.372 172.619 120.352L184.239 120.072C184.359 119.282 184.229 118.472 183.839 117.702L172.079 119.572C170.439 119.832 169.949 120.872 171.169 121.472H171.179Z" fill="black"/>
<path d="M171 117.893L170.44 112.063C168.85 112.003 167.24 112.073 165.68 112.273L169.43 118.173C169.95 118.993 172.03 119.243 173.23 118.623L180.84 114.743C180.52 114.553 180.18 114.363 179.82 114.193C178.98 113.783 178.06 113.423 177.09 113.133L172.13 118.023C171.85 118.303 171.02 118.213 170.99 117.903L171 117.893Z" fill="black"/>
<path d="M165.471 120.453L157.881 124.323C158.191 124.503 158.521 124.683 158.871 124.853C159.721 125.273 160.651 125.633 161.631 125.923L166.571 121.053C166.851 120.773 167.681 120.863 167.711 121.173L168.271 126.973C169.861 127.033 171.461 126.963 173.011 126.763L169.281 120.903C168.761 120.083 166.681 119.833 165.481 120.453H165.471Z" fill="black"/>
</g>
</g>
<defs>
<clipPath id="clip0_3216_93758">
<rect width="412" height="220.44" fill="white"/>
</clipPath>
</defs>
</svg>
